<?xml version="1.0" standalone="no"?><!DOCTYPE svg PUBLIC "-//W3C//DTD SVG 1.1//EN" "http://www.w3.org/Graphics/SVG/1.1/DTD/svg11.dtd"><svg t="1704549631862" class="icon" viewBox="0 0 1024 1024" version="1.1" xmlns="http://www.w3.org/2000/svg" p-id="8033" xmlns:xlink="http://www.w3.org/1999/xlink" width="200" height="200"><path d="M102.4 276.514133V39.185067a37.546667 37.546667 0 0 1 37.546667-37.546667c7.168 0.443733 7.168 0.443733 13.960533 2.6624L313.787733 68.266667h396.424534L870.0928 4.3008a37.546667 37.546667 0 0 1 48.810667 20.923733c2.2528 6.826667 2.2528 6.826667 2.696533 13.960534V276.48A238.148267 238.148267 0 0 1 989.866667 443.733333a238.421333 238.421333 0 0 1-85.333334 183.057067C902.485333 846.506667 723.6608 1024 503.466667 1024 281.941333 1024 102.4 844.458667 102.4 622.933333v-11.9808A238.148267 238.148267 0 0 1 34.133333 443.733333c0-65.092267 26.043733-124.1088 68.266667-167.2192z m68.266667-48.708266a238.933333 238.933333 0 0 1 271.803733 384.443733L512 671.8464l69.5296-59.5968A238.933333 238.933333 0 0 1 853.333333 227.805867V84.548267L723.387733 136.533333H300.612267L170.666667 84.548267v143.2576z m2.116266 432.8448C191.522133 826.709333 332.424533 955.733333 503.466667 955.733333c168.482133 0 307.712-125.201067 329.728-287.607466A238.455467 238.455467 0 0 1 750.933333 682.666667a237.8752 237.8752 0 0 1-113.3568-28.535467L512 761.7536l-125.576533-107.6224A237.8752 237.8752 0 0 1 273.066667 682.666667c-35.84 0-69.802667-7.850667-100.283734-22.016zM273.066667 614.4A170.666667 170.666667 0 1 0 273.066667 273.066667a170.666667 170.666667 0 0 0 0 341.333333z m477.866666 0a170.666667 170.666667 0 1 0 0-341.333333 170.666667 170.666667 0 0 0 0 341.333333zM273.066667 477.866667a34.133333 34.133333 0 1 1 0-68.266667 34.133333 34.133333 0 0 1 0 68.266667z m477.866666 0a34.133333 34.133333 0 1 1 0-68.266667 34.133333 34.133333 0 0 1 0 68.266667z" fill="#595959" p-id="8034"></path></svg>