<?xml version="1.0" standalone="no"?><!DOCTYPE svg PUBLIC "-//W3C//DTD SVG 1.1//EN" "http://www.w3.org/Graphics/SVG/1.1/DTD/svg11.dtd"><svg t="1704249997248" class="icon" viewBox="0 0 1024 1024" version="1.1" xmlns="http://www.w3.org/2000/svg" p-id="1212" xmlns:xlink="http://www.w3.org/1999/xlink" width="200" height="200"><path d="M770.133333 966.485333A27.562667 27.562667 0 0 1 742.4 938.666667v-51.2a27.562667 27.562667 0 0 1 55.125333 0v51.2a27.562667 27.562667 0 0 1-27.392 27.818666z m0-332.288A27.477333 27.477333 0 0 1 742.4 606.634667v-33.536a27.562667 27.562667 0 0 1 55.125333 0v33.536a27.562667 27.562667 0 0 1-27.392 27.562666z m-142.165333 149.333334h-40.789333a27.562667 27.562667 0 0 1 0-55.125334h40.789333a27.562667 27.562667 0 0 1 0 55.125334z m325.802667 0H904.533333a27.562667 27.562667 0 0 1 0-55.125334h49.066667a27.562667 27.562667 0 1 1 0 55.125334zM899.413333 913.066667a27.392 27.392 0 0 1-19.456-8.533334l-30.549333-30.464a27.562667 27.562667 0 0 1 38.997333-38.997333l30.549334 30.549333a27.562667 27.562667 0 0 1-19.541334 47.445334zM674.816 688.213333a27.306667 27.306667 0 0 1-19.456-8.021333l-34.133333-34.133333a27.562667 27.562667 0 1 1 38.912-38.997334l34.133333 34.133334a27.562667 27.562667 0 0 1-19.456 47.018666z m-34.133333 224.682667a27.562667 27.562667 0 0 1-19.456-47.018667L659.2 827.733333a27.562667 27.562667 0 0 1 38.997333 38.997334L660.224 904.533333a27.392 27.392 0 0 1-19.456 8.533334zM861.866667 691.2a27.648 27.648 0 0 1-19.456-47.104l37.205333-37.205333a27.562667 27.562667 0 0 1 38.997333 38.997333l-37.205333 37.205333A27.562667 27.562667 0 0 1 861.866667 691.2z" fill="#333333" p-id="1213"></path><path d="M770.133333 910.592a154.624 154.624 0 1 1 154.624-154.624 154.794667 154.794667 0 0 1-154.624 154.624z m0-254.122667a99.584 99.584 0 1 0 99.498667 99.498667 99.584 99.584 0 0 0-99.498667-99.498667z" fill="#333333" p-id="1214"></path><path d="M770.133333 910.592a154.624 154.624 0 1 1 154.624-154.624 154.794667 154.794667 0 0 1-154.624 154.624z m0-254.122667a99.584 99.584 0 1 0 99.498667 99.498667 99.584 99.584 0 0 0-99.498667-99.498667z" fill="#333333" p-id="1215"></path><path d="M441.002667 889.429333a65.536 65.536 0 0 1-28.16-6.4L79.445333 722.602667A65.28 65.28 0 0 1 42.666667 664.064V282.88a65.194667 65.194667 0 0 1 36.778666-58.453333L412.842667 64a64.597333 64.597333 0 0 1 56.32 0l333.397333 160.426667a65.194667 65.194667 0 0 1 36.778667 58.453333v207.872a27.562667 27.562667 0 0 1-55.125334 0V282.88a9.728 9.728 0 0 0-5.546666-8.533333L445.269333 113.664a9.984 9.984 0 0 0-8.533333 0l-333.397333 160.426667a9.813333 9.813333 0 0 0-5.546667 8.533333v381.44a9.728 9.728 0 0 0 5.546667 8.533333l333.482666 160.426667a9.216 9.216 0 0 0 8.533334 0l59.136-28.416a27.562667 27.562667 0 0 1 23.893333 49.664L469.333333 882.944a64.512 64.512 0 0 1-28.16 6.485333z" fill="#333333" p-id="1216"></path><path d="M441.002667 501.077333a26.709333 26.709333 0 0 1-13.738667-3.754666L62.293333 286.72a27.562667 27.562667 0 0 1 27.562667-47.786667L454.826667 449.621333a27.562667 27.562667 0 0 1-13.824 51.2z" fill="#333333" p-id="1217"></path><path d="M441.002667 501.077333a27.562667 27.562667 0 0 1-13.738667-51.2L792.149333 238.933333a27.562667 27.562667 0 0 1 27.562667 47.701334L454.826667 497.322667a27.136 27.136 0 0 1-13.824 3.754666z" fill="#333333" p-id="1218"></path><path d="M441.002667 889.429333a27.562667 27.562667 0 0 1-27.562667-27.562666V473.514667a27.562667 27.562667 0 1 1 55.125333 0V861.866667a27.562667 27.562667 0 0 1-27.562666 27.562666z" fill="#333333" p-id="1219"></path></svg>