<?xml version="1.0" standalone="no"?><!DOCTYPE svg PUBLIC "-//W3C//DTD SVG 1.1//EN" "http://www.w3.org/Graphics/SVG/1.1/DTD/svg11.dtd"><svg t="1704250493105" class="icon" viewBox="0 0 1024 1024" version="1.1" xmlns="http://www.w3.org/2000/svg" p-id="910" xmlns:xlink="http://www.w3.org/1999/xlink" width="200" height="200"><path d="M825.856 781.312l89.088-51.712a24.32 24.32 0 0 1 24.576 41.984h-0.512l-89.088 51.2 89.088 51.712a24.6784 24.6784 0 0 1 8.704 33.28 24.1664 24.1664 0 0 1-32.768 8.704l-89.088-51.712V967.68a24.064 24.064 0 1 1-48.128 0v-102.912L688.64 916.48a24.32 24.32 0 1 1-24.576-41.984h0.512l89.088-51.712-89.088-51.712a24.6784 24.6784 0 0 1-8.704-33.28 24.1664 24.1664 0 0 1 32.768-8.704l89.088 51.712v-102.912a24.064 24.064 0 0 1 48.128 0v103.424zM101.888 26.112h820.736A96.6656 96.6656 0 0 1 1019.392 122.88v289.792a96.6656 96.6656 0 0 1-96.768 96.768H101.888A97.28 97.28 0 0 1 5.12 412.672V122.88A96.6656 96.6656 0 0 1 101.888 26.112z m0 48.64a48.0768 48.0768 0 0 0-48.128 48.128v289.792a48.0768 48.0768 0 0 0 48.128 48.128h820.736a48.0768 48.0768 0 0 0 48.128-48.128V122.88a48.0768 48.0768 0 0 0-48.128-48.128H101.888zM174.08 339.968h675.84a24.064 24.064 0 0 1 0 48.128H174.08a24.064 24.064 0 0 1 0-48.128z m-61.44 341.504a23.9104 23.9104 0 0 1-15.36-30.208 24.2688 24.2688 0 0 1 29.696-15.872c69.632 20.992 107.008 116.736 47.616 184.832-38.912 44.544-32.256 102.912 2.56 129.536a24.2688 24.2688 0 0 1 3.584 33.792 24.0128 24.0128 0 0 1-32.768 4.096c-56.32-43.52-66.56-133.632-9.216-199.68 33.792-38.912 11.776-94.72-26.112-106.496z m337.92 0a23.9104 23.9104 0 0 1-15.36-30.208 24.2688 24.2688 0 0 1 29.696-15.872c69.632 20.992 107.008 116.736 47.616 184.832-38.912 44.544-32.256 102.912 2.56 129.536a24.2688 24.2688 0 0 1 3.584 33.792 24.0128 24.0128 0 0 1-32.768 4.096c-56.32-43.52-66.56-133.632-9.216-199.68 33.792-38.912 11.776-94.72-26.112-106.496z m-168.96 4.608a24.1152 24.1152 0 1 1 14.336-46.08c69.632 20.992 107.008 116.736 47.616 184.832-38.912 44.544-32.256 102.912 2.56 129.536a24.064 24.064 0 0 1-29.696 37.888c-56.32-43.52-66.56-133.632-9.216-199.68 34.304-38.912 12.288-94.72-25.6-106.496z" fill="#040000" p-id="911"></path></svg>