<?xml version="1.0" standalone="no"?><!DOCTYPE svg PUBLIC "-//W3C//DTD SVG 1.1//EN" "http://www.w3.org/Graphics/SVG/1.1/DTD/svg11.dtd"><svg t="1704603776303" class="icon" viewBox="0 0 1024 1024" version="1.1" xmlns="http://www.w3.org/2000/svg" p-id="7726" xmlns:xlink="http://www.w3.org/1999/xlink" width="200" height="200"><path d="M216 216m-192 0a192 192 0 1 0 384 0 192 192 0 1 0-384 0Z" fill="#F7CA5D" p-id="7727"></path><path d="M216 428C99.2 428 4 332.8 4 216S99.2 4 216 4 428 99.2 428 216 332.8 428 216 428z m0-384C120.8 44 44 121.6 44 216S120.8 388 216 388 388 311.2 388 216 310.4 44 216 44z" p-id="7728"></path><path d="M216 216m-96 0a96 96 0 1 0 192 0 96 96 0 1 0-192 0Z" fill="#9D6324" p-id="7729"></path><path d="M808 216m-192 0a192 192 0 1 0 384 0 192 192 0 1 0-384 0Z" fill="#F7CA5D" p-id="7730"></path><path d="M808 428c-116.8 0-212-95.2-212-212S691.2 4 808 4s212 95.2 212 212-95.2 212-212 212z m0-384c-95.2 0-172 76.8-172 172s76.8 172 172 172 172-76.8 172-172S902.4 44 808 44z" p-id="7731"></path><path d="M808 216m-96 0a96 96 0 1 0 192 0 96 96 0 1 0-192 0Z" fill="#9D6324" p-id="7732"></path><path d="M52 558.4a460 440 0 1 0 920 0 460 440 0 1 0-920 0Z" fill="#F7CA5D" p-id="7733"></path><path d="M512 1018.4c-264.8 0-480-206.4-480-460s215.2-460 480-460 480 206.4 480 460-215.2 460-480 460z m0-880c-242.4 0-440 188.8-440 420s197.6 420 440 420 440-188.8 440-420c0-232-197.6-420-440-420z" p-id="7734"></path><path d="M313.6 468m-56 0a56 56 0 1 0 112 0 56 56 0 1 0-112 0Z" p-id="7735"></path><path d="M713.6 468m-56 0a56 56 0 1 0 112 0 56 56 0 1 0-112 0Z" p-id="7736"></path><path d="M272 764a240 160 0 1 0 480 0 240 160 0 1 0-480 0Z" fill="#FBE0A8" p-id="7737"></path><path d="M464 788.8c-14.4 0-28.8-5.6-42.4-17.6-4.8-4-5.6-12-1.6-16.8 4-4.8 12-5.6 16.8-1.6 12 9.6 22.4 13.6 32.8 12 19.2-4 31.2-28.8 32-28.8 3.2-5.6 10.4-8.8 16-5.6 5.6 3.2 8.8 10.4 5.6 16-0.8 1.6-17.6 35.2-48 41.6-4 0-8 0.8-11.2 0.8z" p-id="7738"></path><path d="M564.8 788.8c-3.2 0-7.2 0-10.4-0.8-31.2-6.4-47.2-40.8-48-41.6-3.2-5.6 0-12.8 5.6-16 5.6-3.2 12.8 0 16 5.6 0 0.8 12 24.8 32 28.8 10.4 2.4 20.8-1.6 32.8-12 4.8-4 12.8-3.2 16.8 1.6 4 4.8 3.2 12.8-1.6 16.8-14.4 11.2-28.8 17.6-43.2 17.6z" p-id="7739"></path><path d="M656 578.4a80 32 0 1 0 160 0 80 32 0 1 0-160 0Z" fill="#F3A28F" p-id="7740"></path><path d="M208 578.4a80 32 0 1 0 160 0 80 32 0 1 0-160 0Z" fill="#F3A28F" p-id="7741"></path><path d="M326.4 456.8m-12 0a12 12 0 1 0 24 0 12 12 0 1 0-24 0Z" fill="#FFFFFF" p-id="7742"></path><path d="M694.4 456.8m-12 0a12 12 0 1 0 24 0 12 12 0 1 0-24 0Z" fill="#FFFFFF" p-id="7743"></path><path d="M512.8 711.2m-32 0a32 32 0 1 0 64 0 32 32 0 1 0-64 0Z" fill="#9D6324" p-id="7744"></path></svg>