<?xml version="1.0" standalone="no"?><!DOCTYPE svg PUBLIC "-//W3C//DTD SVG 1.1//EN" "http://www.w3.org/Graphics/SVG/1.1/DTD/svg11.dtd"><svg t="1704603854417" class="icon" viewBox="0 0 1024 1024" version="1.1" xmlns="http://www.w3.org/2000/svg" p-id="11519" xmlns:xlink="http://www.w3.org/1999/xlink" width="200" height="200"><path d="M93.775562 748.572096a15.97629 15.97629 0 0 1 0-31.946832c20.011316 0 36.289371-16.283803 36.289371-36.289371a15.97629 15.97629 0 0 1 31.946832 0c-0.002874 37.622884-30.613319 68.236203-68.236203 68.236203z" fill="#5C6670" p-id="11520"></path><path d="M146.038349 691.435089a27.949167 27.949167 0 0 1-27.952041-27.952041c0-86.635233 70.483632-157.118865 157.118865-157.118865 15.435987 0 27.949167 12.516054 27.949167 27.954915 0 15.435987-12.51318 27.954915-27.949167 27.954915-55.809242 0-101.211909 45.399793-101.211909 101.211909a27.954915 27.954915 0 0 1-27.954915 27.949167z" fill="#333E48" p-id="11521"></path><path d="M93.775562 984.230275a15.97629 15.97629 0 0 1 0-31.946832c20.011316 0 36.289371-16.283803 36.289371-36.289371a15.97629 15.97629 0 0 1 31.946832 0c-0.002874 37.622884-30.613319 68.236203-68.236203 68.236203z" fill="#5C6670" p-id="11522"></path><path d="M146.038349 927.093269c-15.438861 0-27.952041-12.51318-27.952041-27.949167 0-86.638107 70.483632-157.118865 157.118865-157.118865 15.435987 0 27.949167 12.516054 27.949167 27.954915 0 15.435987-12.51318 27.954915-27.949167 27.954915-55.809242 0-101.211909 45.399793-101.211909 101.211909-0.002874 15.433113-12.516054 27.946293-27.954915 27.946293z" fill="#333E48" p-id="11523"></path><path d="M930.224438 748.572096a15.97629 15.97629 0 0 0 0-31.946832c-20.011316 0-36.289371-16.283803-36.289371-36.289371a15.97629 15.97629 0 0 0-31.946832 0c0.002874 37.622884 30.613319 68.236203 68.236203 68.236203z" fill="#5C6670" p-id="11524"></path><path d="M877.961651 691.435089a27.949167 27.949167 0 0 0 27.952041-27.952041c0-86.635233-70.483632-157.118865-157.118865-157.118865-15.435987 0-27.949167 12.516054-27.949167 27.954915 0 15.435987 12.51318 27.954915 27.949167 27.954915 55.809242 0 101.211909 45.399793 101.211909 101.211909a27.954915 27.954915 0 0 0 27.954915 27.949167z" fill="#333E48" p-id="11525"></path><path d="M930.224438 984.230275a15.97629 15.97629 0 0 0 0-31.946832c-20.011316 0-36.289371-16.283803-36.289371-36.289371a15.97629 15.97629 0 0 0-31.946832 0c0.002874 37.622884 30.613319 68.236203 68.236203 68.236203z" fill="#5C6670" p-id="11526"></path><path d="M877.961651 927.093269c15.438861 0 27.952041-12.51318 27.952041-27.949167 0-86.638107-70.483632-157.118865-157.118865-157.118865-15.435987 0-27.949167 12.516054-27.949167 27.954915 0 15.435987 12.51318 27.954915 27.949167 27.954915 55.809242 0 101.211909 45.399793 101.211909 101.211909 0.002874 15.433113 12.516054 27.946293 27.954915 27.946293z" fill="#333E48" p-id="11527"></path><path d="M150.51309 184.570838a15.97629 15.97629 0 0 0 0 31.946832c20.011316 0 36.289371 16.283803 36.289371 36.289371a15.97629 15.97629 0 0 0 31.946832 0c-0.002874-37.622884-30.610445-68.236203-68.236203-68.236203z" fill="#5C6670" p-id="11528"></path><path d="M202.775877 241.707845a27.949167 27.949167 0 0 0-27.952041 27.952041c0 86.638107 70.483632 157.118865 157.118865 157.118865 15.435987 0 27.952041-12.516054 27.952041-27.954915s-12.51318-27.954915-27.952041-27.954915c-55.809242 0-101.211909-45.399793-101.211909-101.211909a27.952041 27.952041 0 0 0-27.954915-27.949167z" fill="#333E48" p-id="11529"></path><path d="M873.48691 184.570838a15.97629 15.97629 0 0 1 0 31.946832c-20.011316 0-36.292245 16.283803-36.292245 36.289371a15.97629 15.97629 0 0 1-31.946832 0c0.005748-37.622884 30.616193-68.236203 68.239077-68.236203z" fill="#5C6670" p-id="11530"></path><path d="M821.224123 241.707845a27.949167 27.949167 0 0 1 27.952041 27.952041c0 86.638107-70.483632 157.118865-157.118865 157.118865-15.435987 0-27.952041-12.516054-27.952041-27.954915s12.51318-27.954915 27.952041-27.954915c55.809242 0 101.211909-45.399793 101.211909-101.211909a27.952041 27.952041 0 0 1 27.954915-27.949167z" fill="#333E48" p-id="11531"></path><path d="M542.488302 196.397144V166.600027h82.206475c38.786834 0 70.22785-31.443891 70.227851-70.230724V26.141452c0-14.432979-11.699852-26.13283-26.132831-26.13283s-26.13283 11.699852-26.13283 26.13283v33.208496c0 18.341551-14.866945 33.208496-33.208496 33.208496h-194.899816c-18.338677 0-33.208496-14.866945-33.208496-33.208496V26.141452A26.13283 26.13283 0 0 0 355.207329 0.008622a26.13283 26.13283 0 0 0-26.132831 26.13283V96.372177c0 38.78396 31.441017 70.230724 70.230725 70.230724h82.206475v29.797117c-112.785307 14.924424-199.84301 111.397189-199.843011 228.260631v40.30428c0 27.506579 22.301855 49.814181 49.811308 49.814181h361.037136c27.509453 0 49.811307-22.307602 49.811308-49.814181v-40.30428c0-116.866316-87.051956-213.339081-199.840137-228.263505z" fill="#333E48" p-id="11532"></path><path d="M715.014415 452.563833H308.985585c-30.940949 0-56.021914 25.080965-56.021914 56.021914v256.35637c0 143.0595 115.975392 259.034892 259.034892 259.034891s259.034892-115.972518 259.034892-259.034891v-256.35637c0.002874-30.940949-25.078091-56.021914-56.01904-56.021914z" fill="#ED9900" p-id="11533"></path><path d="M516.901522 989.107369V491.293188a99.223135 99.223135 0 0 1 44.505995-38.732229h-98.815034a99.188648 99.188648 0 0 1 44.505995 38.732229V989.107369a107.218465 107.218465 0 0 1-25.891419 32.984328c10.104809 1.201311 20.364812 1.885311 30.791504 1.885311s20.686695-0.684 30.791504-1.885311a107.175356 107.175356 0 0 1-25.888545-32.984328z" fill="#65513C" p-id="11534"></path></svg>