<?xml version="1.0" standalone="no"?><!DOCTYPE svg PUBLIC "-//W3C//DTD SVG 1.1//EN" "http://www.w3.org/Graphics/SVG/1.1/DTD/svg11.dtd"><svg t="1704604004785" class="icon" viewBox="0 0 1024 1024" version="1.1" xmlns="http://www.w3.org/2000/svg" p-id="13064" xmlns:xlink="http://www.w3.org/1999/xlink" width="200" height="200"><path d="M955.904 389.632c21.504 95.232-28.672 188.416-102.912 245.76-18.432 14.336-37.888 26.624-58.368 36.864-10.24 5.12-26.624 9.216-34.304 17.408-13.312 13.824 1.024 34.304 8.192 46.592 20.992 37.888 27.136 91.648 4.608 130.56-19.968 34.816-62.464 49.152-100.864 45.056-43.52-4.096-79.872-30.208-112.64-57.344-3.584 19.968-12.8 45.056-33.792 51.2-21.504 6.144-43.008-9.216-55.808-25.088-7.168-8.704-12.288-17.92-16.896-28.16-37.376 31.232-80.384 61.44-131.072 59.904-46.592-1.536-86.528-29.184-95.744-76.288-4.608-24.064-3.584-50.688 4.096-74.24 6.144-18.944 37.376-53.76 19.456-72.704-9.216-9.728-28.16-14.336-39.936-20.48-8.704-4.608-17.92-9.728-26.112-15.36-19.456-12.288-37.888-26.624-54.272-42.496C63.488 547.84 26.112 445.952 64.512 358.4c18.944-44.032 60.416-54.784 105.472-57.856 48.128-3.072 91.136 11.264 126.464 44.032 50.176 46.592 101.888 95.744 142.848 151.552 5.12-15.36 15.872-25.6 29.696-31.232-6.656-47.104-13.312-95.232-35.328-137.728-22.528-44.544-60.416-72.192-101.376-98.304-10.752-6.656-1.024-23.552 9.728-16.896 41.984 26.624 81.408 55.296 105.472 99.84 24.576 45.568 33.28 97.28 39.936 148.48 9.728-1.024 19.968-0.512 29.696 1.536 12.8-31.232 16.384-60.928 21.504-94.208 3.584-24.576 12.8-48.64 25.088-69.632 25.088-42.496 64.512-74.24 111.104-90.624 11.776-4.096 16.896 14.848 5.12 18.944-47.104 16.384-85.504 51.2-107.52 96.256-12.288 26.112-15.36 52.736-18.944 80.896-3.072 23.04-9.728 44.032-18.432 65.536 14.848 7.68 27.136 19.968 32.256 36.864 15.36-21.504 32.256-42.496 50.176-62.464 20.48-22.528 41.984-44.544 63.488-66.048 19.456-18.944 38.4-40.448 61.44-54.784 38.912-24.064 87.04-25.6 130.56-16.896 20.992 4.096 41.984 10.24 56.32 27.136 14.336 14.848 22.016 36.352 26.624 56.832z m-107.008 224.256c68.096-56.32 113.152-148.992 83.456-237.056-8.192-24.576-20.992-41.984-46.592-49.152-20.48-6.144-42.496-8.704-64-8.192-23.552 0.512-46.592 5.632-67.072 17.408-19.456 11.264-35.328 28.672-51.2 44.544-64 62.976-128 128.512-165.376 211.456-0.512 0.512-0.512 1.536-1.024 2.048 15.36 20.48 23.04 50.176 26.112 74.24 4.096 31.232 2.048 62.464 1.024 93.696-1.024 23.04-0.512 46.592-2.56 70.144 0.512 0.512 1.024 0.512 1.536 1.024 37.888 32.768 84.48 67.584 137.728 58.88 57.344-9.728 74.752-67.072 61.44-118.272-7.68-29.184-46.08-68.608-16.384-97.792 13.312-12.8 35.84-18.944 51.712-27.648 18.432-10.752 35.84-22.528 51.2-35.328z m-298.496-87.04c3.072-58.368-98.304-69.632-95.232-7.168 10.752 16.896 20.48 34.304 29.184 52.224 1.024-0.512 2.048-1.024 3.584-1.024 14.336-1.024 25.6 3.072 35.328 9.728 8.192-17.408 17.408-34.816 27.648-51.2-0.512-1.024-0.512-1.536-0.512-2.56z m-94.208 168.448c30.208-2.048 60.416-3.072 90.624-2.56-2.048-40.96-12.8-105.472-58.88-102.4h-1.536c-1.024 1.024-2.048 2.048-3.584 2.56-17.92 30.72-24.576 66.56-26.624 102.4z m89.6 70.144c0.512-17.92 1.536-35.328 1.536-53.248-30.72-0.512-60.928 0.512-91.648 2.56-0.512 10.752-0.512 21.504 0 32.256 0 6.656 0 13.312 0.512 19.456 29.184 1.024 58.368 0.512 87.552-1.536 0.512 0 1.024 0 2.048 0.512z m-1.536 36.352c0-5.632 0.512-11.264 0.512-17.408-0.512 0-1.024 0-1.536 0.512-28.672 1.536-57.856 2.048-86.528 1.536 1.024 14.336 3.584 28.16 7.168 41.984 6.144 20.992 28.16 69.632 57.344 58.368 26.112-11.264 22.016-62.464 23.04-84.992z m-108.544-67.072c0.512-52.224 3.584-108.032 31.744-154.112-41.472-87.552-114.688-157.696-184.832-223.232-34.816-32.256-77.824-42.496-124.928-36.864-24.064 3.072-51.2 7.68-66.048 28.16-12.288 16.384-17.92 37.888-20.992 57.856-13.824 92.672 43.008 177.664 117.76 227.328 16.896 11.264 34.816 20.992 52.736 29.184 14.848 7.168 28.16 13.824 31.744 30.72 3.584 17.92-4.608 34.304-12.8 49.152-11.776 20.992-16.896 41.984-16.896 66.048 0 49.152 31.744 83.456 81.408 83.968 47.104 0.512 87.04-30.72 121.344-59.904-9.728-30.72-10.24-65.536-10.24-98.304z" fill="#66A771" p-id="13065"></path><path d="M932.352 376.832c30.208 88.064-15.36 180.736-83.456 237.056-15.872 12.8-32.768 24.576-50.688 34.304-15.872 9.216-38.912 14.848-51.712 27.648-29.696 29.184 8.704 68.608 16.384 97.792 13.312 51.2-4.096 108.544-61.44 118.272-53.248 8.704-99.84-26.112-137.728-58.88-0.512-0.512-1.024-0.512-1.536-1.024 2.048-23.04 1.536-46.592 2.56-70.144 1.024-31.232 3.584-62.976-1.024-93.696-3.584-24.064-10.752-53.76-26.112-74.24 0.512-0.512 1.024-1.024 1.024-2.048 36.864-82.944 100.864-148.992 165.376-211.456 15.872-15.872 31.744-32.768 51.2-44.544 20.48-11.776 43.52-16.896 67.072-17.408 21.504-0.512 43.52 2.048 64 8.192 25.088 8.192 37.376 25.6 46.08 50.176z" fill="#BEDEBC" p-id="13066"></path><path d="M455.168 519.68c-3.072-62.464 98.304-51.2 95.232 7.168 0 1.024 0 2.048 0.512 2.56-10.24 16.384-19.456 33.28-27.648 51.2-9.728-6.656-20.992-10.752-35.328-9.728-1.024 0-2.56 0.512-3.584 1.024-8.704-18.432-18.432-35.84-29.184-52.224z" fill="#F1A73B" p-id="13067"></path><path d="M546.816 692.736c-30.208-0.512-60.416 0.512-90.624 2.56 2.048-35.84 8.704-71.68 26.624-102.4 1.024-0.512 2.56-1.536 3.584-2.56h1.536c45.568-3.072 56.832 61.44 58.88 102.4zM546.816 712.192c0 17.92-0.512 35.328-1.536 53.248h-2.048c-29.184 1.536-58.368 2.048-87.552 1.536 0-6.656-0.512-13.312-0.512-19.456v-32.256c30.72-2.56 61.44-3.584 91.648-3.072zM544.768 784.384c0 5.632-0.512 11.264-0.512 17.408-1.024 23.04 3.072 73.728-23.04 84.48-29.184 11.776-51.2-37.376-57.344-58.368-4.096-13.824-6.144-27.648-7.168-41.984 29.184 1.024 57.856 0.512 86.528-1.536h1.536z" fill="#D6395D" p-id="13068"></path><path d="M467.456 581.12c-28.16 45.568-31.232 101.376-31.744 154.112 0 32.256 0.512 67.072 9.728 98.816-34.304 29.184-73.728 59.904-121.344 59.904-49.664-0.512-81.408-34.816-81.408-83.968 0-24.064 5.12-45.056 16.896-66.048 8.192-14.848 16.896-31.232 12.8-49.152-3.584-17.408-16.896-24.064-31.744-30.72-18.432-8.704-36.352-18.432-52.736-29.184-74.752-49.664-131.584-134.144-117.76-227.328 3.072-19.968 8.704-41.472 20.992-57.856 14.848-20.48 41.984-25.088 66.048-28.16 46.592-5.632 89.6 4.608 124.928 36.864 70.656 64.512 143.872 134.656 185.344 222.72z" fill="#BEDEBC" p-id="13069"></path></svg>