<?xml version="1.0" standalone="no"?><!DOCTYPE svg PUBLIC "-//W3C//DTD SVG 1.1//EN" "http://www.w3.org/Graphics/SVG/1.1/DTD/svg11.dtd"><svg t="1704604068992" class="icon" viewBox="0 0 1024 1024" version="1.1" xmlns="http://www.w3.org/2000/svg" p-id="18381" xmlns:xlink="http://www.w3.org/1999/xlink" width="200" height="200"><path d="M901.9 513.6c-10.7-13.7-27-29.6-50.4-40.7-14.1-6.7-29.3-10.9-44.9-12.6-11.2-1.2-20.7 8.1-20.2 19.4 0.4 9.3 7.6 16.6 16.8 17.6 9.6 1.1 20.9 3.6 32.5 9.1 17.2 8.1 29.2 19.9 37 30 5.6 7.3 15.7 9.4 23.7 4.9 9.9-5.5 12.5-18.7 5.5-27.7zM826.7 569c-14.1-6.7-29.3-10.9-44.9-12.6-11.2-1.2-20.7 8.1-20.2 19.4 0.4 9.3 7.6 16.6 16.8 17.6 9.6 1.1 20.9 3.6 32.5 9.1 17.2 8.1 29.2 19.9 37 30 5.6 7.3 15.7 9.4 23.7 4.9 10-5.6 12.6-18.7 5.5-27.7-10.7-13.7-27-29.6-50.4-40.7zM783.4 680.4c-14.1-6.7-29.3-10.9-44.9-12.6-11.2-1.2-20.7 8.1-20.2 19.4 0.4 9.3 7.6 16.6 16.8 17.6 9.6 1.1 20.9 3.6 32.5 9.1 17.2 8.1 29.2 19.9 37 30 5.6 7.3 15.7 9.4 23.7 4.9 10-5.6 12.6-18.7 5.5-27.7-10.7-13.7-27-29.6-50.4-40.7z" fill="#004D40" p-id="18382"></path><path d="M176.9 857.9m-58.8 0a58.8 58.8 0 1 0 117.6 0 58.8 58.8 0 1 0-117.6 0Z" fill="#388E3C" p-id="18383"></path><path d="M266.7 879.5m-80.5 0a80.5 80.5 0 1 0 161 0 80.5 80.5 0 1 0-161 0Z" fill="#8BC34A" p-id="18384"></path><path d="M381.2 870.2m-89.8 0a89.8 89.8 0 1 0 179.6 0 89.8 89.8 0 1 0-179.6 0Z" fill="#388E3C" p-id="18385"></path><path d="M480.2 814.5m-102.1 0a102.1 102.1 0 1 0 204.2 0 102.1 102.1 0 1 0-204.2 0Z" fill="#8BC34A" p-id="18386"></path><path d="M557.6 743.4m-111.4 0a111.4 111.4 0 1 0 222.8 0 111.4 111.4 0 1 0-222.8 0Z" fill="#388E3C" p-id="18387"></path><path d="M635 659.8m-120.7 0a120.7 120.7 0 1 0 241.4 0 120.7 120.7 0 1 0-241.4 0Z" fill="#8BC34A" p-id="18388"></path><path d="M669 557.7m-130 0a130 130 0 1 0 260 0 130 130 0 1 0-260 0Z" fill="#388E3C" p-id="18389"></path><path d="M681.4 440m-142.4 0a142.4 142.4 0 1 0 284.8 0 142.4 142.4 0 1 0-284.8 0Z" fill="#8BC34A" p-id="18390"></path><path d="M690.7 294.6m-157.8 0a157.8 157.8 0 1 0 315.6 0 157.8 157.8 0 1 0-315.6 0Z" fill="#388E3C" p-id="18391"></path><path d="M451.9 504.9c7 5.9 17.3 5.8 24.2-0.3 9.6-8.5 23.6-17.7 42-22.4 12.4-3.2 23.9-3.6 33.6-2.8 9.2 0.8 17.7-5.1 19.8-14.1 2.6-10.9-5-21.9-16.2-22.8-15.6-1.3-31.4-0.1-46.5 3.8-25.1 6.5-44.1 19-57.2 30.4-8.5 7.4-8.4 20.8 0.3 28.2zM515.1 545.2c-25.1 6.5-44.1 19-57.2 30.4-8.6 7.5-8.5 20.9 0.2 28.3 7 5.9 17.3 5.8 24.2-0.3 9.6-8.5 23.6-17.7 42-22.4 12.4-3.2 23.9-3.6 33.6-2.8 9.2 0.8 17.7-5.1 19.8-14.1 2.6-10.9-5-21.9-16.2-22.8-15.5-1.5-31.3-0.2-46.4 3.7zM561.6 652.8c-15.6-1.3-31.4-0.1-46.5 3.8-25.1 6.5-44.1 19-57.2 30.4-8.6 7.5-8.5 20.9 0.2 28.3 7 5.9 17.3 5.8 24.2-0.3 9.6-8.5 23.6-17.7 42-22.4 12.4-3.2 23.9-3.6 33.6-2.8 9.2 0.8 17.7-5.1 19.8-14.1 2.7-11-4.9-21.9-16.1-22.9z" fill="#004D40" p-id="18392"></path><path d="M654.5 71.1c-9.5 12.5-16.9 26.5-21.7 41.3-8 24.7-7.6 47.4-4.9 64.6 1.8 11.3 13.1 18.4 24 15 8.8-2.8 14.1-11.5 12.7-20.6-2-12.7-2.3-29.4 3.6-47.5 3.9-12.2 9.8-22.1 15.6-29.9 5.6-7.4 5.1-17.7-1.3-24.3-7.9-8.1-21.2-7.5-28 1.4zM801.2 90.2c-4.3-10.4-16.9-14.7-26.5-8.9-13.4 8.1-25.4 18.5-35.3 30.5-16.5 20-24.4 41.4-28.2 58.3-2.5 11.2 5.4 21.9 16.8 22.7 9.2 0.6 17.4-5.5 19.4-14.5 2.8-12.5 8.6-28.2 20.7-42.9 8.1-9.9 17.2-17 25.5-22.1 7.8-4.8 11.2-14.6 7.6-23.1z" fill="#004D40" p-id="18393"></path><path d="M641.2 269.8m-46.4 0a46.4 46.4 0 1 0 92.8 0 46.4 46.4 0 1 0-92.8 0Z" fill="#FFEB3B" p-id="18394"></path><path d="M616.4 269.8m-21.7 0a21.7 21.7 0 1 0 43.4 0 21.7 21.7 0 1 0-43.4 0Z" fill="#4E342E" p-id="18395"></path><path d="M783.5 269.8m-46.4 0a46.4 46.4 0 1 0 92.8 0 46.4 46.4 0 1 0-92.8 0Z" fill="#FFEB3B" p-id="18396"></path><path d="M758.8 269.8m-21.7 0a21.7 21.7 0 1 0 43.4 0 21.7 21.7 0 1 0-43.4 0Z" fill="#4E342E" p-id="18397"></path><path d="M662.8 365.8c-5 12.7 1.9 28.6 12.4 37.1 14.5 11.8 33.3 7.2 37.1 6.2 23.5-6.4 40.8-33.6 43.3-68.1-33-5.3-56.2 1.5-68.1 6.2-19.8 7.8-23.6 15.9-24.7 18.6z" fill="#004D40" p-id="18398"></path></svg>