<?xml version="1.0" standalone="no"?><!DOCTYPE svg PUBLIC "-//W3C//DTD SVG 1.1//EN" "http://www.w3.org/Graphics/SVG/1.1/DTD/svg11.dtd"><svg t="1704602378449" class="icon" viewBox="0 0 1024 1024" version="1.1" xmlns="http://www.w3.org/2000/svg" p-id="5902" xmlns:xlink="http://www.w3.org/1999/xlink" width="200" height="200"><path d="M856.177778 560.355556c17.066667 25.6 25.6 56.888889 22.755555 88.177777-5.688889-5.688889-14.222222-8.533333-22.755555-14.222222 2.844444 31.288889-8.533333 62.577778-31.288889 85.333333 0-14.222222-5.688889-25.6-5.688889-39.822222-25.6 96.711111-116.622222 179.2-221.866667 184.888889-153.6 8.533333-338.488889 2.844444-392.533333-184.888889 0 14.222222-5.688889 25.6-5.688889 39.822222-19.911111-22.755556-31.288889-54.044444-31.288889-85.333333-5.688889 5.688889-14.222222 8.533333-22.755555 14.222222-2.844444-31.288889 2.844444-62.577778 22.755555-88.177777-8.533333 2.844444-14.222222 5.688889-22.755555 8.533333 5.688889-48.355556 42.666667-91.022222 88.177777-105.244445-45.511111-142.222222 62.577778-261.688889 122.311112-292.977777 2.844444-31.288889 14.222222-65.422222 31.288888-91.022223V142.222222c8.533333-34.133333 36.977778-62.577778 71.111112-65.422222-5.688889 22.755556-8.533333 42.666667-11.377778 65.422222 14.222222-48.355556 65.422222-85.333333 113.777778-85.333333-17.066667 8.533333-31.288889 22.755556-39.822223 42.666667 36.977778-31.288889 88.177778-39.822222 133.688889-22.755556-17.066667 8.533333-28.444444 25.6-34.133333 42.666667 19.911111-17.066667 45.511111-22.755556 71.111111-14.222223-14.222222 19.911111-25.6 36.977778-36.977778 54.044445v2.844444c85.333333 36.977778 162.133333 105.244444 156.444445 244.622223 0 19.911111-11.377778 36.977778-17.066667 56.888888 45.511111 14.222222 85.333333 56.888889 88.177778 105.244445l-25.6-8.533333z" fill="#3E4347" p-id="5903"></path><path d="M648.533333 287.288889c-14.222222 5.688889-28.444444 14.222222-36.977777 28.444444-8.533333 14.222222-11.377778 31.288889-8.533334 45.511111-51.2-8.533333-108.088889-5.688889-159.288889 5.688889-11.377778-34.133333-36.977778-62.577778-71.111111-76.8 19.911111-2.844444 39.822222 2.844444 56.888889 14.222223 2.844444-25.6-17.066667-51.2-42.666667-56.888889 17.066667-5.688889 39.822222-5.688889 56.888889 5.688889 0-14.222222-8.533333-28.444444-22.755555-36.977778 22.755556 0 45.511111 8.533333 59.733333 25.6-5.688889-11.377778-5.688889-25.6 0-39.822222 5.688889-11.377778 14.222222-22.755556 28.444445-28.444445-5.688889 5.688889-8.533333 17.066667-5.688889 22.755556 2.844444 8.533333 8.533333 14.222222 17.066666 17.066666 2.844444-5.688889 0-14.222222-5.688889-19.911111 8.533333 0 17.066667 5.688889 22.755556 11.377778 5.688889 8.533333 5.688889 17.066667 2.844444 25.6 11.377778-14.222222 34.133333-22.755556 54.044445-19.911111-17.066667 8.533333-25.6 25.6-25.6 42.666667 17.066667-5.688889 34.133333-8.533333 51.2-2.844445-14.222222 11.377778-25.6 28.444444-28.444445 45.511111 17.066667-5.688889 36.977778-11.377778 56.888889-8.533333z" fill="#353A3D" p-id="5904"></path><path d="M813.511111 398.222222c0 28.444444-19.911111 51.2-56.888889 62.577778-11.377778 2.844444-14.222222 14.222222-8.533333 25.6s8.533333 22.755556 8.533333 34.133333c5.688889 102.4-88.177778 122.311111-241.777778 122.311111-153.6 2.844444-247.466667-17.066667-241.777777-122.311111 0-11.377778 2.844444-22.755556 8.533333-34.133333 5.688889-8.533333 0-22.755556-8.533333-25.6-36.977778-11.377778-59.733333-34.133333-56.888889-62.577778-2.844444-45.511111 54.044444-73.955556 147.911111-73.955555 14.222222 0 25.6 0 39.822222 2.844444 76.8 25.6 156.444444 25.6 230.4 0 11.377778-2.844444 25.6-2.844444 39.822222-2.844444 85.333333 0 142.222222 28.444444 139.377778 73.955555z" fill="#777B7E" p-id="5905"></path><path d="M711.111111 540.444444c-2.844444 39.822222-28.444444 71.111111-59.733333 71.111112S597.333333 580.266667 597.333333 540.444444c2.844444-39.822222 28.444444-71.111111 59.733334-71.111111s56.888889 31.288889 54.044444 71.111111z" fill="#3E4347" p-id="5906"></path><path d="M597.333333 546.133333a65.422222 51.2 90 1 0 102.4 0 65.422222 51.2 90 1 0-102.4 0Z" fill="#FFFFFF" p-id="5907"></path><path d="M608.711111 554.666667a45.511111 36.977778 90 1 0 73.955556 0 45.511111 36.977778 90 1 0-73.955556 0Z" fill="#F29A2E" p-id="5908"></path><path d="M622.933333 563.2a28.444444 22.755556 90 1 0 45.511111 0 28.444444 22.755556 90 1 0-45.511111 0Z" fill="#3E4347" p-id="5909"></path><path d="M657.066667 543.288889m-11.377778 0a11.377778 11.377778 0 1 0 22.755555 0 11.377778 11.377778 0 1 0-22.755555 0Z" fill="#FFFFFF" p-id="5910"></path><path d="M642.844444 574.577778m-5.688888 0a5.688889 5.688889 0 1 0 11.377777 0 5.688889 5.688889 0 1 0-11.377777 0Z" fill="#FFFFFF" p-id="5911"></path><path d="M329.955556 540.444444c2.844444 39.822222 28.444444 71.111111 59.733333 71.111112s54.044444-31.288889 54.044444-71.111112c-2.844444-39.822222-28.444444-71.111111-59.733333-71.111111s-56.888889 31.288889-54.044444 71.111111z" fill="#3E4347" p-id="5912"></path><path d="M341.333333 546.133333a65.422222 51.2 90 1 0 102.4 0 65.422222 51.2 90 1 0-102.4 0Z" fill="#FFFFFF" p-id="5913"></path><path d="M358.4 554.666667a45.511111 36.977778 90 1 0 73.955556 0 45.511111 36.977778 90 1 0-73.955556 0Z" fill="#F29A2E" p-id="5914"></path><path d="M372.622222 563.2a28.444444 22.755556 90 1 0 45.511111 0 28.444444 22.755556 90 1 0-45.511111 0Z" fill="#3E4347" p-id="5915"></path><path d="M406.755556 543.288889m-11.377778 0a11.377778 11.377778 0 1 0 22.755555 0 11.377778 11.377778 0 1 0-22.755555 0Z" fill="#FFFFFF" p-id="5916"></path><path d="M389.688889 574.577778m-5.688889 0a5.688889 5.688889 0 1 0 11.377778 0 5.688889 5.688889 0 1 0-11.377778 0Z" fill="#FFFFFF" p-id="5917"></path><path d="M736.711111 790.755556C739.555556 901.688889 654.222222 967.111111 512 967.111111c-145.066667 2.844444-227.555556-62.577778-224.711111-176.355555-2.844444-110.933333 82.488889-176.355556 224.711111-176.355556 145.066667 0 227.555556 65.422222 224.711111 176.355556z" fill="#777B7E" p-id="5918"></path><path d="M736.711111 790.755556C739.555556 901.688889 654.222222 967.111111 512 967.111111c-145.066667 2.844444-227.555556-62.577778-224.711111-176.355555 0-25.6 2.844444-45.511111 11.377778-65.422223v25.6c-2.844444 108.088889 76.8 170.666667 216.177777 167.822223 139.377778 2.844444 219.022222-59.733333 216.177778-167.822223v-25.6c2.844444 19.911111 8.533333 42.666667 5.688889 65.422223z" fill="#5A5F63" opacity=".35" p-id="5919"></path><path d="M540.444444 580.266667c-11.377778 0-11.377778-2.844444-28.444444-2.844445s-17.066667 2.844444-28.444444 2.844445c5.688889-8.533333 17.066667-14.222222 28.444444-14.222223s22.755556 5.688889 28.444444 14.222223zM554.666667 548.977778c-11.377778-2.844444-19.911111-8.533333-42.666667-8.533334-19.911111 0-31.288889 5.688889-42.666667 8.533334 11.377778-11.377778 28.444444-17.066667 42.666667-17.066667 22.755556 0 36.977778 8.533333 42.666667 17.066667zM580.266667 514.844444c-11.377778-5.688889-34.133333-19.911111-68.266667-17.066666-34.133333 0-54.044444 14.222222-68.266667 17.066666 11.377778-11.377778 34.133333-25.6 68.266667-28.444444 31.288889 2.844444 54.044444 14.222222 68.266667 28.444444z" fill="#5A5F63" p-id="5920"></path><path d="M617.244444 631.466667c5.688889 17.066667-25.6 39.822222-56.888888 45.511111H540.444444c-5.688889 0-8.533333 0-14.222222 2.844444s-8.533333 5.688889-14.222222 5.688889-11.377778 0-14.222222-2.844444c-5.688889-2.844444-8.533333-2.844444-14.222222-2.844445h-19.911112c-31.288889-2.844444-62.577778-25.6-56.888888-42.666666 5.688889-17.066667 39.822222-22.755556 65.422222-22.755556 17.066667 0 31.288889 5.688889 39.822222 14.222222 8.533333-8.533333 22.755556-17.066667 39.822222-17.066666 25.6-2.844444 59.733333 5.688889 65.422222 19.911111z" fill="#3E4347" p-id="5921"></path><path d="M563.2 640c-5.688889 2.844444-19.911111 14.222222-25.6 17.066667-31.288889 22.755556-56.888889 0-68.266667-5.688889-8.533333-5.688889-17.066667-14.222222-28.444444-14.222222-14.222222 0-22.755556 11.377778-11.377778 25.6 11.377778 11.377778 28.444444 14.222222 36.977778 14.222222 2.844444 0 8.533333 0 11.377778 2.844444 5.688889 0 11.377778 0 17.066666 2.844445 8.533333 5.688889 19.911111 5.688889 31.288889 0 5.688889-2.844444 11.377778-5.688889 17.066667-2.844445 8.533333-2.844444 19.911111-2.844444 28.444444-5.688889 19.911111-5.688889 25.6-22.755556 19.911111-31.288889-2.844444-8.533333-14.222222-11.377778-28.444444-2.844444z" fill="#353A3D" p-id="5922"></path><path d="M364.088889 787.911111c28.444444 31.288889 48.355556 48.355556 88.177778 62.577778 28.444444 8.533333 36.977778 8.533333 59.733333 8.533333 39.822222 0 73.955556-8.533333 108.088889-34.133333 19.911111-14.222222 28.444444-25.6 39.822222-36.977778-8.533333 14.222222-19.911111 31.288889-34.133333 42.666667-36.977778 31.288889-73.955556 39.822222-113.777778 39.822222-25.6 0-39.822222-2.844444-65.422222-11.377778-31.288889-11.377778-62.577778-34.133333-82.488889-71.111111zM548.977778 401.066667c22.755556 19.911111 54.044444 28.444444 79.644444 36.977777 71.111111 14.222222 76.8 5.688889 130.844445 5.688889-48.355556 14.222222-82.488889 14.222222-133.688889 5.688889-39.822222-11.377778-68.266667-34.133333-76.8-48.355555zM475.022222 401.066667c-17.066667 25.6-65.422222 48.355556-99.555555 51.2-45.511111 5.688889-76.8 2.844444-110.933334-8.533334 31.288889 0 51.2 5.688889 110.933334-2.844444 11.377778 0 68.266667-11.377778 99.555555-39.822222z" fill="#5A5F63" p-id="5923"></path><path d="M640 768h2.844444c22.755556-2.844444 42.666667 22.755556 42.666667 45.511111-8.533333-11.377778-14.222222-28.444444-36.977778-39.822222-2.844444-5.688889-8.533333-8.533333-8.533333-5.688889zM384 768c-19.911111 2.844444-36.977778 31.288889-45.511111 45.511111 0-19.911111 14.222222-42.666667 34.133333-45.511111h8.533334c2.844444-2.844444 2.844444 0 2.844444 0z" fill="#5A5F63" p-id="5924"></path></svg>