<?xml version="1.0" standalone="no"?><!DOCTYPE svg PUBLIC "-//W3C//DTD SVG 1.1//EN" "http://www.w3.org/Graphics/SVG/1.1/DTD/svg11.dtd"><svg t="1704604316854" class="icon" viewBox="0 0 1024 1024" version="1.1" xmlns="http://www.w3.org/2000/svg" p-id="22961" xmlns:xlink="http://www.w3.org/1999/xlink" width="200" height="200"><path d="M801.57 586.25l-41.69-68.85c-1.43-2.37-3.17-4.13-4.99-5.27-2.93-2.62-6.83-2.97-10.08-0.43l-72.31 56.4c-4.58 3.57-6.15 11.49-3.51 17.68l0.64 1.5c2.65 6.19 8.51 8.31 13.09 4.74l65.35-50.97 31.77 48.86 0.6 0.92 31.8 48.91c2.69 4.44 5.51 8.51 8.27 9.64 3.28 2.98 7.58 4.81 12.31 4.81 10.29 0 18.63-8.58 18.63-19.17 0-10.59-8.34-19.17-18.63-19.17-4.14 0-7.95 1.41-11.04 3.76l-19.63-32.42-0.58-0.94z" fill="#3F221A" p-id="22962"></path><path d="M459.91 611.95l2.56-12.83-69.29-40-33.12 37.7c5.03 1.26 10.2 2.47 15.53 3.61 26.12 5.59 54.52 9.44 84.32 11.52z" fill="#7C5142" p-id="22963"></path><path d="M958.64 525.61c0-19.14-48.29-36.67-135.97-49.34-75.52-10.92-178.02-17.76-274.19-18.29-1.88-0.01-3.76-0.02-5.64-0.02-60.96 0-119.02 5.49-168.23 15.93-20.09 4.26-37.98 9.24-53.23 14.76a66.95 66.95 0 0 1 7.17 30.18c0 23.12-11.75 43.57-29.68 55.92 9.78 5.16 21.36 9.97 34.48 14.34l43.87-53.63c1.94-2.37 4.28-4.13 6.74-5.27 3.96-2.62 9.22-2.97 13.62-0.43l70.61 40.76 8.79-43.98c1.75-8.75 8.85-14.7 15.86-13.3l1.7 0.34c1.31 0.26 2.51 0.76 3.61 1.45 1.74 0.19 3.48 0.72 5.09 1.66l97.7 56.41c6.19 3.57 8.31 11.49 4.74 17.68l-0.87 1.5c-3.57 6.19-11.49 8.31-17.68 4.74l-86.62-50.01-8.78 37.1 3.56 2.06c6.19 3.57 8.31 11.49 4.74 17.68l-0.87 1.5c-2.88 4.99-8.58 7.33-13.92 6.18l-0.41 1.71c20.76 0.74 42.05 0.67 63.63-0.28 78.1-3.43 161.37-11.81 231.37-23.06l-31.77-48.86-65.35 50.97c-4.58 3.57-10.44 1.45-13.09-4.74l-0.64-1.5c-2.65-6.19-1.08-14.11 3.51-17.68l72.31-56.41c3.25-2.54 7.15-2.19 10.08 0.43 1.82 1.14 3.55 2.9 4.99 5.27l41.69 68.85c7.59-1.34 14.99-2.72 22.16-4.12 87.01-17.04 134.92-37.11 134.92-56.5z" fill="#7C5142" p-id="22964"></path><path d="M459.91 611.95c-29.81-2.08-58.21-5.93-84.32-11.52a458.48 458.48 0 0 1-15.53-3.61l-0.74 0.84a454.99 454.99 0 0 0 16.06 3.74c26.12 5.59 54.52 9.45 84.33 11.54l0.2-0.99zM333.35 589.09c-13.12-4.37-24.69-9.18-34.48-14.34 17.92-12.35 29.68-32.8 29.68-55.92 0-10.83-2.59-21.07-7.17-30.18 15.25-5.52 33.14-10.5 53.23-14.76 49.22-10.44 107.27-15.93 168.23-15.93 1.88 0 3.76 0.01 5.64 0.02 96.16 0.53 198.66 7.37 274.19 18.29 87.68 12.68 135.97 30.2 135.97 49.34 0 19.39-47.91 39.46-134.9 56.52-7.17 1.41-14.57 2.78-22.16 4.12l0.55 0.92c7.46-1.32 14.74-2.67 21.8-4.06 61.91-12.14 135.71-31.97 135.71-57.5 0-25.25-74.41-41.31-136.82-50.33-75.57-10.93-178.12-17.77-274.32-18.3-63.11-0.34-123.28 5.16-174.08 15.94-20.18 4.28-38.16 9.29-53.49 14.85-10.13-19.4-29.41-33.42-52.2-36.52-0.17 0.23-2.84 3.96-0.03 0-1.36-0.18-2.73-0.33-4.12-0.43-0.22 0.4-0.41 0.75-0.59 1.07l-0.03 0.12s-2.49 4.48 0.03-0.12c0.05-0.17 0.15-0.54 0.32-1.09-1.68-0.12-3.38-0.2-5.1-0.2-38.24 0-69.35 30.61-69.35 68.24s31.11 68.24 69.35 68.24c14.34 0 27.68-4.31 38.76-11.68 9.84 5.23 21.5 10.11 34.72 14.53l0.66-0.84z m-9.8-70.26c0 34.87-28.87 63.24-64.35 63.24s-64.35-28.37-64.35-63.24 28.87-63.24 64.35-63.24 64.35 28.37 64.35 63.24zM779.83 589.91c-70 11.25-153.27 19.63-231.37 23.06-21.58 0.95-42.87 1.02-63.63 0.28l-0.24 1.01c9.25 0.33 18.6 0.5 28.03 0.5 11.84 0 23.82-0.26 35.88-0.79 78.3-3.44 161.79-11.85 231.92-23.14l-0.59-0.92z" p-id="22965"></path><path d="M253.53 507.23m-20.36 0a20.36 20.36 0 1 0 40.72 0 20.36 20.36 0 1 0-40.72 0Z" fill="#161313" p-id="22966"></path><path d="M453.02 277c100.72-46.33 327.17-49.7 327.17-49.7s-115.01-14.09-282.78 28.65c-165.14 42.06-226.74 190.53-228.64 195.18 2.44-3.44 8.76-12.34 23.64-33.26 33.41-46.96 56.81-93.13 160.61-140.87zM268.72 451.25l0.01-0.01s0.02-0.04 0.05-0.11c-0.03 0.04-0.06 0.08-0.08 0.12-2.82 3.96-0.15 0.24 0.02 0z" fill="#7C5142" p-id="22967"></path><path d="M264.57 450.82c2.39-4.34 7.77-14.09 19.13-34.66 27.87-50.44 45.9-98.97 143.61-158.16 94.83-57.44 319.43-86.44 319.43-86.44s-115.87-0.97-277.71 60.5C315.42 290.4 268.66 436.13 264.3 450.8c-0.16 0.54-0.27 0.91-0.32 1.09 0.18-0.32 0.37-0.67 0.59-1.07zM263.95 452l0.03-0.12c-2.52 4.6-0.03 0.12-0.03 0.12z" fill="#7C5142" p-id="22968"></path><path d="M484.83 613.25l0.41-1.71c5.34 1.15 11.04-1.19 13.92-6.18l0.87-1.5c3.57-6.19 1.45-14.11-4.74-17.68l-3.56-2.06 8.78-37.1 86.62 50.01c6.19 3.57 14.11 1.45 17.68-4.74l0.87-1.5c3.57-6.19 1.45-14.11-4.74-17.68l-97.7-56.41c-1.62-0.93-3.35-1.47-5.09-1.66-1.09-0.69-2.3-1.19-3.61-1.45l-1.7-0.34c-7.01-1.4-14.11 4.55-15.86 13.3l-8.79 43.98-70.61-40.76c-4.4-2.54-9.66-2.19-13.62 0.43-2.46 1.14-4.8 2.9-6.74 5.27l-43.87 53.63-0.68 0.83-39.04 47.73c-4.18-2.35-9.34-3.74-14.93-3.74-13.9 0-25.17 8.58-25.17 19.17 0 10.59 11.27 19.17 25.17 19.17 6.4 0 12.25-1.83 16.69-4.83 3.71-1.16 7.5-5.21 11.11-9.62l52.83-60.13 0.74-0.84 33.12-37.7 69.29 40-2.56 12.83-0.2 1-9.4 47.05c-2.3-0.53-4.74-0.81-7.26-0.81-13.9 0-25.17 8.58-25.17 19.17 0 10.59 11.27 19.17 25.17 19.17 13.42 0 24.38-8 25.13-18.08 1.78-2.96 2.87-7.24 3.76-11.68l12.66-53.51 0.22-1.03z" fill="#3F221A" p-id="22969"></path></svg>