<?xml version="1.0" standalone="no"?><!DOCTYPE svg PUBLIC "-//W3C//DTD SVG 1.1//EN" "http://www.w3.org/Graphics/SVG/1.1/DTD/svg11.dtd"><svg t="1704604415412" class="icon" viewBox="0 0 1024 1024" version="1.1" xmlns="http://www.w3.org/2000/svg" p-id="29493" xmlns:xlink="http://www.w3.org/1999/xlink" width="200" height="200"><path d="M351 241l19.1-92.9c-6.1-1.3-12.5-2.1-19.1-2.1-49.2 0-89 39.8-89 89s39.8 89 89 89 89-39.8 89-89c0-13.9-3.2-27.1-8.9-38.9L351 241z" fill="#E9B59B" p-id="29494"></path><path d="M431.1 196.1l-42.4 23.7c0.8 4.9 1.3 10 1.3 15.1 0 40.5-27 74.6-64 85.4 7.9 2.3 16.3 3.6 25 3.6 49.2 0 89-39.8 89-89 0-13.8-3.2-27-8.9-38.8z" fill="#FFD7BD" p-id="29495"></path><path d="M307 235c0-40 26.4-73.8 62.7-85l0.4-1.9c-6.1-1.3-12.5-2.1-19.1-2.1-49.2 0-89 39.8-89 89s39.8 89 89 89c7.8 0 15.3-1 22.5-2.9-38.3-9.9-66.5-44.7-66.5-86.1z" fill="#D38B6C" p-id="29496"></path><path d="M672 241l-19.1-92.9c6.1-1.3 12.5-2.1 19.1-2.1 49.2 0 89 39.8 89 89s-39.8 89-89 89-89-39.8-89-89c0-13.9 3.2-27.1 8.9-38.9L672 241z" fill="#E9B59B" p-id="29497"></path><path d="M590.9 196.1l42.4 23.7c-0.8 4.9-1.3 10-1.3 15.1 0 40.5 27 74.6 64 85.4-7.9 2.3-16.3 3.6-25 3.6-49.2 0-89-39.8-89-89 0-13.8 3.2-27 8.9-38.8z" fill="#FFD7BD" p-id="29498"></path><path d="M715 235c0-40-26.4-73.8-62.7-85l-0.4-1.9c6.1-1.3 12.5-2.1 19.1-2.1 49.2 0 89 39.8 89 89s-39.8 89-89 89c-7.8 0-15.3-1-22.5-2.9 38.3-9.9 66.5-44.7 66.5-86.1z" fill="#D38B6C" p-id="29499"></path><path d="M719 615c0 114.3-92.7 157-207 157s-207-42.7-207-157 144-207 207-207c65 0 207 92.7 207 207z" fill="#E9B59B" p-id="29500"></path><path d="M355 615c0-101.1 112.7-185.3 182.3-203.4-9.2-2.4-17.8-3.6-25.3-3.6-63 0-207 92.7-207 207s92.7 157 207 157c8.5 0 16.8-0.2 25-0.7-102.5-6-182-50.4-182-156.3z" fill="#D38B6C" p-id="29501"></path><path d="M667.3 615c0-101.1-112.7-185.3-182.3-203.4 9.2-2.4 17.8-3.6 25.3-3.6 63 0 207 92.7 207 207s-92.7 157-207 157c-8.5 0-16.8-0.2-25-0.7 102.5-6 182-50.4 182-156.3z" fill="#FFD7BD" p-id="29502"></path><path d="M510.8 823c-73.7 0-133.3-14.9-177.4-44.3-52.3-34.9-79.9-89.7-79.9-158.4 0-63.5 36.6-128.8 103-183.8 52.2-43.3 115.7-73.5 154.3-73.5 38.9 0 102.5 30.2 154.6 73.5 66.2 55 102.7 120.2 102.7 183.8 0 68.7-27.6 123.4-79.9 158.4C644.1 808 584.4 823 510.8 823z m0-400c-18.4 0-69 20.7-116 59.7-30.4 25.2-81.3 76.5-81.3 137.6 0 117.9 107.3 142.7 197.3 142.7s197.3-24.8 197.3-142.7c0-61.2-50.7-112.5-81-137.6C578 441.9 528.7 423 510.8 423z" fill="#561F00" p-id="29503"></path><path d="M315.8 553c-10.3 0-20.3-5.3-25.9-14.8l-74-126c-5.8-9.9-5.5-22.2 0.9-31.8l49-74c9.1-13.8 27.8-17.6 41.6-8.5 13.8 9.1 17.6 27.8 8.5 41.6l-38.7 58.4 64.5 109.9c8.4 14.3 3.6 32.7-10.7 41.1-4.8 2.7-10 4.1-15.2 4.1zM705.7 553c-5.2 0-10.4-1.3-15.2-4.1-14.3-8.4-19.1-26.8-10.7-41.1l64.5-109.9-38.7-58.4c-9.1-13.8-5.4-32.4 8.5-41.6 13.8-9.1 32.4-5.4 41.6 8.5l49 74c6.3 9.6 6.7 21.9 0.9 31.8l-74 126C726 547.7 716 553 705.7 553z" fill="#561F00" p-id="29504"></path><path d="M349.8 368.1c-57.4 0-110.1-38.3-125.6-96.3-18.5-69.2 22.7-140.7 91.9-159.2 24.1-6.5 49.6-5.9 73.5 1.8 15.6 5 24.3 21.7 19.5 37.4l-6.1 19.8 17.3-10.4c6.8-4.1 15-5.3 22.7-3.4 7.7 1.9 14.4 6.9 18.5 13.7 6.2 10.4 10.9 21.5 13.9 33 18.5 69.2-22.7 140.7-91.9 159.2-11.3 3-22.6 4.4-33.7 4.4zM341 168.6c-3.1 0.4-6.3 1-9.3 1.8-37.3 10-59.5 48.5-49.5 85.8s48.5 59.5 85.8 49.5c33.4-8.9 54.7-40.8 51.6-74.1l-53 31.8c-10.7 6.4-24.2 5.6-34-2.1-9.8-7.7-13.8-20.6-10.2-32.5l18.6-60.2zM673.1 368.1c-11.3 0-22.7-1.5-33.9-4.5-69.2-18.6-110.4-90-91.9-159.2 3-11.5 7.7-22.6 13.9-33 4.1-6.8 10.7-11.8 18.5-13.7 7.7-1.9 15.9-0.7 22.7 3.4l17.3 10.4-6.1-19.8c-4.9-15.7 3.8-32.4 19.5-37.4 23.9-7.7 49.3-8.3 73.5-1.8 69.2 18.6 110.4 90 91.9 159.2-9 33.6-30.5 61.6-60.6 79-20 11.5-42.3 17.4-64.8 17.4z m-70-136.5c-3.1 33.3 18.2 65.2 51.6 74.1 18.1 4.8 37 2.4 53.1-7 16.2-9.3 27.8-24.4 32.6-42.5 10-37.3-12.2-75.8-49.5-85.8-3.1-0.8-6.2-1.4-9.4-1.8l18.6 60.2c3.7 11.9-0.4 24.8-10.2 32.5-9.8 7.7-23.3 8.5-34 2.1l-52.8-31.8z" fill="#561F00" p-id="29505"></path><path d="M446.8 491m-15 0a15 15 0 1 0 30 0 15 15 0 1 0-30 0Z" fill="#561F00" p-id="29506"></path><path d="M574.8 491m-15 0a15 15 0 1 0 30 0 15 15 0 1 0-30 0Z" fill="#561F00" p-id="29507"></path><path d="M462.3 420.8c-6.3 0-12.2-4-14.2-10.3l-18-54.8c-2.6-7.9 1.7-16.3 9.6-18.9s16.3 1.7 18.9 9.6l18 54.8c2.6 7.9-1.7 16.3-9.6 18.9-1.6 0.4-3.2 0.7-4.7 0.7zM560.3 420.8c-1.6 0-3.1-0.2-4.7-0.8-7.9-2.6-12.2-11.1-9.6-18.9l18-54.8c2.6-7.9 11.1-12.2 18.9-9.6 7.9 2.6 12.2 11.1 9.6 18.9l-18 54.8c-2.1 6.4-7.9 10.4-14.2 10.4zM640.9 702c-5.4 0-10.7-2.9-13.3-8.1-3.8-7.4-0.9-16.4 6.4-20.2 49.7-25.8 79.3-66 79.3-107.7 0-8.3 6.7-15 15-15s15 6.7 15 15c0 27.1-9.3 53.9-26.8 77.7-16.4 22.3-40.2 41.8-68.7 56.7-2.2 1-4.6 1.6-6.9 1.6zM90.9 630.4c-5.1 0-10.2-1.3-15-4-14.3-8.3-19.3-26.6-11-41 22.6-39.1 59-67 102.6-78.7s89.1-5.7 128.2 16.9c14.3 8.3 19.3 26.6 11 41-8.3 14.3-26.6 19.3-41 11-25.2-14.5-54.5-18.4-82.6-10.9s-51.6 25.6-66.1 50.7c-5.7 9.6-15.7 15-26.1 15z" fill="#561F00" p-id="29508"></path><path d="M103 740.5c-3.4 0-6.9-0.6-10.3-1.8-15.6-5.7-23.6-22.9-17.9-38.5 31.9-87.5 129-132.8 216.5-101 15.6 5.7 23.6 22.9 17.9 38.5s-22.9 23.6-38.5 17.9c-56.4-20.5-119.1 8.7-139.6 65.1-4.3 12.2-15.8 19.8-28.1 19.8z" fill="#561F00" p-id="29509"></path><path d="M148.2 860.3c-16.6 0-30-13.4-30-30 0-93.1 75.8-168.9 168.9-168.9 16.6 0 30 13.4 30 30s-13.4 30-30 30c-60.1 0-108.9 48.9-108.9 108.9 0 16.6-13.4 30-30 30z" fill="#561F00" p-id="29510"></path><path d="M238.5 916c-13.2 0-25.4-8.8-29-22.2-9.6-35.7-4.7-72.9 13.8-104.9s48.3-54.9 83.9-64.4c16-4.3 32.5 5.2 36.7 21.2 4.3 16-5.2 32.5-21.2 36.7-20.2 5.4-37.1 18.4-47.5 36.5s-13.2 39.2-7.8 59.4c4.3 16-5.2 32.5-21.2 36.7-2.5 0.6-5.1 1-7.7 1zM933.1 630.4c5.1 0 10.2-1.3 15-4 14.3-8.3 19.3-26.6 11-41-22.6-39.1-59-67-102.6-78.7s-89.1-5.7-128.2 16.9c-14.3 8.3-19.3 26.6-11 41 8.3 14.3 26.6 19.3 41 11 25.2-14.5 54.5-18.4 82.6-10.9s51.6 25.6 66.1 50.7c5.7 9.6 15.7 15 26.1 15z" fill="#561F00" p-id="29511"></path><path d="M921 740.5c3.4 0 6.9-0.6 10.3-1.8 15.6-5.7 23.6-22.9 17.9-38.5-31.9-87.5-129-132.8-216.5-101-15.6 5.7-23.6 22.9-17.9 38.5s22.9 23.6 38.5 17.9c56.4-20.5 119.1 8.7 139.6 65.1 4.3 12.2 15.8 19.8 28.1 19.8z" fill="#561F00" p-id="29512"></path><path d="M875.8 860.3c16.6 0 30-13.4 30-30 0-93.1-75.8-168.9-168.9-168.9-16.6 0-30 13.4-30 30s13.4 30 30 30c60.1 0 108.9 48.9 108.9 108.9 0 16.6 13.4 30 30 30z" fill="#561F00" p-id="29513"></path><path d="M785.5 916c13.2 0 25.4-8.8 29-22.2 9.6-35.7 4.7-72.9-13.8-104.9s-48.3-54.9-83.9-64.4c-16-4.3-32.5 5.2-36.7 21.2-4.3 16 5.2 32.5 21.2 36.7 20.2 5.4 37.1 18.4 47.5 36.5s13.2 39.2 7.8 59.4c-4.3 16 5.2 32.5 21.2 36.7 2.5 0.6 5.1 1 7.7 1zM394.5 554h-60c-8.3 0-15-6.7-15-15s6.7-15 15-15h60c8.3 0 15 6.7 15 15s-6.7 15-15 15zM373.5 609h-60c-8.3 0-15-6.7-15-15s6.7-15 15-15h60c8.3 0 15 6.7 15 15s-6.7 15-15 15zM370.5 664h-60c-8.3 0-15-6.7-15-15s6.7-15 15-15h60c8.3 0 15 6.7 15 15s-6.7 15-15 15zM389.5 719h-60c-8.3 0-15-6.7-15-15s6.7-15 15-15h60c8.3 0 15 6.7 15 15s-6.7 15-15 15zM507.2 735.1c-21 0-41.4-1.9-61-5.6-8.1-1.5-13.5-9.4-11.9-17.5 1.5-8.1 9.4-13.5 17.5-11.9 20.6 3.9 42.4 5.6 64.7 4.9 34-1 58.6-7.5 74.1-12.3 7.9-2.5 16.3 2 18.8 9.9s-2 16.3-9.9 18.8c-17.2 5.3-44.4 12.6-82.1 13.7h-10.2z" fill="#561F00" p-id="29514"></path></svg>