<?xml version="1.0" standalone="no"?><!DOCTYPE svg PUBLIC "-//W3C//DTD SVG 1.1//EN" "http://www.w3.org/Graphics/SVG/1.1/DTD/svg11.dtd"><svg t="1704604438445" class="icon" viewBox="0 0 1024 1024" version="1.1" xmlns="http://www.w3.org/2000/svg" p-id="30594" xmlns:xlink="http://www.w3.org/1999/xlink" width="200" height="200"><path d="M679.68 233.6c-11.52 5.76-26.88 0-10.24-7.68-6.4-8.96 0-12.8 5.12-8.32 0-7.68 8.32-12.8 10.88 0s-5.76 16-5.76 16zM704 256c-5.12 11.52 0 26.24 8.32 9.6 8.96 5.12 12.8 0 7.68-5.76 7.68 0 12.16-9.6 0-11.52S704 256 704 256z" fill="#6866FD" p-id="30595"></path><path d="M670.08 238.08a13.44 13.44 0 0 1-7.68 0 5.76 5.76 0 0 1 0-4.48s0-4.48 6.4-6.4 0-8.32 0-10.24a7.04 7.04 0 0 1 6.4 0c0-3.2 0-5.76 5.12-5.76s7.68 0 9.6 8.96a17.28 17.28 0 0 1 0 14.08 12.8 12.8 0 0 1-7.04 3.84 17.92 17.92 0 0 1-12.8 0z m0-20.48v7.04c-5.76 3.2-6.4 4.48-6.4 5.12a16.64 16.64 0 0 0 13.44 0 4.48 4.48 0 0 0 4.48 0 12.8 12.8 0 0 0 0-10.24c0-5.76-3.84-7.04-5.12-7.04s0 0 0 5.76v4.48l-3.84-3.2zM707.84 275.84a5.76 5.76 0 0 1-3.84 0A19.2 19.2 0 0 1 704 256a8.96 8.96 0 0 1 0-6.4 17.92 17.92 0 0 1 13.44 0c8.32 0 10.88 5.12 10.24 8.32a7.04 7.04 0 0 1-5.76 6.4 5.76 5.76 0 0 1 0 6.4h-9.6c-5.12 0-3.84 6.4-6.4 6.4z m7.68-24.96a8.32 8.32 0 0 0-6.4 0A5.76 5.76 0 0 0 704 256a14.72 14.72 0 0 0 0 14.08l4.48-6.4h7.04c0.64 0 0 0 0-3.84L716.8 256h10.24c0.64 0 0-3.84-7.68-4.48z" p-id="30596"></path><path d="M686.77041 252.299723a21.76 12.16 42.51 1 0 16.433483-17.927717 21.76 12.16 42.51 1 0-16.433483 17.927717Z" fill="#6666FD" p-id="30597"></path><path d="M679.68 243.84a21.12 21.12 0 0 1 5.12-18.56h5.12a54.4 54.4 0 0 0-5.76 23.68 28.16 28.16 0 0 1-4.48-5.12zM686.72 252.16a39.68 39.68 0 0 1 7.68-23.68 27.52 27.52 0 0 1 8.96 5.12 33.92 33.92 0 0 0-8.32 24.32 50.56 50.56 0 0 1-8.32-5.76zM698.88 259.84a32 32 0 0 1 8.32-22.4 40.96 40.96 0 0 1 3.84 7.04 19.2 19.2 0 0 0-6.4 16.64 6.4 6.4 0 0 1-5.76-1.28z" fill="#FBCE00" p-id="30598"></path><path d="M704 262.4h-4.48a32 32 0 0 1-14.08-6.4 29.44 29.44 0 0 1-8.96-13.44 12.16 12.16 0 0 1 0-12.8c5.12-5.76 17.28 0 26.88 5.76s13.44 20.48 8.32 26.24a12.16 12.16 0 0 1-7.68 0.64z m-18.56-34.56a7.68 7.68 0 0 0-5.76 0 8.32 8.32 0 0 0 0 8.96 34.56 34.56 0 0 0 8.32 12.16A36.48 36.48 0 0 0 704 256a10.24 10.24 0 0 0 8.96 0c3.84-3.84 0-14.08-7.68-21.12a27.52 27.52 0 0 0-19.2-7.04z" p-id="30599"></path><path d="M289.28 485.76c0 12.8-14.08 23.04-12.16 4.48-10.88 0-11.52-5.76-4.48-8.32-7.68 0-7.04-13.44 6.4-9.6s10.24 13.44 10.24 13.44zM320 475.52c7.68 10.24 24.32 10.88 12.8 0 8.96-5.12 5.76-10.88 0-8.96 4.48-7.04 0-15.36-10.24-4.48S320 475.52 320 475.52z" fill="#FF662E" p-id="30600"></path><path d="M280.32 501.76V492.8c-5.76 0-8.32 0-8.96-4.48a7.68 7.68 0 0 1 0-5.76 8.96 8.96 0 0 1 0-7.68s5.12-5.76 12.8 0a15.36 15.36 0 0 1 11.52 7.68 10.24 10.24 0 0 1 0 7.68 18.56 18.56 0 0 1-7.68 14.72z m0-13.44v7.68s5.76-5.76 6.4-12.16a6.4 6.4 0 0 0 0-5.12 13.44 13.44 0 0 0-8.96-5.76H268.8a7.04 7.04 0 0 0 3.84 5.12h4.48-4.48s-3.84 0 0 3.2 0 0 7.04 0zM335.36 484.48A21.12 21.12 0 0 1 320 476.8a10.88 10.88 0 0 1 0-6.4 16.64 16.64 0 0 1 0-12.8c4.48-6.4 9.6-6.4 12.16-4.48a7.04 7.04 0 0 1 0 7.68s4.48 0 5.12 3.84 0 5.12-4.48 8.32 3.84 6.4 0 8.96 0 0-3.84 0z m-4.48-28.8s-3.84 0-6.4 4.48a14.72 14.72 0 0 0-4.48 9.6 6.4 6.4 0 0 0 0 3.84 16.64 16.64 0 0 0 12.16 7.04V473.6c3.84 0 4.48-4.48 4.48-5.12s0 0-4.48 0h-4.48v-3.84a5.76 5.76 0 0 0 0-6.4z" p-id="30601"></path><path d="M284.53742 483.483972a12.16 21.76 72.69 1 0 41.54893-12.949006 12.16 21.76 72.69 1 0-41.54893 12.949006Z" fill="#FF662E" p-id="30602"></path><path d="M298.24 490.88a24.96 24.96 0 0 1-14.08-14.08v-3.84s10.24 14.72 17.92 16.64zM309.12 488.96s-14.72-8.96-17.28-19.2a28.8 28.8 0 0 1 8.96-4.48 40.32 40.32 0 0 0 16.64 19.2 36.48 36.48 0 0 1-8.32 4.48zM320 481.92a33.28 33.28 0 0 1-15.36-18.56 28.8 28.8 0 0 1 8.32 0 17.28 17.28 0 0 0 11.52 13.44 7.68 7.68 0 0 1-4.48 5.12z" fill="#CE9541" p-id="30603"></path><path d="M298.24 492.16h-5.76a13.44 13.44 0 0 1-10.24-7.68c0-7.68 5.76-16.64 18.56-20.48s24.96 0 26.88 6.4c0 7.68-5.76 16.64-18.56 20.48a30.08 30.08 0 0 1-10.88 1.28z m14.08-26.88a28.16 28.16 0 0 0-10.24 0c-10.24 0-17.92 10.88-16 16s0 4.48 7.04 5.76a44.16 44.16 0 0 0 15.36 0c10.24-3.2 17.92-10.88 16-16s-4.48-5.76-12.16-5.76z" p-id="30604"></path><path d="M797.44 636.16c-5.76 4.48-15.36 0-7.04-3.84-4.48-3.84 0-7.04 0-5.12s3.84-7.68 6.4 0 0.64 8.96 0.64 8.96zM814.08 646.4c0 7.04 4.48 14.72 5.76 4.48 5.76 0 7.68 0 3.84-4.48s5.76-6.4 0-5.76-9.6 5.76-9.6 5.76z" fill="#31CD99" p-id="30605"></path><path d="M790.4 640v-4.48-5.12c0-0.64 0 0 3.84 0v-3.84s4.48 0 6.4 3.84 0 5.76 0 7.68a10.88 10.88 0 0 1-10.24 1.92z m0-11.52a5.12 5.12 0 0 0 0 3.84v3.84a8.96 8.96 0 0 0 8.32 0 8.96 8.96 0 0 0 0-6.4h-3.84a3.84 3.84 0 0 0 0 3.84h-3.84zM817.28 656.64a11.52 11.52 0 0 1 0-9.6 4.48 4.48 0 0 1 0-4.48 10.24 10.24 0 0 1 7.04 0c4.48 0 6.4 0 6.4 3.84a3.84 3.84 0 0 1 0 3.84v3.2a3.84 3.84 0 0 1-5.12 0s0 4.48-3.2 4.48z m5.12-15.36h-5.76a8.32 8.32 0 0 0 0 7.68v-4.48h4.48s3.84-4.48 1.28-4.48z" p-id="30606"></path><path d="M803.58969 645.381919a12.8 7.04 31.47 1 0 7.350493-12.009024 12.8 7.04 31.47 1 0-7.350493 12.009024Z" fill="#31CD99" p-id="30607"></path><path d="M798.72 640a10.88 10.88 0 0 1 0-10.88 30.72 30.72 0 0 0 0 14.08zM803.2 645.76a26.88 26.88 0 0 1 0-14.72 7.68 7.68 0 0 1 5.12 0 27.52 27.52 0 0 0 0 14.72zM810.88 648.32a18.56 18.56 0 0 1 0-13.44v3.84a9.6 9.6 0 0 0 0 9.6z" fill="#67FFCD" p-id="30608"></path><path d="M812.8 649.6a19.2 19.2 0 0 1-9.6-3.2 18.56 18.56 0 0 1-7.04-7.04 7.04 7.04 0 0 1 0-7.04 5.76 5.76 0 0 1 3.84 0 23.04 23.04 0 0 1 12.16 0 22.4 22.4 0 0 1 6.4 7.04 5.76 5.76 0 0 1 0 7.04 7.04 7.04 0 0 1-5.76 3.2z m-10.88-17.92v5.12a18.56 18.56 0 0 0 6.4 5.76c5.76 3.84 11.52 3.84 13.44 0a6.4 6.4 0 0 0 0-5.76 14.08 14.08 0 0 0-6.4-5.76 14.08 14.08 0 0 0-13.44 0.64z" p-id="30609"></path><path d="M206.08 640m-14.08 0a14.08 14.08 0 1 0 28.16 0 14.08 14.08 0 1 0-28.16 0Z" fill="#564BBF" p-id="30610"></path><path d="M515.84 684.16l30.08 33.92-55.68 64s-83.84-14.08-97.92 33.92h149.12l43.52 13.44a45.44 45.44 0 0 0-47.36-44.16l69.76-64-21.12-33.92-59.52-38.4z" fill="#F7B501" p-id="30611"></path><path d="M277.76 293.76c92.16 30.72 19.84 176 69.76 270.72a320 320 0 0 0 117.76 128v-29.44l44.16 24.32s0-22.4 5.76-42.24a78.08 78.08 0 0 0 75.52 42.24H640l92.16 150.4h74.24L757.12 768l-85.76-236.8S627.2 327.68 501.12 320c-8.32-14.08-44.16-64-44.16-64l39.04-8.32s-120.32-114.56-198.4-22.4a128 128 0 0 0-19.84 68.48z" fill="#7B428E" p-id="30612"></path><path d="M297.6 227.2l14.08 35.84s41.6-5.12 27.52 25.6c-19.2 0-147.2 10.88-147.2 10.88s-5.76-49.92 105.6-72.32z" fill="#F7B501" p-id="30613"></path><path d="M501.12 533.76s176 256 337.92 265.6c0 0-229.12-360.32-231.68-366.08A121.6 121.6 0 0 0 512 346.88a86.4 86.4 0 0 0-72.32 145.28c14.08 30.72 61.44 41.6 61.44 41.6z" fill="#7B428E" p-id="30614"></path><path d="M354.56 234.88m-10.24 0a10.24 10.24 0 1 0 20.48 0 10.24 10.24 0 1 0-20.48 0Z" fill="#FFFFFF" p-id="30615"></path><path d="M798.08 846.72H710.4l-92.16-151.04H576a85.12 85.12 0 0 1-72.32-31.36v34.56l-43.52-23.68v33.92L448 699.52l-8.96-6.4a304 304 0 0 1-109.44-128 285.44 285.44 0 0 1-20.48-138.88c0-64 0-112.64-46.08-128L256 297.6v-6.4h6.4c57.6 16.64 57.6 74.88 57.6 136.96a276.48 276.48 0 0 0 19.2 134.4 297.6 297.6 0 0 0 103.04 122.24v-28.16l46.08 24.96c0-8.32 0-21.76 4.48-34.56v-17.28l7.68 16A69.76 69.76 0 0 0 576 684.8h51.2l92.16 151.04h60.16l-40.96-59.52 8.32-5.76zM650.24 535.04s-46.08-202.88-165.76-210.56h-3.2c-8.32-13.44-44.16-64-44.16-64L430.72 256l36.48-7.68a192 192 0 0 0-117.76-49.92 88.96 88.96 0 0 0-64 33.92l-8.32-5.76a100.48 100.48 0 0 1 72.32-37.76 213.12 213.12 0 0 1 133.76 59.52l7.68 6.4-42.88 6.4c9.6 12.8 30.08 40.32 38.4 53.12 128 10.88 170.88 207.36 172.16 215.68z" p-id="30616"></path><path d="M172.8 305.28v-5.12s-7.68-55.04 107.52-78.72h4.48l13.44 34.56a35.2 35.2 0 0 1 29.44 8.96 22.4 22.4 0 0 1 0 23.68H320c-21.76 0-143.36 10.88-144.64 10.88z m104.96-72.32c-80.64 17.28-93.44 48.64-94.72 60.8 23.68 0 110.08-9.6 136.32-10.88a12.16 12.16 0 0 0 0-9.6c-3.84-5.12-17.28-5.76-23.04-4.48h-5.12zM832 805.12h-10.88c-157.44-10.88-323.84-241.92-340.48-265.6a99.84 99.84 0 0 1-64-44.16 96 96 0 0 1-12.16-107.52 87.04 87.04 0 0 1 87.04-45.44 128 128 0 0 1 102.4 90.24c10.24 16.64 154.24 243.84 231.04 364.16zM483.84 352a78.08 78.08 0 0 0-67.84 40.32 83.84 83.84 0 0 0 11.52 96.64c12.8 27.52 56.96 38.4 57.6 38.4s168.32 240.64 323.2 261.76L585.6 435.84a117.12 117.12 0 0 0-92.8-83.2zM576 832l-49.92-16H368.64v-7.04c14.08-46.72 85.12-39.68 101.12-37.76l50.56-55.68-28.8-32.64 7.04-26.88h10.24l-5.76 21.76 31.36 35.2-64 64s-70.4-10.88-88.96 23.04h144.64l35.84 10.88a40.32 40.32 0 0 0-41.6-31.36h-12.16l75.52-69.76-15.36-25.6 7.68 2.56 20.48 32.64-64 59.52a49.92 49.92 0 0 1 40.32 48zM347.52 605.44A173.44 173.44 0 0 1 371.2 454.4l8.96 5.76a163.2 163.2 0 0 0-23.04 140.8z" p-id="30617"></path><path d="M495.872 497.024l7.68-7.68 23.104 23.04-7.68 7.68zM531.2 481.728l7.68-7.68 19.52 19.456-7.68 7.68zM560.192 460.864l7.68-7.68 18.624 18.432-7.68 7.68z" p-id="30618"></path></svg>