<?xml version="1.0" standalone="no"?><!DOCTYPE svg PUBLIC "-//W3C//DTD SVG 1.1//EN" "http://www.w3.org/Graphics/SVG/1.1/DTD/svg11.dtd"><svg t="1704604505193" class="icon" viewBox="0 0 1024 1024" version="1.1" xmlns="http://www.w3.org/2000/svg" p-id="33913" xmlns:xlink="http://www.w3.org/1999/xlink" width="200" height="200"><path d="M356.8 504.8c-75.2 207.2-117.6 424.8-226.4 414.4-136.8-12-140-204.8 1.6-447.2 18.4-32 32.8-66.4 40.8-102.4 60-259.2 104.8-324.8 208-281.6 60.8 25.6 51.2 209.6-24 416.8z" fill="#A46E23" p-id="33914"></path><path d="M137.6 940c-3.2 0-6.4 0-9.6-0.8-46.4-4-81.6-27.2-102.4-66.4-44-85.6-11.2-240 88.8-411.2 17.6-30.4 31.2-63.2 38.4-96.8 44.8-193.6 79.2-272 132.8-299.2 28.8-14.4 60.8-13.6 102.4 4C472 104.8 445.6 319.2 375.2 512c-15.2 42.4-29.6 84.8-43.2 126.4-52.8 161.6-98.4 301.6-194.4 301.6zM328.8 96c-8.8 0-16.8 1.6-24.8 5.6-40 20-72 99.2-112 272.8-8.8 37.6-23.2 73.6-43.2 108C57.6 639.2 24 782.4 61.6 854.4c13.6 27.2 37.6 42.4 70.4 44.8 70.4 6.4 113.6-123.2 163.2-274.4 13.6-41.6 28-84.8 43.2-127.2 79.2-218.4 74.4-375.2 35.2-392-17.6-6.4-32-9.6-44.8-9.6z" fill="#040000" p-id="33915"></path><path d="M666.4 504.8c75.2 207.2 117.6 424.8 226.4 414.4 136.8-12.8 139.2-204.8-2.4-447.2-18.4-32-32.8-66.4-40.8-102.4-59.2-259.2-104-324.8-207.2-281.6-60.8 25.6-51.2 209.6 24 416.8z" fill="#A46E23" p-id="33916"></path><path d="M885.6 940c-96 0-142.4-140-195.2-301.6-12.8-41.6-27.2-84-42.4-126.4-70.4-192.8-97.6-407.2-12.8-442.4 40.8-17.6 73.6-18.4 102.4-4 53.6 27.2 88 105.6 132.8 299.2 8 33.6 20.8 66.4 38.4 96.8 100 171.2 132.8 324.8 88.8 411.2-20 39.2-55.2 62.4-102.4 66.4-3.2 0.8-6.4 0.8-9.6 0.8z m-200-441.6c16 43.2 29.6 85.6 43.2 127.2 49.6 150.4 92 280.8 162.4 274.4 32.8-3.2 56-18.4 70.4-44.8 37.6-72.8 4-215.2-88-372.8-20-34.4-34.4-70.4-43.2-108-40-173.6-72.8-252-112-272.8-17.6-8.8-39.2-7.2-68 4.8-39.2 16.8-44 173.6 35.2 392z" fill="#040000" p-id="33917"></path><path d="M872 681.6c0 154.4-160.8 280-360 280s-360-125.6-360-280c0-59.2 67.2-160 90.4-262.4C280 252.8 332 81.6 512 81.6c168 0 228 168 267.2 333.6 24 104 92.8 207.2 92.8 266.4z" fill="#F8C689" p-id="33918"></path><path d="M512 981.6c-209.6 0-380-134.4-380-300 0-35.2 19.2-78.4 40.8-128.8 18.4-42.4 39.2-91.2 50.4-138.4C260.8 244 317.6 61.6 512 61.6c180 0 245.6 176 286.4 348.8 11.2 47.2 32.8 96 51.2 139.2 22.4 52 42.4 96.8 42.4 132 0 165.6-170.4 300-380 300z m0-880c-164.8 0-213.6 159.2-250.4 321.6-11.2 51.2-33.6 101.6-52.8 145.6-19.2 44-37.6 86.4-37.6 112.8 0 143.2 152.8 260 340 260s340-116.8 340-260c0-27.2-19.2-70.4-39.2-116-19.2-44.8-41.6-95.2-53.6-145.6C720.8 254.4 663.2 101.6 512 101.6z" fill="#040000" p-id="33919"></path><path d="M747.2 439.2c15.2 33.6-6.4 72-43.2 76.8-76.8 9.6-147.2-20-174.4-79.2-26.4-60-1.6-132 57.6-182.4 28-24 71.2-14.4 85.6 19.2l74.4 165.6z" fill="#A46E23" p-id="33920"></path><path d="M675.2 521.6c-68 0-125.6-32-148.8-84-26.4-59.2-3.2-134.4 58.4-187.2 14.4-12 32.8-16.8 51.2-12.8 18.4 4 32.8 16 40.8 33.6l73.6 165.6c8 16.8 6.4 36-2.4 52.8-8.8 16-24.8 27.2-44 29.6-9.6 1.6-19.2 2.4-28.8 2.4z m-52-276.8c-12 0-23.2 4-32.8 12-58.4 50.4-81.6 121.6-56 177.6 24.8 56 92.8 87.2 169.6 76.8 16-2.4 29.6-11.2 37.6-25.6 8-14.4 8.8-30.4 2.4-45.6l-73.6-165.6c-6.4-14.4-19.2-25.6-35.2-28.8-4.8 0-8.8-0.8-12-0.8z" fill="#040000" p-id="33921"></path><path d="M354.4 392a72 52 90 1 0 104 0 72 52 90 1 0-104 0Z" fill="#040000" p-id="33922"></path><path d="M570.4 392a72 52 90 1 0 104 0 72 52 90 1 0-104 0Z" fill="#040000" p-id="33923"></path><path d="M424.8 391.2m-8 0a8 8 0 1 0 16 0 8 8 0 1 0-16 0Z" fill="#FFFFFF" p-id="33924"></path><path d="M416.8 383.2m-8 0a8 8 0 1 0 16 0 8 8 0 1 0-16 0Z" fill="#FFFFFF" p-id="33925"></path><path d="M608.8 391.2m-8 0a8 8 0 1 0 16 0 8 8 0 1 0-16 0Z" fill="#FFFFFF" p-id="33926"></path><path d="M600.8 383.2m-8 0a8 8 0 1 0 16 0 8 8 0 1 0-16 0Z" fill="#FFFFFF" p-id="33927"></path><path d="M362.4 652.8s83.2 180.8 144 179.2 144-179.2 144-179.2h-288z" fill="#040000" p-id="33928"></path><path d="M505.6 844.8c-30.4 0-64.8-31.2-105.6-95.2-28.8-45.6-48.8-89.6-50.4-92l-8.8-18.4h329.6l-8.8 19.2c-0.8 1.6-21.6 45.6-50.4 90.4-40.8 64-75.2 95.2-105.6 96zM383.2 665.6c34.4 68.8 89.6 152.8 122.4 152.8h0.8c35.2-0.8 90.4-87.2 123.2-152.8H383.2z" fill="#040000" p-id="33929"></path><path d="M328.8 554.4c-14.4 16.8-22.4 38.4-22.4 61.6 0 54.4 47.2 98.4 104.8 98.4 42.4 0 78.4-24 95.2-57.6 16.8 34.4 52.8 57.6 95.2 57.6 57.6 0 104.8-44 104.8-98.4 0-22.4-8-43.2-20.8-59.2" fill="#F8C689" p-id="33930"></path><path d="M601.6 726.4c-38.4 0-73.6-17.6-95.2-47.2-21.6 28.8-56.8 47.2-95.2 47.2-64 0-116.8-49.6-116.8-110.4 0-24.8 8.8-49.6 25.6-68.8 4-4.8 12-5.6 16.8-1.6 4.8 4 5.6 12 1.6 16.8-12.8 15.2-20 33.6-20 53.6 0 48 41.6 86.4 92.8 86.4 36 0 69.6-20 84.8-51.2l10.4-22.4 10.4 22.4c15.2 31.2 48 51.2 84.8 51.2 51.2 0 92.8-39.2 92.8-86.4 0-19.2-6.4-36.8-18.4-52-4-4.8-3.2-12.8 1.6-16.8 4.8-4 12.8-3.2 16.8 1.6 15.2 19.2 24 42.4 24 67.2 0 60.8-52.8 110.4-116.8 110.4z" fill="#040000" p-id="33931"></path><path d="M551.2 716c-16.8 0-31.2 8.8-40 21.6-8.8-12.8-23.2-21.6-40-21.6-26.4 0-48 21.6-48 48-0.8 53.6 45.6 142.4 82.4 144.8S600 816.8 599.2 764c0-26.4-21.6-48-48-48z" fill="#EB5B18" p-id="33932"></path></svg>