<?xml version="1.0" standalone="no"?><!DOCTYPE svg PUBLIC "-//W3C//DTD SVG 1.1//EN" "http://www.w3.org/Graphics/SVG/1.1/DTD/svg11.dtd"><svg t="1704604590074" class="icon" viewBox="0 0 1024 1024" version="1.1" xmlns="http://www.w3.org/2000/svg" p-id="36677" xmlns:xlink="http://www.w3.org/1999/xlink" width="200" height="200"><path d="M547.39697 934.60682a3.502803 3.502803 0 0 1-0.471137-0.266295 6.288659 6.288659 0 0 1-2.499076-4.281204c-1.372443-7.108028 3.318445-14.216056 9.381777-18.169512s13.314749-5.530742 20.279388-7.517712a155.680148 155.680148 0 0 0 80.953677-56.65938c24.253328-32.487989 27.305479-69.359603 37.281298-107.378334 9.320325-35.540139 30.726345-70.36333 58.974098-93.858742 35.888371-29.866007 83.247911-43.938673 127.862564-54.713378a217.829302 217.829302 0 0 1 0.471137 22.839916c0.184358-5.756069-85.337302 29.968428-92.342908 34.700286-26.629499 18.005638-45.290633 41.091365-58.502961 70.342846-20.156482 44.635137-26.404172 95.149248-52.439629 137.244341-26.629499 42.914462-74.439692 71.203183-124.072981 78.044916a8.931124 8.931124 0 0 1-4.875247-0.327748z" fill="#423333" p-id="36678"></path><path d="M124.090357 634.328493l-12.126664 144.024621c-9.770978 115.899773 102.400666 214.224077 244.294927 214.224077h11.307295v-544.880518c-128.333701 0.348232-234.62637 81.773046-243.475558 186.63182z" fill="#4E4D48" p-id="36679"></path><path d="M624.827359 778.353114l-12.147148-144.024621c-8.849187-105.0841-115.59251-186.631819-244.294927-186.63182h-0.819369v544.880518h12.966518c141.873777 0 254.04542-98.324304 244.294926-214.224077z" fill="#3A3735" p-id="36680"></path><path d="M144.410713 103.41822C200.721862 169.152114 252.014374 98.686363 246.196852 247.278967c-0.798885 20.668588-86.259093-0.14339-142.549756-65.877284s-78.003948-157.851476-61.309301-172.067531 45.782254 28.350174 102.072918 94.084068zM582.527425 103.41822c-56.311148 65.733894-107.60366-4.731857-101.786139 143.860747 0.798885 20.668588 86.259093-0.14339 142.549756-65.877284s78.003948-157.851476 61.309301-172.067531-45.782254 28.350174-102.072918 94.084068z" fill="#383735" p-id="36681"></path><path d="M368.385284 91.271071h-0.819369v438.362522h0.819369c135.195918 0 244.786548-98.139946 244.786549-219.181261s-109.59063-219.181261-244.786549-219.181261z" fill="#4E4D48" p-id="36682"></path><path d="M123.598736 310.452332c0 120.856957 109.160462 218.771576 243.967179 219.181261v-438.362522c-134.806718 0.409685-243.967179 98.324304-243.967179 219.181261z" fill="#5E5D59" p-id="36683"></path><path d="M158.421927 577.771534a209.963357 130.07486 0 1 0 419.926715 0 209.963357 130.07486 0 1 0-419.926715 0Z" fill="#292724" p-id="36684"></path><path d="M225.978917 1015.109844H165.611892a77.840074 77.840074 0 0 1 155.680147 0h-56.90519l-21.774737-38.551321z" fill="#423333" p-id="36685"></path><path d="M482.031792 1011.012998h-60.367026a77.840074 77.840074 0 0 1 155.680148 0h-56.905191l-21.774736-38.551321z" fill="#423333" p-id="36686"></path><path d="M275.182038 209.055394m-37.895826 0a37.895825 37.895825 0 1 0 75.791651 0 37.895825 37.895825 0 1 0-75.791651 0Z" p-id="36687"></path><path d="M275.182038 250.023854a40.96846 40.96846 0 1 1 40.96846-40.96846 40.96846 40.96846 0 0 1-40.96846 40.96846z m0-75.791651a34.823191 34.823191 0 1 0 34.823191 34.823191 34.823191 34.823191 0 0 0-34.823191-34.823191z" fill="#FFFFFF" p-id="36688"></path><path d="M265.964134 201.885913m-19.460018 0a19.460018 19.460018 0 1 0 38.920037 0 19.460018 19.460018 0 1 0-38.920037 0Z" fill="#FFFFFF" p-id="36689"></path><path d="M461.588531 209.055394m-37.895826 0a37.895825 37.895825 0 1 0 75.791651 0 37.895825 37.895825 0 1 0-75.791651 0Z" p-id="36690"></path><path d="M461.588531 250.023854a40.96846 40.96846 0 1 1 40.96846-40.96846 40.96846 40.96846 0 0 1-40.96846 40.96846z m0-75.791651a34.823191 34.823191 0 1 0 34.823191 34.823191 34.823191 34.823191 0 0 0-34.823191-34.823191z" fill="#FFFFFF" p-id="36691"></path><path d="M470.806434 201.885913m-19.460018 0a19.460018 19.460018 0 1 0 38.920037 0 19.460018 19.460018 0 1 0-38.920037 0Z" fill="#FFFFFF" p-id="36692"></path><path d="M219.628806 87.174225s14.789614-79.888497 73.210638-26.916278-8.009334-90.130612 70.89592-18.661133 134.929623-120.344851 134.929623-2.068907c0 19.664861-53.258998 53.99643-35.232876 58.625866 79.888497 20.48423 94.739564 57.704076 63.849345 63.849345-109.037556 21.631347-88.86059-36.482414-109.447241-36.482414s-34.823191 86.832651-45.577411 47.871646c-22.75798-82.121278-127.821595 24.908824-75.197609-22.717012s-160.903627 6.145269-86.566356-61.288816" fill="#893C06" p-id="36693"></path><path d="M869.37798 603.457465a39.944248 60.428478 75.22 1 0 116.858102-30.831608 39.944248 60.428478 75.22 1 0-116.858102 30.831608Z" fill="#423333" p-id="36694"></path><path d="M53.952354 471.253538c0 107.869955 140.33746 195.337617 313.613561 195.624396v-391.248793c-173.276102 0.286779-313.613561 87.754441-313.613561 195.624397z" fill="#454442" p-id="36695"></path><path d="M368.385284 275.629141h-0.819369v391.248793h0.819369c173.665302 0 314.43293-87.590567 314.432931-195.624396s-140.767629-195.624396-314.432931-195.624397z" fill="#383735" p-id="36696"></path><path d="M245.684747 458.963m-41.992672 0a41.992671 41.992671 0 1 0 83.985343 0 41.992671 41.992671 0 1 0-83.985343 0Z" p-id="36697"></path><path d="M489.447083 458.963m-41.992671 0a41.992671 41.992671 0 1 0 83.985343 0 41.992671 41.992671 0 1 0-83.985343 0Z" p-id="36698"></path></svg>