<?xml version="1.0" standalone="no"?><!DOCTYPE svg PUBLIC "-//W3C//DTD SVG 1.1//EN" "http://www.w3.org/Graphics/SVG/1.1/DTD/svg11.dtd"><svg t="1704604821200" class="icon" viewBox="0 0 1024 1024" version="1.1" xmlns="http://www.w3.org/2000/svg" p-id="12344" xmlns:xlink="http://www.w3.org/1999/xlink" width="200" height="200"><path d="M627.712 755.989333C586.645333 713.152 573.632 682.666667 573.632 682.666667s-39.36-59.328-4.117333-101.824l-115.157334-0.192c35.477333 42.517333-3.989333 102.016-3.989333 102.016s-13.12 30.741333-54.613333 73.877333c-1.514667-6.378667 3.349333 15.146667 9.237333 32.789333 21.333333 64 64 85.333333 106.666667 85.333334s85.333333-21.333333 106.666666-85.333334c5.930667-17.728 10.858667-39.616 9.386667-33.344z" fill="#00695C" p-id="12345"></path><path d="M618.666667 355.584s193.621333 235.541333 234.666666 358.656c42.666667 128 21.333333 213.333333-42.666666 170.666667C618.325333 789.333333 573.632 682.666667 573.632 682.666667s-42.666667-64 0-106.666667M405.333333 355.584S211.712 591.125333 170.666667 714.24c-42.666667 128-21.333333 213.333333 42.666666 170.666667C405.674667 789.333333 450.368 682.666667 450.368 682.666667s42.666667-64 0-106.666667" fill="#90CAF9" p-id="12346"></path><path d="M618.666667 512c-21.333333 64-64 128-106.666667 128s-85.333333-64-106.666667-128-21.632-127.786667-21.632-127.786667S392.128 298.666667 490.666667 298.666667h42.666666c98.090667 0 107.008 85.333333 107.008 85.333333S640 448 618.666667 512z" fill="#00796B" p-id="12347"></path><path d="M389.568 725.568c2.325333 14.144 5.546667 29.632 9.941333 45.568 35.370667 7.893333 72.896 12.544 112.106667 12.544a516.266667 516.266667 0 0 0 112.192-12.544c4.373333-15.936 7.594667-31.445333 9.92-45.589333a481.216 481.216 0 0 1-122.112 15.466666 482.901333 482.901333 0 0 1-122.048-15.445333zM402.282667 502.293333c0.981333 3.221333 1.962667 6.464 3.050666 9.706667 3.434667 10.282667 7.466667 20.565333 11.925334 30.592a488.064 488.064 0 0 1 189.482666 0 343.402667 343.402667 0 0 0 14.976-40.298667A521.173333 521.173333 0 0 0 512 490.666667a521.173333 521.173333 0 0 0-109.717333 11.626666zM384.362667 400c0.661333 10.325333 1.962667 25.088 4.586666 42.325333C426.837333 432.298667 468.373333 426.666667 512 426.666667s85.162667 5.632 123.050667 15.658666a493.44 493.44 0 0 0 4.629333-42.325333A515.712 515.712 0 0 0 512 384c-44.970667 0-87.872 5.824-127.637333 16zM555.029333 619.882667c0.256-0.234667 0.469333-0.512 0.704-0.746667-13.973333 12.885333-28.842667 20.864-43.733333 20.864s-29.76-7.978667-43.712-20.885333c0.234667 0.234667 0.448 0.533333 0.704 0.746666 0.874667 22.741333-8.426667 44.010667-14.186667 54.976 18.773333 5.141333 38.208 7.829333 57.194667 7.829334 20.288 0 39.189333-3.114667 56.533333-9.066667-5.781333-11.306667-14.336-31.808-13.504-53.717333zM618.666667 256c0 21.333333-64 42.666667-106.666667 42.666667s-106.666667-21.333333-106.666667-42.666667v0.042667a64 64 0 0 1 64-64h85.333334a64 64 0 0 1 64 64V256z" fill="#004D40" p-id="12348"></path><path d="M512 213.333333m-64 0a64 64 0 1 0 128 0 64 64 0 1 0-128 0Z" fill="#004D40" p-id="12349"></path><path d="M440.469333 585.578667c-51.541333 22.208-57.109333 75.968-57.109333 75.968s0.234667 43.669333 12.394667 94.997333c41.493333-43.114667 54.613333-73.877333 54.613333-73.877333s19.861333-30.122667 18.624-62.784c-10.090667-9.152-19.690667-20.885333-28.522667-34.304zM583.338667 585.877333c-8.768 13.312-18.304 24.938667-28.309334 34.005334-1.258667 32.682667 18.602667 62.784 18.602667 62.784s13.013333 30.485333 54.08 73.322666C639.744 704.832 640 661.333333 640 661.333333s-5.845333-53.12-56.661333-75.456z" fill="#42A5F5" p-id="12350"></path><path d="M618.005333 234.005333C614.336 210.709333 599.552 192 576 192c-0.96 0-1.877333 0.213333-2.816 0.256A42.453333 42.453333 0 0 0 533.333333 234.666667c0 22.314667 13.333333 47.509333 41.301334 52.992C599.210667 279.509333 618.666667 267.754667 618.666667 256h0.234666a91.52 91.52 0 0 0-0.896-21.994667zM405.994667 234.005333c3.648-23.296 18.432-42.24 42.005333-42.24 0.96 0 1.856 0.213333 2.816 0.256A42.666667 42.666667 0 0 1 490.666667 234.666667c0 22.314667-13.333333 47.509333-41.28 52.992C424.810667 279.509333 405.333333 267.754667 405.333333 256h-0.234666a91.52 91.52 0 0 1 0.896-21.994667z" fill="#F44336" p-id="12351"></path></svg>