<?xml version="1.0" standalone="no"?><!DOCTYPE svg PUBLIC "-//W3C//DTD SVG 1.1//EN" "http://www.w3.org/Graphics/SVG/1.1/DTD/svg11.dtd"><svg t="1704604848202" class="icon" viewBox="0 0 1024 1024" version="1.1" xmlns="http://www.w3.org/2000/svg" p-id="13955" xmlns:xlink="http://www.w3.org/1999/xlink" width="200" height="200"><path d="M866.375692 536.377048l-3.586007-19.878039s-11.430022-66.294129 15.47203-105.898207c80.530157-118.558232 104.692204-360.168703 62.668123-375.448733-49.320096-17.934035-282.464552 204.002398-282.464552 204.002398s-7.890015 0.494001-7.890015 0.510001c2.234004 4.336008 43.424085 147.336288 215.800421 296.71258z" fill="#FED9A8" p-id="13956"></path><path d="M766.695497 363.27071c6.054012 8.608017 12.340024 17.300034 18.830037 25.98605 14.916029 19.960039 45.84009 17.054033 56.38211-5.524011 3.994008-8.554017 8.438016-16.276032 13.352026-22.350043 31.402061-38.816076 51.678101-106.746208 64.810127-179.556351 5.472011-30.346059 8.034016-56.030109 8.872017-76.556149 0.306001-7.490015-9.444018-10.624021-13.584026-4.376009l-149.170292 225.09444a33.050065 33.050065 0 0 0 0.508001 37.282073z" fill="#FFE0BB" p-id="13957"></path><path d="M365.576714 239.066467l-0.054 0.104v-0.018S132.376259 17.216034 83.058162 35.150069c-3.176006 1.154002-5.874011 3.744007-8.134016 7.522014-0.038 0.064-0.068 0.136-0.108 0.198001C45.720089 87.940172 72.078141 301.432589 146.228286 410.598802c26.902053 39.604077 15.47203 105.898207 15.47203 105.898207l-3.584007 19.878039c172.046336-149.090291 213.404417-291.82057 215.782421-296.67658l-8.322016-0.632001z" fill="#FED9A8" p-id="13958"></path><path d="M257.794504 363.27071a1117.134182 1117.134182 0 0 1-18.830037 25.98605c-14.916029 19.960039-45.84009 17.054033-56.38211-5.524011-3.994008-8.554017-8.438016-16.276032-13.352026-22.350043-31.402061-38.816076-51.678101-106.746208-64.810127-179.556351-5.472011-30.346059-8.034016-56.030109-8.872017-76.556149-0.306001-7.490015 9.444018-10.624021 13.584026-4.376009l149.170291 225.09444a33.050065 33.050065 0 0 1-0.508 37.282073z" fill="#FFE0BB" p-id="13959"></path><path d="M1009.687972 665.327299c-39.702078-35.454069-118.076231-108.418212-199.978391-201.364393-38.192075-43.344085-72.230141-92.40818-98.306192-133.630261 55.870109-82.234161 186.394364-268.058524 237.782465-287.470561-2.286004-3.886008-5.02401-6.538013-8.254016-7.712015-49.320096-17.934035-282.464552 204.002398-282.464552 204.002398v0.018l-0.054-0.104-146.416286 11.138022-146.416286-11.138022-0.054 0.104v-0.018S132.376259 17.216034 83.058162 35.150069c-3.230006 1.174002-5.968012 3.826007-8.254016 7.712015 51.3881 19.414038 181.912355 205.236401 237.782465 287.470561-26.076051 41.222081-60.114117 90.286176-98.306192 133.630261-81.90216 92.946182-160.278313 165.910324-199.978391 201.364393-16.204032 14.470028-19.028037 38.810076-6.476013 56.540111 48.222094 68.114133 187.506366 217.930426 479.766937 217.930426h48.804096c292.260571 0 431.544843-149.816293 479.766937-217.930426 12.550025-17.730035 9.726019-42.070082-6.476013-56.540111z" fill="#FE9901" p-id="13960"></path><path d="M1009.699972 665.337299c-39.698078-35.450069-118.080231-108.420212-199.990391-201.374393-38.192075-43.344085-72.230141-92.40818-98.306192-133.630261 55.870109-82.234161 186.394364-268.058524 237.782465-287.470561-2.286004-3.886008-5.02401-6.538013-8.254016-7.712015-18.622036-6.772013-63.456124 20.66204-112.050219 57.428112-52.988103 57.968113-120.390235 152.252297-163.184319 214.350418a42.394083 42.394083 0 0 0-0.438001 47.474093c23.484046 35.456069 51.738101 74.392145 82.728162 109.560214 81.91016 92.954182 160.292313 165.924324 199.990391 201.372393 16.192032 14.460028 19.028037 38.780076 6.486012 56.500111-47.844093 67.594132-185.448362 215.712421-473.328924 217.910425 2.154004 0.016 4.288008 0.052 6.458012 0.052001h48.804096c292.292571 0 431.574843-149.850293 479.782937-217.952426 12.546025-17.726035 9.718019-42.044082-6.480013-56.508111z" fill="#EA7500" p-id="13961"></path><path d="M1021.661995 683.459335c-75.004146-25.146049-409.5608-114.570224-495.856968 256.338501h10.592021c5.36201 0 10.658021-0.066 15.918031-0.164001 1.594003-0.03 3.170006-0.076 4.754009-0.114 3.764007-0.092 7.504015-0.21 11.214022-0.352001 1.660003-0.064 3.320006-0.128 4.97001-0.202 4.096008-0.182 8.156016-0.398001 12.186023-0.640001 1.032002-0.062 2.080004-0.112 3.108007-0.176001 5.00601-0.320001 9.960019-0.690001 14.866029-1.100002 1.250002-0.104 2.480005-0.226 3.724007-0.336a740.619447 740.619447 0 0 0 15.730031-1.560004c3.516007-0.386001 7.004014-0.798002 10.46802-1.230002 1.322003-0.166 2.652005-0.322001 3.966008-0.492001 4.678009-0.610001 9.316018-1.252002 13.898027-1.942004 0.610001-0.092 1.206002-0.194 1.816003-0.288 3.982008-0.610001 7.928015-1.252002 11.836024-1.920004 1.416003-0.242 2.820006-0.494001 4.226008-0.744001 3.202006-0.568001 6.380012-1.156002 9.534018-1.762004 1.374003-0.264001 2.752005-0.526001 4.116008-0.798001 3.806007-0.758001 7.578015-1.540003 11.312023-2.352005 0.554001-0.12 1.118002-0.232 1.670003-0.354001 4.264008-0.938002 8.472017-1.916004 12.642024-2.922005 1.188002-0.286001 2.358005-0.584001 3.538007-0.876002a669.463308 669.463308 0 0 0 13.022026-3.360007c3.076006-0.830002 6.122012-1.680003 9.144018-2.546005 0.992002-0.284001 1.996004-0.560001 2.982006-0.848001a606.863185 606.863185 0 0 0 11.706022-3.542007c0.810002-0.254 1.602003-0.518001 2.406005-0.774002 3.068006-0.978002 6.112012-1.970004 9.122018-2.982006a571.593116 571.593116 0 0 0 11.672023-4.064008c1.104002-0.396001 2.214004-0.790002 3.308006-1.190002a578.47113 578.47113 0 0 0 21.390042-8.320016c1.052002-0.434001 2.090004-0.874002 3.136006-1.312003a574.401122 574.401122 0 0 0 10.654021-4.590009c2.696005-1.196002 5.36001-2.406005 8.000015-3.626007 0.664001-0.306001 1.338003-0.608001 1.998004-0.916002a557.83709 557.83709 0 0 0 9.674019-4.638009c0.804002-0.396001 1.594003-0.798002 2.394005-1.196002a539.825054 539.825054 0 0 0 16.872033-8.760017c0.834002-0.452001 1.678003-0.902002 2.506005-1.356003a536.211047 536.211047 0 0 0 8.834017-4.948009c0.396001-0.228 0.782002-0.458001 1.176002-0.686002a528.929033 528.929033 0 0 0 7.440015-4.372008c0.888002-0.532001 1.768003-1.068002 2.648005-1.602003a491.210959 491.210959 0 0 0 5.964012-3.672008 520.765017 520.765017 0 0 0 9.630019-6.156012c0.316001-0.208 0.642001-0.414001 0.958001-0.622001a521.605019 521.605019 0 0 0 7.786016-5.23601c0.718001-0.492001 1.420003-0.986002 2.132004-1.478003 1.862004-1.288003 3.704007-2.580005 5.524011-3.876007 0.802002-0.572001 1.604003-1.144002 2.398004-1.716004a511.961 511.961 0 0 0 5.514011-4.032008c0.594001-0.440001 1.196002-0.878002 1.784003-1.318002a508.340993 508.340993 0 0 0 6.978014-5.310011c0.474001-0.368001 0.934002-0.736001 1.404003-1.102002 1.824004-1.424003 3.624007-2.848006 5.40001-4.272008 0.710001-0.570001 1.412003-1.140002 2.116005-1.710003 1.588003-1.288003 3.154006-2.576005 4.702009-3.864008 0.632001-0.526001 1.270002-1.052002 1.896003-1.578003a494.936967 494.936967 0 0 0 12.250024-10.638021c0.586001-0.526001 1.162002-1.052002 1.742004-1.578003 1.412003-1.280003 2.806005-2.556005 4.180008-3.830007 0.596001-0.554001 1.194002-1.106002 1.782003-1.658004 1.514003-1.418003 3.004006-2.832006 4.472009-4.242008 0.350001-0.336001 0.710001-0.674001 1.056002-1.010002 1.796004-1.736003 3.554007-3.464007 5.280011-5.18201l1.270002-1.278003a467.560913 467.560913 0 0 0 9.020018-9.302018c0.418001-0.442001 0.844002-0.888002 1.256002-1.330002a470.040918 470.040918 0 0 0 4.588009-4.96601c0.196-0.214 0.382001-0.426001 0.576001-0.640001 1.294003-1.428003 2.562005-2.846006 3.806008-4.252009 0.442001-0.500001 0.874002-0.994002 1.310002-1.492002 1.018002-1.162002 2.020004-2.318005 3.004006-3.462007 0.406001-0.474001 0.816002-0.948002 1.216002-1.418003 1.194002-1.402003 2.362005-2.790005 3.502007-4.162008l0.406001-0.484001c1.276002-1.540003 2.512005-3.058006 3.722007-4.558009 0.326001-0.404001 0.638001-0.798002 0.958002-1.198002 0.882002-1.102002 1.746003-2.192004 2.592005-3.270007l1.080002-1.380002c0.858002-1.102002 1.694003-2.190004 2.514005-3.266007l0.756002-0.990002c1.052002-1.390003 2.074004-2.756005 3.064006-4.096008l0.570001-0.780001a369.974723 369.974723 0 0 0 3.168006-4.374009c0.328001-0.460001 0.640001-0.906002 0.960002-1.358002 8.066016-11.492022 9.666019-25.72205 5.40201-38.250075z" fill="#FED9A8" p-id="13962"></path><path d="M557.125088 939.515835c3.736007-0.092 7.446015-0.208 11.130022-0.348001l0.038-0.002c116.718228-4.514009 233.386456-35.540069 330.168645-102.4962 59.354116-41.10208 96.958189-85.508167 117.70023-114.802224 8.158016-11.522023 9.780019-25.82605 5.49801-38.408075-15.42203-5.17001-41.824082-13.056026-74.780146-19.102037l-0.012 0.024c17.166034 14.336028 20.40004 39.364077 7.570015 57.486112-45.292088 63.976125-170.972334 199.982391-428.238836 216.272422-0.13 0.556001-0.268001 1.100002-0.398001 1.658004h10.592021c5.36001 0 10.652021-0.066 15.908031-0.166001 1.620003-0.03 3.218006-0.076 4.824009-0.116z" fill="#FEC373" p-id="13963"></path><path d="M487.590952 939.797836h10.592021C419.65282 602.267176 135.542265 645.945262 28.520056 675.489319c-4.98601 1.186002-13.314026 3.650007-26.194051 7.968016l-0.002 0.004a42.894084 42.894084 0 0 0-1.742004 7.022014l-0.05 0.308a42.950084 42.950084 0 0 0-0.262 10.896021c0.048 0.470001 0.09 0.940002 0.154 1.410003a47.104092 47.104092 0 0 0 1.052002 5.20201 42.182082 42.182082 0 0 0 4.490009 10.662021c0.552001 0.930002 1.128002 1.850004 1.758003 2.748006 0.318001 0.450001 0.626001 0.892002 0.952002 1.348002l0.612001 0.856002 0.248001 0.346001c0.750001 1.044002 1.524003 2.106004 2.316004 3.184006l0.570001 0.780001a439.780859 439.780859 0 0 0 3.054006 4.084008c54.418106 71.82814 194.000379 207.490405 472.114922 207.490406z" fill="#FED9A8" p-id="13964"></path><path d="M410.970803 908.731775c1.148002 44.976088 45.92009 81.152159 101.024197 81.152158 55.102108 0 99.876195-36.176071 101.024197-81.152158H410.970803z" fill="#BF6101" p-id="13965"></path><path d="M842.289645 714.367395c-63.752125 0-118.038231 15.32203-161.350315 45.542089-6.808013 4.750009-13.340026 9.934019-19.648038 15.47203 8.282016 38.790076 11.780023 74.994146 7.794015 104.224204 0.23-0.05 0.464001-0.094 0.694001-0.144l1.550003-0.326001c3.914008-0.862002 7.784015-1.762003 11.620023-2.686005 96.564189-23.152045 187.440366-72.450142 253.394495-147.468288 0.980002-1.120002 1.876004-2.148004 2.754005-3.172006l0.500001-0.582002c-27.138053-5.828011-61.062119-10.860021-97.30819-10.860021zM362.694708 775.383514c-6.308012-5.538011-12.840025-10.724021-19.648038-15.47203-43.312085-30.220059-97.598191-45.542089-161.350315-45.542089-36.246071 0-70.170137 5.03201-97.30819 10.862021l0.500001 0.582002c0.878002 1.024002 1.774003 2.052004 2.754005 3.172006C153.5963 804.00157 244.472477 853.301667 341.036666 876.453712c3.836007 0.924002 7.704015 1.824004 11.620023 2.686005l1.550003 0.326001c0.23 0.05 0.464001 0.094 0.694001 0.144-3.986008-29.234057-0.488001-65.436128 7.794015-104.226204-6.306012-5.538011-8.282016 38.790076 0 0z" fill="#FFE0BB" p-id="13966"></path><path d="M343.19867 524.833025c-29.478058 0-53.460104 23.982047-53.460104 53.462104 0 8.286016 6.714013 15.000029 15.000029 15.00003s15.000029-6.714013 15.000029-15.00003c0-12.938025 10.526021-23.462046 23.460046-23.462045 12.938025 0 23.462046 10.526021 23.462046 23.462045 0 8.286016 6.714013 15.000029 15.000029 15.00003s15.000029-6.714013 15.00003-15.00003c0.002-29.480058-23.982047-53.462104-53.462105-53.462104zM642.325255 593.295159c8.286016 0 15.000029-6.714013 15.000029-15.00003 0-12.938025 10.526021-23.462046 23.460046-23.462045 12.938025 0 23.462046 10.526021 23.462045 23.462045 0 8.286016 6.714013 15.000029 15.00003 15.00003s15.000029-6.714013 15.000029-15.00003c0-29.480058-23.982047-53.462104-53.462104-53.462104-29.478058 0-53.460104 23.982047-53.460105 53.462104a15.000029 15.000029 0 0 0 15.00003 15.00003z" fill="#4C3F21" p-id="13967"></path><path d="M511.993 507.796992c-30.73806 0.264001-163.98832 273.110533-122.88024 369.032721 12.896025 30.094059 43.332085 52.816103 62.728123 61.71812 24.568048 11.274022 50.894099-3.496007 60.150117-29.182057 9.256018 25.68805 35.582069 40.456079 60.150117 29.182057 19.398038-8.902017 49.832097-31.626062 62.728123-61.71812 41.11208-95.922187-92.13818-368.76872-122.87624-369.032721z" fill="#FEB64F" p-id="13968"></path><path d="M511.993 507.796992c-0.934002 0.008-1.966004 0.278001-3.080006 0.776001 31.840062 124.364243 60.040117 307.0686 33.816066 368.25872-6.334012 14.778029-16.902033 27.764054-28.310055 38.224074 10.858021 22.098043 35.034068 33.906066 57.724112 23.494046 19.398038-8.902017 49.832097-31.626062 62.728123-61.71812 41.11008-95.924187-92.14018-368.77072-122.87824-369.034721z" fill="#FEA921" p-id="13969"></path><path d="M515.637007 837.609636h-7.288014c-25.50405 0-47.884094 17.820035-47.884094 37.800074 0 15.080029 25.79805 26.778052 38.450075 31.606062a36.666072 36.666072 0 0 0 26.156052 0c12.652025-4.830009 38.450075-16.526032 38.450075-31.606062 0-19.980039-22.380044-37.800074-47.884094-37.800074z" fill="#713802" p-id="13970"></path></svg>