<?xml version="1.0" standalone="no"?><!DOCTYPE svg PUBLIC "-//W3C//DTD SVG 1.1//EN" "http://www.w3.org/Graphics/SVG/1.1/DTD/svg11.dtd"><svg t="1704604875616" class="icon" viewBox="0 0 1024 1024" version="1.1" xmlns="http://www.w3.org/2000/svg" p-id="15161" xmlns:xlink="http://www.w3.org/1999/xlink" width="200" height="200"><path d="M680.15 308.484c-0.562-1.032-6.812-12.624-19.624-29.996-15.716-21.376-41.372-51.532-78.402-81.686-39.296-31.968-83.482-57.436-131.308-75.716-59.576-22.748-124.948-34.248-194.304-34.248-75.434 0-156.744 13.688-241.63 40.686A21.332 21.332 0 0 0 0.304 151.306c1.718 10.468 10.844 18.03 21.42 17.874h3.11c17.282 0 108.762 1.344 212.852 28.218 58.904 15.188 111.542 35.874 156.416 61.466 54.388 31.03 97.7 69.528 128.73 114.432 4.062 5.906 50.67 6.812 100.324-16.876 49.65-23.654 59.932-42.466 56.994-47.936z" fill="#FFCE54" p-id="15162"></path><path d="M225.732 194.396l38.17-107.496a566.86 566.86 0 0 0-7.39-0.062c-12.592 0-25.358 0.376-38.264 1.124l-34.56 97.372a885.38 885.38 0 0 1 42.044 9.062zM282.918 210.552a668.308 668.308 0 0 1 40.154 14.436l43.154-127.87c-14.046-2.75-28.328-4.906-42.81-6.562l-40.498 119.996zM394.1 258.864a476.494 476.494 0 0 1 21.032 12.75l61.042-139.996a504.194 504.194 0 0 0-25.358-10.532c-4.732-1.81-9.514-3.498-14.326-5.186l-58.498 134.182a478.25 478.25 0 0 1 16.108 8.782z" fill="#F6BB42" p-id="15163"></path><path d="M1018.418 566.68l-155.148-170.072a19.21 19.21 0 0 0-1.124-1.124l-143.494-135.494a21.28 21.28 0 0 0-18.594-5.438s-124.056 17.062-184.008 70.746c-10.094 9.062-32.03 24.376-90.402 108.934-33.812 48.966-76.668 114.886-127.384 195.884-86.216 137.742-166.478 273.488-167.292 274.864a21.366 21.366 0 0 0-0.156 21.434 21.394 21.394 0 0 0 18.532 10.75H490.66c8.046 0 15.406-4.5 19.03-11.686l119.714-236.43c52.308 9.5 218.368 38.75 286.208 38.75 12.216 0 20.998-0.938 27.592-2.876 50.124-14.624 76.214-53.874 77.308-55.56a21.292 21.292 0 0 0 3.468-11.624v-76.684c0-5.314-1.968-10.438-5.562-14.374z" fill="#E6E9ED" p-id="15164"></path><path d="M725.338 467.854c0 11.782-9.562 21.312-21.344 21.312s-21.344-9.532-21.344-21.312 9.562-21.342 21.344-21.342 21.344 9.56 21.344 21.342z" fill="#656D78" p-id="15165"></path><path d="M1023.98 590.678l-47.03-10.312c-11.53-2.562-22.904 4.75-25.436 16.25-2.5 11.5 4.782 22.876 16.28 25.376l56.186 12.376v-43.69z" fill="#EC87C0" p-id="15166"></path><path d="M343.556 558.554c218.382-2.376 241.006-50.576 241.006-50.576l-202.32-9.156a5423.234 5423.234 0 0 0-38.686 59.732z" opacity=".1" p-id="15167"></path><path d="M595.218 484.292l-19.406-82.652a21.208 21.208 0 0 0-9.624-13.312 21.388 21.388 0 0 0-16.218-2.532l-250.66 61.342a21.304 21.304 0 0 0-15.984 17.342 21.3 21.3 0 0 0 9.796 21.468c3.282 2.062 81.606 50.092 176.21 50.092 41.81 0 80.574-9.438 115.23-28.06a21.344 21.344 0 0 0 10.656-23.688z" fill="#E6E9ED" p-id="15168"></path><path d="M532.596 656.612l77.436 70.748 19.372-38.314z" opacity=".1" p-id="15169"></path></svg>