<?xml version="1.0" standalone="no"?><!DOCTYPE svg PUBLIC "-//W3C//DTD SVG 1.1//EN" "http://www.w3.org/Graphics/SVG/1.1/DTD/svg11.dtd"><svg t="1704604919756" class="icon" viewBox="0 0 1024 1024" version="1.1" xmlns="http://www.w3.org/2000/svg" p-id="17959" xmlns:xlink="http://www.w3.org/1999/xlink" width="200" height="200"><path d="M664.5 193.8c-14.7-24.7-45.5-34.6-67.9-20.7 22.5-11.1 45.9-8.4 67.9 20.7zM329.1 544.6c-0.7-6.7-9.3-6.3-9.3-6.3-0.3 0.1-0.6 0.2-1 0.4 3.5-0.7 7 1.1 10.3 5.9zM489 326.2c-4 11.2-3.5 16.4-11.1 25.7 5.9-3.4 9.4-16.7 11.1-25.7zM313 665.9c3.5 8.3 9.2 18.6 15.8 29.1-6.8-11.7-13.6-25.3-19.8-40.9 1.3 4.6 2.7 8.6 4 11.8zM446.3 780.5c-3.8-0.8-8.2-1.8-12.8-3.2 3.8 1.2 8.1 2.3 12.8 3.2zM361.6 739.8c5.3 6 9.8 10.4 12.8 12.2 0 0-5-3.9-12.8-12.2zM341.3 531.8l7.6-8c-2.7 2.5-5.2 5.3-7.6 8zM304.6 555.4c1.3-3.3 2.7-6.1 4.2-8.5-1.6 2.4-3 5.3-4.2 8.5zM678.3 809.9c0-1.5-0.3-0.4-0.9 2.3 0.9 1.3 0.9 0.8 0.9-2.3zM578.9 856c-0.9 0.5-1.7 0.8-2.5 1 0.9 0 1.8-0.4 2.5-1zM677.4 812.2c-0.1-0.2-0.3-0.4-0.5-0.7 0.1 0.4 0.2 0.9 0.3 1.3 0.1-0.2 0.2-0.4 0.2-0.6zM657.6 853.9c-4.4 1.7-7.8 2.1-7.8 2.1 2.8 0.2 5.4-0.6 7.8-2.1z" fill="#E5E3E3" p-id="17960"></path><path d="M607.1 282.9c4.7 1.4 8.7 2.2 12.3 2.5-18.7-15.3-22.4-54.8-13.4-62.8 0 0 28.2-28.1 46.5-25.8 5.8 0.7 12.1 3 17.8 6.5-1.8-2.9-3.7-6.1-5.7-9.5 0 0-21.6-4.7-50.8 11.8-0.5 2.6-2.9 4.6-5.6 4.6-0.5 0-1-0.1-1.5-0.2-37.8 25-85.6 86.3-116.3 234.4 0 0 86.7 251.4-27.9 338.4 41.8 4.3 98.5 0.4 98.5 0.4l25.7-18.9c0.7-1.2 1.5-1.9 2.5-1.9 7.4 0 53.5-90.6 53.5-90.6 46-115.8-54.9-172.2-54.9-172.2-49-114.3-25.2-121.7-34.1-134.3-9-12.5 23.7-91.3 53.4-82.4zM608.3 797c-4.4 0.6-8.1 1.1-10.8 1.1-7.2 0-11.1-9.5-12.3-18.6-0.8 11 2.7 22.7 23.1 17.5zM583 854.2c12.8-3 47.7 0.5 66.7 1.8 0 0-46.4-8.6-66.7-1.8zM413.1 770.3c1.2 0.2 2.5 0.5 3.9 0.8h-0.1s-1.6-0.5-3.8-0.8z" fill="#E5E3E3" p-id="17961"></path><path d="M378.7 766.2c-2.9 7.6-11.5 16.8-24 26C332.5 808.4 313 847 313 847c45.9 54.9 135.2 7.4 145.9-4.5 10.7-11.9-62.6-43.1-60.9-53.4 0.7-3.9 0.6-9 2-12.9-3.6 9.6-25.9 1.6-21.3-10z m-49.6 74.5s24.2-32.2 32.2-31-32.2 31-32.2 31z m100.4 0c-12.5 0-42.4-3-52.1-15.5-9.7-12.5-2.9-32.2-2.9-32.2 13.2-16.7 7.8 15.4 14.5 29.5 6.6 14.2 53 18.2 40.5 18.2z" fill="#FC7815" p-id="17962"></path><path d="M374.4 752c5.3 3.2 6.5 8.1 4.3 13.9 5-11.6-4.3-13.9-4.3-13.9z" fill="#E5E3E3" p-id="17963"></path><path d="M490.4 444.3c30.7-148 78.5-209.3 116.3-234.4-2.5-0.6-4.3-2.9-4.3-5.5 0-3.2 2.6-5.7 5.7-5.7 3.2 0 5.7 2.6 5.7 5.7 0 0.4 0 0.8-0.1 1.2 29.2-16.5 50.8-11.8 50.8-11.8-22-29.1-45.5-31.8-67.9-20.7-3.2 2-6.2 4.4-8.9 7.3-22.3 23.8-37.1 47.5-44.5 56.4-7.4 8.9-29 46-29 46-15.7 21.6-21.9 34.4-25.2 43.3-1.7 9-5.3 22.3-11.1 25.7-13.7 16.7-7.9 155.7-22.7 175.2-8.4 11.1-27.4-2.6-27.4-2.6C412.2 509.2 394 537 394 537c-5.2-22.3-15.2-4.5-15.2-4.5-6.4-24.2-19-18.9-29.9-8.9l-7.6 8c-6.9 7.9-12 15.2-12.2 12.8-3.2-4.7-6.8-6.5-10.3-6-4 1.6-7.3 4.4-9.9 8.3-1.5 2.4-2.9 5.3-4.2 8.5-9.3 25.5-3.3 71.9 4.3 98.6 6.2 15.6 13 29.2 19.8 40.9 10.3 16.4 22.9 33.5 32.9 44.8 7.7 8.3 12.8 12.2 12.8 12.2s9.3 2.2 4.3 13.9c0 0.1 0 0.1-0.1 0.2-4.6 11.6 17.7 19.6 21.3 10.1 1.5-4.3 4.9-7.2 13-6 2.2 0.3 3.9 0.8 3.9 0.8h0.1c3.3 0.9 7.2 2.3 11.8 4.3 1.4 0.6 3 1.2 4.7 1.8 4.6 1.4 9 2.4 12.8 3.2 5 0.9 10.5 1.7 16.2 2.3 114.6-86.6 27.9-338 27.9-338z" fill="#F4F4F4" p-id="17964"></path><path d="M605.9 222.6c-9 8-5.3 47.5 13.4 62.8 3.2 2.6 6.9 4.6 11.1 5.5 28.2 6.1 26.9-15.5 33.1-22.5 6.1-7 15.9-4.7 23.3-28.1 5-16-4.3-29.3-16.5-36.9-5.7-3.5-12-5.8-17.8-6.5-18.4-2.4-46.6 25.7-46.6 25.7z m27.2 63.9c-8.6-4.3-26.7-31.5-17.3-31.5h9.4c0.8 2.3 8.7 16.1 19.1 19.4 10.3 3.3-2.6 16.3-11.2 12.1z m27.3-27.9l-27.8-31.5s-10.7-24.9 14-17.6c24.7 7.3 32.6 18.5 34.1 25.5 1.6 7.2-20.3 23.6-20.3 23.6zM561 783.2c-10.1 23.9-0.3 77.1 15.3 73.8 0.8-0.2 1.7-0.5 2.5-1 1.2-0.7 2.6-1.3 4.2-1.8 20.3-6.8 66.7 1.8 66.7 1.8s3.4-0.4 7.8-2.1c9-3.4 22.2-12.3 20.7-34.5-0.2-2.4-0.5-4.5-1-6.6-0.1-0.5-0.2-0.9-0.3-1.3-6.6-25-35.4-22.9-68.6-14.5-20.5 5.2-23.9-6.4-23.1-17.6 0.7-8.6 4-17 4-17l-2.5 1.9-25.7 18.9z m56.6 26c-22.3-11.3 60.6 10.2 46.9 16-13.6 5.9-36.2-10.6-46.9-16z m-30.8 16c57.9 10.5 52 20.7 52 20.7s-43.1-6.7-59.7-12.6c-16.6-5.9-7.9-36.6-7.4-40.3 3.5-21.6 15.1 32.2 15.1 32.2z" fill="#FC7815" p-id="17965"></path><path d="M608.2 198.7c-3.2 0-5.7 2.6-5.7 5.7 0 2.7 1.8 4.9 4.3 5.5 0.5 0.1 0.9 0.2 1.5 0.2 2.8 0 5.1-2 5.6-4.6 0.1-0.4 0.1-0.8 0.1-1.2-0.1-3-2.7-5.6-5.8-5.6z" fill="#514744" p-id="17966"></path><path d="M644.2 274.4c-10.4-3.3-18.3-17.1-19.1-19.4h-9.4c-9.4 0 8.7 27.3 17.3 31.5 8.7 4.2 21.6-8.8 11.2-12.1zM646.7 209.6c-24.7-7.3-14 17.6-14 17.6l27.8 31.5s21.9-16.5 20.3-23.5c-1.6-7.1-9.5-18.3-34.1-25.6zM361.2 809.8c-8-1.3-32.2 31-32.2 31s40.3-29.8 32.2-31zM388.9 822.6c-6.7-14.1-1.3-46.2-14.5-29.5 0 0-6.8 19.7 2.9 32.2 9.7 12.5 39.6 15.5 52.1 15.5 12.6-0.1-33.8-4.1-40.5-18.2zM571.7 793.1c-0.6 3.6-9.3 34.3 7.4 40.3 16.6 5.9 59.7 12.6 59.7 12.6s5.9-10.2-52-20.7c0-0.1-11.6-53.9-15.1-32.2zM617.6 809.2c10.6 5.4 33.2 21.8 46.9 16 13.7-5.8-69.2-27.2-46.9-16z" fill="#EA5D32" p-id="17967"></path></svg>