<?xml version="1.0" standalone="no"?><!DOCTYPE svg PUBLIC "-//W3C//DTD SVG 1.1//EN" "http://www.w3.org/Graphics/SVG/1.1/DTD/svg11.dtd"><svg t="1704604976893" class="icon" viewBox="0 0 1024 1024" version="1.1" xmlns="http://www.w3.org/2000/svg" p-id="21386" xmlns:xlink="http://www.w3.org/1999/xlink" width="200" height="200"><path d="M789.333333 298.666667l-105.685333 66.944C691.541333 388.970667 748.16 554.666667 768 554.666667c21.333333 0 42.666667-21.333333 42.666667-21.333334 42.666667-42.666667 42.666667-192 42.666666-192 0-85.333333-64-42.666667-64-42.666666z" fill="#C0CA33" p-id="21387"></path><path d="M170.666667 789.333333s298.666667 21.333333 512-213.333333c0 0 61.333333-96.064 28.8-228.010667L149.333333 704l21.333334 85.333333z" fill="#CDDC39" p-id="21388"></path><path d="M304.725333 605.589333l-37.952 24.042667 37.589334 149.717333a723.392 723.392 0 0 0 41.834666-8.533333l-41.472-165.226667zM218.069333 789.098667a656.149333 656.149333 0 0 0 43.093334-3.498667l-33.024-131.52-37.952 24.021333 27.882666 110.997334zM533.632 460.608l-37.930667 24.042667 51.178667 203.904a612.373333 612.373333 0 0 0 37.717333-25.130667l-50.965333-202.816zM457.344 508.906667l-37.952 24.042666 49.408 196.757334c12.970667-5.76 26.069333-12.117333 39.210667-19.008l-50.666667-201.792zM380.949333 557.333333l-37.952 24 44.778667 178.24a675.072 675.072 0 0 0 40.576-13.546666l-47.402667-188.693334z" fill="#AFB42B" p-id="21389"></path><path d="M789.333333 384m-21.333333 0a21.333333 21.333333 0 1 0 42.666667 0 21.333333 21.333333 0 1 0-42.666667 0Z" fill="#6D4C41" p-id="21390"></path><path d="M945.408 214.421333a21.290667 21.290667 0 0 0-27.008 13.482667c-11.456 34.432-46.208 62.698667-70.592 79.061333 3.392 8.064 5.525333 19.093333 5.525333 34.368 0 0-0.021333 4.842667-0.256 12.736 25.706667-14.954667 86.741333-55.445333 105.813334-112.64a21.333333 21.333333 0 0 0-13.482667-27.008zM711.466667 348.010667l-139.456 88.32 49.706666 197.952A618.88 618.88 0 0 0 682.666667 576s61.333333-96.064 28.8-227.989333z" fill="#9E9D24" p-id="21391"></path><path d="M469.333333 729.450667a637.312 637.312 0 0 0 170.666667-110.848V512l-170.666667 128v89.450667z" fill="#9E9D24" p-id="21392"></path><path d="M85.333333 768s21.333333 21.333333 85.333334 21.333333l-16.768-67.050666L85.333333 768zM741.824 516.736C752.384 539.050667 761.92 554.666667 768 554.666667c21.333333 0 42.666667-21.333333 42.666667-21.333334 16.490667-16.512 32.789333-82.666667 32.789333-82.666666-59.456 63.125333-101.632 66.069333-101.632 66.069333zM499.776 640L227.968 347.114667a21.354667 21.354667 0 0 0-29.269333 31.082666L426.666667 717.674667A53.632 53.632 0 1 0 499.776 640z" fill="#827717" p-id="21393"></path></svg>