<?xml version="1.0" standalone="no"?><!DOCTYPE svg PUBLIC "-//W3C//DTD SVG 1.1//EN" "http://www.w3.org/Graphics/SVG/1.1/DTD/svg11.dtd"><svg t="1704605031052" class="icon" viewBox="0 0 1024 1024" version="1.1" xmlns="http://www.w3.org/2000/svg" p-id="24784" xmlns:xlink="http://www.w3.org/1999/xlink" width="200" height="200"><path d="M765.866667 814.933333c0 168.533333-113.066667 209.066667-253.866667 209.066667s-253.866667-40.533333-253.866667-209.066667S371.2 416 512 416s253.866667 230.4 253.866667 398.933333z" fill="#F2F2F2" p-id="24785"></path><path d="M381.866667 836.266667a53.333333 42.666667 90 1 0 85.333333 0 53.333333 42.666667 90 1 0-85.333333 0Z" fill="#CDD6E0" p-id="24786"></path><path d="M556.8 836.266667a53.333333 42.666667 90 1 0 85.333333 0 53.333333 42.666667 90 1 0-85.333333 0Z" fill="#CDD6E0" p-id="24787"></path><path d="M512 416c-119.466667 0-217.6 166.4-247.466667 317.866667 34.133333 40.533333 89.6 68.266667 153.6 68.266666h187.733334c61.866667 0 117.333333-27.733333 153.6-68.266666-29.866667-151.466667-128-317.866667-247.466667-317.866667z" fill="#231F20" p-id="24788"></path><path d="M454.4 1024h-168.533333v-23.466667c0-42.666667 34.133333-76.8 76.8-76.8h12.8c42.666667 0 76.8 34.133333 76.8 76.8V1024zM738.133333 1024h-168.533333v-23.466667c0-42.666667 34.133333-76.8 76.8-76.8h14.933333c42.666667 0 76.8 34.133333 76.8 76.8V1024z" fill="#CDD6E0" p-id="24789"></path><path d="M563.2 285.866667s106.666667-322.133333 298.666667-281.6c0 0 27.733333 298.666667-217.6 407.466666s-81.066667-125.866667-81.066667-125.866666z" fill="#F2F2F2" p-id="24790"></path><path d="M836.266667 51.2s-194.133333 10.666667-232.533334 332.8c0 0-14.933333 44.8 19.2 27.733333 0 0 177.066667-85.333333 213.333334-360.533333z" fill="#ACB3BA" p-id="24791"></path><path d="M460.8 285.866667S354.133333-36.266667 162.133333 4.266667c0 0-27.733333 298.666667 217.6 407.466666s81.066667-125.866667 81.066667-125.866666z" fill="#F2F2F2" p-id="24792"></path><path d="M187.733333 51.2s194.133333 10.666667 232.533334 332.8c0 0 14.933333 44.8-19.2 27.733333 0 0-177.066667-85.333333-213.333334-360.533333z" fill="#ACB3BA" p-id="24793"></path><path d="M644.266667 381.866667v-8.533334c0-49.066667-40.533333-89.6-89.6-89.6h-85.333334c-49.066667 0-89.6 40.533333-89.6 89.6v8.533334c0 57.6-27.733333 108.8-72.533333 145.066666-32 25.6-51.2 61.866667-51.2 102.4 0 78.933333 72.533333 140.8 160 140.8h187.733333c89.6 0 160-64 160-140.8 0-40.533333-19.2-76.8-51.2-102.4-40.533333-36.266667-68.266667-89.6-68.266666-145.066666z" fill="#F2F2F2" p-id="24794"></path><path d="M512 618.666667l-74.666667-42.666667 74.666667 76.8 74.666667-76.8z" fill="#40596B" p-id="24795"></path><path d="M558.933333 706.133333l-38.4-25.6v-38.4c0-4.266667-4.266667-6.4-6.4-6.4s-6.4 4.266667-6.4 6.4v38.4L469.333333 706.133333c-4.266667 2.133333-4.266667 6.4-2.133333 10.666667 2.133333 2.133333 4.266667 4.266667 6.4 4.266667 2.133333 0 2.133333 0 4.266667-2.133334l38.4-25.6 38.4 25.6c4.266667 2.133333 8.533333 2.133333 10.666666-2.133333-2.133333-4.266667-4.266667-8.533333-6.4-10.666667z" fill="#40596B" p-id="24796"></path><path d="M569.6 456.533333a40.533333 32 90 1 0 64 0 40.533333 32 90 1 0-64 0Z" fill="#40596B" p-id="24797"></path><path d="M582.4 456.533333a25.6 19.2 90 1 0 38.4 0 25.6 19.2 90 1 0-38.4 0Z" fill="#334A5E" p-id="24798"></path><path d="M601.6 443.733333a12.8 10.666667 90 1 0 21.333333 0 12.8 10.666667 90 1 0-21.333333 0Z" fill="#FFFFFF" p-id="24799"></path><path d="M390.4 456.533333a40.533333 32 90 1 0 64 0 40.533333 32 90 1 0-64 0Z" fill="#40596B" p-id="24800"></path><path d="M403.2 456.533333a25.6 19.2 90 1 0 38.4 0 25.6 19.2 90 1 0-38.4 0Z" fill="#334A5E" p-id="24801"></path><path d="M420.266667 443.733333a12.8 10.666667 90 1 0 21.333333 0 12.8 10.666667 90 1 0-21.333333 0Z" fill="#FFFFFF" p-id="24802"></path><path d="M556.8 654.933333h100.266667c2.133333 0 4.266667-2.133333 4.266666-4.266666s-2.133333-4.266667-4.266666-4.266667h-100.266667c-2.133333 0-4.266667 2.133333-4.266667 4.266667s2.133333 4.266667 4.266667 4.266666zM558.933333 635.733333l98.133334-17.066666c2.133333 0 4.266667-2.133333 2.133333-4.266667 0-2.133333-2.133333-4.266667-4.266667-2.133333l-98.133333 17.066666c-2.133333 0-4.266667 2.133333-2.133333 4.266667 0 2.133333 2.133333 2.133333 4.266666 2.133333zM657.066667 684.8l-98.133334-17.066667c-2.133333 0-4.266667 0-4.266666 2.133334s0 4.266667 2.133333 4.266666l98.133333 17.066667c2.133333 0 4.266667 0 4.266667-2.133333s-2.133333-4.266667-2.133333-4.266667z" fill="#CDD6E0" p-id="24803"></path><path d="M467.2 654.933333h-100.266667c-2.133333 0-4.266667-2.133333-4.266666-4.266666s2.133333-4.266667 4.266666-4.266667h100.266667c2.133333 0 4.266667 2.133333 4.266667 4.266667s-2.133333 4.266667-4.266667 4.266666zM465.066667 635.733333l-98.133334-17.066666c-2.133333 0-4.266667-2.133333-2.133333-4.266667 0-2.133333 2.133333-4.266667 4.266667-2.133333l98.133333 17.066666c2.133333 0 4.266667 2.133333 2.133333 4.266667 0 2.133333-2.133333 2.133333-4.266666 2.133333zM366.933333 684.8l98.133334-17.066667c2.133333 0 4.266667 0 4.266666 2.133334s0 4.266667-2.133333 4.266666l-98.133333 17.066667c-2.133333 0-4.266667 0-4.266667-2.133333s2.133333-4.266667 2.133333-4.266667z" fill="#CDD6E0" p-id="24804"></path></svg>