<?xml version="1.0" standalone="no"?><!DOCTYPE svg PUBLIC "-//W3C//DTD SVG 1.1//EN" "http://www.w3.org/Graphics/SVG/1.1/DTD/svg11.dtd"><svg t="1704605067103" class="icon" viewBox="0 0 1024 1024" version="1.1" xmlns="http://www.w3.org/2000/svg" p-id="26534" xmlns:xlink="http://www.w3.org/1999/xlink" width="200" height="200"><path d="M884.8 563.2l89.6-49.6-89.6-49.6 73.6-70.4-99.2-24.8 52.8-87.2-101.6 1.6 28-97.6-98.4 28 2.4-101.6-88 52-24-98.4-71.2 72.8-48.8-88.8-49.6 88.8-71.2-72.8-24 98.4L278.4 112l1.6 101.6-98.4-28 28 97.6-101.6-1.6 52.8 87.2-99.2 24.8 73.6 70.4-88.8 49.6 88.8 49.6-73.6 70.4 99.2 24.8-52.8 87.2 101.6-1.6-28 97.6 98.4-28-1.6 101.6 87.2-52 24 98.4 71.2-72.8 49.6 88.8 48.8-88.8 71.2 72.8 24-98.4 88 52-2.4-101.6 98.4 28-28-97.6 101.6 1.6-52.8-87.2 99.2-24.8z" fill="#947D65" p-id="26535"></path><path d="M510.4 1019.2L456 921.6l-76.8 80-27.2-107.2-95.2 56.8 1.6-110.4-106.4 30.4 30.4-106.4-109.6 1.6 56.8-95.2-107.2-27.2 80-76.8L4.8 513.6l96.8-53.6-80-76.8 107.2-27.2-56-95.2 110.4 1.6-30.4-106.4 106.4 30.4-1.6-110.4L352 132.8l27.2-107.2 76.8 80 53.6-96.8 53.6 96.8 76.8-80 27.2 107.2 95.2-56.8-1.6 110.4 106.4-30.4-30.4 106.4 110.4-1.6-56.8 95.2 107.2 27.2-80 76.8 96.8 53.6-96.8 53.6 80 76.8-107.2 27.2 56.8 95.2-110.4-1.6 30.4 106.4-106.4-31.2 1.6 110.4-95.2-56.8-27.2 107.2-76.8-80-52.8 98.4z m-45.6-164l44.8 80.8 44.8-80.8 64.8 66.4 22.4-89.6 79.2 48-0.8-92.8 88.8 25.6-25.6-88.8 92.8 1.6-48-79.2 89.6-22.4-66.4-64.8 80.8-44.8-80.8-44.8 66.4-64.8-89.6-22.4 48-79.2-92.8 0.8 25.6-88.8L720 240l1.6-92.8-79.2 48-22.4-89.6-64.8 66.4-44.8-80.8-44.8 80.8-64.8-66.4-22.4 89.6-79.2-48 0.8 92.8-88.8-25.6L236.8 304 144 302.4l48 79.2-89.6 22.4 66.4 64.8L88 513.6l80 44.8-66.4 64.8L192 645.6l-48 79.2 92.8-1.6-25.6 88.8 88.8-25.6-1.6 93.6 79.2-48 22.4 89.6 64.8-66.4z" fill="#040000" p-id="26536"></path><path d="M768.8 339.2c18.4-13.6 30.4-36 27.2-61.6-3.2-29.6-27.2-54.4-56.8-58.4-24.8-3.2-47.2 7.2-61.6 24.8-5.6 7.2-14.4 10.4-23.2 9.6-90.4-4.8-100.8 48-152.8 48-52.8 0-30.4-44-137.6-47.2-9.6 0-18.4-4-24.8-11.2-13.6-17.6-36-27.2-60.8-24-28 4-52 25.6-56.8 54.4-4.8 28 8 53.6 28.8 68-39.2 55.2-60.8 126.4-60.8 198.4 0 176.8 143.2 320 320 320s320-143.2 320-320c0.8-72.8-20.8-145.6-60.8-200.8z" fill="#FAD4B2" p-id="26537"></path><path d="M510.4 875.2c-185.6 0-336-150.4-336-336 0-71.2 19.2-140 55.2-195.2-19.2-19.2-28-46.4-23.2-73.6 6.4-35.2 35.2-62.4 70.4-67.2 28.8-4 56.8 7.2 75.2 30.4 3.2 4 8.8 4.8 12 4.8 68.8 1.6 90.4 20.8 106.4 34.4 9.6 8 15.2 12.8 31.2 12.8 17.6 0 28.8-7.2 44-17.6 23.2-15.2 52-33.6 109.6-30.4 2.4 0 7.2 0 10.4-4 18.4-23.2 46.4-34.4 76-30.4 36.8 4.8 67.2 36 70.4 72.8 2.4 24-5.6 48.8-22.4 65.6 36 55.2 56 126.4 56 197.6 0.8 185.6-150.4 336-335.2 336zM287.2 234.4c-2.4 0-4.8 0-6.4 0.8-21.6 2.4-39.2 20-43.2 40.8-3.2 20.8 4.8 40 22.4 51.2l13.6 8.8-9.6 14.4c-36.8 51.2-57.6 120-57.6 188.8 0 168 136 304 304 304s304-136 304-304c0-69.6-20.8-139.2-58.4-190.4L746.4 336l12.8-9.6c15.2-11.2 23.2-28 20.8-46.4-2.4-22.4-20.8-41.6-43.2-44.8-18.4-2.4-35.2 4.8-46.4 18.4-8.8 11.2-22.4 16.8-36 16h-0.8c-47.2-2.4-68.8 12-90.4 25.6-16.8 11.2-34.4 22.4-61.6 22.4-28 0-40.8-11.2-52-20.8-13.6-12-28.8-24.8-86.4-26.4-15.2 0-28-6.4-36.8-16.8-9.6-12-24-19.2-39.2-19.2z" fill="#040000" p-id="26538"></path><path d="M353.6 424.8a32.8 25.6 90 1 0 51.2 0 32.8 25.6 90 1 0-51.2 0Z" fill="#040000" p-id="26539"></path><path d="M612.8 424.8a32.8 25.6 90 1 0 51.2 0 32.8 25.6 90 1 0-51.2 0Z" fill="#040000" p-id="26540"></path><path d="M487.2 515.2h61.6c7.2 0 10.4 8 6.4 13.6l-30.4 36c-3.2 4-8.8 4-12 0L481.6 528c-4.8-4.8-0.8-12.8 5.6-12.8zM395.2 773.6c-12 10.4-48.8-19.2-64-32-2.4-2.4-1.6-6.4 1.6-7.2l16-2.4-3.2-16c-0.8-3.2 2.4-5.6 5.6-4l12 5.6 2.4-12c0.8-3.2 5.6-4 7.2-1.6 12 17.6 35.2 59.2 22.4 69.6z" fill="#F39917" p-id="26541"></path><path d="M388.8 779.2c-16 0-40.8-17.6-60-35.2-2.4-2.4-3.2-4.8-2.4-8 0.8-3.2 3.2-5.6 6.4-5.6l11.2-1.6-2.4-12c-0.8-3.2 0.8-6.4 3.2-8 2.4-1.6 5.6-2.4 8-0.8l7.2 4 1.6-7.2c0.8-3.2 3.2-5.6 6.4-6.4 3.2-0.8 6.4 0.8 8 4 24.8 40 32 65.6 20.8 74.4-0.8 1.6-4 2.4-8 2.4z m-39.2-64l4 20-20 3.2c33.6 28 53.6 36.8 59.2 32 5.6-4.8 0.8-26.4-22.4-64l-4 17.6-16.8-8.8z" fill="#040000" p-id="26542"></path><path d="M313.6 556c21.6-21.6 56 17.6 64.8 32.8 1.6 3.2 0 5.6-3.2 6.4l-7.2 0.8c-4.8 0.8-7.2 4.8-6.4 9.6l0.8 4.8c0.8 3.2-4.8 5.6-7.2 4 0-0.8-58.4-42.4-41.6-58.4z" fill="#F39917" p-id="26543"></path><path d="M356.8 618.4c-1.6 0-2.4 0-4-0.8-4.8-4-45.6-32.8-47.2-52.8 0-4.8 0.8-8 4-11.2 6.4-5.6 13.6-8.8 21.6-7.2 20.8 3.2 42.4 28 48.8 40.8 1.6 2.4 1.6 5.6 0.8 8-0.8 2.4-3.2 4-6.4 4l-5.6 0.8c-0.8 0-2.4 0.8-2.4 1.6-0.8 0.8-0.8 1.6-0.8 3.2l0.8 4.8c0.8 2.4-0.8 5.6-3.2 7.2-1.6 0.8-4 1.6-6.4 1.6z m-40.8-60c-1.6 1.6-1.6 3.2-1.6 4.8 0.8 14.4 31.2 38.4 43.2 47.2 0 0 0.8 0 0.8-0.8l-0.8-4c-0.8-3.2 0-6.4 1.6-8.8 1.6-2.4 4.8-4.8 8-4.8l7.2-0.8c-6.4-12-26.4-34.4-43.2-36.8-5.6-1.6-11.2 0-15.2 4z" fill="#040000" p-id="26544"></path><path d="M720 556c-21.6-21.6-56 17.6-64.8 32.8-1.6 3.2 0 5.6 3.2 6.4l7.2 0.8c4.8 0.8 7.2 4.8 6.4 9.6l-0.8 4.8c-0.8 3.2 4.8 5.6 7.2 4-0.8-0.8 57.6-42.4 41.6-58.4z" fill="#F39917" p-id="26545"></path><path d="M675.2 618.4c-2.4 0-4-0.8-6.4-2.4-2.4-1.6-3.2-4.8-3.2-7.2l0.8-4.8c0-0.8 0-2.4-0.8-3.2 0.8 0 0-0.8-1.6-0.8l-7.2-0.8c-3.2-0.8-4.8-2.4-6.4-4-0.8-2.4-0.8-4.8 0.8-8 7.2-12.8 28.8-37.6 48.8-40.8 8-1.6 16 0.8 21.6 7.2 3.2 3.2 4.8 7.2 4 11.2-1.6 20-41.6 49.6-46.4 52.8-0.8 0-2.4 0.8-4 0.8z m-0.8-8h1.6c11.2-8 41.6-32.8 42.4-46.4 0-2.4 0-4-1.6-4.8-4-4-8.8-5.6-15.2-4.8-16.8 2.4-36.8 24.8-43.2 36.8l7.2 1.6c3.2 0.8 6.4 2.4 8 4.8s2.4 5.6 1.6 8.8l-0.8 4z" fill="#040000" p-id="26546"></path><path d="M629.6 773.6c12 10.4 48.8-19.2 64-32 2.4-2.4 1.6-6.4-1.6-7.2l-16-2.4 3.2-16c0.8-3.2-2.4-5.6-5.6-4l-12 5.6-2.4-12c-0.8-3.2-5.6-4-7.2-1.6-12 17.6-35.2 59.2-22.4 69.6z" fill="#F39917" p-id="26547"></path><path d="M636 779.2c-3.2 0-6.4-0.8-8.8-3.2-10.4-8.8-3.2-34.4 20.8-74.4 1.6-2.4 4.8-4 8-4 3.2 0.8 5.6 3.2 6.4 6.4l1.6 8 7.2-4c2.4-1.6 5.6-0.8 8 0.8 2.4 1.6 3.2 4.8 3.2 8l-2.4 12 11.2 1.6c3.2 0.8 5.6 2.4 6.4 5.6 0.8 3.2 0 6.4-2.4 8-19.2 17.6-44 35.2-59.2 35.2z m18.4-73.6c-23.2 37.6-28 60-22.4 64 5.6 4.8 25.6-3.2 59.2-32l-20-3.2 4-20-16.8 8-4-16.8z" fill="#040000" p-id="26548"></path><path d="M519.2 604c-21.6 0-37.6-22.4-38.4-23.2-1.6-1.6-0.8-4 0.8-5.6 1.6-1.6 4-0.8 5.6 0.8 0 0 14.4 20 31.2 20 16 0 31.2-20 31.2-20 1.6-1.6 4-2.4 5.6-0.8 1.6 1.6 2.4 4 0.8 5.6 0.8 0.8-16.8 23.2-36.8 23.2z" fill="#040000" p-id="26549"></path></svg>