<?xml version="1.0" standalone="no"?><!DOCTYPE svg PUBLIC "-//W3C//DTD SVG 1.1//EN" "http://www.w3.org/Graphics/SVG/1.1/DTD/svg11.dtd"><svg t="1704605093711" class="icon" viewBox="0 0 1024 1024" version="1.1" xmlns="http://www.w3.org/2000/svg" p-id="27664" xmlns:xlink="http://www.w3.org/1999/xlink" width="200" height="200"><path d="M423.915825 882.253129c-2.615733-18.495341-18.414154-32.738529-37.576748-32.949108V586.112023c0-20.608732-16.858922-37.470191-37.472728-37.47019H236.463389c-20.608732 0-37.472728 16.861459-37.472727 37.47019v264.808121c0 20.291596 16.450451 36.73951 36.744584 36.73951h184.01215a4.313042 4.313042 0 0 0 4.168429-5.406525z" fill="#5F7585" p-id="27665"></path><path d="M350.695587 788.873223a7.90809 7.90809 0 0 1-7.90809-7.913165 7.90809 7.90809 0 0 1 7.90809-7.90809h35.64349v15.821255h-35.64349z" fill="#7D868C" p-id="27666"></path><path d="M410.481966 858.211723c7.121594 5.949461 12.076519 14.410636 13.433859 24.041406a4.313042 4.313042 0 0 1-4.165891 5.409062H399.861734v-9.420192a24.173334 24.173334 0 0 1 10.620232-20.030276z" fill="#D1D3D3" p-id="27667"></path><path d="M754.112206 882.253129c-2.615733-18.495341-18.414154-32.738529-37.576748-32.949108V586.112023c0-20.608732-16.858922-37.470191-37.472727-37.47019h-112.405498c-20.603657 0-37.467653 16.861459-37.467653 37.47019v264.808121c0 20.291596 16.445377 36.73951 36.736973 36.73951h184.01215a4.313042 4.313042 0 0 0 4.173503-5.406525z" fill="#5F7585" p-id="27668"></path><path d="M680.894505 788.873223a7.90809 7.90809 0 0 1-7.90809-7.913165 7.90809 7.90809 0 0 1 7.90809-7.90809h35.64349v15.821255H680.894505z" fill="#7D868C" p-id="27669"></path><path d="M740.673273 858.211723c7.126668 5.949461 12.081593 14.410636 13.438933 24.041406a4.313042 4.313042 0 0 1-4.165891 5.409062h-19.885663v-9.420192a24.183483 24.183483 0 0 1 10.612621-20.030276z" fill="#D1D3D3" p-id="27670"></path><path d="M158.780421 367.116025c-1.709994 0-3.425063-0.652031-4.726587-1.958629-32.23365-32.236187-84.695468-32.241261-116.939267-0.002537a6.69029 6.69029 0 0 1-9.460785-9.46586c37.462579-37.457505 98.405869-37.452431 135.8583 0.002537a6.697901 6.697901 0 0 1-4.731661 11.424489z" fill="#7C98AB" p-id="27671"></path><path d="M36.916675 378.662293l-17.13039 11.893849a12.591547 12.591547 0 0 1-17.526175-17.528712l11.896386-17.127853a16.356579 16.356579 0 1 1 22.760179 22.762716z" fill="#5F7585" p-id="27672"></path><path d="M534.228228 263.580172c126.506609 0 229.06061 102.554001 229.06061 229.06061s-102.554001 229.06061-229.06061 229.06061H265.812375c-126.506609 0-229.06061-102.554001-229.060611-229.06061s102.554001-229.06061 229.060611-229.06061h268.415853z" fill="#7C98AB" p-id="27673"></path><path d="M329.031428 882.253129c-2.615733-18.495341-18.414154-32.738529-37.581822-32.949108v-239.104924c0-20.608732-16.858922-37.467653-37.467653-37.467654H141.58153c-20.608732 0-37.472728 16.861459-37.472728 37.467654v240.721047c0 20.291596 16.450451 36.73951 36.73951 36.73951h184.017225a4.307968 4.307968 0 0 0 4.165891-5.406525z" fill="#7C98AB" p-id="27674"></path><path d="M315.592496 858.211723c7.126668 5.949461 12.081593 14.410636 13.438932 24.041406a4.307968 4.307968 0 0 1-4.165891 5.409062h-19.885663v-9.420192a24.183483 24.183483 0 0 1 10.612622-20.030276z" fill="#D1D3D3" p-id="27675"></path><path d="M255.813727 788.873223a7.910627 7.910627 0 1 1 0-15.821255h35.638416v15.821255h-35.638416z" fill="#7D868C" p-id="27676"></path><path d="M659.230347 882.253129c-2.615733-18.495341-18.414154-32.738529-37.581822-32.949108v-239.104924c0-20.608732-16.858922-37.467653-37.467654-37.467654h-112.405497c-20.608732 0-37.472728 16.861459-37.472728 37.467654v240.721047c0 20.291596 16.450451 36.73951 36.742048 36.73951h184.01215c2.379785 0 4.305431-1.930721 4.305431-4.310505a4.226782 4.226782 0 0 0-0.131928-1.09602z" fill="#7C98AB" p-id="27677"></path><path d="M645.791414 858.211723c7.121594 5.949461 12.081593 14.410636 13.438933 24.041406a4.307968 4.307968 0 0 1-4.165892 5.409062h-19.885663v-9.420192a24.165723 24.165723 0 0 1 10.612622-20.030276z" fill="#D1D3D3" p-id="27678"></path><path d="M586.010108 788.873223a7.90809 7.90809 0 0 1-7.90809-7.913165 7.90809 7.90809 0 0 1 7.90809-7.90809h35.638417v15.821255h-35.638417z" fill="#7D868C" p-id="27679"></path><path d="M800.591581 202.497343c-12.129798 0-22.001591-9.869256-22.00159-22.001591 0-0.794107 0.045668-1.603437 0.129391-2.405155l0.040593-0.347581 0.050742-0.345043c3.463119-23.409672 23.932311-41.062701 47.621063-41.062701 23.691288 0 44.165555 17.653029 47.618525 41.065238l0.040594 0.274005 0.035519 0.276542c0.098946 0.842312 0.149688 1.697309 0.149688 2.542158 0 12.132335-9.871793 22.001591-22.001591 22.001591l-51.682934 0.002537z" fill="#7C98AB" p-id="27680"></path><path d="M852.271978 184.4739a3.978147 3.978147 0 0 0 3.947703-4.43736c-2.146373-14.527342-14.661807-25.675288-29.790438-25.675288-15.123556 0-27.641528 11.147946-29.785364 25.675288a3.980684 3.980684 0 0 0 3.947702 4.43736h51.680397z" fill="#FF9C9F" p-id="27681"></path><path d="M887.527295 276.975975h-24.056629c-25.089222-77.906232-98.139475-134.292919-184.385102-134.29292-106.983749 0-193.706347 86.725135-193.706347 193.703811v119.960933c0 51.698156 41.912624 93.610781 93.608244 93.61078h308.537296c75.384371 0 136.492571-61.1082 136.492571-136.492571 0.002537-75.379297-61.105663-136.490034-136.490033-136.490033z" fill="#7C98AB" p-id="27682"></path><path d="M693.978246 258.229462m-17.569305 0a17.569305 17.569305 0 1 0 35.138611 0 17.569305 17.569305 0 1 0-35.138611 0Z" fill="#333E48" p-id="27683"></path><path d="M826.429243 258.229462m-17.571843 0a17.571842 17.571842 0 1 0 35.143685 0 17.571842 17.571842 0 1 0-35.143685 0Z" fill="#333E48" p-id="27684"></path><path d="M866.289366 457.301742v35.666324a11.355987 11.355987 0 0 1-11.317931 11.323005h-35.668861a11.355987 11.355987 0 0 1-11.323005-11.323005v-35.666324h58.309797zM1016.776491 457.301742v35.666324a11.355987 11.355987 0 0 1-11.323005 11.323005h-35.663787a11.361061 11.361061 0 0 1-11.328079-11.323005v-35.666324h58.314871z" fill="#FBE298" p-id="27685"></path><path d="M514.060949 202.497343c-12.134872 0-22.001591-9.869256-22.00159-22.001591 0-0.794107 0.045668-1.603437 0.129391-2.405155l0.040593-0.347581 0.050742-0.345043c3.458045-23.409672 23.934848-41.062701 47.621063-41.062701s44.16048 17.653029 47.621062 41.065238l0.040594 0.274005 0.030445 0.276542c0.098946 0.842312 0.149688 1.697309 0.149688 2.542158 0 12.132335-9.866719 22.001591-22.001591 22.001591l-51.680397 0.002537z" fill="#7C98AB" p-id="27686"></path><path d="M565.733735 184.4739a3.978147 3.978147 0 0 0 3.952776-4.43736c-2.146373-14.527342-14.666881-25.675288-29.790437-25.675288s-27.644065 11.147946-29.790438 25.675288a3.97561 3.97561 0 0 0 3.952776 4.43736h51.675323z" fill="#FF9C9F" p-id="27687"></path><path d="M807.609155 347.638832a16.36419 16.36419 0 0 1-16.247484-18.132538l0.02537-0.256245 0.040594-0.256246c2.572603-17.391709 17.784957-30.508433 35.379633-30.508432 17.597213 0 32.809568 13.114186 35.379634 30.508432l0.02537 0.202967 0.025371 0.208041c0.073575 0.62666 0.114169 1.260931 0.114169 1.88759a16.36419 16.36419 0 0 1-16.346431 16.346431h-38.396226z" fill="#7C98AB" p-id="27688"></path><path d="M846.002844 334.248104a2.955703 2.955703 0 0 0 2.932869-3.298209 22.382153 22.382153 0 0 0-44.267038 0 2.955703 2.955703 0 0 0 2.937943 3.298209h38.396226z" fill="#5F7585" p-id="27689"></path><path d="M944.142319 347.638832a16.36419 16.36419 0 0 1-16.247484-18.132538l0.030445-0.256245 0.035519-0.256246c2.572603-17.391709 17.784957-30.508433 35.379633-30.508432 17.602287 0 32.809568 13.114186 35.379634 30.508432l0.030445 0.202967 0.025371 0.208041a16.36419 16.36419 0 0 1-16.232262 18.234021H944.142319z" fill="#7C98AB" p-id="27690"></path><path d="M982.538545 334.248104a2.955703 2.955703 0 0 0 2.932869-3.298209 22.382153 22.382153 0 0 0-44.267038 0 2.955703 2.955703 0 0 0 2.932869 3.298209h38.4013z" fill="#5F7585" p-id="27691"></path></svg>