<?xml version="1.0" standalone="no"?><!DOCTYPE svg PUBLIC "-//W3C//DTD SVG 1.1//EN" "http://www.w3.org/Graphics/SVG/1.1/DTD/svg11.dtd"><svg t="1704605145734" class="icon" viewBox="0 0 1024 1024" version="1.1" xmlns="http://www.w3.org/2000/svg" p-id="28748" xmlns:xlink="http://www.w3.org/1999/xlink" width="200" height="200"><path d="M938.664089 682.668729v63.999613a85.332818 85.332818 0 0 1-85.332818 85.332818H639.999227v127.999227h-85.332818v-149.332431H85.335911v-21.333205a42.794408 42.794408 0 0 1 42.666409-42.666409h383.99768v-78.079528A193.001501 193.001501 0 0 0 618.666022 490.669889c0-70.826239-38.186436-106.666022-85.332818-106.666022-2.986649 0-5.973297 0-8.959945 0.213332V384.003867A170.836301 170.836301 0 0 1 682.665636 277.337844h170.665635a85.332818 85.332818 0 0 1 85.332818 85.332818z" fill="#EFF1F4" p-id="28749"></path><path d="M938.664089 106.672209v85.332818a85.332818 85.332818 0 0 1-85.332818 85.332817H597.332818v-42.666408c11.733262 0 42.666409-38.186436 42.666409-85.332818 0-65.919602-43.093073-119.892609-77.652865-127.145899C573.866293 21.552723 585.599555 21.339391 597.332818 21.339391h255.998453a85.332818 85.332818 0 0 1 85.332818 85.332818z m-127.999227 0a42.666409 42.666409 0 1 0-42.666409 42.666409 42.794408 42.794408 0 0 0 42.666409-42.666409z" fill="#F67483" p-id="28750"></path><path d="M895.99768 810.667956v149.332431h-85.332818v-149.332431h85.332818z" fill="#B0BAC6" p-id="28751"></path><path d="M767.998453 106.672209m-42.666409 0a42.666409 42.666409 0 1 0 85.332818 0 42.666409 42.666409 0 1 0-85.332818 0Z" fill="#EFF1F4" p-id="28752"></path><path d="M639.999227 149.338618c0 47.146382-30.933146 85.332818-42.666409 85.332818L137.602262 276.484516l-0.639996-6.186629C244.268284 215.898216 492.373452 165.765185 639.999227 149.338618z" fill="#EAAE5A" p-id="28753"></path><path d="M562.346362 22.192719C596.906154 29.446009 639.999227 83.419016 639.999227 149.338618c-147.625775 16.426567-395.730942 66.559598-503.036961 120.959269-3.413313 1.919988-6.613293 3.626645-9.813274 5.333301h-0.213332c-24.106521 13.653251-39.253096 27.519834-41.386417 40.959753 2.986649-145.705786 212.265384-283.304955 476.797119-294.398222z" fill="#F6CD85" p-id="28754"></path><path d="M512 668.588814a150.697756 150.697756 0 0 1-58.45298 13.866583A48.213042 48.213042 0 0 1 448.000387 682.668729c-11.733262 0-21.333204-95.359424-21.333205-213.332045 0-55.892996 43.093073-82.559501 97.706077-85.119485 2.986649-0.213332 5.973297-0.213332 8.959945-0.213332 47.146382 0 85.332818 35.839783 85.332818 106.666022a193.001501 193.001501 0 0 1-106.666022 177.918925zM554.666409 810.667956v21.333204h-42.666409L136.32227 907.09404A42.666409 42.666409 0 0 1 85.335911 865.280959V810.667956zM934.184116 682.455397C842.664669 680.962073 789.331658 628.055725 789.331658 512.003093c0-82.559501 38.186436-127.999227 85.332818-127.999226h63.999613v298.664862" fill="#F67483" p-id="28755"></path><path d="M682.665636 298.671049h-85.332818a21.333204 21.333204 0 0 1-21.333205-21.333205v-42.666408h42.666409v21.333204h63.999614zM853.331271 298.671049v-42.666409a63.999613 63.999613 0 0 0 63.999613-63.999613V106.672209a63.999613 63.999613 0 0 0-63.999613-63.999613H597.332818V0.006187h255.998453a106.794021 106.794021 0 0 1 106.666022 106.666022v85.332818a106.794021 106.794021 0 0 1-106.666022 106.666022z" fill="#2A3244" p-id="28756"></path><path d="M85.570576 337.924145h-1.919988a21.333204 21.333204 0 0 1-19.434549-21.695869C67.544019 153.605259 290.604004 12.230113 561.450368 0.880848A637.585481 637.585481 0 0 1 597.332818 0.006187v42.666409c-11.327932 0-22.677196 0.191999-33.791796 0.831994-206.740084 8.661281-387.901656 99.306067-441.000002 210.36673l3.989309-2.133321c115.199304-58.410314 372.94708-108.18068 511.100912-123.56192l4.714638 42.41041c-135.060517 14.933243-386.131 63.188952-495.741005 118.783283-2.751983 1.557324-6.079963 3.349313-9.407943 5.119969l-1.322659 0.661329C108.802436 310.724309 106.669116 319.854921 106.669116 320.004253a21.333204 21.333204 0 0 1-21.09854 17.919892zM895.99768 981.333591h-85.332818a21.333204 21.333204 0 0 1-21.333204-21.333204v-127.999227h42.666409v106.666022h42.666409v-85.332818h-21.333205v-42.666408h42.666409a21.333204 21.333204 0 0 1 21.333204 21.333204v127.999227a21.333204 21.333204 0 0 1-21.333204 21.333204z" fill="#2A3244" p-id="28757"></path><path d="M959.997293 1002.666796h-42.666409c0-5.311968-22.69853-21.333204-63.999613-21.333205s-63.999613 16.021237-63.999613 21.333205h-42.666409c0-36.47978 45.845056-63.999613 106.666022-63.999614s106.666022 27.519834 106.666022 63.999614zM639.999227 981.333591h-85.332818a21.333204 21.333204 0 0 1-21.333205-21.333204v-106.666023h-19.199884L140.503578 928.00058A63.999613 63.999613 0 0 1 64.002707 865.280959V789.334751a63.999613 63.999613 0 0 1 63.999613-63.999613h362.664476v-63.999614h42.666408v85.332818a21.333204 21.333204 0 0 1-21.333204 21.333205H128.00232a21.333204 21.333204 0 0 0-21.333204 21.333204v75.946208a21.333204 21.333204 0 0 0 7.829286 16.533233 20.735875 20.735875 0 0 0 17.599893 4.266641L507.733359 811.09462A19.733214 19.733214 0 0 1 512 810.667956h42.666409a21.333204 21.333204 0 0 1 21.333204 21.333204v106.666022h42.666409v-106.666022a21.333204 21.333204 0 0 1 21.333205-21.333204h213.332044a63.999613 63.999613 0 0 0 63.999613-63.999614V362.670662a63.999613 63.999613 0 0 0-63.999613-63.999613h-170.665635a148.9911 148.9911 0 0 0-138.53783 93.354103l-39.530428-16.04257A191.508176 191.508176 0 0 1 682.665636 256.00464h170.665635a106.794021 106.794021 0 0 1 106.666022 106.666022v383.99768a106.794021 106.794021 0 0 1-106.666022 106.666022h-191.99884v106.666023a21.333204 21.333204 0 0 1-21.333204 21.333204z" fill="#2A3244" p-id="28758"></path><path d="M703.99884 1002.666796h-42.666409c0-5.311968-22.69853-21.333204-63.999613-21.333205s-63.999613 16.021237-63.999614 21.333205h-42.666408c0-36.47978 45.845056-63.999613 106.666022-63.999614s106.666022 27.519834 106.666022 63.999614zM533.333204 768.001547h42.666409v63.999613h-42.666409z" fill="#2A3244" p-id="28759"></path><path d="M85.335911 789.334751h469.330498v42.666409H85.335911zM129.879642 298.671049l-3.754644-42.666409L593.066177 213.636896A92.73544 92.73544 0 0 0 618.666022 149.338618c0-56.234327-36.522446-101.204722-60.692966-106.260692A11.903928 11.903928 0 0 0 554.666409 42.672596V0.006187a51.477022 51.477022 0 0 1 12.906589 1.514657C611.476732 10.672789 661.332431 73.797741 661.332431 149.338618c0 50.837026-33.493131 106.666022-63.999613 106.666022zM595.199497 213.338231a4.650639 4.650639 0 0 0-0.917327 0.106666l1.109326-0.106666zM933.821451 703.788601C826.899431 702.039279 767.998453 633.922357 767.998453 512.003093c0-103.146043 53.567676-149.332431 106.666023-149.332431v42.666409c-38.271769 0-63.999613 42.858408-63.999614 106.666022 0 98.986069 40.533088 147.753774 123.881918 149.119099zM767.998453 170.671822a63.999613 63.999613 0 1 1 63.999614-63.999613 63.999613 63.999613 0 0 1-63.999614 63.999613z m0-85.332818a21.333204 21.333204 0 1 0 21.333205 21.333205 21.333204 21.333204 0 0 0-21.333205-21.333205zM448.000387 704.001933c-17.066564 0-42.666409 0-42.666409-234.665249h42.666409c0 111.209995 8.661281 187.412201 14.933243 199.657461A17.407895 17.407895 0 0 0 448.000387 661.335524z" fill="#2A3244" p-id="28760"></path><path d="M454.208349 703.788601l-1.322659-42.666409a129.876549 129.876549 0 0 0 50.218364-11.946594A171.0283 171.0283 0 0 0 597.332818 490.669889c0-53.99434-25.173181-85.780815-65.236939-85.332818-2.13332 0-4.138642 0-6.250629 0.149333C496.469427 406.873062 448.000387 416.963668 448.000387 469.336684h-42.666409c0-62.228957 45.226393-103.018044 118.03662-106.431357 3.007982-0.213332 6.399961-0.234665 9.962606-0.234665 53.098346 0 106.666022 39.573094 106.666023 127.999227a213.609376 213.609376 0 0 1-119.188614 197.332141 171.753629 171.753629 0 0 1-66.602264 15.786571z" fill="#2A3244" p-id="28761"></path><path d="M448.000387 704.001933v-42.666409a27.306502 27.306502 0 0 0 3.242647 0C490.837461 656.748885 533.333204 569.986743 533.333204 448.00348h42.666409c0 137.961833-51.605022 247.870502-120.041941 255.657122A72.020898 72.020898 0 0 1 448.000387 704.001933zM938.664089 704.001933a51.434356 51.434356 0 0 1-7.445288-0.426664C869.096509 694.743323 831.998067 577.538697 831.998067 469.336684h42.666409c0 106.218025 37.333108 188.414862 62.527622 191.99884z" fill="#2A3244" p-id="28762"></path></svg>