<?xml version="1.0" standalone="no"?><!DOCTYPE svg PUBLIC "-//W3C//DTD SVG 1.1//EN" "http://www.w3.org/Graphics/SVG/1.1/DTD/svg11.dtd"><svg t="1704605191881" class="icon" viewBox="0 0 1024 1024" version="1.1" xmlns="http://www.w3.org/2000/svg" p-id="31346" xmlns:xlink="http://www.w3.org/1999/xlink" width="200" height="200"><path d="M725.333333 426.666667v277.333333l64 149.333333h-42.666666l-64-128-21.333334-106.666666-21.333333-42.666667M298.666667 448s0 42.666667 64 106.666667c33.728 33.728-21.333333 149.333333-21.333334 149.333333l64 149.333333h42.666667l-42.666667-149.333333s106.666667-106.666667 106.666667-213.333333M850.666667 209.557333C885.184 176.618667 872.32 149.333333 872.32 149.333333s-7.210667 20.074667-34.496 32.938667-34.517333 32.938667-34.517333 32.938667l-7.210667 20.074666" fill="#546E7A" p-id="31347"></path><path d="M448 853.333333l21.333333 42.666667h-64v-21.333333l21.333334-21.333334zM789.333333 853.333333l21.333334 42.666667h-64v-21.333333l21.333333-21.333334zM870.997333 740.416l-15.082666 45.248L810.666667 740.416 832 725.333333h23.914667zM362.666667 853.333333l21.333333 42.666667h-64v-21.333333l21.333333-21.333334z" fill="#37474F" p-id="31348"></path><path d="M330.666667 437.333333m-117.333334 0a117.333333 117.333333 0 1 0 234.666667 0 117.333333 117.333333 0 1 0-234.666667 0Z" fill="#90A4AE" p-id="31349"></path><path d="M213.333333 448s0 42.666667 64 106.666667c33.728 33.728-21.333333 149.333333-21.333333 149.333333l64 149.333333h42.666667l-42.666667-149.333333s106.666667-106.666667 106.666667-213.333333" fill="#90A4AE" p-id="31350"></path><path d="M896 234.666667c-13.504-26.986667-42.666667-42.666667-85.333333-42.666667-128 0-149.333333 128-192 149.333333-95.402667 47.701333-234.666667-21.333333-277.333334-21.333333-192 0 64 213.333333 64 213.333333s64 85.333333 170.666667 85.333334c0 0 85.333333 0 149.333333-42.666667 0 0 85.333333-42.666667 64-192v-64s21.333333 42.666667 42.666667 42.666667 64 42.666667 64 42.666666 0 21.333333 21.333333 21.333334 42.666667-21.333333 42.666667-42.666667-64-128-64-128v-21.333333z" fill="#90A4AE" p-id="31351"></path><path d="M725.333333 512c106.666667 21.333333 170.666667 42.666667 170.666667 42.666667s-21.333333 128-21.333333 170.666666h-42.666667v-128h-149.333333c-42.666667 0-42.666667-42.666667-42.666667-42.666666l85.333333-42.666667zM789.333333 234.666667v-21.333334s0-21.333333 21.333334-42.666666 21.333333-42.666667 21.333333-42.666667 21.333333 21.333333 0 64c0 0 0 21.333333 21.333333 42.666667h-64z" fill="#90A4AE" p-id="31352"></path><path d="M682.666667 597.333333c-64-21.333333-64-85.333333-64-85.333333 0 1.514667-21.333333 64 12.714666 100.394667A303.061333 303.061333 0 0 0 683.733333 597.333333c-0.341333 0-0.746667 0.106667-1.066666 0zM362.666667 426.666667c0 71.658667 30.954667 137.514667 40.896 156.821333 5.397333-11.690667 10.218667-23.808 13.994666-36.245333C423.04 552.917333 362.666667 481.877333 362.666667 426.666667z" fill="#78909C" p-id="31353"></path><path d="M959.189333 390.677333A10.666667 10.666667 0 0 0 938.666667 394.666667v25.024c10.24-6.72 18.218667-17.472 20.522666-29.013334z" fill="#37474F" p-id="31354"></path><path d="M885.333333 288m-10.666666 0a10.666667 10.666667 0 1 0 21.333333 0 10.666667 10.666667 0 1 0-21.333333 0Z" fill="#263238" p-id="31355"></path><path d="M85.333333 512c0 128 128 170.666667 42.666667 234.666667 0 0 85.333333 0 85.333333-85.333334 0-74.688-58.624-261.12 12.224-275.904A116.906667 116.906667 0 0 1 240.170667 362.666667H234.666667s-149.333333-21.333333-149.333334 149.333333zM839.402667 171.285333A91.349333 91.349333 0 0 1 832 192s0.021333 5.248 2.602667 13.098667c10.026667 6.122667 31.274667 20.778667 61.397333 50.901333l21.333333-42.645333s-20.010667-38.762667-77.930666-42.069334zM789.333333 213.333333s0.106667-20.629333 20.394667-41.6c-151.957333 10.730667-192.042667 129.258667-212.394667 177.6C576 400 597.333333 448 597.333333 448c21.333333-64 149.333333-64 170.666667-170.666667 4.202667-21.077333 12.352-39.189333 21.333333-54.592V213.333333z" fill="#37474F" p-id="31356"></path></svg>