<?xml version="1.0" standalone="no"?><!DOCTYPE svg PUBLIC "-//W3C//DTD SVG 1.1//EN" "http://www.w3.org/Graphics/SVG/1.1/DTD/svg11.dtd"><svg t="1704608440505" class="icon" viewBox="0 0 1024 1024" version="1.1" xmlns="http://www.w3.org/2000/svg" p-id="33707" xmlns:xlink="http://www.w3.org/1999/xlink" width="200" height="200"><path d="M343.09 239.842a257.98 257.98 0 0 1 43.292-20.28C351.8 119.572 283.984-17.708 217.854 1.886 116.242 31.992 29.684 190.056 22.158 291.668c-4.458 60.19 98.014 97.234 161.092 112.392 28.616-74.998 103.14-130.864 159.84-164.218z" fill="#BF6101" p-id="33708"></path><path d="M319.548 254.422C306.844 199.254 298.464 126 255.464 83.886c-7.222-7.072-18.32-8.506-27.172-3.632-63.808 35.144-124.562 151.542-133.306 227.062-1.538 13.28 64.636 37.85 111.786 52.022 29.594-43.836 73.188-79.122 112.776-104.916z" fill="#FEC373" p-id="33709"></path><path d="M680.906 239.842a257.98 257.98 0 0 0-43.292-20.28C672.196 119.572 740.012-17.708 806.142 1.886c101.612 30.108 188.17 188.172 195.698 289.784 4.458 60.19-98.014 97.234-161.092 112.392-28.618-75-103.142-130.866-159.842-164.22z" fill="#BF6101" p-id="33710"></path><path d="M1001.838 291.668C994.312 190.056 907.752 31.992 806.14 1.884c-10.412-3.086-20.866-2.274-31.226 1.66 86.142 50.506 154.736 184.67 161.4 274.618 3.356 45.294-53.844 77.48-109.242 97.096 5.258 9.262 9.88 18.858 13.674 28.802 63.078-15.158 165.552-52.202 161.092-112.392z" fill="#AD5404" p-id="33711"></path><path d="M704.448 254.422c12.704-55.168 21.084-128.422 64.084-170.536 7.222-7.072 18.32-8.506 27.172-3.632 63.808 35.144 124.562 151.542 133.306 227.062 1.538 13.28-64.636 37.85-111.786 52.022-29.594-43.836-73.188-79.122-112.776-104.916z" fill="#FEC373" p-id="33712"></path><path d="M698.95 220.488c-40.03-23.548-85.674-35.8-132.116-35.8h-109.672c-46.442 0-92.086 12.252-132.116 35.8-73.478 43.224-176.914 124.246-171.542 235.736 3.286 68.17 23.164 141.872 45.97 206.02 25.986 73.094 69.806 137.89 126.574 189.324 5.308 63.212 83.302 113.654 179.868 115.696l22.836-0.428c90.058-5.288 161.666-52.78 168.888-112.236 56.068-51.296 99.3-115.688 125.352-188.072 23.442-65.136 44.144-140.612 47.502-210.304 5.37-111.49-98.066-192.514-171.544-235.736z" fill="#BF6101" p-id="33713"></path><path d="M446.102 184.948c-2.326 0.098-4.65 0.206-6.97 0.366-0.65 0.044-1.298 0.112-1.946 0.16-2.382 0.182-4.762 0.38-7.134 0.626-0.512 0.052-1.02 0.122-1.532 0.178-2.528 0.278-5.054 0.58-7.572 0.93-0.348 0.048-0.696 0.106-1.044 0.156-2.688 0.386-5.372 0.806-8.046 1.274l-0.594 0.108c-2.826 0.504-5.644 1.048-8.45 1.642l-0.224 0.048c-2.92 0.622-5.83 1.29-8.726 2.012l-0.006 0.002a260.92 260.92 0 0 0-8.79 2.35c9.884 54.224 62.938 118.564 126.932 118.564s117.046-64.342 126.932-118.564a262.2 262.2 0 0 0-8.79-2.35l-0.006-0.002c-2.896-0.72-5.806-1.39-8.728-2.012l-0.222-0.048c-2.808-0.594-5.626-1.14-8.452-1.642l-0.594-0.108a258.828 258.828 0 0 0-8.046-1.274c-0.348-0.05-0.696-0.108-1.044-0.156a258.148 258.148 0 0 0-7.572-0.93c-0.51-0.056-1.02-0.124-1.532-0.178a256.616 256.616 0 0 0-7.134-0.626c-0.65-0.05-1.296-0.116-1.946-0.16-2.32-0.16-4.644-0.268-6.97-0.366-0.692-0.028-1.382-0.08-2.074-0.102a258.686 258.686 0 0 0-8.986-0.158h-109.672c-3 0-5.996 0.054-8.986 0.158-0.696 0.022-1.384 0.072-2.076 0.102z" fill="#9A4D01" p-id="33714"></path><path d="M356.672 912.376c8.49 54.846 74.78 111.624 155.326 111.624s146.836-56.778 155.326-111.626l-310.652 0.002z" fill="#713802" p-id="33715"></path><path d="M697.638 854.6c56.068-51.296 99.3-115.688 125.352-188.072l0.002-0.006c23.44-65.134 44.14-140.608 47.5-210.298 5.372-111.49-98.064-192.514-171.542-235.736-40.03-23.548-85.674-35.8-132.116-35.8H505.478c46.442 0 92.086 12.252 132.116 35.8 73.478 43.224 176.914 124.246 171.542 235.736-3.358 69.692-24.06 145.168-47.502 210.304-36.892 102.51-108.212 189.026-201.706 244.954l-74.064 44.306-13.04 8.796 0.016 0.002c5.324 0.75 10.728 1.356 16.208 1.806 0.502 0.042 1.01 0.066 1.514 0.104 2.246 0.172 4.498 0.334 6.768 0.452 2.846 0.146 5.706 0.256 8.586 0.318l22.836-0.428c90.058-5.29 161.666-52.782 168.886-112.238z" fill="#AD5404" p-id="33716"></path><path d="M318.984 469.828c0-9.946 8.09-18.038 18.036-18.038s18.038 8.09 18.038 18.038a15.006 15.006 0 1 0 30.012 0c0-26.494-21.554-48.048-48.048-48.048s-48.048 21.554-48.048 48.048a15.006 15.006 0 1 0 30.01 0zM668.938 469.828c0-9.946 8.092-18.038 18.038-18.038s18.036 8.09 18.036 18.038a15.006 15.006 0 1 0 30.012 0c0-26.494-21.554-48.048-48.048-48.048-26.494 0-48.048 21.554-48.048 48.048a15.006 15.006 0 1 0 30.01 0z" fill="#442D1D" p-id="33717"></path><path d="M632.434 217.568c2.912-7.65 5.134-15.304 6.494-22.764l-0.014-0.004a265.036 265.036 0 0 0-8.778-2.346h-0.004l-0.012-0.002c-2.894-0.72-5.8-1.388-8.716-2.01l-0.23-0.05a262.872 262.872 0 0 0-8.44-1.64c-0.2-0.036-0.4-0.076-0.6-0.11a265.82 265.82 0 0 0-8.044-1.274l-0.54-0.08-0.51-0.076a258.584 258.584 0 0 0-7.566-0.93c-0.51-0.056-1.02-0.124-1.532-0.178a256.616 256.616 0 0 0-7.134-0.626c-0.65-0.05-1.296-0.116-1.946-0.16-2.32-0.16-4.644-0.268-6.97-0.366-0.692-0.028-1.382-0.08-2.074-0.102a258.686 258.686 0 0 0-8.986-0.158H516.74c5.048 0.22 10.126 0.68 15.214 1.34 35.232 3.556 69.438 14.226 100.48 31.536z" fill="#8C4402" p-id="33718"></path><path d="M698.246 844.69c0 67.736-83.386 122.646-186.248 122.646s-186.248-54.91-186.248-122.646 83.386-265.48 186.248-265.48 186.248 197.744 186.248 265.48z" fill="#9A4D01" p-id="33719"></path><path d="M511.998 579.21c-0.354 0-0.706 0.026-1.06 0.032 73.008 60.364 125.452 211.732 125.452 265.448 0 60.796-67.18 111.25-155.32 120.952 10.06 1.108 20.39 1.692 30.928 1.692 102.862 0 186.248-54.91 186.248-122.644 0-67.736-83.386-265.48-186.248-265.48z" fill="#8E4604" p-id="33720"></path><path d="M511.998 765.222c-4.944 0-9.844 0.56-14.652 1.656-35.492 8.096-101.848 29.498-101.848 76.37 0 80.52 109.318 80.52 109.318 80.52h14.362s109.318 0 109.318-80.52c0-46.872-66.356-68.274-101.848-76.37a65.802 65.802 0 0 0-14.65-1.656z" fill="#442D1D" p-id="33721"></path><path d="M526.65 766.878a65.888 65.888 0 0 0-13.128-1.614c27.74 19.92 53.088 49.016 53.088 77.984 0 39.766-26.664 65.078-53.654 80.52h6.222s109.318 0 109.318-80.52c0-46.872-66.354-68.272-101.846-76.37z" fill="#382417" p-id="33722"></path><path d="M497.064 846.168l-37.268-27.454a15.006 15.006 0 0 0-17.8 24.16l37.268 27.454a14.922 14.922 0 0 0 8.888 2.926 15.004 15.004 0 0 0 8.912-27.086zM562.896 818.714l-37.268 27.454a15.006 15.006 0 1 0 17.8 24.162l37.268-27.454a15.006 15.006 0 1 0-17.8-24.162z" fill="#261B19" p-id="33723"></path></svg>