<?xml version="1.0" standalone="no"?><!DOCTYPE svg PUBLIC "-//W3C//DTD SVG 1.1//EN" "http://www.w3.org/Graphics/SVG/1.1/DTD/svg11.dtd"><svg t="1704608466742" class="icon" viewBox="0 0 1024 1024" version="1.1" xmlns="http://www.w3.org/2000/svg" p-id="35070" xmlns:xlink="http://www.w3.org/1999/xlink" width="200" height="200"><path d="M629.184 121.888H390.056c-106.096 0-192.104 86.008-192.104 192.104v100.44c0 32.076 26.004 58.08 58.08 58.08 10.94 0 21.68-3.052 30.9-8.932a191.132 191.132 0 0 1 103.124-30.024h239.124a191.152 191.152 0 0 1 103.124 30.024 57.424 57.424 0 0 0 30.9 8.932c32.076 0 58.08-26.004 58.08-58.08v-100.44c0.004-106.096-86.004-192.104-192.1-192.104z" fill="#8479B9" p-id="35071"></path><path d="M237.964 414.432v-100.44c0-106.096 86.008-192.104 192.104-192.104H390.056c-106.096 0-192.104 86.008-192.104 192.104v100.44c0 32.076 26.004 58.08 58.08 58.08 6.888 0 13.696-1.216 20.096-3.58-22.248-8.132-38.164-29.432-38.164-54.5z" fill="#E8E6F4" p-id="35072"></path><path d="M763.208 484.516c-13.344 0-26.26-3.744-37.356-10.816a179.392 179.392 0 0 0-96.668-28.144H390.056a179.416 179.416 0 0 0-96.668 28.144 69.308 69.308 0 0 1-37.356 10.816c-38.644 0-70.08-31.436-70.08-70.084v-100.44c0-112.544 91.56-204.1 204.104-204.1h239.128c112.544 0 204.1 91.56 204.1 204.1v100.44c0 38.648-31.436 70.084-70.076 70.084z m-373.152-62.96h239.128a203.388 203.388 0 0 1 109.576 31.912 45.36 45.36 0 0 0 24.448 7.052c25.408 0 46.08-20.672 46.08-46.084v-100.44c0-99.308-80.792-180.1-180.1-180.1H390.056c-99.308 0-180.104 80.792-180.104 180.1v100.44c0 25.412 20.672 46.084 46.08 46.084a45.32 45.32 0 0 0 24.448-7.052 203.36 203.36 0 0 1 109.576-31.912z" fill="#44294F" p-id="35073"></path><path d="M785.288 355.636h-24V313.992c0-41.248-18.816-79.404-51.628-104.692l14.648-19.008c38.752 29.864 60.98 74.952 60.98 123.7v41.644zM682.976 193.34a131.472 131.472 0 0 0-20.544-7.216 131.988 131.988 0 0 0-33.248-4.24v-24c13.304 0 26.528 1.688 39.296 5.012a155.396 155.396 0 0 1 24.3 8.536l-9.804 21.908z" fill="#44294F" p-id="35074"></path><path d="M491.18 433.552v367.884c0 55.072-45.064 101.596-100.128 100.664-53.504-0.904-96.752-44.708-96.752-98.424v-18.44c0-22.092 17.908-40 40-40s40 17.908 40 40v17.604c0 9.624 7.008 18.24 16.584 19.184a18.468 18.468 0 0 0 20.296-18.348v-370.12h80z" fill="#EB6B69" p-id="35075"></path><path d="M374.3 434.232v171.884c0 55.072-45.064 101.596-100.128 100.664-53.504-0.904-96.752-44.708-96.752-98.424v-18.44c0-22.092 17.908-40 40-40s40 17.908 40 40v17.604c0 9.624 7.008 18.24 16.584 19.184a18.468 18.468 0 0 0 20.296-18.348v-149.2a190.092 190.092 0 0 1 80-24.924z" fill="#EB6B69" p-id="35076"></path><path d="M294.3 459.152v149.2a18.468 18.468 0 0 1-20.296 18.348c-9.576-0.944-16.584-9.56-16.584-19.184v-17.604c0-22.092-17.908-40-40-40-0.608 0-1.2 0.064-1.8 0.092V608.348c0 31.128 27.124 57.888 59.188 58.432l0.996 0.008c31.708-0.012 58.496-27.796 58.496-60.676v-164.264a191.036 191.036 0 0 0-40 17.304zM412.084 433.552v370.104a18.456 18.456 0 0 1-18.652 18.42c-0.84 0.032-1.688 0.028-2.552-0.06-9.576-0.944-16.584-9.56-16.584-19.184v-17.604c0-21.988-17.748-39.82-39.7-39.984-0.396 0.02-0.796 0.044-1.196 0.06V803.648c0 31.128 27.124 57.888 59.188 58.432l0.996 0.008c31.708-0.012 58.496-27.796 58.496-60.676v-367.868h-39.996z" fill="#E8E6F4" p-id="35077"></path><path d="M846.58 589.912v16.204c0 55.072-45.064 101.596-100.128 100.664-53.504-0.904-96.752-44.708-96.752-98.424v-173.68c29.08 3.08 56.24 12.68 80 27.32v145.524c0 9.624 7.008 18.24 16.584 19.184a18.468 18.468 0 0 0 20.296-18.348v-18.44c0-22.092 17.908-40 40-40 22.092-0.004 40 17.904 40 39.996z" fill="#EB6B69" p-id="35078"></path><path d="M724.94 785.232v16.2c0 55.072-45.064 101.596-100.128 100.664-53.504-0.904-96.752-44.708-96.752-98.424v-370.12h80v369.284c0 9.624 7.008 18.24 16.584 19.184a18.468 18.468 0 0 0 20.296-18.348v-18.44c0-22.092 17.908-40 40-40s40 17.908 40 40z" fill="#EB6B69" p-id="35079"></path><path d="M727.432 459.152v149.2a18.468 18.468 0 0 0 20.296 18.348c9.576-0.944 16.584-9.56 16.584-19.184v-17.604c0-22.092 17.908-40 40-40 0.608 0 1.2 0.064 1.8 0.092V608.348c0 31.128-27.124 57.888-59.188 58.432l-0.996 0.008c-31.708-0.012-58.496-27.796-58.496-60.676v-164.264a191.036 191.036 0 0 1 40 17.304zM609.648 433.552v370.104a18.456 18.456 0 0 0 18.652 18.42c0.84 0.032 1.688 0.028 2.552-0.06 9.576-0.944 16.584-9.56 16.584-19.184v-17.604c0-21.988 17.748-39.82 39.7-39.984 0.396 0.02 0.796 0.044 1.196 0.06V803.648c0 31.128-27.124 57.888-59.188 58.432l-0.996 0.008c-31.708-0.012-58.496-27.796-58.496-60.676v-367.868h39.996z" fill="#E8E6F4" p-id="35080"></path><path d="M392.684 914.112c-0.612 0-1.224-0.008-1.836-0.016-59.852-1.016-108.548-50.552-108.548-110.424v-18.44c0-28.672 23.328-52 52-52s52 23.328 52 52v17.604c0 3.68 2.584 6.928 5.76 7.244a6.4 6.4 0 0 0 4.984-1.636c0.796-0.72 2.132-2.3 2.132-4.768v-370.12a12 12 0 0 1 12-12h80a12 12 0 0 1 12 12v367.884c0 30.16-12.428 59.68-34.104 80.988-20.824 20.472-47.888 31.684-76.388 31.684z m-58.384-156.88c-15.44 0-28 12.564-28 28v18.44c0 46.864 38.108 85.632 84.952 86.424 22.676 0.304 44.348-8.42 60.996-24.788 17.112-16.828 26.928-40.108 26.928-63.876v-355.884h-56v358.12a30.504 30.504 0 0 1-10.016 22.556 30.612 30.612 0 0 1-23.46 7.736c-15.364-1.516-27.404-15.188-27.404-31.124v-17.604c0.004-15.44-12.556-28-27.996-28z" fill="#44294F" p-id="35081"></path><path d="M275.808 718.792c-0.612 0-1.224-0.008-1.836-0.016-59.852-1.012-108.548-50.548-108.548-110.424v-18.44c0-28.672 23.328-52 52-52s52 23.328 52 52v17.604c0 3.68 2.584 6.928 5.756 7.244a6.368 6.368 0 0 0 4.992-1.636 6.4 6.4 0 0 0 2.132-4.768v-149.2c0-4.288 2.288-8.248 6.004-10.396 26.276-15.16 54.888-24.076 85.036-26.488a11.996 11.996 0 0 1 12.956 11.96v171.884c0 30.16-12.428 59.68-34.104 80.988-20.824 20.476-47.892 31.688-76.388 31.688z m-58.388-156.88c-15.44 0-28 12.564-28 28v18.44c0 46.868 38.108 85.636 84.956 86.424 22.608 0.464 44.348-8.416 60.996-24.788 17.116-16.828 26.928-40.108 26.928-63.876v-158.416a176.784 176.784 0 0 0-56 18.532v142.12a30.504 30.504 0 0 1-10.016 22.556 30.56 30.56 0 0 1-23.46 7.736c-15.364-1.512-27.404-15.184-27.404-31.124v-17.604c0-15.44-12.56-28-28-28zM748.084 718.792c-0.608 0-1.224-0.008-1.836-0.016-59.856-1.012-108.552-50.548-108.552-110.424v-173.68a12 12 0 0 1 13.264-11.932 201.232 201.232 0 0 1 85.032 29.04 12 12 0 0 1 5.704 10.216v145.524c0 3.68 2.584 6.928 5.756 7.244a6.424 6.424 0 0 0 4.988-1.636c0.796-0.72 2.132-2.3 2.132-4.768v-18.44c0-28.672 23.328-52 52-52s52 23.328 52 52v16.204c0 30.16-12.428 59.68-34.1 80.992-20.82 20.464-47.888 31.676-76.388 31.676z m-86.384-270.288v159.848c0 46.868 38.108 85.636 84.956 86.424 22.6 0.464 44.344-8.416 60.992-24.784 17.112-16.828 26.928-40.112 26.928-63.88v-16.204c0-15.436-12.564-28-28-28s-28 12.564-28 28v18.44a30.504 30.504 0 0 1-10.016 22.556 30.588 30.588 0 0 1-23.46 7.736c-15.364-1.512-27.404-15.184-27.404-31.124v-138.684a177.032 177.032 0 0 0-55.996-20.328z" fill="#44294F" p-id="35082"></path><path d="M626.444 914.112c-0.612 0-1.224-0.008-1.836-0.016-59.856-1.012-108.552-50.548-108.552-110.424v-370.12a12 12 0 0 1 12-12h80a12 12 0 0 1 12 12v369.284c0 3.68 2.584 6.928 5.764 7.244a6.464 6.464 0 0 0 7.116-6.404v-18.44c0-28.672 23.328-52 52-52s52 23.328 52 52v16.204c0 30.16-12.428 59.676-34.104 80.988-20.82 20.472-47.888 31.684-76.388 31.684z m-86.384-468.56v358.12c0 46.868 38.108 85.636 84.956 86.424 22.616 0.304 44.348-8.42 60.996-24.788 17.112-16.828 26.928-40.108 26.928-63.876v-16.204c0-15.436-12.564-28-28-28s-28 12.564-28 28v18.44a30.504 30.504 0 0 1-10.012 22.552 30.564 30.564 0 0 1-23.46 7.74c-15.372-1.516-27.412-15.188-27.412-31.124v-357.284h-55.996z" fill="#44294F" p-id="35083"></path></svg>