<?xml version="1.0" standalone="no"?><!DOCTYPE svg PUBLIC "-//W3C//DTD SVG 1.1//EN" "http://www.w3.org/Graphics/SVG/1.1/DTD/svg11.dtd"><svg t="1704608491592" class="icon" viewBox="0 0 1024 1024" version="1.1" xmlns="http://www.w3.org/2000/svg" p-id="36152" xmlns:xlink="http://www.w3.org/1999/xlink" width="200" height="200"><path d="M789.333333 149.333333c17.066667 8.533333 23.466667 32 0 42.666667 29.866667-12.8 36.266667-17.066667 64-21.333333-4.266667-4.266667-4.266667-14.933333-14.933333-34.133334C821.333333 104.533333 757.333333 85.333333 746.666667 85.333333c12.8 34.133333 12.8 49.066667 42.666666 64z" fill="#E65100" p-id="36153"></path><path d="M996.266667 296.533333c-8.533333-12.8-38.4-42.666667-46.933334-53.333333-4.266667-6.4-14.933333-25.6-32-40.533333-23.466667-19.2-42.666667-32-64-32h-8.533333C793.6 108.8 704 106.666667 704 106.666667s17.066667 74.666667 87.466667 83.2c0 2.133333-2.133333 2.133333-2.133334 2.133333-32 14.933333-21.333333 85.333333-85.333333 85.333333 0 0-151.466667-106.666667-234.666667-106.666666-209.066667 0-224 275.2-234.666666 341.333333S177.066667 746.666667 106.666667 746.666667c-53.333333 0-85.333333-64-85.333334-64s40.533333 106.666667 106.666667 106.666666 149.333333-81.066667 192-234.666666c17.066667-59.733333 21.333333-85.333333 21.333333-85.333334s70.4 70.4 64 128c-6.4 57.6-85.333333 119.466667-85.333333 149.333334 0 29.866667 64 149.333333 64 149.333333s12.8 40.533333 64 42.666667c51.2 2.133333 21.333333-42.666667 21.333333-42.666667s-64-113.066667-64-128 128-149.333333 128-149.333333 51.2-38.4 74.666667-89.6c10.666667 2.133333 23.466667 4.266667 32 4.266666 14.933333 0 29.866667-2.133333 40.533333-4.266666l23.466667 51.2c0 4.266667-2.133333 8.533333-4.266667 12.8-4.266667 2.133333-8.533333 4.266667-17.066666 4.266666-12.8 0-21.333333 8.533333-21.333334 21.333334s8.533333 21.333333 21.333334 21.333333c25.6 0 40.533333-10.666667 49.066666-19.2 14.933333-17.066667 14.933333-40.533333 14.933334-44.8v-78.933333c23.466667-14.933333 53.333333-32 64-49.066667 19.2-29.866667 21.333333-85.333333 21.333333-85.333333s4.266667-8.533333 12.8-17.066667c25.6 25.6 68.266667 12.8 81.066667 10.666667l44.8 6.4c8.533333 2.133333 17.066667-2.133333 21.333333-10.666667 4.266667-6.4 19.2-29.866667 4.266667-55.466667z" fill="#F57C00" p-id="36154"></path><path d="M680.533333 529.066667c-10.666667 2.133333-23.466667 4.266667-40.533333 4.266666-8.533333 0-21.333333-2.133333-32-4.266666 21.333333-49.066667 17.066667-108.8-74.666667-166.4 0 0 40.533333-8.533333 98.133334 44.8 32 29.866667 61.866667 32 70.4 29.866666l-32 23.466667c-8.533333 6.4-10.666667 17.066667-6.4 25.6l17.066666 42.666667zM320 554.666667c17.066667-59.733333 21.333333-85.333333 21.333333-85.333334s70.4 70.4 64 128c-2.133333 27.733333-23.466667 57.6-42.666666 83.2 25.6-34.133333 106.666667-106.666667 64-211.2-27.733333-66.133333-121.6-117.333333-128-64-38.4 360.533333-170.666667 384-170.666667 384 66.133333 0 149.333333-81.066667 192-234.666666z" fill="#FFA726" p-id="36155"></path><path d="M917.333333 234.666667c0 12.8-14.933333 21.333333-32 21.333333s-32-8.533333-32-21.333333h64z" fill="#4E342E" p-id="36156"></path><path d="M469.333333 896s29.866667 44.8-21.333333 42.666667c-51.2-2.133333-64-42.666667-64-42.666667s-10.666667-19.2-21.333333-42.666667h83.2c12.8 23.466667 23.466667 42.666667 23.466666 42.666667z m232.533334-320l2.133333 4.266667c0 4.266667-2.133333 8.533333-4.266667 12.8-4.266667 2.133333-8.533333 4.266667-17.066666 4.266666-12.8 0-21.333333 8.533333-21.333334 21.333334s8.533333 21.333333 21.333334 21.333333c25.6 0 40.533333-8.533333 49.066666-17.066667 19.2-21.333333 14.933333-40.533333 14.933334-46.933333h-44.8zM960 320c0 17.066667 10.666667 32 25.6 38.4l6.4-6.4c4.266667-6.4 21.333333-29.866667 4.266667-55.466667-2.133333-4.266667-6.4-8.533333-12.8-14.933333-12.8 8.533333-23.466667 21.333333-23.466667 38.4z" fill="#795548" p-id="36157"></path></svg>