<?xml version="1.0" standalone="no"?><!DOCTYPE svg PUBLIC "-//W3C//DTD SVG 1.1//EN" "http://www.w3.org/Graphics/SVG/1.1/DTD/svg11.dtd"><svg t="1704608514975" class="icon" viewBox="0 0 1024 1024" version="1.1" xmlns="http://www.w3.org/2000/svg" p-id="37420" xmlns:xlink="http://www.w3.org/1999/xlink" width="200" height="200"><path d="M712.9 232.1c21.9-39.9 73.4-61.9 121.5-61.9 50.9 0 94.1 35.2 109 83.8 3.5 1.3 7 3.3 10.1 5.9 13 10.9 15.7 28.9 6.1 40.4-3.1 3.7-7.2 6.3-11.6 7.6 0 0.2 0 0.3-0.1 0.5 1.6 1 3.2 2.1 4.8 3.4 12.8 10.8 15.6 28.7 6.1 40-6.2 7.4-16 10.1-25.6 8.2-0.3 0.6-0.6 1.2-0.9 1.9 13.1 12.3 15.5 31.5 5.2 43.8-9.3 11.1-26.1 13-39.8 5.2-0.4 0.4-0.9 0.8-1.3 1.2 1.3 1.9 2.4 4 3.3 6.1 6.3 16.4-6.1 36.3-24 43.2-3.8 1.4-7.8 2.2-11.8 2.4 7.4 19.2 14.2 38.7 20.2 58.4 57.7 191-166.4 371-371 371-205.2 0-436.8-167.7-364-382 5.4-16.2 11.1-32 17-47.4-5.3 0.3-10.7-0.4-15.6-2.3-17.9-6.9-30.3-26.8-24-43.2 0.8-2.1 1.9-4.2 3.3-6.1-0.4-0.4-0.9-0.8-1.3-1.2-13.8 7.7-30.5 5.9-39.8-5.2-10.3-12.3-7.9-31.5 5.2-43.8-0.3-0.6-0.6-1.2-0.9-1.9-9.6 1.9-19.5-0.8-25.6-8.2-9.5-11.3-6.8-29.2 6.1-40 1.5-1.3 3.1-2.4 4.8-3.4 0-0.2 0-0.3-0.1-0.5-4.5-1.4-8.5-3.9-11.6-7.6-9.6-11.4-6.8-29.5 6.1-40.4 3.1-2.6 6.6-4.6 10.1-5.9 14.9-48.6 58.1-83.8 109-83.8 46.7 0 96.5 20.7 119.5 58.4 54.6-49.4 120.7-77.4 201.9-77.4 76.7-0.1 143.6 30.9 199.7 80.8z" fill="#C3C3C3" p-id="37421"></path><path d="M971.2 309.8c7.4-8.9 10.5-20.3 8.7-32.2-1.7-11.2-7.6-21.6-16.7-29.2-2.4-2-4.9-3.7-7.6-5.2-8.8-24.4-23.9-45.4-44-61.1-22.5-17.6-49.2-26.8-77.2-26.8-26.5 0-53.9 6.2-77.1 17.5-19.5 9.5-35.6 22.1-47.5 37.1-59.8-48.8-126-73.6-196.8-73.6-41.5 0-80.6 7.1-116.4 21.2-29.4 11.5-57.2 28.1-83 49.2-12-14.2-28-26.1-47-35-23.1-10.8-49-16.5-75-16.5-28.1 0-54.8 9.3-77.2 26.8-20.1 15.7-35.2 36.7-44 61.1-2.7 1.5-5.2 3.2-7.6 5.2-9.1 7.6-15 18-16.7 29.2-1.8 11.9 1.3 23.4 8.7 32.2-11.1 16-11.3 37 0.9 51.5 3.8 4.6 8.6 8.1 14 10.5-5.1 14.9-2.9 31.3 7.3 43.4 8.2 9.7 20.2 15 32.9 15.2 0.5 6.9 2.7 13.9 6.4 20.4 6.4 11 16.8 20 28.7 24.5 0.2 0.1 0.4 0.1 0.5 0.2-3.6 10-7.2 20.3-10.7 30.7-14.4 42.5-18.1 85.1-10.9 126.6 6.7 38.3 22.5 75.1 47 109.3 35.3 49.3 87.1 91.2 149.9 121.2C382.2 892.5 448.6 908 513 908c63.2 0 129.2-16.2 190.8-47 61.1-30.5 112.6-72.5 149-121.6 24.8-33.4 41.5-68.6 49.7-104.9 8.9-39.2 7.5-78.6-4.1-117-4.5-14.7-9.4-29.2-14.6-43.5 10.7-4.8 20.1-13.2 25.9-23.4 3.8-6.5 5.9-13.5 6.4-20.4 12.7-0.3 24.7-5.5 32.9-15.2 10.1-12.1 12.4-28.5 7.3-43.4 5.4-2.4 10.2-5.9 14-10.5 7.3-8.7 10.5-20.4 8.7-32.1-1.1-6.7-3.8-13.3-7.8-19.2z m-34.8-14c-0.3 0-0.6-0.1-0.9-0.1-4.1 0-7 4.6-7 11 0 6.7 3.1 12 7 12h0.4l4.5 2.6c0.9 0.5 1.8 1.2 2.7 1.9 3.4 2.8 5.6 6.7 6.2 10.6 0.3 1.9 0.4 5.4-2 8.3-2.4 2.9-6.6 4-11.2 3.1l-11.6-2.3c-1.6-0.4-3.4 0-5.1 1.2-2 1.4-3.6 3.7-4.8 6.6-2.1 5.3-2.6 11.5-0.2 13.9l-0.3 0.6 7.9 7.5c7.4 6.9 9.1 17.1 4 23.3-4.5 5.4-13.3 6.1-21 1.8l-9.7-5.4-0.4 0.4c-1.2-0.8-2.8-1-4.6-0.7-2.4 0.4-4.9 1.7-7.2 3.8-2.4 2.2-4.4 4.8-5.6 7.2-1.2 2.6-1.3 4.7-0.2 6.2l-0.8 0.7 7.4 10.7c0.7 1 1.2 1.9 1.6 2.9 3 7.9-4.6 19.7-15.4 23.8-2.1 0.8-4.5 1.3-7 1.4l-21 0.8 7.6 19.6c7.2 18.6 13.9 37.9 19.8 57.3 24.9 82.3-8.5 151.6-40.9 195.2-33.5 45.3-81.3 84.3-138.2 112.7-57.5 28.6-118.8 43.8-177.4 43.8-59 0-122.7-14.9-179.3-41.9-58.2-27.8-106.1-66.4-138.4-111.6-45.7-63.8-56.8-136-32.1-208.8 5.4-16.2 11.1-31.9 16.8-46.9l8.2-21.6-23 1.2c-3.4 0.2-6.6-0.3-9.4-1.4-10.8-4.1-18.4-15.9-15.4-23.8 0.4-1 0.9-2 1.6-2.9l7.4-10.7-0.8-0.7c1-1.4 1-3.6-0.2-6.2-1.1-2.4-3.2-5.1-5.6-7.2-2.3-2.1-4.8-3.4-7.2-3.8-1.8-0.3-3.3 0-4.6 0.7l-0.4-0.4-9.7 5.4c-7.7 4.3-16.5 3.5-21-1.8-5.1-6.1-3.4-16.3 4-23.3l7.9-7.5-0.3-0.6c1-1 1.5-2.7 1.6-5 0.1-2.7-0.6-5.9-1.8-9-1.2-2.9-2.8-5.2-4.8-6.6-1.7-1.2-3.4-1.6-5.1-1.2l-11.6 2.3c-4.6 0.9-8.8-0.2-11.2-3.1-4.1-4.9-2.2-13.5 4.2-18.9 0.9-0.7 1.8-1.4 2.7-1.9l4.5-2.6h0.4c3.9 0 7-5.3 7-12 0-6.4-2.9-11-7-11-0.3 0-0.6 0-0.9 0.1l-7.2-2.2c-1.9-0.6-3.4-1.6-4.6-3-2.5-2.9-2.3-6.6-2.1-8.5 0.6-4 2.9-7.9 6.3-10.7 1.7-1.5 3.6-2.6 5.7-3.3l7-2.6 2.2-7.1c13.4-43.8 51.5-73.2 94.7-73.2 45.2 0 88 20.6 106.7 51.2l9.4 15.5 13.4-12.2c54.7-49.5 117.5-73.5 191.9-73.5 68.5 0 132.4 25.9 189.9 77.1l14.1 12.5L726 239c8.9-16.2 24.2-29.9 44.3-39.7 19.2-9.3 42-14.5 64-14.5 43.2 0 81.2 29.4 94.7 73.2l2.2 7.1 7 2.6c2 0.7 3.9 1.9 5.7 3.3 3.4 2.9 5.7 6.8 6.3 10.7 0.3 1.9 0.4 5.6-2.1 8.5-1.2 1.4-2.7 2.4-4.6 3l-7.1 2.6z" fill="#525252" p-id="37422"></path><path d="M512 609.2c22.8 0 41.3 18.5 41.3 41.3v0.2l-0.4 89.8c-0.1 22.5-18.4 40.7-40.9 40.7s-40.8-18.2-40.9-40.7l-0.4-89.8c-0.1-22.8 18.3-41.4 41.1-41.5h0.2z" fill="#F98373" p-id="37423"></path><path d="M363 457.2m-25 0a25 25 0 1 0 50 0 25 25 0 1 0-50 0Z" fill="#525252" p-id="37424"></path><path d="M663 457.2m-25 0a25 25 0 1 0 50 0 25 25 0 1 0-50 0Z" fill="#525252" p-id="37425"></path><path d="M570.8 506.4c-6.2-12.7-16.4-22.9-29.1-29-31.3-15.2-69-2.1-84.2 29.2l-36 74.2c-5.3 11-8.1 23.1-8.1 35.4 0 33.6 20.4 62.4 49.5 74.7l0.2 49.7c0.1 26.8 22.1 48.7 48.9 48.7 26.8 0 48.8-21.8 48.9-48.7l0.2-47.9c3-1 5.9-2.3 8.7-3.6C610 669.5 626.7 621 607 580.8l-36.2-74.4zM512 773.2c-17.7 0-32.3-14.2-32.9-31.8 15-8.1 36-8.5 62.5-1.2 1.1 0.3 2.2 0.4 3.3 0.3-0.1 18-14.9 32.7-32.9 32.7z m33-50.7c-26.1-7-48.3-7.2-66-0.7l-0.1-26.1c5 1 10.2 1.5 15.5 1.5h39.9c3.6 0 7.2-0.3 10.8-0.7l-0.1 26z" fill="#525252" p-id="37426"></path></svg>