<?xml version="1.0" standalone="no"?><!DOCTYPE svg PUBLIC "-//W3C//DTD SVG 1.1//EN" "http://www.w3.org/Graphics/SVG/1.1/DTD/svg11.dtd"><svg t="1704608540420" class="icon" viewBox="0 0 1024 1024" version="1.1" xmlns="http://www.w3.org/2000/svg" p-id="39603" xmlns:xlink="http://www.w3.org/1999/xlink" width="200" height="200"><path d="M508.35456 546.38592m-356.79232 0a356.79232 356.79232 0 1 0 713.58464 0 356.79232 356.79232 0 1 0-713.58464 0Z" fill="#53639C" p-id="39604"></path><path d="M865.96608 547.19488c0 122.76736-58.79808 231.81312-149.79072 300.47232a375.02976 375.02976 0 0 1-76.14464 44.53376c-46.03904 20.08064-96.86016 31.21152-150.272 31.21152-30.85312 0-60.85632-3.71712-89.5488-10.73152a372.14208 372.14208 0 0 1-68.77184-24.1152l56.03328-107.84768 70.8096-136.26368 34.07872-65.56672 79.11424-152.24832-261.00736 154.49088-125.2864 74.15808-46.45888 27.4944c-16.26112-42.05568-25.18016-87.78752-25.18016-135.5776 0-207.77984 168.42752-376.20736 376.20736-376.20736s376.2176 168.41728 376.2176 376.19712z" fill="#FD667F" p-id="39605"></path><path d="M742.17472 581.1712m-73.6256 0a73.6256 73.6256 0 1 0 147.2512 0 73.6256 73.6256 0 1 0-147.2512 0Z" fill="#53639C" p-id="39606"></path><path d="M492.35968 578.89792c11.40736-7.2704 24.95488-11.4688 39.46496-11.4688 40.66304 0 73.6256 32.96256 73.6256 73.6256s-32.96256 73.6256-73.6256 73.6256c-39.51616 0-71.76192-31.1296-73.54368-70.20544l34.07872-65.57696zM716.17536 847.65696a73.45152 73.45152 0 0 0 5.77536-28.6208c0-40.66304-32.96256-73.6256-73.6256-73.6256s-73.6256 32.96256-73.6256 73.6256c0 37.84704 28.55936 69.02784 65.32096 73.15456l76.15488-44.53376z" fill="#53639C" p-id="39607"></path><path d="M256.73728 393.472m-73.6256 0a73.6256 73.6256 0 1 0 147.2512 0 73.6256 73.6256 0 1 0-147.2512 0Z" fill="#53639C" p-id="39608"></path><path d="M459.008 393.472m-73.6256 0a73.6256 73.6256 0 1 0 147.2512 0 73.6256 73.6256 0 1 0-147.2512 0Z" fill="#53639C" p-id="39609"></path><path d="M620.82048 212.24448m-111.64672 0a111.64672 111.64672 0 1 0 223.29344 0 111.64672 111.64672 0 1 0-223.29344 0Z" fill="#FFFFFF" p-id="39610"></path><path d="M798.81216 369.2032m-111.64672 0a111.64672 111.64672 0 1 0 223.29344 0 111.64672 111.64672 0 1 0-223.29344 0Z" fill="#FFFFFF" p-id="39611"></path><path d="M620.82048 212.24448m-48.54784 0a48.54784 48.54784 0 1 0 97.09568 0 48.54784 48.54784 0 1 0-97.09568 0Z" fill="#3A3A3A" p-id="39612"></path><path d="M798.81216 369.2032m-48.54784 0a48.54784 48.54784 0 1 0 97.09568 0 48.54784 48.54784 0 1 0-97.09568 0Z" fill="#3A3A3A" p-id="39613"></path></svg>