<?xml version="1.0" standalone="no"?><!DOCTYPE svg PUBLIC "-//W3C//DTD SVG 1.1//EN" "http://www.w3.org/Graphics/SVG/1.1/DTD/svg11.dtd"><svg t="1704608572302" class="icon" viewBox="0 0 1024 1024" version="1.1" xmlns="http://www.w3.org/2000/svg" p-id="41007" xmlns:xlink="http://www.w3.org/1999/xlink" width="200" height="200"><path d="M688.768 192.042667h64s89.216-108.458667 170.666667-42.666667c96.448 77.888-21.333333 256-85.333334 255.957333-47.701333 0-149.333333-213.290667-149.333333-213.290666zM334.101333 192.042667h-64s-89.216-108.458667-170.666666-42.666667c-96.448 77.888 21.333333 256 85.333333 255.957333 47.701333 0 149.333333-213.290667 149.333333-213.290666z" fill="#996704" p-id="41008"></path><path d="M384 853.333333a128 85.333333 0 1 0 256 0 128 85.333333 0 1 0-256 0Z" fill="#FFC107" p-id="41009"></path><path d="M874.666667 581.333333C874.666667 687.381333 704 853.333333 597.333333 853.333333c-64 0-85.333333-42.666667-85.333333-42.666666s-21.333333 42.666667-85.333333 42.666666c-106.666667 0-277.333333-165.952-277.333334-272L170.666667 384c0-106.048 106.666667-192 192-234.666667 0 0 42.666667-21.333333 85.333333-21.333333h128c42.666667 0 85.333333 21.333333 85.333333 21.333333 64 21.333333 192 128.618667 192 234.666667l21.333334 197.333333z" fill="#FFC107" p-id="41010"></path><path d="M640 597.333333c-42.666667-42.666667-42.666667-85.333333-42.666667-85.333333s0-149.333333 106.666667-149.333333h149.333333c0-64-128-234.666667-277.333333-234.666667h-64-64C298.666667 128 170.666667 298.666667 170.666667 362.666667h149.333333c106.666667 0 106.666667 149.333333 106.666667 149.333333s0 42.666667-42.666667 85.333333-106.666667 85.333333-106.666667 128 21.333333 128 149.333334 128c64 0 85.333333-42.666667 85.333333-42.666666s21.333333 42.666667 85.333333 42.666666c128 0 149.333333-85.333333 149.333334-128s-64-85.333333-106.666667-128z" fill="#D69107" p-id="41011"></path><path d="M256 405.333333s0 106.666667 87.104 106.666667H405.333333s0-106.666667-74.666666-106.666667H256zM768 405.333333s0 106.666667-87.104 106.666667H618.666667s0-106.666667 74.666666-106.666667H768z" fill="#5D4037" p-id="41012"></path><path d="M341.333333 426.666667m-42.666666 0a42.666667 42.666667 0 1 0 85.333333 0 42.666667 42.666667 0 1 0-85.333333 0Z" fill="#EEFF41" p-id="41013"></path><path d="M682.666667 426.666667m-42.666667 0a42.666667 42.666667 0 1 0 85.333333 0 42.666667 42.666667 0 1 0-85.333333 0Z" fill="#EEFF41" p-id="41014"></path><path d="M341.333333 426.666667m-21.333333 0a21.333333 21.333333 0 1 0 42.666667 0 21.333333 21.333333 0 1 0-42.666667 0Z" fill="#212121" p-id="41015"></path><path d="M682.666667 426.666667m-21.333334 0a21.333333 21.333333 0 1 0 42.666667 0 21.333333 21.333333 0 1 0-42.666667 0Z" fill="#212121" p-id="41016"></path><path d="M237.141333 219.114667l8.533334 10.368a400.64 400.64 0 0 1 40.725333-37.461334h-16.298667s-52.522667-63.872-113.749333-63.872c-18.581333 0-37.952 5.866667-56.917333 21.205334-21.525333 17.365333-32.341333 39.744-35.498667 64 0.021333 0 0.042667 0 0.064-0.042667 42.666667-42.666667 81.706667-42.496 92.330667-42.496 33.045333 0.021333 70.421333 35.861333 80.810666 48.298667zM923.434667 149.376c-18.965333-15.338667-38.336-21.205333-56.917334-21.205333-61.226667 0-113.749333 63.872-113.749333 63.872h-15.189333a395.413333 395.413333 0 0 1 40.149333 36.821333l8-9.749333c10.389333-12.437333 47.765333-48.298667 80.810667-48.298667 10.624 0 49.664-0.170667 92.330666 42.496 0.021333 0.042667 0.042667 0.042667 0.064 0.042667-3.157333-24.234667-13.973333-46.613333-35.498666-63.978667zM597.333333 725.333333c0 47.125333-85.333333 42.666667-85.333333 85.333334 0-42.666667-85.333333-38.208-85.333333-85.333334s38.208 0 85.333333 0 85.333333-47.125333 85.333333 0z" fill="#3E2723" p-id="41017"></path><path d="M394.666667 778.666667m-10.666667 0a10.666667 10.666667 0 1 0 21.333333 0 10.666667 10.666667 0 1 0-21.333333 0Z" fill="#3E2723" p-id="41018"></path><path d="M373.333333 736m-10.666666 0a10.666667 10.666667 0 1 0 21.333333 0 10.666667 10.666667 0 1 0-21.333333 0Z" fill="#3E2723" p-id="41019"></path><path d="M394.666667 821.333333m-10.666667 0a10.666667 10.666667 0 1 0 21.333333 0 10.666667 10.666667 0 1 0-21.333333 0Z" fill="#3E2723" p-id="41020"></path><path d="M352 800m-10.666667 0a10.666667 10.666667 0 1 0 21.333334 0 10.666667 10.666667 0 1 0-21.333334 0Z" fill="#3E2723" p-id="41021"></path><path d="M330.666667 757.333333m-10.666667 0a10.666667 10.666667 0 1 0 21.333333 0 10.666667 10.666667 0 1 0-21.333333 0Z" fill="#3E2723" p-id="41022"></path><path d="M437.333333 800m-10.666666 0a10.666667 10.666667 0 1 0 21.333333 0 10.666667 10.666667 0 1 0-21.333333 0Z" fill="#3E2723" p-id="41023"></path><path d="M629.333333 778.666667m-10.666666 0a10.666667 10.666667 0 1 0 21.333333 0 10.666667 10.666667 0 1 0-21.333333 0Z" fill="#3E2723" p-id="41024"></path><path d="M650.666667 736m-10.666667 0a10.666667 10.666667 0 1 0 21.333333 0 10.666667 10.666667 0 1 0-21.333333 0Z" fill="#3E2723" p-id="41025"></path><path d="M629.333333 821.333333m-10.666666 0a10.666667 10.666667 0 1 0 21.333333 0 10.666667 10.666667 0 1 0-21.333333 0Z" fill="#3E2723" p-id="41026"></path><path d="M672 800m-10.666667 0a10.666667 10.666667 0 1 0 21.333334 0 10.666667 10.666667 0 1 0-21.333334 0Z" fill="#3E2723" p-id="41027"></path><path d="M693.333333 757.333333m-10.666666 0a10.666667 10.666667 0 1 0 21.333333 0 10.666667 10.666667 0 1 0-21.333333 0Z" fill="#3E2723" p-id="41028"></path><path d="M586.666667 800m-10.666667 0a10.666667 10.666667 0 1 0 21.333333 0 10.666667 10.666667 0 1 0-21.333333 0Z" fill="#3E2723" p-id="41029"></path><path d="M512 298.666667m-42.666667 0a42.666667 42.666667 0 1 0 85.333334 0 42.666667 42.666667 0 1 0-85.333334 0Z" fill="#3E2723" p-id="41030"></path><path d="M512 405.333333m-21.333333 0a21.333333 21.333333 0 1 0 42.666666 0 21.333333 21.333333 0 1 0-42.666666 0Z" fill="#3E2723" p-id="41031"></path><path d="M451.925333 128A63.189333 63.189333 0 0 0 448 149.333333a64 64 0 0 0 128 0c0-7.530667-1.536-14.634667-3.925333-21.333333h-120.149334z" fill="#3E2723" p-id="41032"></path><path d="M661.333333 213.333333m-42.666666 0a42.666667 42.666667 0 1 0 85.333333 0 42.666667 42.666667 0 1 0-85.333333 0Z" fill="#3E2723" p-id="41033"></path><path d="M362.666667 213.333333m-42.666667 0a42.666667 42.666667 0 1 0 85.333333 0 42.666667 42.666667 0 1 0-85.333333 0Z" fill="#3E2723" p-id="41034"></path><path d="M832 522.666667a32 32 0 0 0 32 32c2.666667 0 5.205333-0.426667 7.658667-1.045334l-6.784-62.869333c-0.298667 0-0.576-0.085333-0.874667-0.085333a32 32 0 0 0-32 32zM832 576c-35.328 0-64 28.672-64 64a63.872 63.872 0 0 0 55.125333 63.125333c28.117333-37.76 47.210667-76.992 50.538667-111.338666A63.402667 63.402667 0 0 0 832 576zM160 554.666667a32 32 0 0 0 0-64c-0.298667 0-0.576 0.085333-0.874667 0.085333l-6.784 62.869333c2.453333 0.618667 4.992 1.045333 7.658667 1.045334zM192 576c-16 0-30.464 6.08-41.664 15.786667 3.328 34.325333 22.421333 73.578667 50.538667 111.338666A63.872 63.872 0 0 0 256 640c0-35.328-28.672-64-64-64z" fill="#A36B07" p-id="41035"></path><path d="M597.333333 853.333333c-64 0-85.333333-42.666667-85.333333-42.666666s-21.333333 42.666667-85.333333 42.666666c-43.008 0-73.770667-9.749333-95.936-24.170666 25.856 29.973333 59.264 65.6 67.968 63.808 9.514667 1.813333 18.88 3.029333 27.968 3.029333 36.522667 0 64.789333-10.922667 85.333333-24.874667 20.544 13.952 48.810667 24.874667 85.333333 24.874667 9.088 0 18.453333-1.216 27.968-3.029333 8.682667 1.792 42.112-33.834667 67.968-63.808C671.104 843.584 640.341333 853.333333 597.333333 853.333333z" fill="#996704" p-id="41036"></path></svg>