<?xml version="1.0" standalone="no"?><!DOCTYPE svg PUBLIC "-//W3C//DTD SVG 1.1//EN" "http://www.w3.org/Graphics/SVG/1.1/DTD/svg11.dtd"><svg t="1704608594248" class="icon" viewBox="0 0 1024 1024" version="1.1" xmlns="http://www.w3.org/2000/svg" p-id="42588" xmlns:xlink="http://www.w3.org/1999/xlink" width="200" height="200"><path d="M640 106.666667c-64.704 0-128 21.333333-128 21.333333s-63.296-21.333333-128-21.333333S128 124.458667 128 341.333333s128 298.666667 128 298.666667h512s128-81.792 128-298.666667S704.704 106.666667 640 106.666667z" fill="#BF360C" p-id="42589"></path><path d="M384 405.333333v512S149.333333 782.698667 149.333333 618.666667s106.666667-213.333333 106.666667-213.333334h128z m256 0v512s234.666667-134.634667 234.666667-298.666666-106.666667-213.333333-106.666667-213.333334h-128z" fill="#E65100" p-id="42590"></path><path d="M512 469.333333l-213.333333-42.666666c0 163.562667-9.344 276.010667 42.666666 384 45.994667 95.530667 170.666667 149.333333 170.666667 149.333333s124.672-53.802667 170.666667-149.333333c52.010667-108.010667 42.666667-220.437333 42.666666-384l-213.333333 42.666666z" fill="#BF360C" p-id="42591"></path><path d="M426.666667 725.333333a85.333333 64 0 1 0 170.666666 0 85.333333 64 0 1 0-170.666666 0Z" fill="#FFCC80" p-id="42592"></path><path d="M661.333333 320c23.509333 0 38.506667-21.333333 64-21.333333 41.301333 0 64 26.709333 64 64 0 56.362667-85.333333 106.666667-85.333333 106.666666l-42.666667-149.333333z m-298.666666 0c-23.509333 0-38.506667-21.333333-64-21.333333-41.301333 0-64 26.709333-64 64 0 56.362667 85.333333 106.666667 85.333333 106.666666l42.666667-149.333333z" fill="#F57F17" p-id="42593"></path><path d="M618.666667 298.666667c-74.368 0-106.666667 42.666667-106.666667 42.666666s-32.298667-42.666667-106.666667-42.666666c-74.368 0-106.666667 114.24-106.666666 149.333333 0 35.093333 85.333333 170.666667 85.333333 170.666667h256s85.333333-135.573333 85.333333-170.666667c0-35.093333-32.298667-149.333333-106.666666-149.333333z" fill="#FB8C00" p-id="42594"></path><path d="M394.666667 362.666667c74.666667 0 74.666667 106.666667 74.666666 106.666666h-62.229333C320 469.333333 320 362.666667 320 362.666667h74.666667z m234.666666 0C554.666667 362.666667 554.666667 469.333333 554.666667 469.333333h62.229333C704 469.333333 704 362.666667 704 362.666667h-74.666667z" fill="#5D4037" p-id="42595"></path><path d="M405.333333 362.666667a42.666667 42.666667 0 1 1-0.021333 85.354666A42.666667 42.666667 0 0 1 405.333333 362.666667z m213.333334 0a42.666667 42.666667 0 1 0 0.021333 85.354666A42.666667 42.666667 0 0 0 618.666667 362.666667z" fill="#EEFF41" p-id="42596"></path><path d="M405.333333 384a21.333333 21.333333 0 1 1 0 42.666667 21.333333 21.333333 0 0 1 0-42.666667z m213.333334 0a21.333333 21.333333 0 1 0 0 42.666667 21.333333 21.333333 0 0 0 0-42.666667z" fill="#212121" p-id="42597"></path><path d="M725.333333 448c0-35.093333-19.562667-149.333333-106.666666-149.333333-74.368 0-106.666667 42.666667-106.666667 42.666666s-32.298667-42.666667-106.666667-42.666666c-81.770667 0-106.666667 114.24-106.666666 149.333333 0-41.344 100.672-108.010667 149.333333-21.333333 0 95.338667-45.994667 120-75.2 173.781333A84.544 84.544 0 0 0 362.666667 640a85.333333 85.333333 0 0 0 85.333333 85.333333 84.736 84.736 0 0 0 64-29.44A84.736 84.736 0 0 0 576 725.333333a85.333333 85.333333 0 0 0 85.333333-85.333333c0-14.357333-3.882667-27.669333-10.133333-39.552C621.994667 546.666667 576 522.005333 576 426.666667c48.661333-86.656 149.333333-19.989333 149.333333 21.333333z" fill="#FFB74D" p-id="42598"></path><path d="M592.810667 744.96c-5.504 0.896-11.050667 1.706667-16.810667 1.706667a105.813333 105.813333 0 0 1-64-21.717334A105.813333 105.813333 0 0 1 448 746.666667c-5.76 0-11.306667-0.810667-16.810667-1.706667A49.28 49.28 0 0 1 426.666667 725.333333c0-1.002667 0.32-1.92 0.384-2.901333 6.741333 1.706667 13.674667 2.901333 20.949333 2.901333a84.736 84.736 0 0 0 64-29.44A84.736 84.736 0 0 0 576 725.333333c7.274667 0 14.208-1.194667 20.949333-2.901333 0.064 0.981333 0.384 1.898667 0.384 2.901333 0 6.890667-1.834667 13.418667-4.522666 19.626667zM512 618.666667c-47.125333 0-85.333333-47.125333-85.333333 0s85.333333 42.666667 85.333333 85.333333c0-42.666667 85.333333-38.208 85.333333-85.333333s-38.208 0-85.333333 0z" fill="#5D4037" p-id="42599"></path></svg>