<?xml version="1.0" standalone="no"?><!DOCTYPE svg PUBLIC "-//W3C//DTD SVG 1.1//EN" "http://www.w3.org/Graphics/SVG/1.1/DTD/svg11.dtd"><svg t="1704608625286" class="icon" viewBox="0 0 1024 1024" version="1.1" xmlns="http://www.w3.org/2000/svg" p-id="43704" xmlns:xlink="http://www.w3.org/1999/xlink" width="200" height="200"><path d="M769.6 352.48c9.28-1.28 17.92 4.48 20.16 13.44 0 0 62.56 366.176 62.24 408.064 0 106.88-63.008 184.512-171.008 184.512-134.976 0-192-110.912-192-221.504 0-12.768-2.048-24.544-5.728-35.552H443.2a4 4 0 0 0-3.936 3.936v32.32c0 26.176-21.376 47.328-41.504 49.664l-3.616 0.416c-7.872 0.8-14.112 1.44-19.904 7.232 0 0-15.136 15.936-20.064 18.848-4.928 2.88-18.432 5.44-25.024-1.12-6.56-6.56-7.2-17.92-0.64-24.48l7.616-7.52c0.96-1.28 0.896-3.616-0.768-3.616l-16.48 1.28a14.528 14.528 0 0 1-14.496-13.12c-0.64-7.68 2.496-15.04 14.496-17.152l10.88-2.464c1.6 0 2.592-1.984 1.6-3.296l-6.848-7.936c-5.632-5.312-5.952-16.736 0.64-23.296 6.528-6.592 19.296-5.568 25.856 0.96l19.36 17.664c2.88 2.976 4.768 4.672 8.512 4.672 1.952 0 4.48-1.632 4.48-3.936v-37.76c0-26.56 22.816-47.232 49.376-47.232h14.08c-8.512-8.704-17.92-16.96-27.84-24.992-42.72-34.72-79.36-76.576-100.448-126.496H245.984c-32.48 0-48.864-25.024-48.864-44.768v-22.88a8.64 8.64 0 0 0-1.984-5.632l-20-21.248c-6.4-6.4-7.232-18.88-0.512-24.96 6.4-6.08 17.28-6.4 23.36 0l3.744 1.824c1.28 1.28 3.52 0.32 3.52-1.28v-7.04c0-8.64 7.136-16.544 15.744-16.544 9.888 0 17.984 7.264 17.984 16.544v8.32c0 1.92 2.24 2.56 3.52 1.28l4.48-3.744c6.08-6.08 16.256-5.76 22.656 0 6.72 6.08 6.4 18.336 0 24.736l-18.496 20.288a7.616 7.616 0 0 0-2.144 5.76v1.632c0 2.72-0.064 7.776 0 10.944 0.096 3.328 1.92 3.744 3.264 3.744h50.592a244.8 244.8 0 0 1-3.584-42.112v-26.24c0-1.6 0.096-3.2 0.192-4.864 0.384-6.336 0.768-12.768-4.48-16.544-31.36-22.72-55.04-63.456-56-104.736-1.152-53.376 35.424-99.36 68.64-141.152 7.264-9.152 14.368-18.08 20.896-26.848 18.656-25.12 57.344-25.504 80 0 4.992 5.632 10.112 11.232 15.264 16.832 37.664 41.184 76.224 83.264 76.224 151.168 0 43.2-22.848 83.264-55.808 106.304-6.72 4.48-7.68 11.84-7.68 19.84v24.64c0.96 18.56 2.848 31.968 7.136 43.584h54.304c2.304 0 2.272-1.536 2.24-3.712v-14.048c0-2.24-1.344-4.16-2.944-5.76l-19.232-18.848c-6.4-6.4-6.72-17.632 0-23.744 6.4-6.08 17.28-7.36 23.36-0.96l4.864 2.24c1.28 1.28 3.52 0.64 3.52-1.28v-9.504c0-5.76 5.504-14.72 15.232-14.72 10.496 0 17.44 7.104 17.44 14.72l1.184 9.504c0 1.6 2.24 2.56 3.52 1.28l4-2.24c6.08-6.4 16.352-5.184 22.112 0 5.76 5.216 8.64 16.64 2.24 23.04l-18.624 21.44-0.32 0.416c-1.28 1.6-3.168 3.904-3.168 5.952v23.232c0 26.56-21.12 47.232-50.944 47.232h-15.2l7.648 6.976c25.408 23.264 51.136 46.784 73.056 74.432l0.032-2.112c0-25.92 31.712-29.888 57.632-29.888h24.16c2.24 0 3.744-2.24 3.744-4.16v-7.232s0.192-8.64-0.768-9.6l-19.36-23.264c-6.176-6.176-5.76-15.84 0.64-22.24 6.4-6.4 13.856-5.28 18.72-3.136l9.024 4.736c1.28 0.96 3.2 0 3.2-1.6v-8.576c0-8.96 8-16 16.96-16s16.832 7.04 16.832 16v7.808c0 1.6 1.92 2.56 3.2 1.6l7.296-3.968c3.872-2.368 12.96-4.032 19.36 2.368 6.4 6.4 6.272 15.488 0.896 23.008l-8.256 10.112-6.24 8.256c-0.64 0.64-1.28 1.92-1.28 2.88v27.936c0 37.696-29.248 54.816-55.168 54.816h-29.12c-2.24 0-3.84 3.424-3.84 5.344l0.256 110.72c0.896 9.76 1.376 19.936 1.376 30.56 0 40.576 19.808 82.432 68.256 81.12 34.56-0.96 54.496-25.504 54.496-81.12l4.608-380.16c0-8.96 6.08-16.96 15.04-18.24z" fill="#00D26A" p-id="43705"></path><path d="M320 208a16 16 0 1 1-32 0 16 16 0 0 1 32 0zM448 208a16 16 0 1 1-32 0 16 16 0 0 1 32 0z" fill="#1C1C1C" p-id="43706"></path></svg>