<?xml version="1.0" standalone="no"?><!DOCTYPE svg PUBLIC "-//W3C//DTD SVG 1.1//EN" "http://www.w3.org/Graphics/SVG/1.1/DTD/svg11.dtd"><svg t="1704608644894" class="icon" viewBox="0 0 1024 1024" version="1.1" xmlns="http://www.w3.org/2000/svg" p-id="44859" xmlns:xlink="http://www.w3.org/1999/xlink" width="200" height="200"><path d="M438 614.4h147.8v92.6H438zM648 819.2l-62-112.2h-148l-62 112.2 34.2 11.8c66 23 138 23 204 0l33.8-11.8z" fill="#FE8E46" p-id="44860"></path><path d="M614 776.8c-66 23-138 23-204 0l-9-3.2-25 45.6 34.2 11.8c66 23 138 23 204 0l34.2-11.8-25.2-45.4-9.2 3z" fill="#E56823" p-id="44861"></path><path d="M420 500h184v114.4h-184z" fill="#FE8E46" p-id="44862"></path><path d="M420 566h184v48.4h-184z" fill="#E56823" p-id="44863"></path><path d="M581.4 500h-139c-23.2 0-40.6-21.4-35.8-44l38.6-185h133.2l38.6 185c5 22.8-12.4 44-35.6 44z" fill="#FE8E46" p-id="44864"></path><path d="M609.8 420.4c-6.6 8.2-16.8 13.4-28.4 13.4h-139c-11.6 0-21.8-5.4-28.4-13.4l-7.4 35.6c-4.8 22.8 12.6 44 35.8 44h139c23.2 0 40.6-21.4 35.8-44l-7.4-35.6zM268.4 296.8s50-30 47.6-74c0 0 92.4 63.4 8.2 160l-55.8-86z" fill="#E56823" p-id="44865"></path><path d="M200 191.8l124.2 191S232.8 413.8 190 348s10-156.2 10-156.2z" fill="#FE8E46" p-id="44866"></path><path d="M581.4 514h-139c-15.4 0-29.6-6.8-39.2-18.6-9.6-11.8-13.4-27.2-10.2-42.2l38.6-185c1.4-6.4 7-11.2 13.8-11.2h133.2c6.6 0 12.4 4.6 13.8 11.2l38.6 185c3.2 15-0.6 30.4-10.2 42.2-9.8 11.8-24 18.6-39.4 18.6z m-124.6-229l-36.4 173.8c-1.4 6.6 0.2 13.6 4.6 18.8s10.8 8.4 17.6 8.4h139c6.8 0 13.2-3 17.6-8.4s6-12.2 4.6-18.8l-36.4-173.8h-110.6z" fill="#463218" p-id="44867"></path><path d="M581.4 514h-139c-15.4 0-29.6-6.8-39.2-18.6-9.6-11.8-13.4-27.2-10.2-42.2l38.6-185c1.4-6.4 7-11.2 13.8-11.2h133.2c6.6 0 12.4 4.6 13.8 11.2l38.6 185c3.2 15-0.6 30.4-10.2 42.2-9.8 11.8-24 18.6-39.4 18.6z m-124.6-229l-36.4 173.8c-1.4 6.6 0.2 13.6 4.6 18.8s10.8 8.4 17.6 8.4h139c6.8 0 13.2-3 17.6-8.4s6-12.2 4.6-18.8l-36.4-173.8h-110.6z" fill="#463218" p-id="44868"></path><path d="M604 628.4h-184c-7.8 0-14-6.2-14-14V500c0-7.8 6.2-14 14-14h184c7.8 0 14 6.2 14 14v114.4c0 7.8-6.4 14-14 14z m-170-28h156V514h-156v86.4z" fill="#463218" p-id="44869"></path><path d="M438 666.2h147.8v39.6H438z" fill="#E56823" p-id="44870"></path><path d="M586 719.6h-148c-7.8 0-14-6.2-14-14v-92.6c0-7.8 6.2-14 14-14h148c7.8 0 14 6.2 14 14v92.6c0 7.8-6.4 14-14 14z m-134-28h120v-64.6h-120v64.6z" fill="#463218" p-id="44871"></path><path d="M512 862.2c-36.2 0-72.2-6-106.6-18l-34.2-11.8c-3.8-1.4-7-4.4-8.4-8.2-1.4-3.8-1.2-8.2 0.8-11.8l62.2-112.2c2.4-4.4 7.2-7.2 12.2-7.2h148c5 0 9.8 2.8 12.2 7.2l62.2 112.2c2 3.6 2.4 8 0.8 11.8-1.4 3.8-4.6 6.8-8.4 8.2l-34.2 11.8c-34.4 12-70.4 18-106.6 18z m-115.8-50.8l18.4 6.4c62.8 21.8 132 21.8 194.8 0l18.4-6.4-50.2-90.6h-131.4l-50 90.6zM479 321.2c-2.6 0-5.4-0.8-7.8-2.4-2.6-1.8-65-44.6-75.6-125.2-1-7.6 4.4-14.6 12-15.6s14.6 4.4 15.6 12c8.8 67.8 62.8 105.4 63.4 105.6 6.4 4.4 8 13 3.8 19.4-2.4 4-6.8 6.2-11.4 6.2zM551.2 321.2c-4.4 0-9-2.2-11.6-6.2-4.4-6.4-2.6-15 3.8-19.4 0.6-0.4 54.6-38 63.4-105.6 1-7.6 8-13 15.6-12s13 8 12 15.6c-10.6 80.6-72.8 123.4-75.6 125.2-2.2 1.6-4.8 2.4-7.6 2.4zM420 560.2h-10.2c-25.6 0-49.6-9.8-68-27.6l-10.8-10.4c-5.6-5.4-5.6-14.2-0.2-19.8 5.4-5.6 14.2-5.6 19.8-0.2l10.8 10.4c13 12.8 30.2 19.8 48.4 19.8h10.2c7.8 0 14 6.2 14 14s-6.2 13.8-14 13.8zM340.8 634.6c-3.6 0-7.2-1.4-10-4.2-5.4-5.6-5.2-14.4 0.2-19.8l10.8-10.4c18.2-17.8 42.4-27.6 68-27.6h10.2c7.8 0 14 6.2 14 14s-6.2 14-14 14h-10.2c-18.2 0-35.4 7-48.4 19.8l-10.8 10.4c-2.6 2.4-6.2 3.8-9.8 3.8zM683.2 634.6c-3.6 0-7-1.4-9.8-4l-10.8-10.4c-13-12.8-30.2-19.8-48.4-19.8H604c-7.8 0-14-6.2-14-14s6.2-14 14-14h10.2c25.6 0 49.6 9.8 68 27.6l10.8 10.4c5.6 5.4 5.6 14.2 0.2 19.8-2.8 3-6.4 4.4-10 4.4zM614.2 560.2H604c-7.8 0-14-6.2-14-14s6.2-14 14-14h10.2c18.2 0 35.4-7 48.4-19.8l10.8-10.4c5.6-5.4 14.4-5.2 19.8 0.2 5.4 5.6 5.2 14.4-0.2 19.8l-10.8 10.4c-18.4 18-42.4 27.8-68 27.8zM275.6 404h-2.8c-41.8-0.8-74.6-17.4-94.6-48.4-47-72.2 7.4-166.8 9.8-170.8 2.4-4.2 7-6.8 11.8-7 4.8-0.2 9.4 2.2 12 6.4l124.2 191c2.4 3.6 3 8.2 1.4 12.2s-4.6 7.2-8.8 8.6c-1 0.2-24 8-53 8zM202 220.4c-11.6 28.6-26 80.2-0.2 119.8 25.8 39.6 73.8 38 100 33.4L202 220.4z" fill="#463218" p-id="44872"></path><path d="M324.2 396.6h-1c-4.4-0.4-8.4-2.6-10.8-6.4l-55.8-85.8c-2-3.2-2.8-7-2-10.8 0.8-3.6 3.2-6.8 6.4-8.8 0.8-0.6 42.8-26.4 40.8-61.4-0.2-5.4 2.4-10.4 7.2-13 4.6-2.6 10.4-2.4 14.8 0.6 1.8 1.2 42.6 29.8 48.8 79 4.2 33.6-8.6 67.8-38 101.6-2.6 3.4-6.4 5-10.4 5z m-36.8-96.2l37.8 58.2c15.8-22.4 22.4-44.2 19.8-65-2.2-18-11-32.6-19.4-42.8-8.4 23-26.2 40.2-38.2 49.6z" fill="#463218" p-id="44873"></path><path d="M397.4 427.2c-14.4 0-30.2-4.2-47.6-12.4-19.4-9.2-33.8-20.6-34.4-21-6-4.8-7-13.6-2.2-19.6 4.8-6 13.6-7 19.6-2.2 13.2 10.4 52.8 35.2 78.2 25 7.2-3 15.4 0.6 18.2 7.6 3 7.2-0.6 15.4-7.6 18.2-7.4 2.8-15.4 4.4-24.2 4.4z" fill="#463218" p-id="44874"></path><path d="M762.4 296.8s-50-30-47.6-74c0 0-92.4 63.4-8.2 160l55.8-86z" fill="#E56823" p-id="44875"></path><path d="M830.8 191.8l-124.2 191s91.4 31 134.2-34.8-10-156.2-10-156.2z" fill="#FE8E46" p-id="44876"></path><path d="M755.2 404c-29 0-52-7.6-53-8-4-1.4-7.4-4.6-8.8-8.6s-0.8-8.6 1.4-12.2l124.2-191c2.6-4 7.2-6.4 12-6.4 4.8 0.2 9.2 2.8 11.8 7 2.4 4 56.6 98.6 9.8 170.8-20.2 31-52.8 47.8-94.6 48.4h-2.8z m-26-30.4c8 1.4 18.2 2.6 29 2.2 32.2-0.8 56-12.8 71-35.8 25.8-39.8 11.4-91.4-0.2-120l-99.8 153.6z" fill="#463218" p-id="44877"></path><path d="M706.6 396.6c-4 0-7.8-1.8-10.6-4.8-29.4-33.8-42.2-68-38-101.6 6.2-49.2 47.2-77.8 48.8-79 4.4-3 10.2-3.2 14.8-0.6 4.6 2.6 7.4 7.6 7.2 13-1.8 34.8 40.4 61 40.8 61.4 3.2 2 5.6 5.2 6.4 8.8s0.2 7.6-2 10.8l-55.8 85.8c-2.4 3.6-6.4 6-10.8 6.4-0.2-0.2-0.4-0.2-0.8-0.2z m-1.4-145.4c-8.4 10.2-17.4 25-19.6 42.8-2.6 20.8 4 42.4 19.8 64.6l37.8-58.2c-11.8-9.4-29.6-26.4-38-49.2z" fill="#463218" p-id="44878"></path><path d="M633.4 427.2c-8.6 0-16.8-1.6-24.2-4.6-7.2-3-10.6-11-7.6-18.2 3-7.2 11-10.6 18.2-7.6 25.4 10.4 65-14.4 78.2-24.8 6-4.8 14.8-3.8 19.6 2.2 4.8 6 3.8 14.8-2.2 19.6-0.6 0.4-14.8 11.8-34.4 21-17.4 8.2-33.2 12.4-47.6 12.4z" fill="#463218" p-id="44879"></path><path d="M526.222 351.786l27.432-5.62 14.972 73.086-27.432 5.62z" fill="#FFFFFF" p-id="44880"></path></svg>