<?xml version="1.0" standalone="no"?><!DOCTYPE svg PUBLIC "-//W3C//DTD SVG 1.1//EN" "http://www.w3.org/Graphics/SVG/1.1/DTD/svg11.dtd"><svg t="1704608667685" class="icon" viewBox="0 0 1024 1024" version="1.1" xmlns="http://www.w3.org/2000/svg" p-id="45944" xmlns:xlink="http://www.w3.org/1999/xlink" width="200" height="200"><path d="M533.333333 384s405.333333 362.666667 405.333334 192c0-106.666667-85.333333-149.333333-85.333334-149.333333l-320-85.333334v42.666667zM490.666667 384S85.333333 746.666667 85.333333 576c0-106.666667 85.333333-149.333333 85.333334-149.333333l320-85.333334v42.666667z" fill="#90CAF9" p-id="45945"></path><path d="M938.666667 576c0-106.666667-85.333333-149.333333-85.333334-149.333333l-320-85.333334v42.666667l2.304 2.069333 301.610667 80.469334C849.578667 474.048 938.666667 506.837333 938.666667 576zM85.333333 576c0-106.666667 85.333333-149.333333 85.333334-149.333333l320-85.333334v42.666667l-2.304 2.069333-301.610667 80.469334C174.421333 474.048 85.333333 506.837333 85.333333 576z" fill="#42A5F5" p-id="45946"></path><path d="M490.666667 298.709333l21.333333-213.333333 21.333333 213.333333zM576 618.666667c0 47.125333-16.874667 256-64 256s-64-208.874667-64-256-21.333333-213.333333 64-213.333334 64 166.208 64 213.333334z" fill="#795548" p-id="45947"></path><path d="M449.984 661.333333h124.010667c1.386667-18.453333 2.005333-33.578667 2.005333-42.666666h-128c0 9.088 0.64 24.213333 1.984 42.666666zM446.4 576h131.2a782.506667 782.506667 0 0 0 0.661333-42.666667h-132.544c-0.213333 14.997333 0.149333 29.504 0.682667 42.666667zM545.344 832c4.330667-12.544 8.170667-27.093333 11.498667-42.666667h-89.664c3.328 15.573333 7.146667 30.122667 11.498666 42.666667h66.666667zM458.432 448c-4.842667 12.693333-7.978667 27.285333-9.898667 42.666667h126.933334c-1.92-15.381333-5.034667-29.973333-9.898667-42.666667h-107.136zM453.909333 704c1.514667 13.845333 3.370667 28.288 5.546667 42.666667h105.066667c2.176-14.378667 4.010667-28.821333 5.546666-42.666667h-116.16z" fill="#5D4037" p-id="45948"></path><path d="M271.189333 555.264l-12.864 51.456-122.645333 102.208a21.354667 21.354667 0 0 0 27.306667 32.810667l128-106.666667c3.477333-2.901333 5.930667-6.826667 7.04-11.221333l26.410666-105.642667a1382.4 1382.4 0 0 1-53.248 37.056zM766.634667 607.530667l-6.805334-47.701334a1241.258667 1241.258667 0 0 1-47.765333-32.618666l13.504 94.506666c0.746667 5.226667 3.413333 9.984 7.466667 13.376l128 106.666667a21.376 21.376 0 0 0 30.037333-2.752 21.333333 21.333333 0 0 0-2.730667-30.058667l-121.706666-101.418666zM450.410667 477.696c-34.581333 44.224-79.381333 81.344-79.957334 81.834667a21.269333 21.269333 0 0 0-6.954666 10.538666c-1.109333 3.84-26.325333 91.818667-22.656 169.557334-18.645333 22.72-82.410667 99.989333-121.728 141.76a21.354667 21.354667 0 0 0 31.104 29.248c47.232-50.218667 125.674667-146.410667 129.002666-150.485334 3.456-4.245333 5.141333-9.664 4.736-15.125333-4.714667-61.12 13.248-135.530667 18.901334-156.992a703.189333 703.189333 0 0 0 42.816-40.490667c-0.192-22.954667 0.789333-47.594667 4.736-69.845333zM804.885333 881.365333c-39.296-41.770667-103.082667-119.018667-121.728-141.76 3.690667-77.76-21.546667-165.738667-22.677333-169.557333a21.376 21.376 0 0 0-6.933333-10.538667c-0.576-0.490667-45.354667-37.546667-79.957334-81.792 3.968 22.229333 4.928 46.869333 4.757334 69.781334a684.266667 684.266667 0 0 0 42.837333 40.512c5.653333 21.504 23.594667 95.893333 18.901333 156.992a21.333333 21.333333 0 0 0 4.736 15.125333c3.306667 4.053333 81.770667 100.266667 129.002667 150.485333a21.376 21.376 0 0 0 30.144 0.938667c8.576-8.085333 8.96-21.589333 0.917333-30.186667zM512 405.333333c22.677333 0 37.674667 11.946667 47.68 30.08C581.589333 405.269333 597.333333 362.794667 597.333333 341.333333c0-42.666667-50.005333-63.957333-85.333333-63.957333S426.666667 298.666667 426.666667 341.333333c0 21.461333 15.744 63.936 37.653333 94.08C474.325333 417.28 489.322667 405.333333 512 405.333333z" fill="#8D6E63" p-id="45949"></path><path d="M480 266.709333m-32 0a32 32 0 1 0 64 0 32 32 0 1 0-64 0Z" fill="#37474F" p-id="45950"></path><path d="M544 266.709333m-32 0a32 32 0 1 0 64 0 32 32 0 1 0-64 0Z" fill="#37474F" p-id="45951"></path></svg>