<?xml version="1.0" encoding="utf-8"?>
<!-- Generator: Adobe Illustrator 19.2.0, SVG Export Plug-In . SVG Version: 6.00 Build 0)  -->
<svg version="1.1" id="Layer_1" xmlns="http://www.w3.org/2000/svg" xmlns:xlink="http://www.w3.org/1999/xlink" x="0px" y="0px"
	 viewBox="0 0 48 48" style="enable-background:new 0 0 48 48;" xml:space="preserve">
<style type="text/css">
	.st0{fill:#E2AA53;}
	.st1{fill:#84563D;}
	.st2{fill:#AF7D41;}
	.st3{fill:#724835;}
	.st4{fill:#663F2F;}
	.st5{fill:#7A6251;}
	.st6{fill:#A56D3F;}
	.st7{fill:#3F332D;}
	.st8{fill:#E8D2B5;}
	.st9{fill:#D1BA9F;}
	.st10{fill:#CE964D;}
	.st11{fill:#896E59;}
	.st12{fill:#755B4A;}
	.st13{fill:#996934;}
	.st14{fill:#4F2E22;}
	.st15{fill:#303030;}
</style>
<g id="Layer_1_1_">
	<g>
		<g>
			<path class="st0" d="M21.7,23.2c0,0-1.8,2.9-2.8,4.6c-1,1.7-2.5,3.8-2.5,3.8s3.1,0.9,4.6-1.3S21.9,24.2,21.7,23.2z"/>
			<path class="st1" d="M20.7,18.6c0,0-1.1-0.4-5.5,4.6c-1.5,1.7-2.5,2.9-3.5,3.8c-1.2,1.3-2.2,2.2-2.9,3.8c-0.1,0.3,0.3,1,0.2,1.3
				c-0.2,0.5-0.8,0.7-0.9,1.4c0,0,0.4,1,2.6,0.5c1.3-0.3,2.6-0.6,3.8-1.3c0.8-0.4,1.7-0.8,2.4-1.9c1.9-2.9,2-3.4,2.9-4.6
				c0.5-0.7,1.3-1.8,1.8-3c0.4-0.9,0.6-1.7,0.5-2.6L20.7,18.6z"/>
			<path class="st2" d="M21,30.6c-1.5,2.2-4.6,1.1-4.6,1.1s1.4-2.1,2.5-3.8c1-1.7,2.8-4.6,2.8-4.6c-0.2,1.4-3.7,6.9-3.2,7
				c0.5,0.1,1.7-0.5,2.6-2c0.9-1.5,0.6-5,0.6-5c0.2,0.7,1.4,2.9,1.1,4.9c-0.1,0.9-0.7,2-1.3,2.7C21.5,30.8,21,30.5,21,30.6z"/>
			<path class="st3" d="M16.6,21.7c0,0-1.5,2.6-2.2,4.3s-0.5,3.3-1.4,3.5c-0.9,0.2-1.7-1.5-1.1-2.6S15.6,22.5,16.6,21.7z"/>
			<path class="st3" d="M21.3,23.8c0,0,0.1-0.3-0.7-0.2s-1.2,1.4-2.6,3s-1.2,3.2-3.3,3.4c-2.1,0.2-3.4,0.4-4.8,1.1
				c-1.4,0.6-1.5,1.9-1.5,2.4S9,34,10.3,33.8c0.8-0.2,1.8,0,2.9-0.3c0.7-0.2,1.4-0.4,1.9-0.7c1.3-0.8,2.1-2.2,3.1-3.9
				C19.3,27.1,21.5,24.5,21.3,23.8z"/>
			<path class="st3" d="M11.1,31.5c-0.3,0-0.5,0.1-0.8,0.2c-0.2,0.1-0.4,0.2-0.5,0.4c-0.2,0.3-0.4,0.5-0.6,0.8
				c-0.1,0.2-0.2,0.4-0.4,0.6c-0.2,0.2-0.4,0.3-0.7,0.2c-0.1-0.4,0.2-0.8,0.3-1.2C8.7,32,8.7,31.5,8.8,31c0.1-0.3,0.2-0.5,0.4-0.8
				c0.1-0.3,0.3-0.5,0.5-0.7c0.6-0.9,1.3-1.7,2.1-2.5c0.1-0.1,0.1-0.1,0.2-0.1c0.1,0,0.2,0.1,0.2,0.3c0,0.1,0,0.3,0,0.4
				c-0.1,0.4,0,0.7,0,1.1c0.1,0.4,0.1,0.8,0.2,1.1c0,0.3,0.2,0.6,0.1,0.9C12.3,31,11.6,31.4,11.1,31.5z"/>
			<path class="st4" d="M13.2,33.4c0,0.1,0,0.1-0.1,0.1c0,0-0.5,0.1-0.6,0.1c-0.2,0-0.4,0.1-0.6,0.1c-0.2,0.1-0.5,0.1-0.8,0.1
				c-0.1,0-0.2,0-0.3,0c-0.1,0-0.3,0.1-0.5,0.1c-0.2,0-0.4,0.1-0.5,0.1c-0.1,0-0.1,0-0.2,0c-0.1,0-0.2,0-0.4,0c-0.3,0-0.7-0.1-1-0.3
				c-0.1-0.1-0.1-0.1-0.2-0.2c-0.1-0.2-0.1-0.6,0-0.8c0.1-0.5,0.5-0.9,0.6-1.3c0.1-0.2,0.1-0.5,0.1-0.7c0.1-0.2,0.1-0.3,0.2-0.3
				c0,0,0,0,0.1,0c0.3-0.2,0.6,0,0.8,0.4c0,0,0,0.1,0.1,0.2c0.1,0.2,0.1,0.4,0.2,0.6c0,0,0,0.1,0,0.1c0,0.1,0.1,0.2,0.1,0.3
				c0.1,0.2,0.2,0.4,0.3,0.5c0.3,0.3,0.7,0.3,1,0.3c0.2,0,0.4,0.1,0.7,0.1c0.2,0,0.3,0,0.5,0.1c0,0,0,0,0.1,0c0.1,0,0.2,0,0.3,0.1
				S13.3,33.3,13.2,33.4z"/>
			<path class="st5" d="M11.2,27.9c0,0.2,0,0.5,0,0.7c0,0.3-0.2,0.6-0.3,0.9c-0.1,0.3,0,0.6-0.1,0.9c0,0.2-0.1,0.3-0.1,0.5
				c0,0.2,0,0.3,0.2,0.4c0.1,0.1,0.2,0.1,0.4,0.1c0.1,0,0.3,0,0.4-0.1c0.1,0,0.2-0.1,0.4-0.1c0.2,0,0.3-0.1,0.4-0.2
				c0-0.1,0-0.1,0-0.2c0-0.1,0-0.1,0-0.2c-0.1-0.2-0.3-0.2-0.5-0.3c-0.2-0.1-0.2-0.3-0.2-0.5c0-0.4,0.1-0.8,0.3-1.2
				c0.2-0.6,0.4-1.2,0.4-1.8c0-0.1,0.2-0.7,0.1-0.8c-0.1-0.1-0.4,0.3-0.5,0.4c-0.2,0.2-0.3,0.4-0.4,0.6
				C11.4,27.5,11.3,27.7,11.2,27.9z"/>
			<path class="st6" d="M13.4,25.5c-0.7,0.5-1.4,1.1-1.6,2c-0.2,0.6,0,1.3-0.2,1.9c-0.1,0.3-0.2,0.6-0.3,0.9c0,0.3,0.1,0.7,0.4,0.8
				c0.2,0.1,0.3,0,0.5,0c0.5-0.1,1-0.2,1.5-0.2c0.2,0,0.3-0.1,0.5,0c0.2,0,0.4,0.1,0.6,0.1c0.5,0.1,0.9,0,1.4-0.1
				c0.3,0,0.7-0.2,0.9-0.4c-0.1-0.1-0.5-0.1-0.7-0.1c-1.2-0.2-2.5-0.4-3.7-0.6c-0.2-0.3-0.1-0.7,0-1.1c0.1-0.3,0.3-0.7,0.3-1.1
				c0-0.1,0-0.2,0-0.3c0-0.1,0.1-0.2,0.2-0.3c0.2-0.3,0.4-0.7,0.5-1C13.7,25.6,13.8,25.1,13.4,25.5z"/>
			<path class="st3" d="M13.1,26.4c-0.3,0.3-0.6,0.6-0.6,1.1c0,0.3,0.1,0.7,0.1,1c0,0.3-0.2,0.6-0.3,0.9c-0.1,0.3,0,0.7,0.3,0.8
				c0.3,0.1,0.5-0.1,0.8-0.2c0.5-0.1,0.9,0.2,1.4,0.3c0.5,0,1-0.2,1.4,0.1c0.1,0.1,0.2,0.2,0.4,0.2c0.3,0.1,0.4-0.1,0.4-0.2
				c0-0.1-0.2-0.2-0.3-0.2c-1.2-0.4-2.4-0.6-3.7-0.7c0,0-0.1,0-0.1,0c-0.2-0.1-0.1-0.3,0-0.5c0.2-0.3,0.2-0.6,0.2-0.9
				c0-0.3-0.2-0.6-0.1-0.8c0.1-0.2,0.2-0.3,0.3-0.4c0.2-0.3,0.3-0.7,0.4-1.1c0-0.2,0-0.3-0.2-0.4C13.4,25.7,13.4,26.1,13.1,26.4z"/>
		</g>
		<g>
			<path class="st0" d="M26.3,23.2c0,0,1.8,2.9,2.8,4.6c1,1.7,2.5,3.8,2.5,3.8s-3.2,1.1-4.6-1.1S26.1,24.2,26.3,23.2z"/>
			<path class="st1" d="M27.2,18.6c0,0,1.1-0.4,5.5,4.6c1.5,1.7,2.5,2.9,3.5,3.8c1.2,1.3,2.2,2.2,2.9,3.8c0.1,0.3-0.3,1-0.2,1.3
				c0.2,0.5,0.9,0.7,1.1,1.4c0,0-0.5,1-2.7,0.4c-1.5-0.4-2.9-0.5-4.3-1.4c-0.6-0.4-1.3-0.9-1.9-1.8c-1.9-2.9-2-3.4-2.9-4.6
				c-0.9-1.2-2.5-3.6-2.2-5.5L27.2,18.6z"/>
			<g>
				<path class="st2" d="M26.6,30.8c0,0,0.3,0,0.3,0.1c0,0,0.1-0.1,0.1-0.1c1.5,1.9,4.5,0.9,4.5,0.9s-1.4-2.1-2.5-3.8
					c-1-1.7-2.8-4.6-2.8-4.6c0.2,1.4,3.7,6.9,3.2,7c-0.5,0.1-1.7-0.5-2.6-2c-0.9-1.5-0.6-5-0.6-5C26.1,24.2,25.2,28.6,26.6,30.8z"/>
			</g>
			<path class="st3" d="M31.4,21.7c0,0,1.5,2.6,2.2,4.3c0.7,1.7,0.5,3.3,1.4,3.5c0.9,0.2,1.7-1.5,1.1-2.6
				C35.4,25.8,32.4,22.5,31.4,21.7z"/>
			<path class="st3" d="M26.7,23.8c0,0-0.1-0.3,0.7-0.2s1.2,1.4,2.6,3s1.2,3.2,3.3,3.4c2.1,0.2,3.4,0.4,4.8,1.1
				c1.4,0.6,1.5,1.9,1.5,2.4S39,34,37.7,33.8c-0.8-0.2-1.8,0-2.9-0.3c-0.5-0.1-1-0.3-1.4-0.5c-0.2-0.1-0.4-0.2-0.5-0.3
				c-1.3-0.8-2.1-2.2-3.1-3.9C28.7,27.1,26.5,24.5,26.7,23.8z"/>
			<path class="st3" d="M36.9,31.5c0.3,0,0.5,0.1,0.8,0.2c0.2,0.1,0.4,0.2,0.5,0.4c0.2,0.3,0.4,0.5,0.6,0.8c0.1,0.2,0.2,0.4,0.4,0.6
				c0.2,0.2,0.4,0.3,0.7,0.2c0.1-0.4-0.2-0.8-0.3-1.2c-0.2-0.5-0.2-1-0.3-1.5c-0.1-0.2-0.2-0.5-0.3-0.7c-0.1-0.3-0.3-0.5-0.5-0.7
				c-0.6-0.9-1.3-1.7-2.1-2.5c-0.1-0.1-0.1-0.1-0.2-0.1c-0.1,0-0.2,0.1-0.2,0.3c0,0.1,0,0.3,0,0.4c0.1,0.4,0,0.7,0,1.1
				c-0.1,0.4-0.1,0.8-0.2,1.1c0,0.3-0.2,0.6-0.1,0.9C35.7,31,36.4,31.4,36.9,31.5z"/>
			<path class="st4" d="M39.9,33.7c-0.1,0.1-0.1,0.2-0.2,0.2c-0.3,0.2-0.6,0.2-0.9,0.3c-0.1,0-0.3,0-0.4,0c-0.1,0-0.1,0-0.2,0
				c-0.2,0-0.4-0.1-0.6-0.1c-0.2,0-0.3-0.1-0.5-0.1c-0.1,0-0.2,0-0.3,0c-0.3,0-0.6-0.1-0.9-0.2c-0.2,0-0.4-0.1-0.6-0.1
				c-0.1,0-0.6-0.1-0.6-0.1c0,0-0.1-0.1-0.1-0.1c0-0.1,0-0.2,0.1-0.2c0.1,0,0.2-0.1,0.3-0.1h0c0.2,0,0.3-0.1,0.5-0.1
				c0.2,0,0.5-0.1,0.7-0.1c0.4,0,0.8-0.1,1-0.3c0,0,0,0,0,0c0.1-0.1,0.2-0.3,0.3-0.5v0c0-0.1,0-0.2,0.1-0.2c0,0,0-0.1,0-0.1
				c0-0.2,0.1-0.4,0.2-0.6c0-0.1,0-0.1,0.1-0.2c0.2-0.4,0.6-0.6,0.8-0.4c0,0,0,0,0.1,0c0.1,0.1,0.2,0.2,0.2,0.3
				c0.1,0.2,0.1,0.5,0.1,0.7c0.1,0.5,0.5,0.9,0.6,1.3C40,33.1,40,33.6,39.9,33.7z"/>
			<path class="st5" d="M36.8,27.9c0,0.2,0,0.5,0,0.7c0,0.3,0.2,0.6,0.3,0.9c0.1,0.3,0,0.6,0.1,0.9c0,0.2,0.1,0.3,0.1,0.5
				c0,0.2,0,0.3-0.2,0.4c-0.1,0.1-0.2,0.1-0.4,0.1c-0.1,0-0.3,0-0.4-0.1c-0.1,0-0.2-0.1-0.4-0.1c-0.2,0-0.3-0.1-0.4-0.2
				c0-0.1,0-0.1,0-0.2c0-0.1,0-0.1,0-0.2c0.1-0.2,0.3-0.2,0.5-0.3c0.2-0.1,0.2-0.3,0.2-0.5c0-0.4-0.1-0.8-0.3-1.2
				c-0.2-0.6-0.4-1.2-0.4-1.8c0-0.1-0.2-0.7-0.1-0.8c0.1-0.1,0.4,0.3,0.5,0.4c0.2,0.2,0.3,0.4,0.4,0.6
				C36.6,27.5,36.7,27.7,36.8,27.9z"/>
			<path class="st6" d="M34.6,25.5c0.7,0.5,1.4,1.1,1.6,2c0.2,0.6,0,1.3,0.2,1.9c0.1,0.3,0.2,0.6,0.3,0.9s-0.1,0.7-0.4,0.8
				c-0.2,0.1-0.3,0-0.5,0c-0.5-0.1-1-0.2-1.5-0.2c-0.2,0-0.3-0.1-0.5,0c-0.2,0-0.4,0.1-0.6,0.1c-0.5,0.1-0.9,0-1.4-0.1
				c-0.3,0-0.7-0.2-0.9-0.4c0.1-0.1,0.5-0.1,0.7-0.1c1.2-0.2,2.5-0.4,3.7-0.6c0.2-0.3,0.1-0.7,0-1.1s-0.3-0.7-0.3-1.1
				c0-0.1,0-0.2,0-0.3c0-0.1-0.1-0.2-0.2-0.3c-0.2-0.3-0.4-0.7-0.5-1C34.3,25.6,34.2,25.1,34.6,25.5z"/>
			<path class="st3" d="M34.9,26.4c0.3,0.3,0.6,0.6,0.6,1.1c0,0.3-0.1,0.7-0.1,1c0,0.3,0.2,0.6,0.3,0.9c0.1,0.3,0,0.7-0.3,0.8
				c-0.3,0.1-0.5-0.1-0.8-0.2c-0.5-0.1-0.9,0.2-1.4,0.3c-0.5,0-1-0.2-1.4,0.1c-0.1,0.1-0.2,0.2-0.4,0.2c-0.3,0.1-0.4-0.1-0.4-0.2
				c0-0.1,0.2-0.2,0.3-0.2c1.2-0.4,2.4-0.6,3.7-0.7c0,0,0.1,0,0.1,0c0.2-0.1,0.1-0.3,0-0.5c-0.2-0.3-0.2-0.6-0.2-0.9
				c0-0.3,0.2-0.6,0.1-0.8c-0.1-0.2-0.2-0.3-0.3-0.4c-0.2-0.3-0.3-0.7-0.4-1.1c0-0.2,0-0.3,0.2-0.4C34.6,25.7,34.6,26.1,34.9,26.4z"
				/>
		</g>
		<g>
			<path class="st7" d="M29.8,14.1c0,0,0.1,0,0.1,0c0,0,0.1,0,0.1,0c0.1,0,0.2-0.2,0.1-0.3c0-0.1,0-0.2,0-0.2c0.1-0.1,0-0.3-0.1-0.3
				c-0.1-0.1-0.3,0-0.3,0.1c0,0,0,0.1,0,0.1c-0.9,0.6-1.8,0.7-1.8,0.7c0,0-0.1,0-0.1,0l-1.9,1.3c-0.1,0.1-0.1,0.2-0.1,0.3
				c0,0.1,0.1,0.1,0.2,0.1c0,0,0.1,0,0.1,0l1.8-1.2C28.2,14.8,29,14.6,29.8,14.1z"/>
			<path class="st7" d="M33.9,18c-0.1-0.1-0.2-0.1-0.3-0.1c0,0-0.1,0.1-0.2,0.2c-0.2,0.1-0.9,0.2-2.1,0.2c-1.4,0-3-0.8-3.1-0.8
				c-0.1,0-0.2,0-0.2,0l-1.1,0.6c-0.1,0.1-0.2,0.2-0.1,0.3c0.1,0.1,0.2,0.2,0.3,0.1l0.9-0.5c0.4,0.2,1.8,0.8,3.2,0.8c0,0,0,0,0.1,0
				c1,0,1.7-0.1,2.1-0.2c0,0.1,0.1,0.1,0.2,0.1c0,0,0,0,0,0c0.1,0,0.2-0.1,0.2-0.3c0-0.1,0-0.1,0-0.2C34,18.2,34,18.1,33.9,18z"/>
		</g>
		<g>
			<path class="st7" d="M22.1,15.6l-1.9-1.2c0,0-0.1,0-0.1,0c0,0-0.9-0.1-1.8-0.7c0-0.1,0-0.1,0-0.1c-0.1-0.1-0.2-0.2-0.3-0.1
				c-0.1,0-0.2,0.2-0.1,0.3c0,0,0,0.1,0,0.2c0,0.1,0,0.3,0.1,0.3c0,0,0.1,0,0.1,0c0,0,0.1,0,0.1,0c0.8,0.5,1.6,0.7,1.8,0.7l1.9,1.2
				c0,0,0.1,0,0.1,0c0.1,0,0.2,0,0.2-0.1C22.2,15.9,22.2,15.7,22.1,15.6z"/>
			<path class="st7" d="M19.9,17.5c-0.1,0-0.2,0-0.2,0c0,0-1.6,0.8-3.1,0.8c0,0,0,0-0.1,0c-1.2,0-1.9-0.2-2.1-0.2
				c-0.1-0.1-0.1-0.2-0.2-0.2c-0.1-0.1-0.3-0.1-0.4,0.1c-0.1,0.1-0.1,0.3,0.1,0.3c0,0,0,0,0,0.2c0,0.1,0.1,0.3,0.2,0.3c0,0,0,0,0,0
				c0.1,0,0.1,0,0.2-0.1c0.3,0.1,1,0.2,2.1,0.2c0,0,0,0,0.1,0c1.3,0,2.7-0.6,3.2-0.8l1,0.5c0.1,0.1,0.3,0,0.3-0.1
				c0.1-0.1,0-0.3-0.1-0.3L19.9,17.5z"/>
		</g>
		<path class="st8" d="M25.8,19.2c0,1.3-0.4,2.6-1.8,2.6c-1.3,0-1.8-1.3-1.8-2.6s0.8-2.3,1.8-2.3C25,16.8,25.8,17.9,25.8,19.2z"/>
		<path class="st9" d="M24.3,17.1c0,0,0.9,0.4,0.8,1.3c0,0.9,0.1,1.2-0.1,1.3s-0.7,0.4-0.6,0.4c0,0.1,0.1,0.3,0.4,0.3
			c0.3,0-0.1,0.6-0.5,0.7c0,0-0.1,0.5,0.4,0.3s1.1-0.6,1.1-1.1s0.1-0.9,0-1.4C25.6,18.4,25.7,16.9,24.3,17.1z"/>
		<path class="st9" d="M23.9,17.1c0,0-1,0.4-1,1.3c0,0.9-0.1,1.2,0.1,1.3s0.7,0.4,0.6,0.4c0,0.1-0.1,0.3-0.4,0.3
			c-0.3,0,0,0.5,0.3,0.6c0,0,0.1,0.6-0.3,0.3s-1.1-0.5-1.2-1.1s0-1,0.1-1.4C22.4,18.4,22.4,17,23.9,17.1z"/>
		<path class="st10" d="M27.1,30.8c0,0-0.4,0.7-0.8,1.4c0,0.1-0.1,0.2-0.1,0.3c0,0,0,0.1,0,0.3c-0.1,0.5-0.3,1.6-1.3,2.5
			c-0.3,0.1-0.3,0.4-0.6,0.4c-0.3,0-0.6-0.2-0.9-0.4c-1-1-1.3-2-1.3-2.5c0-0.2,0-0.3,0-0.3c0-0.1-0.1-0.2-0.1-0.3v0
			c-0.4-0.7-0.8-1.6-0.8-1.6s0.1,0,0.2-0.2c0.1-0.1,0.2-0.2,0.3-0.4c0.2-0.3,0.3-0.7,0.4-1.3c0-0.2,0.1-0.3,0.1-0.5c0,0,0-0.1,0-0.1
			c0.3-2-0.3-4.8-0.3-4.8c0.3-1.2,0.4-2.8,0.4-2.8l0.1,0.1c0,0,1.1,0.9,2,0.9c0.8-0.1,1.8-1.1,1.8-1.1l0.1-0.1c0,0,0.1,1.8,0.4,2.9
			c0,0-0.4,2.8-0.2,4.8c0,0,0,0.1,0,0.1c0,0.2,0,0.3,0.1,0.5c0.1,0.6,0.3,1,0.4,1.4c0.1,0.2,0.1,0.3,0.2,0.5
			C27,30.6,27.1,30.8,27.1,30.8z"/>
		<g>
			<path class="st7" d="M24.4,21.4c0,0,0.2-0.9-0.3-0.9c-0.5,0-0.4,0.9-0.4,0.9"/>
			<path class="st2" d="M25.5,30.9c0.8-0.1,1-0.7,1-0.7c-0.1,0.2-1.3,0.4-1.9,0.5c-0.1,0-0.1,0-0.2,0c0-0.1,0-0.2,0-0.2l0.3,0
				l0.8-0.2c-0.8,0.2-1.1-0.2-1.1-0.4c0,0,0-0.1,0-0.1c0-0.5,0-0.7,0.6-0.7c0.5-0.1,0.9-0.5,0.9-0.5c-0.2,0.1-0.8,0-1.4,0.1
				c0,0-0.1,0-0.1,0c0-0.1,0-0.1,0-0.2c0,0,0.1,0,0.1,0c0.4,0,0.9-0.2,0.9-0.2c-0.8,0.2-1-0.2-1.1-0.4c0-0.3,0-0.6,0-0.9
				c-0.1-1.1-0.2-2.7-0.1-3.9c0-0.2,0.1-0.8,0.2-1c0.3-0.4,1-0.2,1.3-0.7c0.2-0.4,0.3-1.1-0.2-0.9c0,0-0.5,0.5-1.1,0.7
				c-0.3,0.1-0.7,0.1-1,0c-0.8-0.3-1.3-0.7-1.3-0.7c-0.4-0.1-0.2,0.5,0,0.9c0.2,0.5,1,0.3,1.3,0.8c0.1,0.2,0.1,0.8,0.2,1
				c0.2,1.1,0,2.5-0.1,3.6c0,0.3,0,0.8,0,1.2c0,0.1-0.2,0.3-0.9,0.3c0,0,0.5,0.2,0.8,0.2c0.1,0,0.1,0,0.1-0.1c0,0.1,0,0.3,0,0.4
				c-0.6,0-1.3-0.2-1.5-0.2c0,0,0.5,0.5,1,0.6c0.3,0,0.4,0.2,0.5,0.4c0,0.1,0,0.3,0,0.4c0,0,0,0.4-0.3,0.4c-0.3,0-1.1,0-1.1,0
				s0.8,0.3,1.3,0.3c0,0,0.1,0,0.1,0c0,0.1,0,0.2,0,0.2c0,0,0,0-0.1,0c-0.6-0.1-2-0.3-2.1-0.4c0,0,0.5,0.5,1.3,0.7
				c0.6,0.1,0.8,0.2,0.9,0.5c0,0,0,0,0,0.1c0,0.2,0,0.3,0,0.5c0,0.1-0.1,0.3-1.5,0.3c0,0,0.9,0.1,1.1,0.1c0.2,0,0.2,0.1,0.2,0.2
				c-0.4,0-0.9,0-1.3,0c0,0,1.1,0.3,1.1,1.1c0,0.2-0.1,0.4-0.1,0.6c0,0.5,0.1,1.1,0.5,1.4c0.1,0.1,0.4,0.2,0.6,0.1
				c0.1-0.1,0.2-0.2,0.2-0.3c0.1-0.1,0.1-0.2,0.2-0.4c0.1-0.3,0.2-0.6,0.2-0.8c0,0,0,0,0-0.1c0-0.2,0-0.4-0.1-0.6
				c-0.1-1,0.9-0.7,1.1-1.1c-0.4,0-0.9,0-1.4,0c0,0,0,0,0-0.1c0,0,0.1-0.1,0.2-0.2c0.3-0.1,0.8,0,0.8,0c-0.8,0-1.1-0.1-1.2-0.3
				c0-0.1,0-0.3,0-0.4C24.5,31,24.8,31,25.5,30.9z"/>
			<polygon class="st2" points="24.4,35.9 24.4,35.9 24.4,35.9 			"/>
		</g>
		<path class="st11" d="M27.2,18.5c-0.2,1.3-1,2.5-1.5,2c0,0,0,0,0,0c0,0,0.2-0.1,0.2-0.1c0,0-0.1-0.4,0-0.8c0.1-0.3-0.1-2.1-1-2.5
			c0,0-0.1,0-0.2,0c-0.1,0-0.3,0-0.4,0h0c-0.1,0-0.1,0-0.1,0l-0.3,0c-0.7-0.1-1.2,0.4-1.4,0.9c0,0,0,0.1-0.1,0.1
			c-0.2,0.6-0.1,1.4-0.1,1.6c0,0-0.1,0.1-0.1,0.1c0,0.4,0,0.5,0,0.5c0,0-0.1,0-0.2,0c0,0,0,0.1,0,0.1c-0.5,0.1-1.1-0.6-1.2-1.8
			c-0.2-1.2,0.3-1.9,0.5-2.1c0,0,0,0,0,0c0,0,0,0,0,0s0,0,0,0c0.1-0.5,0.3-0.6,0.4-0.9c0.2-0.4,0.4-0.8,0.5-0.9
			c0.1-0.1,0.2-0.1,0.2-0.1c0-0.4,0.2-0.4,0.3-0.6c0.2-0.5,0.4-0.9,0.5-1c0,0,0,0,0,0c0.1-0.7,0.5-0.7,0.8-0.6
			c0.2-0.1,0.7-0.1,0.8,0.6c0,0,0,0,0,0c0.1,0.1,0.2,0.4,0.4,0.9c0.1,0.2,0.3,0.4,0.4,0.7c0,0,0,0,0.1,0.1c0.1,0.1,0.3,0.4,0.5,0.8
			c0.1,0.3,0.4,0.5,0.5,1c0,0,0,0.1,0,0.1c0,0,0,0,0,0C26.8,16.6,27.4,17.4,27.2,18.5z"/>
		<path class="st12" d="M25.5,14.5c-0.4,0.3-1.6,0.3-1.6,0.3c1.5-0.4,0.8-1.9,0.8-1.9c0,0,0,0,0,0C24.9,13,25.5,13.3,25.5,14.5z"/>
		<path class="st12" d="M24,14.8c0,0-1.1-0.1-1.5-0.3c0.1-1.2,0.6-1.5,0.7-1.6c0,0,0,0,0,0C23.2,12.9,22.5,14.4,24,14.8z"/>
		<path class="st12" d="M26.6,16.4c-0.6-0.3-1.5,0.1-1.5,0.1c0-0.2,0-0.4,0.6-0.7c0.5-0.3-0.1-1.2-0.1-1.2
			C25.9,14.8,26.4,15.3,26.6,16.4C26.6,16.4,26.6,16.4,26.6,16.4z"/>
		<path class="st12" d="M22.9,16.5c0,0-0.9-0.4-1.5-0.1c0,0,0,0,0,0c0.2-1.1,0.7-1.6,0.9-1.8c0,0-0.5,0.9,0,1.2
			C22.9,16.1,22.9,16.3,22.9,16.5z"/>
		<path class="st12" d="M27.4,18.6c-0.2,1.3-1.2,2.4-1.7,1.9c0,0,0,0,0,0c0-0.4,0-1.1,0-2c0-0.9-0.5-1.3-0.9-1.4c0,0-0.1,0-0.1,0
			c-0.1,0-0.3,0-0.4,0h0c1.8-0.2,1.9,1.3,2.3,1.1c0.5-0.3,0.1-1.7,0.1-1.7c0,0,0,0,0,0C26.8,16.6,27.6,17.4,27.4,18.6z"/>
		<path class="st12" d="M23.9,17.1c-0.3,0-1,0.1-1.3,0.9c0,0,0,0.1,0,0.1c0,0.1-0.1,0.3-0.1,0.4c0,0.5,0,0.9-0.1,1.3
			c0,0.4-0.1,0.6-0.2,0.8c0,0-0.1,0-0.1,0c-0.5,0.1-1.4-0.9-1.5-2c-0.2-1.2,0.6-2,0.7-2.1c0,0,0,0,0,0c0,0,0,0,0,0
			c0,0.2-0.3,1.4,0.2,1.7C22,18.4,22.1,16.9,23.9,17.1z"/>
		<path class="st7" d="M24.4,20.2c0,0-0.3-0.5,0.1-0.7c0.4-0.2,0.7-0.2,0.8-0.2c0.2,0.1,0.1,0.4-0.1,0.6S24.7,20.6,24.4,20.2z"/>
		<path class="st7" d="M23.6,20.2c0,0,0.3-0.5-0.1-0.7c-0.4-0.2-0.7-0.2-0.8-0.2c-0.2,0.1-0.1,0.4,0.1,0.6S23.4,20.6,23.6,20.2z"/>
		<path class="st7" d="M24.7,19c0,0-0.1-0.1-0.1-0.2c0-0.1,0-0.1,0.1-0.1c0.1-0.1,0.1-0.2,0.2-0.1c0.1,0.1,0.1,0.2,0.1,0.3
			C24.9,19,24.8,19.1,24.7,19z"/>
		<path class="st7" d="M23.5,19c0,0,0.1-0.1,0.1-0.2c0-0.1,0-0.1-0.1-0.1c-0.1-0.1-0.1-0.2-0.2-0.1c-0.1,0.1-0.1,0.2-0.1,0.3
			C23.3,19,23.4,19.1,23.5,19z"/>
		<g>
			<g>
				<path class="st13" d="M26.3,32.2c0,0.1-0.1,0.2-0.1,0.3c0,0,0,0.1,0,0.3c-0.7,0.1-1.4,0.2-2,0.2c-0.9,0-1.7-0.1-2.2-0.2
					c0-0.2,0-0.3,0-0.3c0-0.1-0.1-0.2-0.1-0.3C22.4,32.3,24.3,32.6,26.3,32.2z"/>
			</g>
			<g>
				<path class="st13" d="M26.9,30.4c-1.1,0.4-2,0.5-2.9,0.5c-1.3,0-2.3-0.3-2.8-0.5c0.1-0.1,0.2-0.2,0.3-0.4c0.9,0.3,2.9,0.8,5.3,0
					C26.7,30.1,26.8,30.3,26.9,30.4z"/>
			</g>
			<g>
				<path class="st13" d="M26.3,28.6c-0.8,0.2-1.5,0.3-2.2,0.3c-1,0-1.8-0.2-2.2-0.3c0-0.2,0.1-0.3,0.1-0.5c0.8,0.2,2.5,0.5,4.3,0
					C26.2,28.3,26.3,28.4,26.3,28.6z"/>
			</g>
		</g>
		<g>
			<g>
				<path class="st14" d="M38.7,34.2c-0.1,0-0.3,0-0.4,0c-0.1,0-0.1,0-0.2,0c0,0,0,0,0,0c0-0.1-0.1-0.2-0.1-0.3
					c-0.2-0.4-0.4-0.8-0.6-1.3c-0.2-0.3-0.3-0.7-0.5-1.1c0,0,0,0,0,0c-0.1-0.2-0.2-0.4-0.4-0.6c-0.1-0.1-0.1-0.2-0.2-0.3
					c0-0.1-0.1-0.1-0.1-0.2c-0.2-0.3-0.4-0.5-0.6-0.8c0,0,0,0,0,0c0,0-0.1-0.1-0.1-0.1c0-0.1-0.1-0.1-0.1-0.2
					c-0.2-0.2-0.3-0.4-0.5-0.6c-0.1-0.1-0.2-0.3-0.4-0.4c-0.1-0.1-0.1-0.3,0-0.3c0.1-0.1,0.3-0.1,0.4,0c0,0,0,0,0,0
					c0.1,0.1,0.1,0.1,0.2,0.2c0.1,0.1,0.2,0.2,0.3,0.3c0.1,0.2,0.3,0.3,0.4,0.5c0,0.1,0.1,0.1,0.1,0.2c0.1,0.2,0.2,0.3,0.3,0.5
					c0.1,0.2,0.2,0.3,0.3,0.5c0.2,0.3,0.3,0.5,0.5,0.8c0.1,0.1,0.1,0.2,0.2,0.3c0.1,0.2,0.2,0.4,0.3,0.5c0.1,0.1,0.2,0.3,0.2,0.4v0
					c0.4,0.8,0.7,1.4,0.9,1.9C38.6,34,38.7,34.1,38.7,34.2C38.7,34.2,38.7,34.2,38.7,34.2z"/>
			</g>
			<g>
				<path class="st14" d="M36,33.8c-0.2,0-0.4-0.1-0.6-0.1l0,0c-0.1-0.2-0.2-0.3-0.2-0.5c-0.3-0.7-0.8-1.6-1.4-2.3
					c-0.1-0.1-0.2-0.2-0.2-0.3c-0.1-0.1-0.1-0.2,0-0.3c0,0,0-0.1,0.1-0.1c0.1-0.1,0.2-0.1,0.3,0c0,0,0,0,0,0
					c0.2,0.2,0.4,0.4,0.5,0.7c0.5,0.7,1,1.5,1.2,2.2C35.8,33.3,36,33.8,36,33.8z"/>
			</g>
		</g>
		<g>
			<g>
				<path class="st14" d="M13.6,28c-0.2,0.2-0.4,0.4-0.5,0.6c-0.2,0.2-0.3,0.4-0.5,0.6c0,0,0,0.1-0.1,0.1c-0.1,0.1-0.1,0.1-0.1,0.2
					c0,0,0,0,0,0c-0.2,0.3-0.3,0.5-0.5,0.8c0,0,0,0.1-0.1,0.1c-0.1,0.1-0.2,0.3-0.3,0.4c-0.1,0.2-0.2,0.4-0.3,0.6c0,0,0,0,0,0
					c-0.2,0.4-0.4,0.7-0.6,1.1c-0.2,0.5-0.4,0.9-0.6,1.3c0,0.1-0.1,0.2-0.1,0.3c0,0,0,0,0,0c-0.1,0-0.1,0-0.2,0c-0.1,0-0.2,0-0.4,0
					c0,0,0-0.1,0-0.1c0-0.1,0.1-0.1,0.1-0.2c0.2-0.4,0.5-1.1,0.9-1.8c0.1-0.2,0.2-0.3,0.3-0.5c0.1-0.1,0.1-0.3,0.2-0.4
					c0.1-0.2,0.2-0.3,0.3-0.5c0.1-0.2,0.2-0.4,0.3-0.6c0.1-0.2,0.2-0.3,0.3-0.5v0c0.1-0.2,0.3-0.4,0.4-0.6c0,0,0.1-0.1,0.1-0.1
					c0.1-0.2,0.3-0.3,0.4-0.5c0.1-0.1,0.2-0.2,0.2-0.3v0c0.1-0.1,0.1-0.2,0.2-0.2c0.1-0.1,0.1-0.1,0.2-0.2c0.1-0.1,0.3-0.1,0.3,0
					C13.7,27.8,13.7,27.9,13.6,28z"/>
			</g>
			<g>
				<path class="st14" d="M14.7,30.3c0,0,0,0.1-0.1,0.1c-0.1,0.1-0.2,0.2-0.3,0.4c-0.6,0.7-1.1,1.6-1.5,2.3
					c-0.1,0.2-0.2,0.4-0.3,0.6l0,0c-0.2,0-0.4,0.1-0.6,0.1c0,0,0.2-0.5,0.4-0.8c0.3-0.6,0.8-1.5,1.3-2.2c0.2-0.2,0.4-0.5,0.6-0.7
					c0,0,0-0.1,0.1-0.1c0,0,0,0,0,0c0.1-0.1,0.2-0.1,0.3,0c0,0,0,0,0,0C14.7,30.1,14.7,30.2,14.7,30.3z"/>
			</g>
		</g>
		<g>
			<g>
				<path class="st15" d="M25,13.8c0,0,0.2-0.2,0.5-0.4c0.3-0.2,0.7-0.5,1.2-0.7c0.5-0.2,0.8-0.4,1.2-0.6c0.3-0.2,0.6-0.1,0.6-0.1
					c0,0,0,0,0,0c0,0,0,0,0,0l0,0c0,0-0.3-0.1-0.5,0.1c-0.3,0.2-0.7,0.5-1.1,0.7c-0.4,0.2-0.8,0.5-1,0.7c-0.3,0.2-0.4,0.4-0.4,0.4
					c-0.1,0.1-0.2,0.1-0.4,0.1C24.9,14.1,24.9,13.9,25,13.8C25,13.8,25,13.8,25,13.8z"/>
			</g>
			<g>
				<path class="st15" d="M22.6,14.1c0,0-0.1-0.2-0.4-0.4c-0.2-0.2-0.6-0.5-1-0.7c-0.4-0.2-0.8-0.5-1.1-0.7
					c-0.3-0.2-0.5-0.1-0.5-0.1l0,0c0,0,0,0,0,0c0,0,0,0,0,0c0,0,0.3-0.1,0.6,0.1c0.3,0.2,0.7,0.4,1.2,0.6c0.4,0.2,0.9,0.4,1.2,0.7
					c0.3,0.2,0.5,0.4,0.5,0.4c0.1,0.1,0.1,0.3,0,0.4S22.7,14.3,22.6,14.1C22.6,14.2,22.6,14.1,22.6,14.1z"/>
			</g>
		</g>
	</g>
</g>
</svg>
