<?xml version="1.0" standalone="no"?><!DOCTYPE svg PUBLIC "-//W3C//DTD SVG 1.1//EN" "http://www.w3.org/Graphics/SVG/1.1/DTD/svg11.dtd"><svg t="1704609001744" class="icon" viewBox="0 0 1024 1024" version="1.1" xmlns="http://www.w3.org/2000/svg" p-id="4141" xmlns:xlink="http://www.w3.org/1999/xlink" width="200" height="200"><path d="M949.965276 635.146854c-28.178387 0-51.018615 22.845599-51.018615 51.018616 0 36.029883-29.311537 65.34142-65.338735 65.34142s-65.338735-29.311537-65.338736-65.34142v-429.898965C768.266505 114.735496 653.531009 0 512 0S255.733495 114.735496 255.733495 256.26919v429.898965c0 36.029883-29.311537 65.34142-65.341421 65.34142S125.053339 722.195353 125.053339 686.16547c0-28.173016-22.840229-51.018615-51.018615-51.018616s-51.018615 22.845599-51.018615 51.018616c0 92.292675 75.085976 167.378651 167.375965 167.378651s167.378651-75.085976 167.378652-167.378651v-155.373166h33.395711v442.181025c0 28.178387 22.840229 51.018615 51.018616 51.018615s51.018615-22.840229 51.018615-51.018615V530.792304h37.592664v442.181025c0 28.178387 22.840229 51.018615 51.018615 51.018615s51.018615-22.840229 51.018616-51.018615V530.792304h33.395711v155.373166c0 92.292675 75.085976 167.378651 167.378652 167.378651s167.375966-75.085976 167.375965-167.378651c0-28.173016-22.840229-51.018615-51.018615-51.018616z" fill="#A3382A" p-id="4142"></path><path d="M75.87945 768.673311m-25.732179 0a25.732178 25.732178 0 1 0 51.464357 0 25.732178 25.732178 0 1 0-51.464357 0Z" fill="#E97A6E" p-id="4143"></path><path d="M75.87945 768.673311m-12.252524 0a12.252523 12.252523 0 1 0 24.505047 0 12.252523 12.252523 0 1 0-24.505047 0Z" fill="#E94F3D" p-id="4144"></path><path d="M148.156717 827.809257m-25.732179 0a25.732178 25.732178 0 1 0 51.464357 0 25.732178 25.732178 0 1 0-51.464357 0Z" fill="#E97A6E" p-id="4145"></path><path d="M148.156717 827.809257m-12.252524 0a12.252523 12.252523 0 1 0 24.505047 0 12.252523 12.252523 0 1 0-24.505047 0Z" fill="#E94F3D" p-id="4146"></path><path d="M255.733495 820.143039m-25.732179 0a25.732178 25.732178 0 1 0 51.464357 0 25.732178 25.732178 0 1 0-51.464357 0Z" fill="#E97A6E" p-id="4147"></path><path d="M255.733495 820.143039m-12.252523 0a12.252523 12.252523 0 1 0 24.505046 0 12.252523 12.252523 0 1 0-24.505046 0Z" fill="#E94F3D" p-id="4148"></path><path d="M317.323704 756.420788m-25.732178 0a25.732178 25.732178 0 1 0 51.464357 0 25.732178 25.732178 0 1 0-51.464357 0Z" fill="#E97A6E" p-id="4149"></path><path d="M317.323704 756.420788m-12.252523 0a12.252523 12.252523 0 1 0 24.505047 0 12.252523 12.252523 0 1 0-24.505047 0Z" fill="#E94F3D" p-id="4150"></path><path d="M333.48855 654.950133m-25.732179 0a25.732178 25.732178 0 1 0 51.464357 0 25.732178 25.732178 0 1 0-51.464357 0Z" fill="#E97A6E" p-id="4151"></path><path d="M333.48855 654.950133m-12.252523 0a12.252523 12.252523 0 1 0 24.505046 0 12.252523 12.252523 0 1 0-24.505046 0Z" fill="#E94F3D" p-id="4152"></path><path d="M414.213425 656.120876m-25.732178 0a25.732178 25.732178 0 1 0 51.464357 0 25.732178 25.732178 0 1 0-51.464357 0Z" fill="#E97A6E" p-id="4153"></path><path d="M414.213425 656.120876m-12.252523 0a12.252523 12.252523 0 1 0 24.505047 0 12.252523 12.252523 0 1 0-24.505047 0Z" fill="#E94F3D" p-id="4154"></path><path d="M414.213425 756.36977m-25.732178 0a25.732178 25.732178 0 1 0 51.464357 0 25.732178 25.732178 0 1 0-51.464357 0Z" fill="#E97A6E" p-id="4155"></path><path d="M414.213425 756.36977m-12.252523 0a12.252523 12.252523 0 1 0 24.505047 0 12.252523 12.252523 0 1 0-24.505047 0Z" fill="#E94F3D" p-id="4156"></path><path d="M414.213425 856.618664m-25.732178 0a25.732178 25.732178 0 1 0 51.464357 0 25.732178 25.732178 0 1 0-51.464357 0Z" fill="#E97A6E" p-id="4157"></path><path d="M414.213425 856.618664m-12.252523 0a12.252523 12.252523 0 1 0 24.505047 0 12.252523 12.252523 0 1 0-24.505047 0Z" fill="#E94F3D" p-id="4158"></path><path d="M414.213425 956.867558m-25.732178 0a25.732178 25.732178 0 1 0 51.464357 0 25.732178 25.732178 0 1 0-51.464357 0Z" fill="#E97A6E" p-id="4159"></path><path d="M414.213425 956.867558m-12.252523 0a12.252523 12.252523 0 1 0 24.505047 0 12.252523 12.252523 0 1 0-24.505047 0Z" fill="#E94F3D" p-id="4160"></path><path d="M948.117865 768.673311m-25.732178 0a25.732178 25.732178 0 1 0 51.464357 0 25.732178 25.732178 0 1 0-51.464357 0Z" fill="#E97A6E" p-id="4161"></path><path d="M948.117865 768.673311m-12.252523 0a12.252523 12.252523 0 1 0 24.505046 0 12.252523 12.252523 0 1 0-24.505046 0Z" fill="#E94F3D" p-id="4162"></path><path d="M875.843283 827.809257m-25.732178 0a25.732178 25.732178 0 1 0 51.464357 0 25.732178 25.732178 0 1 0-51.464357 0Z" fill="#E97A6E" p-id="4163"></path><path d="M875.843283 827.809257m-12.252523 0a12.252523 12.252523 0 1 0 24.505047 0 12.252523 12.252523 0 1 0-24.505047 0Z" fill="#E94F3D" p-id="4164"></path><path d="M768.266505 820.143039m-25.734864 0a25.734864 25.734864 0 1 0 51.469728 0 25.734864 25.734864 0 1 0-51.469728 0Z" fill="#E97A6E" p-id="4165"></path><path d="M768.266505 820.143039m-12.252523 0a12.252523 12.252523 0 1 0 24.505046 0 12.252523 12.252523 0 1 0-24.505046 0Z" fill="#E94F3D" p-id="4166"></path><path d="M706.676296 756.420788m-25.732179 0a25.732178 25.732178 0 1 0 51.464357 0 25.732178 25.732178 0 1 0-51.464357 0Z" fill="#E97A6E" p-id="4167"></path><path d="M706.676296 756.420788m-12.252524 0a12.252523 12.252523 0 1 0 24.505047 0 12.252523 12.252523 0 1 0-24.505047 0Z" fill="#E94F3D" p-id="4168"></path><path d="M690.51145 654.950133m-25.732178 0a25.732178 25.732178 0 1 0 51.464357 0 25.732178 25.732178 0 1 0-51.464357 0Z" fill="#E97A6E" p-id="4169"></path><path d="M690.51145 654.950133m-12.252523 0a12.252523 12.252523 0 1 0 24.505046 0 12.252523 12.252523 0 1 0-24.505046 0Z" fill="#E94F3D" p-id="4170"></path><path d="M609.783889 656.120876m-25.732178 0a25.732178 25.732178 0 1 0 51.464357 0 25.732178 25.732178 0 1 0-51.464357 0Z" fill="#E97A6E" p-id="4171"></path><path d="M609.783889 656.120876m-12.252523 0a12.252523 12.252523 0 1 0 24.505047 0 12.252523 12.252523 0 1 0-24.505047 0Z" fill="#E94F3D" p-id="4172"></path><path d="M609.783889 756.36977m-25.732178 0a25.732178 25.732178 0 1 0 51.464357 0 25.732178 25.732178 0 1 0-51.464357 0Z" fill="#E97A6E" p-id="4173"></path><path d="M609.783889 756.36977m-12.252523 0a12.252523 12.252523 0 1 0 24.505047 0 12.252523 12.252523 0 1 0-24.505047 0Z" fill="#E94F3D" p-id="4174"></path><path d="M609.783889 856.618664m-25.732178 0a25.732178 25.732178 0 1 0 51.464357 0 25.732178 25.732178 0 1 0-51.464357 0Z" fill="#E97A6E" p-id="4175"></path><path d="M609.783889 856.618664m-12.252523 0a12.252523 12.252523 0 1 0 24.505047 0 12.252523 12.252523 0 1 0-24.505047 0Z" fill="#E94F3D" p-id="4176"></path><path d="M609.783889 956.867558m-25.732178 0a25.732178 25.732178 0 1 0 51.464357 0 25.732178 25.732178 0 1 0-51.464357 0Z" fill="#E97A6E" p-id="4177"></path><path d="M609.783889 956.867558m-12.252523 0a12.252523 12.252523 0 1 0 24.505047 0 12.252523 12.252523 0 1 0-24.505047 0Z" fill="#E94F3D" p-id="4178"></path><path d="M300.901081 396.479086m-63.405399 0a63.405398 63.405398 0 1 0 126.810797 0 63.405398 63.405398 0 1 0-126.810797 0Z" fill="#E97A6E" p-id="4179"></path><path d="M300.901081 396.479086m-28.304591 0a28.304591 28.304591 0 1 0 56.609181 0 28.304591 28.304591 0 1 0-56.609181 0Z" fill="#333E48" p-id="4180"></path><path d="M723.098919 396.479086m-63.405398 0a63.405398 63.405398 0 1 0 126.810797 0 63.405398 63.405398 0 1 0-126.810797 0Z" fill="#E97A6E" p-id="4181"></path><path d="M723.098919 396.479086m-28.30459 0a28.304591 28.304591 0 1 0 56.609181 0 28.304591 28.304591 0 1 0-56.609181 0Z" fill="#333E48" p-id="4182"></path><path d="M601.505448 125.350053m-29.537093 0a29.537093 29.537093 0 1 0 59.074186 0 29.537093 29.537093 0 1 0-59.074186 0Z" fill="#E97A6E" p-id="4183"></path><path d="M678.489853 125.350053m-18.796332 0a18.796332 18.796332 0 1 0 37.592664 0 18.796332 18.796332 0 1 0-37.592664 0Z" fill="#E97A6E" p-id="4184"></path><path d="M563.018615 60.008632m-18.796332 0a18.796332 18.796332 0 1 0 37.592664 0 18.796332 18.796332 0 1 0-37.592664 0Z" fill="#E97A6E" p-id="4185"></path></svg>