<?xml version="1.0" standalone="no"?><!DOCTYPE svg PUBLIC "-//W3C//DTD SVG 1.1//EN" "http://www.w3.org/Graphics/SVG/1.1/DTD/svg11.dtd"><svg t="1704609126565" class="icon" viewBox="0 0 1024 1024" version="1.1" xmlns="http://www.w3.org/2000/svg" p-id="13033" xmlns:xlink="http://www.w3.org/1999/xlink" width="200" height="200"><path d="M600.0128 71.68c93.67552 0 178.70848 36.99712 241.28512 97.1776 67.6864 8.54016 122.29632 33.85344 163.84 75.9296-6.912 64.23552-26.01984 117.1456-57.33376 158.70976 0.24576 5.40672 0.36864 10.8544 0.36864 16.34304v184.32c0 192.28672-155.87328 348.16-348.16 348.16h-184.32c-192.28672 0-348.16-155.87328-348.16-348.16V419.84c0-5.34528 0.12288-10.6496 0.3584-15.93344C36.39296 362.28096 17.17248 309.23776 10.24 244.77696c41.6256-42.14784 96.3584-67.4816 164.21888-75.9808C237.02528 108.66688 322.048 71.68 415.6928 71.68h184.32z" fill="#DBD7E3" p-id="13034"></path><path d="M368.64 819.2a143.36 112.64 0 1 0 286.72 0 143.36 112.64 0 1 0-286.72 0Z" fill="#FFEFEF" p-id="13035"></path><path d="M773.12 522.24c8.93952 0 33.9968-31.3856 34.2528-63.68256C807.63904 424.35584 782.56128 389.12 773.12 389.12a66.56 66.56 0 1 0 0 133.12z m-534.0672 0c-8.93952 0-33.9968-31.3856-34.2528-63.68256-0.26624-34.2016 24.82176-69.43744 34.2528-69.43744a66.56 66.56 0 1 1 0 133.12z" fill="#3E4148" p-id="13036"></path><path d="M634.88 737.28c73.5232 0 133.12 34.38592 133.12 76.8 0 42.41408-59.5968 76.8-133.12 76.8-55.3472 0-102.8096-19.48672-122.88-47.2064C491.9296 871.38304 444.4672 890.88 389.12 890.88c-73.5232 0-133.12-34.38592-133.12-76.8 0-42.41408 59.5968-76.8 133.12-76.8 55.3472 0 102.8096 19.48672 122.88 47.2064C532.0704 756.77696 579.5328 737.28 634.88 737.28z" fill="#463D5B" p-id="13037"></path><path d="M512 163.84a81.92 81.92 0 0 1 71.95648 121.10848c-0.19456 3.98336-0.27648 7.9872-0.27648 12.01152 0 98.77504 51.79392 185.4464 129.71008 234.35264a185.43616 185.43616 0 0 1 49.38752 24.49408c1.6896 0.62464 3.3792 1.24928 5.07904 1.8432l-0.12288 1.7408C811.48928 592.13824 839.68 643.584 839.68 701.44 839.68 800.4096 757.15584 880.64 655.36 880.64c-57.9072 0-109.568-25.9584-143.36-66.56-33.792 40.6016-85.4528 66.56-143.36 66.56-101.79584 0-184.32-80.2304-184.32-179.2 0-57.84576 28.19072-109.28128 71.936-142.04928a46.15168 46.15168 0 0 1-0.12288-1.7408c1.71008-0.59392 3.40992-1.2288 5.09952-1.85344a185.72288 185.72288 0 0 1 49.36704-24.49408C388.52608 482.41664 440.32 395.73504 440.32 296.96c0-4.02432-0.08192-8.02816-0.256-12.02176A81.92 81.92 0 0 1 512 163.84z" fill="#B6B1C3" p-id="13038"></path><path d="M634.88 319.9488C711.0656 128.768 778.8544 25.52832 838.2464 10.24c-36.6592 27.10528-62.07488 51.44576-76.24704 73.0112-31.0272 47.2576-73.40032 126.1568-127.11936 236.6976z m45.62944 399.52384c170.56768-16.7936 282.85952-12.2368 336.87552 13.63968-53.1456-6.8608-92.0576-10.77248-116.71552-11.776-50.20672-2.02752-123.5968-2.65216-220.16-1.86368z m-20.3776 62.30016C814.99136 855.23456 908.9024 916.96128 941.8752 966.9632c-42.0352-33.24928-73.35936-56.64768-93.99296-70.20544-41.984-27.5968-104.56064-65.92512-187.7504-114.9952z m4.15744-20.31616c166.74816 39.65952 271.44192 80.51712 314.08128 122.5728-48.0256-23.77728-83.52768-40.16128-106.52672-49.13152-46.7968-18.26816-115.98848-42.74176-207.55456-73.44128z m18.90304-21.42208c170.33216 19.0464 279.22432 46.83776 326.67648 83.37408-50.56512-17.74592-87.808-29.67552-111.7184-35.77856a2846.72 2846.72 0 0 0-81.65376-19.3024l-11.52-2.56a7857.95072 7857.95072 0 0 0-121.78432-25.73312z m-6.66624-38.22592c167.24992-37.44768 279.26528-46.62272 336.0256-27.52512-53.58592-0.31744-92.68224 0.52224-117.28896 2.53952-50.0736 4.096-122.9824 12.43136-218.73664 24.9856zM392.74496 319.9488C316.55936 128.768 248.77056 25.52832 189.37856 10.24c36.6592 27.10528 62.07488 51.44576 76.24704 73.0112 31.0272 47.2576 73.40032 126.1568 127.11936 236.6976zM347.11552 719.4624C176.54784 702.67904 64.256 707.23584 10.24 733.11232c53.1456-6.8608 92.0576-10.77248 116.71552-11.776 50.20672-2.02752 123.5968-2.65216 220.16-1.86368z m20.3776 62.30016C212.6336 855.23456 118.72256 916.96128 85.74976 966.9632c42.0352-33.24928 73.35936-56.64768 93.99296-70.20544 41.984-27.5968 104.56064-65.92512 187.7504-114.9952z m-4.15744-20.31616c-166.74816 39.65952-271.44192 80.51712-314.09152 122.5728 48.0256-23.77728 83.53792-40.16128 106.52672-49.13152 46.80704-18.26816 115.99872-42.74176 207.5648-73.44128z m-18.90304-21.42208C174.10048 759.08096 65.20832 786.87232 17.75616 823.3984c50.56512-17.74592 87.808-29.67552 111.7184-35.77856a2846.72 2846.72 0 0 1 81.65376-19.3024l11.50976-2.56a7857.95072 7857.95072 0 0 1 121.79456-25.73312z m6.66624-38.22592C183.84896 664.36096 71.8336 655.18592 15.07328 674.28352c53.58592-0.31744 92.68224 0.52224 117.27872 2.53952 50.0736 4.096 122.99264 12.43136 218.74688 24.9856z" fill="#F8F3D2" p-id="13039"></path><path d="M467.99872 621.8752l39.45472-7.4752 48.37376 8.45824a60.9792 60.9792 0 0 1 47.60576 78.58176l-7.5776 23.77728A61.44 61.44 0 0 1 537.31328 768h-50.62656a61.44 61.44 0 0 1-58.54208-42.78272l-7.5776-23.77728a61.85984 61.85984 0 0 1 47.43168-79.5648z" fill="#58495A" p-id="13040"></path><path d="M478.0544 739.04128a20.48 20.48 0 1 0 0-40.96c-5.87776 0-23.36768-3.96288-27.09504 0-3.46112 3.66592 16.85504 15.04256 16.85504 20.48 0 11.30496-1.0752 20.48 10.24 20.48z m64.6656 0a20.48 20.48 0 1 1 0-40.96c5.86752 0 23.35744-3.96288 27.09504 0 3.46112 3.66592-16.85504 15.04256-16.85504 20.48 0 11.30496 1.0752 20.48-10.24 20.48z" fill="#2F212A" p-id="13041"></path><path d="M742.4 445.44m-15.36 0a15.36 15.36 0 1 0 30.72 0 15.36 15.36 0 1 0-30.72 0Z" fill="#C3CBE0" p-id="13042"></path><path d="M271.36 445.44m-15.36 0a15.36 15.36 0 1 0 30.72 0 15.36 15.36 0 1 0-30.72 0Z" fill="#C3CBE0" p-id="13043"></path><path d="M799.15008 608.58368c52.67456 0 95.37536-18.16576 95.37536-40.57088s-42.7008-40.57088-95.37536-40.57088c-52.6848 0-95.3856 18.16576-95.3856 40.57088s42.7008 40.57088 95.3856 40.57088z m-574.30016 0c52.6848 0 95.3856-18.16576 95.3856-40.57088s-42.7008-40.57088-95.3856-40.57088c-52.67456 0-95.37536 18.16576-95.37536 40.57088s42.7008 40.57088 95.37536 40.57088z" fill="#D36F3E" fill-opacity=".3" p-id="13044"></path></svg>