<?xml version="1.0" standalone="no"?><!DOCTYPE svg PUBLIC "-//W3C//DTD SVG 1.1//EN" "http://www.w3.org/Graphics/SVG/1.1/DTD/svg11.dtd"><svg t="1704609163031" class="icon" viewBox="0 0 1024 1024" version="1.1" xmlns="http://www.w3.org/2000/svg" p-id="14564" xmlns:xlink="http://www.w3.org/1999/xlink" width="200" height="200"><path d="M246.349625 914.723044h531.292165v109.276956H246.349625z" fill="#65513C" p-id="14565"></path><path d="M773.117439 0c-46.768797 0-84.863776 37.03901-86.609414 83.378552-46.247968-41.586255-107.413988-66.91518-174.506594-66.91518s-128.255765 25.328925-174.506594 66.91518C335.75206 37.03901 297.65422 0 250.888285 0v261.819987h0.517968a263.662923 263.662923 0 0 0-0.517968 15.759393v472.166538c0 91.113733 73.863393 164.974264 164.974264 164.974264h192.277764c91.113733 0 164.974264-73.863393 164.974264-164.974264V277.57938c0-5.297011-0.206043-10.542511-0.517968-15.759393h0.517968V0h0.002862z" fill="#5C6670" p-id="14566"></path><path d="M773.117439 277.57938c0-93.305797-75.64051-168.946307-168.946307-168.946307a168.136445 168.136445 0 0 0-92.169701 27.380766 168.119275 168.119275 0 0 0-92.16684-27.377904c-93.308659-0.002862-168.949168 75.637648-168.943445 168.946307 0 46.651468 18.910127 88.887329 49.484553 119.461754h-0.002862l211.634317 211.628593 211.634317-211.628593h-0.002861c30.56584-30.571564 49.478829-72.810286 49.478829-119.464616z" fill="#7D868C" p-id="14567"></path><path d="M375.701422 261.819987m-72.964819 0a72.964818 72.964818 0 1 0 145.929637 0 72.964818 72.964818 0 1 0-145.929637 0Z" fill="#5C6670" p-id="14568"></path><path d="M375.701422 261.819987m-26.502224 0a26.502223 26.502223 0 1 0 53.004447 0 26.502223 26.502223 0 1 0-53.004447 0Z" fill="#333E48" p-id="14569"></path><path d="M648.30144 261.819987m-72.964818 0a72.964818 72.964818 0 1 0 145.929636 0 72.964818 72.964818 0 1 0-145.929636 0Z" fill="#5C6670" p-id="14570"></path><path d="M648.30144 261.819987m-26.502223 0a26.502223 26.502223 0 1 0 53.004446 0 26.502223 26.502223 0 1 0-53.004446 0Z" fill="#333E48" p-id="14571"></path><path d="M555.167345 347.814135l-43.165914 43.171638-43.165915-43.171638c0-23.837978 19.325074-43.163053 43.165915-43.163053 23.843702 0 43.165914 19.325074 43.165914 43.163053z" fill="#FFB648" p-id="14572"></path><path d="M403.417006 503.198835c0-62.273499-50.47184-112.742478-112.742477-112.742477-62.262053 0-112.739616 50.477563-112.736754 112.742477v323.692848c124.524105 0 225.470647-100.94368 225.479231-225.473508v-98.21934zM620.585855 503.198835c0-62.273499 50.47184-112.742478 112.742478-112.742477 62.262053 0 112.739616 50.477563 112.736754 112.742477v323.692848c-124.524105 0-225.470647-100.94368-225.479232-225.473508v-98.21934z" fill="#333E48" p-id="14573"></path><path d="M352.352794 879.629991a18.572447 18.572447 0 0 0-18.569585 18.566723v26.742606a18.569585 18.569585 0 1 0 37.13917 0v-26.742606a18.566723 18.566723 0 0 0-18.569585-18.566723z" fill="#FFB648" p-id="14574"></path><path d="M389.491964 879.629991a18.566723 18.566723 0 0 0-18.569585 18.566723v26.742606a18.569585 18.569585 0 1 0 37.13917 0v-26.742606a18.572447 18.572447 0 0 0-18.569585-18.566723z" fill="#FFB648" p-id="14575"></path><path d="M426.62541 879.629991a18.572447 18.572447 0 0 0-18.569584 18.566723v26.742606a18.569585 18.569585 0 1 0 37.139169 0v-26.742606a18.566723 18.566723 0 0 0-18.569585-18.566723z" fill="#FFB648" p-id="14576"></path><path d="M671.647206 879.629991a18.566723 18.566723 0 0 1 18.569585 18.566723v26.742606a18.569585 18.569585 0 1 1-37.13917 0v-26.742606a18.572447 18.572447 0 0 1 18.569585-18.566723z" fill="#FFB648" p-id="14577"></path><path d="M634.513759 879.629991a18.566723 18.566723 0 0 1 18.569585 18.566723v26.742606a18.569585 18.569585 0 1 1-37.13917 0v-26.742606a18.566723 18.566723 0 0 1 18.569585-18.566723zM597.371728 879.629991a18.572447 18.572447 0 0 1 18.569585 18.566723v26.742606a18.569585 18.569585 0 1 1-37.13917 0v-26.742606a18.566723 18.566723 0 0 1 18.569585-18.566723z" fill="#FFB648" p-id="14578"></path></svg>