<?xml version="1.0" standalone="no"?><!DOCTYPE svg PUBLIC "-//W3C//DTD SVG 1.1//EN" "http://www.w3.org/Graphics/SVG/1.1/DTD/svg11.dtd"><svg t="1704609201617" class="icon" viewBox="0 0 1024 1024" version="1.1" xmlns="http://www.w3.org/2000/svg" p-id="16832" xmlns:xlink="http://www.w3.org/1999/xlink" width="200" height="200"><path d="M427.6 581s-152.6-12.2-160.4-113.8c-10.2-132.8 227-126.6 227-126.6H550s237.2-6.2 227 126.6c-7.8 101.6-160.4 113.8-160.4 113.8h-189z" fill="#FEFE71" p-id="16833"></path><path d="M427.6 581h188.8s113.6-9.2 149.8-76.8c-45.4-80-216.4-75.6-216.4-75.6H494s-171-4.4-216.4 75.6c36.4 67.8 150 76.8 150 76.8z" fill="#D6CD1E" p-id="16834"></path><path d="M550.8 700.4c-155.6 0-318-50.6-334.4-81.2 9 28.2 66.2 172.4 305.8 172.4 238.2 0 280-142.2 286-171.8-10.2 30.6-102.8 80.6-257.4 80.6z" fill="#FEFE71" p-id="16835"></path><path d="M809 614.4c0 29.6-94.2 86-258.4 86s-335.8-56.2-335.8-86 104.8-33.6 269-33.6 325.2 4 325.2 33.6z" fill="#E56823" p-id="16836"></path><path d="M686.4 585c-17.6 30.8-108.6 75.6-255.2 75.6-66 0-133.4-9.2-190.2-22 54.2 28.8 184.2 61.6 309.6 61.6 164 0 258.4-56.2 258.4-86 0-16.4-50-24.8-122.6-29.2z" fill="#FE8E46" p-id="16837"></path><path d="M450.2 694c-118.6-14.6-221.2-50.8-234-74.8 9 28.2 66.2 172.4 305.8 172.4 4.2 0 8.4 0 12.6-0.2-39.2-32.8-67.4-70.8-84.4-97.4z" fill="#D6CD1E" p-id="16838"></path><path d="M550.8 714.4c-74.8 0-159.8-11.8-233.2-32.4-32.2-9-59.6-19-79.6-29.2-25.2-12.8-37-25-37-38.4 0-29.2 41.2-37.4 85.6-41.8 50.4-5 124.6-5.8 197.4-5.8 70.2 0 159.4 0.6 225.2 5.8 33.4 2.6 58.2 6 75.8 10.6 10.4 2.6 38.2 9.8 38.2 31.4 0 22.8-28.6 47.8-76.4 67-37.2 14.8-101.4 32.8-196 32.8z m-321-100.2c6.6 7.6 37.2 25.4 104.2 43.2 69 18.4 148 28.8 216.8 28.8 70.4 0 136.2-11 185.4-30.8 40.2-16.2 55.6-32.6 58.4-39.2-5-3.4-25-11.8-101.2-16.8-63.6-4.2-145.4-4.8-209.4-4.8-66.4 0-134.6 0.6-183.6 4.6-53.2 4.6-67.2 12-70.6 15z" fill="#463218" p-id="16839"></path><path d="M522.2 805.6c-249.2 0-309.6-151.8-319.2-182.2-2.2-6.8 1.2-14.4 8-17.2 6.6-2.8 14.4 0 17.8 6.2 0.2 0.2 14.8 20.8 106.2 45.2 68.6 18.2 147.4 28.6 215.8 28.6 155 0 237.4-50.8 244-71 2.4-7 9.8-11 17-9.2 7.2 2 11.6 9 10 16.4-6.2 30.8-50.4 183.2-299.6 183.2z m-271-146.6c32.2 49.4 106.8 118.6 271 118.6 152.8 0 220.6-60.2 250.4-108-10 5.4-21.4 10.4-34 15-36.4 13.6-98.4 29.8-187.8 29.8-70.8 0-152-10.8-223-29.6-18-4.8-49.6-14-76.6-25.8zM616.6 595h-190c-1.6-0.2-40.8-3.4-81.4-19.8-56.4-22.8-88.2-59.8-91.8-107-2.4-31 7-57.8 27.6-79.6 61.6-64.8 205-62.4 213.4-62.2h55.4c8.4-0.2 151.8-2.6 213.4 62.2 20.8 21.8 30 48.6 27.6 79.6-3.6 47.2-35.4 84.2-91.8 107-40.6 16.4-79.8 19.6-81.4 19.8h-1z m-188.2-28H616c4.4-0.4 38.8-4 73.2-18 46.2-18.8 71-46.6 73.8-82.8 1.8-23-4.8-42-20-58.2-21.8-23-61.8-39.4-115.6-47.8-41.8-6.4-76.8-5.6-77-5.6H493.8c-0.4 0-35.8-0.8-77.6 5.8-53.6 8.4-93.4 25-115 47.8-15.2 16-21.8 35-20 58.2 6.6 85.8 138 99.8 147.2 100.6z" fill="#463218" p-id="16840"></path><path d="M535.4 538l-1.4-28 19.8-1c46-2.2 89.6-18 126.4-45.8l17 22.4c-41.2 31.2-90.2 49-142 51.4l-19.8 1z" fill="#FFFFFF" p-id="16841"></path></svg>