<?xml version="1.0" standalone="no"?><!DOCTYPE svg PUBLIC "-//W3C//DTD SVG 1.1//EN" "http://www.w3.org/Graphics/SVG/1.1/DTD/svg11.dtd"><svg t="1704609246239" class="icon" viewBox="0 0 1024 1024" version="1.1" xmlns="http://www.w3.org/2000/svg" p-id="18209" xmlns:xlink="http://www.w3.org/1999/xlink" width="200" height="200"><path d="M721.038155 789.154581h-18.646243V257.594601 147.405301H428.27356c36.145194 23.347413 60.09357 63.958855 60.093569 110.1893l0.002732 0.005463v531.557249c0 59.104712 47.907679 107.015123 107.012391 107.015122h125.655903c29.55099 0 53.507561-23.956571 53.507561-53.507561 0-29.553722-23.956571-53.510293-53.507561-53.510293zM302.287127 789.154581h-18.646243V248.678495c0.057365-40.554077 18.523319-76.783952 47.489736-100.797887a277.456428 277.456428 0 0 0-47.489736 6.856441v-0.005463c-122.670209 28.750617-214.022051 138.844309-214.022051 270.277652v364.148075c0 59.104712 47.907679 107.015123 107.012392 107.015122h125.655902c29.55099 0 53.507561-23.956571 53.507562-53.507561 0-29.553722-23.953839-53.510293-53.507562-53.510293z" fill="#2D3740" p-id="18210"></path><path d="M60.369466 219.837734m-60.366734 0a60.366735 60.366735 0 1 0 120.733469 0 60.366735 60.366735 0 1 0-120.733469 0Z" fill="#333E48" p-id="18211"></path><path d="M783.978104 147.405301H282.163061v0.057364c-1.518797-0.027317-3.0294-0.057365-4.55366-0.057364C124.292809 147.405301 0.002732 271.695378 0.002732 425.009238c0 153.319323 124.290078 277.609401 277.606669 277.609401h223.255028c73.473192 0 140.270231-28.559401 189.923433-75.164083h93.190242c132.564246 0 240.024628-107.463113 240.024628-240.021896 0-132.564246-107.460382-240.027359-240.024628-240.027359z" fill="#DADBDC" p-id="18212"></path><path d="M651.422053 789.154581h-18.646243V257.594601c0-46.230446 23.948376-86.841887 60.09357-110.1893H358.657458c36.145194 23.347413 60.09357 63.958855 60.09357 110.1893l0.002731 0.005463v531.557249c0 59.104712 47.907679 107.015123 107.012391 107.015122h125.655903c29.55099 0 53.507561-23.956571 53.507562-53.507561 0-29.553722-23.956571-53.510293-53.507562-53.510293zM232.671026 789.154581h-18.646244V248.678495c0.057365-40.554077 18.523319-76.783952 47.489737-100.797887a277.456428 277.456428 0 0 0-47.489737 6.856441v-0.005463C91.351841 183.482203 0.002732 293.575895 0.002732 425.009238v364.148075c0 59.104712 47.907679 107.015123 107.012391 107.015122h125.655903c29.55099 0 53.507561-23.956571 53.507561-53.507561 0-29.553722-23.956571-53.510293-53.507561-53.510293zM922.002918 275.607101c-18.105377-18.102645-47.456957-18.097182-65.565064 0.005464l-51.655503 51.655502c-18.108108 18.108108-18.108108 47.46242-0.005463 65.565065 18.108108 18.108108 47.465151 18.113572 65.570528 0.005463l51.655502-51.655502c18.108108-18.108108 18.108108-47.470615 0-65.575992z" fill="#333E48" p-id="18213"></path><path d="M889.223118 308.392365m-20.719566 0a20.719566 20.719566 0 1 0 41.439131 0 20.719566 20.719566 0 1 0-41.439131 0Z" fill="#2D3740" p-id="18214"></path><path d="M732.388161 258.485119a40.122476 40.122476 0 0 1-28.559401-11.822582c-1.09266-1.09266-2.133419-2.256343-3.089497-3.469195l-0.366041-0.458918-0.368772-0.49716a71.678498 71.678498 0 0 1-13.895904-47.653635 71.735862 71.735862 0 0 1 71.561036-66.756064 72.126488 72.126488 0 0 1 42.733934 14.111704l0.950614 0.726619c1.234706 0.986126 2.406584 2.032348 3.480122 3.122276 7.555744 7.550281 11.757022 17.698361 11.757022 28.49111s-4.198546 20.935366-11.822581 28.559401l-43.821131 43.823862a40.117013 40.117013 0 0 1-28.559401 11.822582z" fill="#333E48" p-id="18215"></path><path d="M743.320225 229.035199a15.480261 15.480261 0 0 1-23.049664-1.327582l-0.106534-0.13385-0.101071-0.139315a46.776776 46.776776 0 0 1-9.085468-31.121689 46.83414 46.83414 0 0 1 43.444162-43.446894 46.790434 46.790434 0 0 1 31.124421 9.085468l0.139314 0.101071 0.133851 0.106535a15.472066 15.472066 0 0 1 1.324851 23.049663l-43.823862 43.826593z" fill="#2D3740" p-id="18216"></path><path d="M1024.002732 365.573996a8.140317 8.140317 0 0 0-8.137586-8.140317l-14.174532 0.174825c-14.939394 0.062828-18.334835 8.569186-7.544818 18.897556l12.030187 11.524831a26.994166 26.994166 0 0 0 17.824017 7.484721v-29.941616h0.002732z" fill="#333E48" p-id="18217"></path></svg>