<?xml version="1.0" standalone="no"?><!DOCTYPE svg PUBLIC "-//W3C//DTD SVG 1.1//EN" "http://www.w3.org/Graphics/SVG/1.1/DTD/svg11.dtd"><svg t="1704609265641" class="icon" viewBox="0 0 1024 1024" version="1.1" xmlns="http://www.w3.org/2000/svg" p-id="19274" xmlns:xlink="http://www.w3.org/1999/xlink" width="200" height="200"><path d="M618.654 874.642a21.298 21.298 0 0 1-21.312-21.31v-86.78c0-11.812 9.532-21.342 21.312-21.342 11.78 0 21.342 9.53 21.342 21.342v86.78c0 11.78-9.562 21.31-21.342 21.31z" fill="#FFCE54" p-id="19275"></path><path d="M1002.634 874.642H21.364c-11.78 0-21.342-9.532-21.342-21.31 0-11.782 9.562-21.344 21.342-21.344h981.272c11.782 0 21.344 9.562 21.344 21.344-0.002 11.78-9.564 21.31-21.346 21.31z" fill="#A85D5D" p-id="19276"></path><path d="M849.238 229.23l-70.594-96.778a21.36 21.36 0 0 0-19.28-8.688l-141.804 13.718c-10.938 1.032-19.282 10.218-19.282 21.218v118.652c0 9.78 6.656 18.31 16.156 20.686l82.838 20.716c1.688 0.438 3.438 0.624 5.188 0.624h0.156c87.808-0.656 142.934-60.746 145.214-63.308 6.75-7.496 7.344-18.714 1.408-26.84z" fill="#F6BB42" p-id="19277"></path><path d="M700.93 301.01a21.6 21.6 0 0 0-7.312-6.218L457.784 173.044a21.33 21.33 0 0 0-20.874 0.75 21.314 21.314 0 0 0-10.25 18.218v181.804c-15.124 14.282-41.998 49.374-67.966 131.778-64.434 204.646-102.09 470.106-102.464 472.76a21.26 21.26 0 0 0 5.032 16.968 21.262 21.262 0 0 0 16.092 7.312h42.654c7.124 0 13.78-3.562 17.75-9.5l80.748-121.088c24.938-6.438 100.996-27.904 178.12-68.558 54.872-28.938 98.838-61.654 130.62-97.248 41.184-46.124 62.09-97.12 62.09-151.586-0.004-133.526-84.812-248.802-88.406-253.644z" fill="#8ABE52" p-id="19278"></path><path d="M802.238 90.362c-45.842-23.5-92.746-24.188-97.934-24.188l-0.594 0.032a21.294 21.294 0 0 0-17.124 9.032c-3.938 5.562-5 12.688-2.782 19.124l42.656 125.84a21.274 21.274 0 0 0 13.436 13.374l127.996 42.688c2.218 0.718 4.5 1.094 6.75 1.094 4.438 0 8.81-1.376 12.466-4.032 5.562-4 8.876-10.438 8.876-17.312 0-97.154-50.996-143.716-93.746-165.652z" fill="#FFCE54" p-id="19279"></path><path d="M597.342 21.364c-94.122 0-170.682 76.56-170.682 170.65s76.56 170.648 170.682 170.648c94.088 0 170.646-76.558 170.646-170.648s-76.558-170.65-170.646-170.65z" fill="#A0D468" p-id="19280"></path><path d="M618.654 193.108c0 11.782-9.532 21.312-21.312 21.312s-21.344-9.532-21.344-21.312 9.562-21.344 21.344-21.344 21.312 9.562 21.312 21.344z" fill="#434A54" p-id="19281"></path><path d="M268.76 899.298c-8.094 47.746-12.406 78.152-12.532 79.056a21.26 21.26 0 0 0 5.032 16.968 21.262 21.262 0 0 0 16.092 7.312h42.654c7.124 0 13.78-3.562 17.75-9.5l68.404-102.588-137.4 8.752z" fill="#DA4453" p-id="19282"></path><path d="M703.71 509.468c-4.782-37.654-24.156-73.34-54.498-100.464-31.434-28.092-71.372-43.56-112.496-43.56-34.872 0-69.058 10.718-101.62 31.844-35.342 22.904-67.81 57.714-96.466 103.372-34.968 55.78-59.654 141.4-73.34 254.488-10.062 83.154-10.188 149.496-10.188 152.278 0 11.782 9.562 21.308 21.342 21.308 61.248 0 122.526-15.59 182.118-46.34 53.654-27.686 103.808-67.06 145.028-113.84 72.778-82.656 110.214-179.494 100.12-259.086z" fill="#ED5564" p-id="19283"></path></svg>