<?xml version="1.0" standalone="no"?><!DOCTYPE svg PUBLIC "-//W3C//DTD SVG 1.1//EN" "http://www.w3.org/Graphics/SVG/1.1/DTD/svg11.dtd"><svg t="1704609314043" class="icon" viewBox="0 0 1024 1024" version="1.1" xmlns="http://www.w3.org/2000/svg" p-id="22461" xmlns:xlink="http://www.w3.org/1999/xlink" width="200" height="200"><path d="M691.989914 1023.996962c74.747984 0 135.344032-60.596048 135.344032-135.344032V315.333946C827.333946 141.182199 686.157822 0 512.003038 0S196.669091 141.182199 196.669091 315.333946v573.322022c0 74.744947 60.59301 135.344032 135.344032 135.344032h359.976791v-0.003038z" fill="#333E48" p-id="22462"></path><path d="M192.158332 654.615922c30.390669 30.387631 79.644512 30.384594 110.026069 0 30.381556-30.381556 30.381556-79.635399 0-110.016955l-188.249008-188.249008c-60.760075 60.760075-60.760075 159.270799-0.003038 220.036949l78.225977 78.229014zM831.844705 654.615922c-30.390669 30.387631-79.644512 30.384594-110.026068 0-30.381556-30.381556-30.381556-79.635399 0-110.016955l188.249008-188.249008c60.760075 60.760075 60.760075 159.270799 0.003037 220.036949l-78.225977 78.229014z" fill="#333E48" p-id="22463"></path><path d="M512.003038 592.01813c-95.105632 0-172.198603 77.099047-172.198604 172.201641v259.774154h344.400245v-259.774154c-0.003038-95.102594-77.102084-172.201641-172.201641-172.201641z" fill="#E8E8E8" p-id="22464"></path><path d="M716.092859 351.167902V260.885896c0-61.923456-50.201558-112.121977-112.121977-112.121976-38.081741 0-71.701324 18.999864-91.967844 48.014523-20.266521-29.01466-53.886104-48.014523-91.967845-48.014523-61.920419 0-112.121977 50.19852-112.121977 112.121976v90.285043a101.578647 101.578647 0 0 0-22.322941 63.660934c0 56.358668 45.687761 102.046429 102.046429 102.046429h248.732667c56.35563 0 102.043392-45.687761 102.043391-102.046429a101.584722 101.584722 0 0 0-22.319903-63.663971z" fill="#FFFFFF" p-id="22465"></path><path d="M563.124973 373.578932c0-28.230972-22.887925-51.121935-51.121935-51.121935s-51.121935 22.890963-51.121935 51.121935c0 28.23401 51.121935 51.121935 51.121935 51.121935s51.121935-22.887925 51.121935-51.121935z" fill="#ED9900" p-id="22466"></path><path d="M396.421294 284.985803m-26.074313 0a26.074313 26.074313 0 1 0 52.148626 0 26.074313 26.074313 0 1 0-52.148626 0Z" fill="#333E48" p-id="22467"></path><path d="M627.581744 284.985803m-26.074313 0a26.074313 26.074313 0 1 0 52.148626 0 26.074313 26.074313 0 1 0-52.148626 0Z" fill="#333E48" p-id="22468"></path><path d="M420.588027 948.197986h-83.514349c-20.931744 0-37.89645 16.970781-37.89645 37.902526s16.967744 37.899488 37.89645 37.899488h83.514349c20.931744 0 37.902526-16.967744 37.902525-37.899488-0.003038-20.931744-16.973819-37.902526-37.902525-37.902526zM603.411973 948.197986h83.517386c20.931744 0 37.899488 16.970781 37.899488 37.902526s-16.967744 37.899488-37.899488 37.899488h-83.517386c-20.928707 0-37.899488-16.967744-37.899488-37.899488 0.003038-20.931744 16.973819-37.902526 37.899488-37.902526z" fill="#ED9900" p-id="22469"></path></svg>