<?xml version="1.0" standalone="no"?><!DOCTYPE svg PUBLIC "-//W3C//DTD SVG 1.1//EN" "http://www.w3.org/Graphics/SVG/1.1/DTD/svg11.dtd"><svg t="1704609336244" class="icon" viewBox="0 0 1024 1024" version="1.1" xmlns="http://www.w3.org/2000/svg" p-id="23873" xmlns:xlink="http://www.w3.org/1999/xlink" width="200" height="200"><path d="M1002.666667 533.333333c-158.229333 208-288.810667 170.666667-490.666667 170.666667C202.666667 704 170.666667 597.504 170.666667 426.666667 170.666667 158.485333 513.322667 170.666667 533.333333 170.666667c362.666667 0 341.333333 256 426.666667 277.333333" fill="#F48FB1" p-id="23874"></path><path d="M170.666667 384c0 192 42.666667 256 42.666666 256l-42.666666 42.666667v170.666666h85.333333v-106.666666s149.333333-21.333333 170.666667-106.666667V384H170.666667zM725.333333 576l-42.666666 213.333333v21.333334h-85.333334l-21.333333-192z" fill="#F48FB1" p-id="23875"></path><path d="M181.824 383.466667l-2.965333 0.170666h-5.333334a54.378667 54.378667 0 0 1-9.258666-1.216 68.672 68.672 0 0 1-15.914667-5.610666 93.845333 93.845333 0 0 1-23.914667-17.621334 128.64 128.64 0 0 1-29.376-46.058666c-3.050667-8.618667-5.568-18.581333-4.864-29.248 0.810667-11.072 4.16-20.288 9.642667-29.034667 5.461333-8.426667 13.76-16.853333 26.154667-19.754667 12.864-2.922667 24.597333 2.922667 31.872 9.856 7.786667 6.805333 12.608 18.304 12.330666 28.181334 0.064 10.026667-2.986667 18.944-7.168 26.794666a69.802667 69.802667 0 0 1-16.597333 20.48c-6.826667 5.845333-15.552 9.621333-23.957333 11.093334a79.616 79.616 0 0 1-48.661334-7.104c-14.592-6.954667-27.541333-19.370667-31.146666-35.029334 5.397333 15.104 18.986667 25.173333 33.216 30.101334 14.336 5.034667 30.250667 5.866667 44.053333 1.664 13.973333-3.797333 23.274667-15.168 28.650667-28.074667 5.354667-12.992 4.16-26.581333-4.778667-32.042667-9.749333-6.528-15.082667-3.114667-20.928 7.296-5.056 10.965333-4.352 20.672 1.770667 32.618667a94.144 94.144 0 0 0 24.874666 30.634667c10.346667 8.128 20.565333 11.925333 27.776 9.493333l4.522667 42.410667z" fill="#F48FB1" p-id="23876"></path><path d="M832 448m-21.333333 0a21.333333 21.333333 0 1 0 42.666666 0 21.333333 21.333333 0 1 0-42.666666 0Z" p-id="23877"></path><path d="M896 512a64 53.333333 90 1 0 106.666667 0 64 53.333333 90 1 0-106.666667 0Z" fill="#EC407A" p-id="23878"></path><path d="M917.333333 512a21.333333 10.666667 90 1 0 21.333334 0 21.333333 10.666667 90 1 0-21.333334 0Z" fill="#880E4F" p-id="23879"></path><path d="M960 512a21.333333 10.666667 90 1 0 21.333333 0 21.333333 10.666667 90 1 0-21.333333 0Z" fill="#880E4F" p-id="23880"></path><path d="M882.88 350.442667C914.432 332.437333 960 289.706667 960 192c-50.154667 25.066667-114.858667 28.245333-159.829333 56.746667 38.528 31.552 63.317333 68.288 82.709333 101.696zM386.261333 696.170667c-34.730667 26.453333-81.877333 40.256-108.928 46.357333V853.333333h85.333334v-106.666666s68.928-9.92 119.829333-43.029334a820.224 820.224 0 0 1-96.234667-7.466666zM699.413333 705.557333L682.666667 789.333333v21.333334h64v-21.333334l18.197333-90.965333c-21.269333 4.032-43.050667 6.08-65.450667 7.189333z" fill="#F06292" p-id="23881"></path><path d="M714.666667 327.125333s106.666667-21.333333 106.666666-170.666666c-85.333333 42.666667-213.333333 21.333333-213.333333 170.666666 0 0 22.72-15.402667 106.666667 0z" fill="#F06292" p-id="23882"></path><path d="M661.333333 810.666667l85.333334-21.333334 21.333333 64h-106.666667zM277.333333 810.666667l85.333334-21.333334 21.333333 64h-106.666667z" fill="#5D4037" p-id="23883"></path><path d="M170.666667 810.666667l85.333333-21.333334 21.333333 64H170.666667zM597.333333 810.666667l85.333334-21.333334 21.333333 64h-106.666667z" fill="#795548" p-id="23884"></path></svg>