<?xml version="1.0" standalone="no"?><!DOCTYPE svg PUBLIC "-//W3C//DTD SVG 1.1//EN" "http://www.w3.org/Graphics/SVG/1.1/DTD/svg11.dtd"><svg class="icon" width="200px" height="200.00px" viewBox="0 0 1024 1024" version="1.1" xmlns="http://www.w3.org/2000/svg"><path d="M1010.72979 399.315c59.994 266.134-108.34 530.792-375.988 591.128C367.08879 1050.781 101.48279 883.947 41.48679 617.811-18.50721 351.676 157.63079 85.259 417.47779 26.682c267.649-60.338 533.256 106.497 593.252 372.633z" fill="#D72747" /><path d="M1010.72979 399.315c7.166 31.608 11.256 63.912 12.244 96.322 0.455 16.206 0.199 32.439-0.896 48.628a512.273 512.273 0 0 1-5.604 48.35c-10.574 64.1-33.711 126.213-67.727 182.023-33.984 55.816-78.813 105.383-131.766 144.824-26.482 19.689-54.896 36.975-84.859 51.271a517.554 517.554 0 0 1-93.674 34.154c-32.303 8.363-65.529 13.684-99.07 15.664-33.537 1.949-67.384 0.67-100.845-4.057-33.449-4.752-66.552-12.719-98.568-24.035a505.054 505.054 0 0 1-47.163-19.316 505.518 505.518 0 0 1-45.1-23.963c-58.568-34.916-110.292-81.867-150.688-137.4-20.227-27.734-37.597-57.602-51.791-88.912a515.981 515.981 0 0 1-18.867-47.969 525.836 525.836 0 0 1-13.922-49.605C4.82079 591.738 0.60479 557.359 0.07479 522.936c-0.305-17.209 0.329-34.429 1.84-51.558a491.97 491.97 0 0 1 7.14-51.029c12.968-67.471 39.819-131.867 77.651-188.508a524.248 524.248 0 0 1 64.469-78.82c23.908-24.076 50.201-45.676 78.216-64.563 28.015-18.899 57.916-34.858 88.979-47.746a497.169 497.169 0 0 1 96.261-28.829C480.12879-0.75 547.84879-0.517 612.56779 12.502c64.766 12.917 126.523 38.492 181.168 74.342 54.668 35.835 102.211 82.027 139.256 135.395a512.616 512.616 0 0 1 25.803 41.274c7.936 14.152 15.129 28.708 21.67 43.542 6.533 14.841 12.279 30.018 17.35 45.41a499.068 499.068 0 0 1 12.915 46.85z m0 0a498.252 498.252 0 0 0-13.055-46.804c-5.109-15.376-11.059-30.468-17.697-45.239-6.629-14.777-14.084-29.178-22.197-43.181-8.105-14.011-16.959-27.579-26.467-40.66-37.99-52.372-86.719-96.688-141.928-129.647a476.425 476.425 0 0 0-42.516-22.613 476.41 476.41 0 0 0-44.457-18.223c-30.172-10.688-61.373-18.176-92.883-22.652-31.52-4.46-63.396-5.645-94.982-3.805-31.607 1.881-62.856 6.891-93.383 14.805-30.343 7.868-59.875 18.854-87.902 32.56-28.064 13.675-54.611 30.211-79.358 48.96-49.464 37.58-91.366 84.489-123.364 137.041-32.017 52.55-54.087 110.828-64.377 170.926a479.143 479.143 0 0 0-5.523 45.328 472.99 472.99 0 0 0-1.059 45.583c0.809 30.383 4.582 60.664 11.344 90.311a466.495 466.495 0 0 0 12.207 44.004c4.756 14.459 10.192 28.693 16.34 42.617 12.244 27.871 27.235 54.537 44.644 79.576 34.823 50.074 79.521 93.473 130.952 127.152 51.405 33.699 109.508 57.754 170.431 69.893 60.896 12.238 124.542 12.484 186.371 0.563 30.91-5.943 61.346-14.84 90.688-26.717 29.324-11.904 57.619-26.648 84.17-44.227 26.547-17.568 51.51-37.736 74.178-60.344a481.368 481.368 0 0 0 61.025-74.229c35.719-53.475 60.707-114.42 72.543-178.029a465.987 465.987 0 0 0 6.455-48.084c1.322-16.131 1.873-32.336 1.52-48.53-0.342-16.19-1.441-32.375-3.428-48.456a498.828 498.828 0 0 0-8.292-47.879z" fill="#B1DAE0" /><path d="M562.74979 434.331c-6.75 4.76-13.561 9.17-19.201 12.689a459.615 459.615 0 0 1-11.67 7.07c-9.66 5.66-51 10-62 10-8.61 0-42.57 0.61-60.26-0.56-4.9-0.33-8.551-0.79-10.07-1.44-0.15-0.07-0.32-0.13-0.48-0.189-5.09-1.841-15.729-1.061-21.869-0.391-1.311-7.02-60.721-3.78-66.65-5.76-4.73-1.58-6.97-6.88-7.71-16.9 3.8 2.9 8.6 5.83 12.21 5.57 7-0.5 84-0.97 90.5 0.02 6.5 0.98 38.29 5.98 63.14 4.48 19.689-1.19 68.958-7.71 94.06-14.589z" fill="#E67F22" /><path d="M591.47779 408.01c-4.369 7.79-16.439 17.641-28.729 26.32-25.102 6.88-74.371 13.399-94.061 14.59-24.85 1.5-56.64-3.5-63.14-4.48-6.5-0.989-83.5-0.52-90.5-0.02-3.61 0.26-8.41-2.67-12.21-5.57-0.2-2.689-0.29-5.71-0.29-9.1 0-16 17.33-42 27.33-50.66 6.64-5.75 27.37-16.2 45.82-24.13v-0.01c9.359-4.021 18.13-7.4 24.18-9.2 1.89-0.561 3.85-1.05 5.84-1.47 16.94-3.601 36.16-2.53 36.16-2.53s27 4.34 40.34 19c13.33 14.67 60 14.67 65.33 22.67 4.641 6.96 23.68 15.95 30.291 19.48 0.99 0.529 1.699 0.93 2.039 1.189 1.362 1.022 7.34-0.279 11.6 3.921z" fill="#EB9B21" /><path d="M593.21779 443.041c-10 43.939-87.34 94.049-162 100.049-41.89 3.371-62.17 0.021-72.72-4.16-8.26-3.27-10.57-7.049-12.62-8.51-4.66-3.33-2.66-11.33 1.34-14.67 4-3.33 30-46.66 30-54 0-0.08-0.01-0.16-0.02-0.24 6.14-0.67 16.779-1.45 21.869 0.391-3.46 8.71-10.05 23.93-16.27 31.02-9 10.25-17 17.25-16.5 23.25s14 6.75 24.5 6.5c5.9-0.139 16.71-0.83 26.77-2.209h0.011c7.83-1.08 15.2-2.57 19.47-4.541 9.75-4.5 47.75-15.959 64-26.849 12.98-8.71 33.14-29.28 42.5-42.051 5.641-3.52 12.451-7.93 19.201-12.689 12.289-8.68 24.359-18.53 28.729-26.32 4.15 4.078 6.67 13.368 1.74 35.029z" fill="#E99521" /><path d="M543.54779 447.02c-9.359 12.771-29.52 33.341-42.5 42.051-16.25 10.89-54.25 22.35-64 26.849-4.27 1.971-11.64 3.461-19.47 4.541h-0.011c-3.829-2.031-7.81-4.461-10.05-6.371-4.689-4-4.97-15-5.97-26-0.63-6.95 4.33-17.64 8.07-24.56 17.689 1.17 51.649 0.56 60.26 0.56 11 0 52.339-4.34 62-10a455.58 455.58 0 0 0 11.671-7.07z" fill="#BF6477" /><path d="M417.56779 520.461c-10.06 1.379-20.869 2.07-26.77 2.209-10.5 0.25-24-0.5-24.5-6.5s7.5-13 16.5-23.25c6.22-7.09 12.81-22.31 16.27-31.02 0.16 0.06 0.33 0.119 0.48 0.189 1.52 0.65 5.17 1.11 10.07 1.44-3.74 6.92-8.7 17.609-8.07 24.56 1 11 1.28 22 5.97 26 2.241 1.911 6.221 4.341 10.05 6.372z" fill="#7A1A1D" /><path d="M777.87779 680.09c3 7.33 1.34 11-2.66 11s-87.34 2.66-110 6c-22.67 3.33-88 26-102.469 33.33-14.471 7.33-76.201 46.67-93.191 58.67s-60.34 38.66-85.68 43.33c-0.21 0.041-0.42 0.07-0.63 0.08 18.51-10.18 35.39-31.99 42.3-36.08 9-5.33 60.33-64 75-72.67 14.669-8.66 92.669-50 124.669-64s62-11.33 84-24c22-12.66 18.66-45.33 19.721-56.66 1.061-11.34-4.391-40 4.279-56.379 8.66-16.371 33.33-112.291 31.33-149.331-2-37.05-18.67-73.63-28-92.29-9.33-18.67-20.67-18-29.33-28.67-6.18-7.61-10.67-32.86-12.729-46.71 18.52 15.7 38.17 45.06 46.559 54.71 10 11.5 28.5 72 32 85.5s6.17 47.83 6.371 62.09c0.199 14.26-9.371 97.91-10.371 103.99-1 6.08 0 96.919 0.5 113.919s5.331 46.831 8.331 54.171z" fill="#33363F" /><path d="M733.21779 522.711c-8.67 16.379-3.219 45.039-4.279 56.379-1.061 11.33 2.279 44-19.721 56.66-22 12.67-52 10-84 24s-110 55.34-124.669 64c-14.67 8.67-66 67.34-75 72.67-6.91 4.09-23.79 25.9-42.3 36.08-25.55 2.471-76.7-124.75-76.7-124.75s0.67-4.66-3.71-18.66c-3.5-11.18 38.55-110.529 55.66-150.16 10.55 4.182 30.83 7.531 72.72 4.16 74.66-6 152-56.11 162-100.049 4.93-21.66 2.41-30.95-1.74-35.03-4.26-4.2-10.238-2.899-11.6-3.92-0.34-0.26-1.049-0.66-2.039-1.189 0.129-4.801-0.111-11.511-2.291-13.23-3.5-2.75-8.16-7.25-10.08-11.25s-11.92-31.13-15.42-36.82c-3.5-5.68-14.01-28.68-23.76-34.68-9.74-6-29.79-20-53.77-19-23.97 1-36.47 19-41.97 24-3.99 3.63-17.78 19.89-24.83 32.36-1.99 0.42-3.95 0.909-5.84 1.47-6.05 1.8-14.82 5.18-24.18 9.2-0.311-30.48 9.27-73.16 21.85-97.03 14.5-27.5 45-48.5 54-57s67-33 82.009-34.5 44.49-1.5 65.99 0 63.5 21 84.5 32c3.381 1.77 6.891 4.28 10.441 7.29 2.059 13.85 6.549 39.1 12.729 46.71 8.66 10.67 20 10 29.33 28.67 9.33 18.66 26 55.24 28 92.29 2 37.038-22.67 132.958-31.33 149.329z" fill="#464A53" /><path d="M468.69079 287.87c-7.143 52.218-29.143 53.732-51.123 47.436-16.207-4.643-20.02-18.218-16.074-46.627 4.021-28.951 28.881-50.644 45.52-47.925 18.369 3 24.078 29.565 21.677 47.116z" fill="#FCFEFE" /><path d="M468.69079 287.87c-0.732 5.508-1.687 10.994-3.035 16.391-1.348 5.391-3.001 10.739-5.451 15.768-2.432 5-5.619 9.816-10.155 13.311a25.65 25.65 0 0 1-7.521 4.037c-2.718 0.922-5.578 1.389-8.431 1.508-5.728 0.23-11.372-0.823-16.81-2.238-2.782-0.729-5.554-1.793-8.07-3.406-2.513-1.603-4.747-3.771-6.352-6.323-1.625-2.542-2.694-5.358-3.4-8.192-0.702-2.842-1.089-5.717-1.24-8.576-0.299-5.722 0.081-11.374 0.685-16.961 0.342-2.809 0.665-5.525 1.258-8.408a63.266 63.266 0 0 1 2.296-8.281c1.902-5.408 4.601-10.506 7.84-15.199a61.085 61.085 0 0 1 11.596-12.498c4.433-3.561 9.431-6.549 14.974-8.13 2.763-0.776 5.672-1.173 8.57-0.919a20.288 20.288 0 0 1 8.18 2.616c2.486 1.439 4.629 3.383 6.396 5.583 1.776 2.202 3.176 4.659 4.356 7.193 2.343 5.093 3.638 10.58 4.337 16.092 0.694 5.514 0.737 11.124-0.023 16.632z m0 0c0.709-5.514 0.614-11.116-0.129-16.615-0.771-5.491-2.265-10.908-4.692-15.869-2.423-4.925-6.047-9.41-10.854-11.91a18.857 18.857 0 0 0-7.684-2.091c-2.657-0.114-5.328 0.367-7.874 1.208-5.106 1.704-9.726 4.742-13.78 8.312-4.064 3.59-7.548 7.807-10.515 12.325-2.97 4.523-5.327 9.43-7.061 14.529a59.426 59.426 0 0 0-2.083 7.791c-0.514 2.566-0.821 5.38-1.14 8.088-0.64 5.451-1.049 10.927-0.814 16.315 0.242 5.349 1.073 10.754 3.716 15.15 1.319 2.177 3.047 4.083 5.162 5.559 2.106 1.488 4.539 2.565 7.094 3.357 5.23 1.613 10.604 2.853 16.019 2.874 5.393 0.055 10.821-1.381 15.251-4.56 4.451-3.14 7.859-7.667 10.402-12.556 2.541-4.916 4.389-10.188 5.801-15.555 1.395-5.376 2.399-10.851 3.181-16.352z" fill="#231815" /><path d="M456.31679 298.194c-2.578 14.617-11.392 25.28-19.686 23.818-8.294-1.463-12.929-14.498-10.352-29.115 2.578-14.617 12.439-20.438 20.733-18.977 8.296 1.463 11.883 9.657 9.305 24.274z" fill="#1D82B5" /><path d="M438.16779 323.646c-0.602 0-1.206-0.053-1.797-0.156-9.249-1.632-14.331-15.184-11.568-30.854 2.66-15.083 12.275-20.435 19.701-20.435 0.93 0 1.861 0.081 2.771 0.241 5.472 0.966 14.114 5.628 10.521 26.012-2.534 14.362-10.972 25.192-19.628 25.192z m6.336-48.444c-6.264 0-14.409 4.703-16.746 17.956-2.389 13.545 1.795 26.083 9.135 27.377a7.35 7.35 0 0 0 1.275 0.111c7.103 0 14.426-9.977 16.672-22.713 1.647-9.339 1.581-20.83-8.087-22.535a12.968 12.968 0 0 0-2.249-0.196z" fill="#231815" /><path d="M434.71479 289.545a6.167 6.125 0 1 0 12.334 0 6.167 6.125 0 1 0-12.334 0Z" fill="#FFFFFF" /><path d="M577.83879 402.901c-6.611-3.53-25.65-12.521-30.291-19.48-5.33-8-52-8-65.33-22.67-13.34-14.66-40.34-19-40.34-19s-19.22-1.07-36.16 2.53c7.05-12.471 20.84-28.73 24.83-32.36 5.5-5 18-23 41.97-24 23.98-1 44.03 13 53.77 19 9.75 6 20.26 29 23.76 34.68 3.5 5.69 13.5 32.82 15.42 36.82s6.58 8.5 10.08 11.25c2.18 1.719 2.42 8.429 2.291 13.23z" fill="#E7E8E6" /><path d="M572.50679 406.327c-2-0.675-4.021-1.412-5.926-2.381a190.502 190.502 0 0 1-8.457-4.867c-2.811-1.725-5.602-3.538-8.377-5.67-1.387-1.075-2.77-2.226-4.154-3.618a23.03 23.03 0 0 1-2.076-2.393 17.699 17.699 0 0 1-0.514-0.729l-0.063-0.095-0.031-0.048 0.072 0.105-0.084-0.122c-0.053-0.079 0.006 0.011 0.033 0.044l0.096 0.113c0.07 0.072 0.063 0.039-0.014-0.028-0.34-0.323-1.502-0.935-2.705-1.39-1.23-0.481-2.609-0.918-4.027-1.323-2.85-0.808-5.867-1.507-8.908-2.206-6.1-1.384-12.354-2.688-18.611-4.297-6.253-1.64-12.572-3.446-18.733-6.424-3.067-1.504-6.13-3.293-8.899-5.834a23.1 23.1 0 0 1-1.014-0.993l-0.49-0.528-0.404-0.458a35.068 35.068 0 0 0-1.455-1.577 39.12 39.12 0 0 0-3.211-2.902c-4.549-3.68-9.935-6.578-15.548-8.979-5.609-2.37-11.606-4.294-17.514-5.578l0.251 0.027c-2.91-0.238-5.939-0.366-8.922-0.434-2.994-0.07-5.99-0.042-8.987 0.017l-9.007 0.237-9.109 0.284 0.001-0.001c2.68-4.709 5.768-9.172 8.981-13.528a224.917 224.917 0 0 1 10.139-12.692c3.459-4.18 7.531-7.777 11.161-11.8 3.744-3.907 7.806-7.546 12.353-10.499 4.531-2.966 9.543-5.205 14.799-6.527 5.258-1.36 10.735-1.615 16.146-1.328 5.423 0.305 10.787 1.365 16.02 2.858a89.33 89.33 0 0 1 7.729 2.646 105.77 105.77 0 0 1 7.513 3.238c4.922 2.353 9.721 4.998 14.408 7.721 1.184 0.711 2.301 1.234 3.609 2.156a27.964 27.964 0 0 1 3.314 2.786c2.039 1.984 3.836 4.136 5.523 6.342 3.367 4.422 6.311 9.078 9.131 13.766l4.143 7.023c0.68 1.148 1.371 2.32 2.037 3.324 0.867 1.312 1.541 2.602 2.189 3.842 2.529 4.99 4.84 9.9 7.197 14.828l6.928 14.703 0.844 1.766 0.404 0.807c0.137 0.264 0.199 0.352 0.365 0.632l0.348 0.497c0.135 0.192 0.285 0.391 0.441 0.59 0.314 0.397 0.65 0.814 1.018 1.228 0.73 0.83 1.553 1.659 2.42 2.465 0.428 0.409 0.895 0.786 1.322 1.205 0.418 0.431 0.734 0.978 1.047 1.544 0.314 0.56 0.668 1.091 1.158 1.445 0.059 0.048 0.121 0.091 0.186 0.13l0.096 0.061 0.049 0.03c0.117 0.094-0.195-0.169 0.275 0.219 0.072 0.045 0.145 0.092 0.225 0.13 0.25 0.208 0.502 0.423 0.742 0.653 0.727 0.647 1.238 1.174 1.811 1.671 1.051 0.993 2.031 1.864 2.48 2.813 0.494 0.942 0.289 1.922 0.121 2.807a12.933 12.933 0 0 1-2.141 4.865c-1.111 1.496-2.385 2.902-4.412 4.205l-5.332 3.426z m-4.871-15.631a47.625 47.625 0 0 1-1.227-1.269 46.584 46.584 0 0 1-2.977-3.603 29.283 29.283 0 0 1-1.389-2.043 25.201 25.201 0 0 1-1.308-2.389c-0.148-0.32-0.381-0.842-0.518-1.198l-0.396-1.059-0.699-1.991-5.021-15.518c-1.67-5.125-3.369-10.283-5.369-15.135-0.504-1.209-0.998-2.37-1.547-3.367-0.729-1.318-1.314-2.535-1.92-3.771l-3.551-7.287c-2.393-4.802-4.889-9.535-7.75-13.982-1.432-2.218-2.959-4.364-4.656-6.301-0.85-0.967-1.746-1.873-2.697-2.667-0.844-0.728-2.119-1.496-3.201-2.265-4.467-3.065-8.914-6.087-13.633-8.682a103.568 103.568 0 0 0-7.193-3.662 85.906 85.906 0 0 0-7.508-2.978 65.483 65.483 0 0 0-15.795-3.383c-5.383-0.472-10.858-0.168-16.122 1.114-5.271 1.264-10.271 3.545-14.806 6.498-4.547 2.953-8.608 6.592-12.353 10.499-3.63 4.022-7.702 7.62-11.161 11.8a225.727 225.727 0 0 0-10.139 12.692c-3.214 4.356-6.302 8.819-8.981 13.528l-0.001 0.001c2.845-1.19 5.813-2.026 8.808-2.692 2.996-0.675 6.034-1.122 9.08-1.444 3.047-0.323 6.104-0.513 9.165-0.657 3.074-0.133 6.103-0.209 9.242-0.162l0.069 0.001 0.182 0.026c3.313 0.474 6.423 1.125 9.589 1.898 3.146 0.779 6.268 1.691 9.351 2.766 6.16 2.148 12.21 4.934 17.758 8.888a46.743 46.743 0 0 1 4.018 3.224 43.18 43.18 0 0 1 1.871 1.798l0.405 0.407 0.336 0.322c0.232 0.21 0.469 0.42 0.72 0.622 1.996 1.63 4.515 2.96 7.187 4.069 5.389 2.201 11.347 3.689 17.382 4.938 6.057 1.247 12.238 2.229 18.529 3.335 3.152 0.556 6.324 1.147 9.592 1.938 1.637 0.399 3.295 0.842 5.037 1.438 0.871 0.301 1.764 0.641 2.703 1.072 0.943 0.442 1.934 0.952 3.035 1.771 0.549 0.413 1.131 0.912 1.719 1.582l0.283 0.343 0.213 0.279 0.236 0.324c0.051 0.07 0.113 0.147 0.182 0.23 0.271 0.33 0.656 0.729 1.088 1.132 0.879 0.814 1.957 1.657 3.102 2.469 2.307 1.631 4.881 3.174 7.52 4.648 1.147 0.646 2.337 1.233 3.516 1.853z" fill="#CAC6C3" /><path d="M482.71679 388.17c-2.418 5.5-6.418 4.75-14.418 2.588-7.509-2.029-16.012-6.793-14-11.338 2.988-6.75 8.07-7.051 15.5-4.75 12.918 4 14.918 8.95 12.918 13.5z" fill="#7F251F" /><path d="M315.04879 423.42c0.354-2.721 1.062-5.387 1.876-8.016 0.811-2.635 1.815-5.209 2.93-7.741 2.247-5.057 5.036-9.896 8.263-14.446 6.465-9.095 14.766-16.983 24.225-23.05 9.451-6.091 20.028-10.322 30.874-12.677 10.856-2.341 21.985-2.909 32.833-1.57-10.738 1.995-21.182 4.26-31.17 7.637-9.986 3.341-19.488 7.736-28.217 13.34-8.729 5.597-16.67 12.394-23.638 20.221a124.228 124.228 0 0 0-9.753 12.449c-3.008 4.386-5.803 8.963-8.223 13.853z" fill="#EDB757" /><path d="M415.04879 496.152a12.411 5.25 90 1 0 10.5 0 12.411 5.25 90 1 0-10.5 0Z" fill="#CC9FB9" /><path d="M439.04979 485.752l-3-0.012c0-3.546 10.065-14.935 14.394-19.666l2.213 2.025c-6.437 7.038-13.469 15.789-13.607 17.653z" fill="#994C5F" /><path d="M356.29779 585.367a296.061 296.061 0 0 0-17.169 35.584 283.328 283.328 0 0 0-6.844 18.434 246.068 246.068 0 0 0-5.574 18.76c-1.606 6.307-2.759 12.709-3.631 19.104-0.891 6.395-1.74 12.744-2.499 19.111-0.761 6.369-1.307 12.768-1.571 19.236-0.297 6.477-0.236 12.996-0.109 19.734a0.51 0.51 0 0 1-0.973 0.232c-2.949-6.139-4.793-12.766-5.97-19.494-1.147-6.74-1.559-13.611-1.35-20.441 0.212-6.834 1.165-13.619 2.747-20.229 1.602-6.607 3.594-13.078 5.673-19.484a254.202 254.202 0 0 1 7.037-18.883 288.366 288.366 0 0 1 8.522-18.174 304.146 304.146 0 0 1 9.813-17.436c3.45-5.697 7.082-11.271 11.067-16.613a0.5 0.5 0 1 1 0.837 0.546l-0.006 0.013z" fill="#93909F" /><path d="M494.04979 209.087c0-3.037-2.954-12.491-20.334-9.833-14.166 2.167-37 23.796-37 26.833s16.834-7.707 34-11.5c14.333-3.167 23.334-2.462 23.334-5.5zM670.21579 268.753c0 4.142-11.744-18.302-28.166-24.833-14.668-5.833-27.129-10.063-29.668-13-2.707-3.134 13.828-1.167 31.5-1.167 17.674 0 26.334 34.859 26.334 39z" fill="#171A23" /><path d="M669.97379 269.759c-0.719 0-1.578-1.039-4.186-4.323-4.68-5.894-13.391-16.861-23.924-21.051-3.352-1.333-6.588-2.582-9.615-3.751-10.568-4.079-18.205-7.026-20.244-9.387-0.508-0.587-0.459-1.05-0.328-1.336 0.359-0.782 1.633-1.268 6.875-1.268 2.646 0 5.9 0.115 9.67 0.249 4.756 0.169 10.148 0.36 15.66 0.36 17.877 0 26.834 35.102 26.834 39.5 0 0.935-0.568 1.007-0.742 1.007z m-57.387-39.432s0.02 0.089 0.174 0.267c1.877 2.172 9.807 5.232 19.848 9.108 3.031 1.17 6.271 2.42 9.625 3.754 10.781 4.288 19.6 15.393 24.338 21.358 1.229 1.548 2.492 3.14 3.139 3.726-0.256-5.097-8.877-38.286-25.828-38.286-5.529 0-10.932-0.191-15.695-0.36-3.76-0.134-7.006-0.249-9.635-0.249-5.2-0.001-5.882 0.52-5.966 0.682z" fill="#93909F" /><path d="M663.81179 326.162c0 40.46-20.246 73.592-49.545 73.592s-53.051-32.798-53.051-73.257c0-40.46 23.752-63.891 53.051-63.891s49.545 23.097 49.545 63.556z" fill="#FFFFFF" /><path d="M664.21179 326.163c-0.021 7.977-0.596 15.958-1.844 23.905-1.309 7.925-3.293 15.863-6.664 23.398-3.365 7.494-8.131 14.659-14.758 20.144-3.297 2.731-7.027 5.031-11.068 6.651a38.048 38.048 0 0 1-12.695 2.727 40.616 40.616 0 0 1-12.736-1.569c-4.098-1.194-7.959-3-11.473-5.246a54.877 54.877 0 0 1-9.584-7.822c-2.893-2.901-5.465-6.073-7.764-9.411-4.623-6.661-8.227-13.952-10.914-21.567-2.658-7.623-4.527-15.551-5.436-23.637-0.232-2.021-0.4-4.05-0.514-6.085l-0.125-3.033c-0.018-1.03-0.039-2.072-0.029-3.089 0.014-2.047 0.076-4.1 0.225-6.152 0.164-2.051 0.396-4.101 0.705-6.146 1.229-8.176 3.855-16.273 8.061-23.64 4.174-7.367 10.068-13.938 17.293-18.705 7.189-4.821 15.699-7.634 24.264-8.321a58.112 58.112 0 0 1 6.387-0.154c2.225 0.059 4.309 0.268 6.457 0.598 4.258 0.651 8.469 1.836 12.418 3.629 7.939 3.552 14.566 9.634 19.055 16.703 4.557 7.087 7.117 15.017 8.695 22.91 1.519 7.933 2.056 15.934 2.044 23.912z m-0.8-0.002c-0.033-7.918-1.016-15.874-3.361-23.382-2.287-7.505-5.959-14.545-10.859-20.29-2.43-2.891-5.207-5.406-8.174-7.564a38.624 38.624 0 0 0-4.66-2.879 40.148 40.148 0 0 0-4.945-2.266 43.69 43.69 0 0 0-10.543-2.6 52.248 52.248 0 0 0-5.43-0.347c-1.92-0.021-3.693 0.06-5.531 0.239-7.277 0.673-14.316 3.01-20.49 6.84-6.176 3.834-11.395 9.238-15.32 15.546-3.934 6.32-6.592 13.493-8.246 20.945a96.748 96.748 0 0 0-2.205 23.027c0.191 7.779 1.305 15.605 3.645 23.086 2.318 7.474 5.748 14.657 10.43 20.912 2.354 3.111 5.002 5.988 7.914 8.527 2.938 2.507 6.119 4.7 9.523 6.379 6.785 3.4 14.328 4.801 21.559 3.996 7.23-0.737 14.006-3.714 19.781-8.243 5.779-4.531 10.697-10.412 14.691-16.984 8.047-13.158 12.326-29.099 12.221-44.942z" fill="#231815" /><path d="M584.88179 331.879a35.208 26.333 90 1 0 52.666 0 35.208 26.333 90 1 0-52.666 0Z" fill="#1D82B5" /><path d="M611.21379 368.587c-15.348 0-27.832-16.467-27.832-36.708s12.484-36.709 27.832-36.709 27.834 16.468 27.834 36.709-12.486 36.708-27.834 36.708z m0-70.417c-13.693 0-24.832 15.122-24.832 33.709s11.139 33.708 24.832 33.708 24.834-15.121 24.834-33.708-11.14-33.709-24.834-33.709z" fill="#231815" /><path d="M598.88179 335.586a18.834 12.5 90 1 0 25 0 18.834 12.5 90 1 0-25 0Z" fill="#231815" /><path d="M595.93279 322.753a12 10.808 90 1 0 21.616 0 12 10.808 90 1 0-21.616 0Z" fill="#FFFFFF" /></svg>