<?xml version="1.0" standalone="no"?><!DOCTYPE svg PUBLIC "-//W3C//DTD SVG 1.1//EN" "http://www.w3.org/Graphics/SVG/1.1/DTD/svg11.dtd"><svg class="icon" width="200px" height="200.00px" viewBox="0 0 1024 1024" version="1.1" xmlns="http://www.w3.org/2000/svg"><path d="M209.895 212.661m-187.895 0a187.895 187.895 0 1 0 375.79 0 187.895 187.895 0 1 0-375.79 0Z" fill="#F4CA45" /><path d="M814.105 212.661m-187.895 0a187.895 187.895 0 1 0 375.79 0 187.895 187.895 0 1 0-375.79 0Z" fill="#F4CA45" /><path d="M873.026 999.234c-1.631 0-3.282-0.387-4.832-1.182L597.402 856.458l324.596-84.08a10.42 10.42 0 0 1 12.722 7.503c1.448 5.566-1.917 11.275-7.503 12.722L655.1 863.064 877.858 979.54c5.117 2.671 7.095 8.991 4.424 14.088a10.456 10.456 0 0 1-9.256 5.606z" fill="#F4CA45" /><path d="M913.557 885.021c-0.163 0-0.347 0-0.53-0.02l-287.306-14.822c-5.77-0.285-10.194-5.199-9.888-10.948 0.306-5.749 4.873-10.663 10.948-9.888l287.306 14.822c5.77 0.285 10.194 5.199 9.888 10.948a10.433 10.433 0 0 1-10.418 9.908zM150.968 999.234c-3.751 0-7.38-2.039-9.256-5.607-2.671-5.097-0.693-11.417 4.424-14.088l222.778-116.476-272.116-70.46c-5.586-1.448-8.95-7.156-7.503-12.722a10.404 10.404 0 0 1 12.722-7.503l324.595 84.08L155.8 998.052a10.564 10.564 0 0 1-4.832 1.182z" fill="#F4CA45" /><path d="M110.458 885.021a10.432 10.432 0 0 1-10.418-9.909c-0.306-5.749 4.118-10.663 9.888-10.948l287.306-14.822c6.585-0.815 10.663 4.139 10.948 9.888 0.306 5.749-4.118 10.663-9.888 10.948L110.988 885c-0.184 0.021-0.367 0.021-0.53 0.021z" fill="#F4CA45" /><path d="M514.295 512.924m-381.316 0a381.316 381.316 0 1 0 762.632 0 381.316 381.316 0 1 0-762.632 0Z" fill="#F4CA45" /><path d="M305.684 595.818a49.737 47.895 0 1 0 99.474 0 49.737 47.895 0 1 0-99.474 0Z" fill="#FFF5D4" /><path d="M618.842 595.818a49.737 47.895 0 1 0 99.474 0 49.737 47.895 0 1 0-99.474 0Z" fill="#FFF5D4" /><path d="M440.158 877.661a71.842 57.105 0 1 0 143.684 0 71.842 57.105 0 1 0-143.684 0Z" fill="#FFE28F" /></svg>