<?xml version="1.0" standalone="no"?><!DOCTYPE svg PUBLIC "-//W3C//DTD SVG 1.1//EN" "http://www.w3.org/Graphics/SVG/1.1/DTD/svg11.dtd"><svg class="icon" width="200px" height="200.00px" viewBox="0 0 1024 1024" version="1.1" xmlns="http://www.w3.org/2000/svg"><path d="M815.398 115.126c-30.688-13.092-64.842 17.03-87.84 40.842-22.5 23.248-40.438 47.934-41.188 48.966-6.906 9.532-4.782 22.874 4.75 29.78 9.532 6.906 22.876 4.78 29.782-4.75 0.032-0.032 0.5-0.656 1.312-1.75l60.434 35.092c-0.876 2.968-1.376 4.688-1.406 4.75-3.468 11.25 2.844 23.186 14.124 26.654 2.094 0.656 4.188 0.968 6.282 0.968 9.124 0 17.562-5.906 20.376-15.092 0.406-1.312 10.124-33.092 15.812-67.248 5.906-35.56 10-84.4-22.438-98.212z" fill="#959DA5" /><path d="M1004.232 573.842c-7.594-7.904-18.092-18.124-31.186-30.388-16.436-15.344-33.03-30.186-40.53-36.842l-39.154-108.464c-0.124-0.282-0.218-0.562-0.344-0.844l-41.03-99.934a21.026 21.026 0 0 0-2.654-4.686c-0.906-1.218-22.782-30.03-65.468-58.53-39.092-26.062-104.184-57.154-192.396-57.154-49.094 0-100.716 9.562-153.448 28.468-153.978 55.152-415.484 191.24-426.528 197.022a21.314 21.314 0 0 0-10.75 13.406 21.37 21.37 0 0 0 2.61 16.968l298.66 469.31a21.196 21.196 0 0 0 17.998 9.874c5.61 0 11.032-2.188 15.046-6.188l133.464-132.872c132.076-13.812 200.882-85.81 223.664-114.964 33.906 5.876 122.122 21 143.308 23.468 3.218 0.376 6.562 0.562 9.938 0.562 21.374 0 41.308-7.376 50.402-11.312h79.464a21.36 21.36 0 0 0 16.562-7.844c32.124-39.464 32.124-51.464 32.124-56.59-0.002-10.154-6.096-18.216-19.752-32.466z" fill="#AAB2BC" /><path d="M926.362 489.58l-54.496-143.806a21.444 21.444 0 0 0-13.468-12.78 21.31 21.31 0 0 0-18.342 2.594l-232.208 155.4a22.862 22.862 0 0 0-4.718 4.312c-34.718 42.874-38 84.576-40.876 121.356-3.032 38.434-5.656 71.62-43.014 105.806a21.352 21.352 0 0 0-4.11 26.342 21.328 21.328 0 0 0 18.514 10.718c2.094 0 4.204-0.282 6.282-0.938 97.326-29.936 145.728-90.808 157.854-108.09l219.804-135.196a21.324 21.324 0 0 0 8.778-25.718z" fill="#656D78" /><path d="M831.992 485.392c0 11.782-9.562 21.344-21.344 21.344s-21.312-9.562-21.312-21.344 9.532-21.342 21.312-21.342 21.344 9.56 21.344 21.342z" fill="#434A54" /><path d="M554.658 356.708s-36.28-152.556 39.624-191.304c24.376-12.436 65.652 127.122 65.652 127.122l-105.276 64.182z" fill="#959DA5" /><path d="M1004.888 646.056c19.094-26.246 19.094-35.434 19.094-39.746 0-10.156-6.094-18.218-19.75-32.468l-0.094-0.094s-40.09 21.062-37.872 36.156c2.218 15.094 38.622 36.152 38.622 36.152z" fill="#434A54" /><path d="M554.658 378.052c-9.656 0-18.422-6.594-20.75-16.406-0.388-1.656-9.67-41.186-9.232-86.246 0.438-45.124 11.186-104.122 59.92-128.996 7.718-3.938 16.5-4.156 24.75-0.624 20.748 8.906 36.374 43.466 50.214 79.496 11.842 30.874 20.466 59.966 20.842 61.186 3.344 11.312-3.124 23.154-14.406 26.498-11.31 3.344-23.184-3.094-26.528-14.406-0.062-0.25-7.844-26.436-18.376-54.374-12.124-32.216-20.624-47.436-25.374-54.404-22.688 18.312-28.094 56.06-28.376 86.03-0.376 39.904 8 75.62 8.094 75.964 2.718 11.468-4.376 22.968-15.844 25.688-1.652 0.408-3.308 0.594-4.934 0.594z" fill="#CCD1D9" /></svg>