<?xml version="1.0" standalone="no"?><!DOCTYPE svg PUBLIC "-//W3C//DTD SVG 1.1//EN" "http://www.w3.org/Graphics/SVG/1.1/DTD/svg11.dtd"><svg class="icon" width="200px" height="200.00px" viewBox="0 0 1024 1024" version="1.1" xmlns="http://www.w3.org/2000/svg"><path d="M665.6 705.493333L618.666667 768H405.333333l-46.933333-62.506667a85.333333 85.333333 0 0 1-17.066667-51.2V448h341.333334v206.293333a85.333333 85.333333 0 0 1-17.066667 51.2z" fill="#795548" /><path d="M704 405.333333c-44.16 0-106.666667 42.666667-106.666667 42.666667s62.506667 42.666667 106.666667 42.666667 106.666667-42.666667 106.666667-42.666667-62.506667-42.666667-106.666667-42.666667z" fill="#A1887F" /><path d="M704 448h-106.666667s62.506667 42.666667 106.666667 42.666667 106.666667-42.666667 106.666667-42.666667z" fill="#795548" /><path d="M320 405.333333c-44.16 0-106.666667 42.666667-106.666667 42.666667s62.506667 42.666667 106.666667 42.666667 106.666667-42.666667 106.666667-42.666667-62.506667-42.666667-106.666667-42.666667z" fill="#A1887F" /><path d="M320 448h-106.666667s62.506667 42.666667 106.666667 42.666667 106.666667-42.666667 106.666667-42.666667z" fill="#795548" /><path d="M554.666667 917.333333a64 64 0 0 1-64-64V405.333333h85.333333a42.666667 42.666667 0 0 1 42.666667 42.666667v405.333333a64 64 0 0 1-64 64z" fill="#A1887F" /><path d="M469.333333 917.333333a64 64 0 0 1-64-64V448a42.666667 42.666667 0 0 1 42.666667-42.666667h85.333333v448a64 64 0 0 1-64 64z" fill="#A1887F" /><path d="M618.666667 576m-21.333334 0a21.333333 21.333333 0 1 0 42.666667 0 21.333333 21.333333 0 1 0-42.666667 0Z" fill="#263238" /><path d="M405.333333 576m-21.333333 0a21.333333 21.333333 0 1 0 42.666667 0 21.333333 21.333333 0 1 0-42.666667 0Z" fill="#263238" /><path d="M533.333333 874.666667h-42.666666l-21.333334-42.666667h85.333334l-21.333334 42.666667z" fill="#263238" /></svg>