<?xml version="1.0" standalone="no"?><!DOCTYPE svg PUBLIC "-//W3C//DTD SVG 1.1//EN" "http://www.w3.org/Graphics/SVG/1.1/DTD/svg11.dtd"><svg class="icon" width="200px" height="200.00px" viewBox="0 0 1024 1024" version="1.1" xmlns="http://www.w3.org/2000/svg"><path d="M810.346667 704l-85.333334-128-21.333333-42.666667-85.333333-42.666666s-106.666667-2.517333-106.666667-64c0-94.912-85.333333-128-85.333333-128L320 256s-31.061333-42.666667-85.333333-42.666667-128 64-128 64v618.666667s71.296-20.352 121.258666-77.418667c13.461333 7.466667 30.208 13.418667 49.408 13.418667 44.394667 0 94.570667-50.944 106.666667-64 43.797333 43.882667 117.610667 106.666667 213.013333 106.666667C658.922667 874.666667 704 832 704 832l42.346667 42.666667c72.661333-49.664 64-170.666667 64-170.666667z" fill="#78909C" /><path d="M362.666667 106.666667s85.333333 38.229333 85.333333 106.666666-42.666667 128-42.666667 128-106.666667-4.437333-106.666666-85.333333c0-56 64-91.562667 64-149.333333z" fill="#78909C" /><path d="M576 597.333333a42.666667 42.666667 0 1 1-85.312 0.021334A42.666667 42.666667 0 0 1 576 597.333333z m-290.944 55.146667a353.92 353.92 0 0 1-5.589333-12.544C248.768 567.594667 192 512 192 512s64 112.448 64 192c0 80-25.685333 111.018667-28.074667 114.581333 13.461333 7.466667 30.208 13.418667 49.408 13.418667 44.394667 0 94.570667-50.944 106.666667-64-28.437333-29.333333-42.666667-85.333333-42.666667-85.333333s-30.101333 7.189333-56.277333-30.186667zM597.333333 768c0 55.104 46.016 70.485333 59.946667 93.461333C686.037333 848.938667 704 832 704 832c-34.666667-33.770667-72.896-15.104-106.666667-64zM256.106667 215.786667C257.386667 327.104 341.333333 362.666667 341.333333 362.666667s-42.282667-60.821333-42.645333-127.168a110.016 110.016 0 0 0-42.581333-19.712z" fill="#546E7A" /><path d="M874.666667 341.333333s42.666667 69.290667 42.666666 170.666667-106.666667 192-106.666666 192c-50.197333-30.058667-85.333333-63.466667-85.333334-128 0 0 149.333333-31.701333 149.333334-234.666667z m-170.666667 192c41.749333-50.474667 0-149.333333 0-149.333333s-38.442667 76.138667-85.333333 106.666667c0 0 20.16 42.666667 85.333333 42.666666z" fill="#B0BEC5" /><path d="M533.333333 597.333333m-21.333333 0a21.333333 21.333333 0 1 0 42.666667 0 21.333333 21.333333 0 1 0-42.666667 0Z"  /><path d="M746.666667 768a21.333333 21.333333 0 1 1-42.666667 0 21.333333 21.333333 0 0 1 42.666667 0zM362.666667 256c-11.776 0-21.333333 9.557333-21.333334 21.333333s21.333333 64 21.333334 64 21.333333-52.224 21.333333-64-9.557333-21.333333-21.333333-21.333333z" fill="#37474F" /></svg>