<?xml version="1.0" standalone="no"?><!DOCTYPE svg PUBLIC "-//W3C//DTD SVG 1.1//EN" "http://www.w3.org/Graphics/SVG/1.1/DTD/svg11.dtd"><svg t="1704611037471" class="icon" viewBox="0 0 1208 1024" version="1.1" xmlns="http://www.w3.org/2000/svg" p-id="1940" xmlns:xlink="http://www.w3.org/1999/xlink" width="235.9375" height="200"><path d="M620.466 560.418a20.016 20.016 0 0 1 14.095 34.393c-61.739 60.048-142.507 84.575-228.068 109.524a909.033 909.033 0 0 0-160.128 58.78 243.997 243.997 0 0 0-105.154 95.568c53.987-33.407 144.904-81.191 232.439-89.085l22.835-2.114c125.31-10.995 280.364-24.668 420.334-129.399s59.484-262.603 56.383-269.369l-5.78-11.135 7.612-10.008c23.963-31.716 81.05-124.043 57.37-171.545-11.84-23.117-44.12-34.817-94.582-34.817-131.513 0-164.497 162.242-165.907 169.149l-1.55 8.74-7.471 4.51a574.26 574.26 0 0 0-135.601 124.465c-55.114 75.271-84.574 119.532-84.574 119.955l-2.678 3.242-122.07 118.686c25.514-8.74 51.45-16.492 76.822-24.104 80.628-23.963 156.886-46.657 211.436-99.798a20.157 20.157 0 0 1 14.237-5.638z" p-id="1941"></path><path d="M998.23 253.977h-65.685a18.324 18.324 0 0 1 0-36.508h65.686a18.324 18.324 0 0 1 0 36.508z m-393.27 628.81a18.324 18.324 0 0 1-15.505-8.599L516.44 757.335a18.324 18.324 0 0 1 31.01-19.311l73.017 116.853a18.043 18.043 0 0 1-5.78 25.09 17.338 17.338 0 0 1-9.726 2.82z" p-id="1942"></path></svg>