<?xml version="1.0" standalone="no"?><!DOCTYPE svg PUBLIC "-//W3C//DTD SVG 1.1//EN" "http://www.w3.org/Graphics/SVG/1.1/DTD/svg11.dtd"><svg class="icon" width="200px" height="200.00px" viewBox="0 0 1024 1024" version="1.1" xmlns="http://www.w3.org/2000/svg"><path d="M330.1 745.6c-27.2 35.9 13.5 550 71.6 32.2l-71.6-32.2z" fill="#F4BF56" /><path d="M351.5 1017.6c-4.3 0-10-1.8-15.1-9.6-6.2-9.5-11.3-27.7-15.6-55.6-3.6-23.2-6.4-52.6-8-82.6-1.5-29.4-1.7-57.9-0.5-80.2 1.9-35.6 6.5-45.6 9.9-50l4.8-6.4 85.6 38.4-0.8 7.2C403 857.4 394 917 385.1 956c-7.8 34.2-15.9 57.7-30 61-1.1 0.4-2.3 0.6-3.6 0.6z m-15.9-258.5c-3.6 17-5.9 59.2-2.5 117.5 1.8 30.7 4.9 59.7 8.8 81.6 3.8 21.7 7.5 31.9 9.8 36.6 3-5.3 8.5-18.5 15.2-50 7.9-37 16-91.1 24-160.8l-55.3-24.9z"  /><path d="M687.1 745.6c27.2 35.9-13.5 550-71.6 32.2l71.6-32.2z" fill="#F4BF56" /><path d="M665.7 1017.6c-1.3 0-2.5-0.2-3.5-0.4-14.1-3.3-22.2-26.8-30-61-8.9-39-17.9-98.6-26.7-177.2l-0.8-7.2 85.6-38.4 4.8 6.4c3.4 4.4 8 14.5 9.9 50 1.2 22.3 1 50.8-0.5 80.2-1.3 25.9-6.9 112.6-23.6 138.1-5.2 7.7-10.9 9.5-15.2 9.5zM626.2 784c8 69.7 16 123.8 24 160.8 6.8 31.5 12.2 44.6 15.2 49.9 2.3-4.6 6-14.9 9.8-36.6 3.9-21.9 7-50.9 8.8-81.6 3.4-58.3 1.1-100.5-2.5-117.5l-55.3 25z"  /><path d="M156.7 413.4a351.9 394.4 0 1 0 703.8 0 351.9 394.4 0 1 0-703.8 0Z" fill="#64666D" /><path d="M508.6 817.8c-49 0-96.5-10.8-141.2-32-43.1-20.4-81.8-49.7-115-86.9-33.1-37.1-59.1-80.4-77.3-128.5-18.8-49.8-28.3-102.6-28.3-157 0-54.5 9.5-107.3 28.3-157 18.2-48.1 44.2-91.3 77.3-128.5 33.2-37.2 71.9-66.5 115-86.9 44.7-21.2 92.2-32 141.2-32 49 0 96.5 10.8 141.2 32 43.1 20.4 81.8 49.7 115 86.9C798 165 824 208.2 842.1 256.3c18.8 49.8 28.3 102.6 28.3 157 0 54.5-9.5 107.3-28.3 157-18.2 48.1-44.2 91.3-77.3 128.5-33.2 37.2-71.9 66.5-115 86.9-44.7 21.3-92.2 32.1-141.2 32.1z m0-788.8c-91.1 0-176.8 39.8-241.3 112.2-31.5 35.3-56.2 76.4-73.5 122.2-17.9 47.5-27 98-27 150s9.1 102.5 27 150c17.3 45.8 42 86.9 73.5 122.2 64.5 72.3 150.2 112.2 241.3 112.2 91.1 0 176.8-39.8 241.3-112.2 31.5-35.3 56.2-76.4 73.5-122.2 17.9-47.5 27-98 27-150s-9.1-102.5-27-150c-17.3-45.8-42-86.9-73.5-122.2C685.4 68.8 599.7 29 508.6 29z" fill="#070707" /><path d="M349.7 319.6m-61.8 0a61.8 61.8 0 1 0 123.6 0 61.8 61.8 0 1 0-123.6 0Z"  /><path d="M335.1 311.2m-28 0a28 28 0 1 0 56 0 28 28 0 1 0-56 0Z" fill="#FFFFFF" /><path d="M363.1 351.4m-13.4 0a13.4 13.4 0 1 0 26.8 0 13.4 13.4 0 1 0-26.8 0Z" fill="#FFFFFF" /><path d="M667.5 319.6m-61.8 0a61.8 61.8 0 1 0 123.6 0 61.8 61.8 0 1 0-123.6 0Z"  /><path d="M652.9 311.2m-28 0a28 28 0 1 0 56 0 28 28 0 1 0-56 0Z" fill="#FFFFFF" /><path d="M680.9 351.4m-13.4 0a13.4 13.4 0 1 0 26.8 0 13.4 13.4 0 1 0-26.8 0Z" fill="#FFFFFF" /><path d="M484.1 446h-0.4c-5.4-0.2-9.7-4.8-9.6-10.2-1.1-4.4-15-14.7-28.9-21.4-5-2.4-7.1-8.4-4.7-13.3 2.4-5 8.4-7.1 13.3-4.7 0.4 0.2 9.6 4.6 18.8 10.9 14.8 10.1 21.8 19.6 21.4 29.1-0.1 5.4-4.6 9.6-9.9 9.6zM533.1 446c-5.3 0-9.8-4.2-10-9.6-0.4-9.5 6.6-19 21.4-29.1 9.2-6.3 18.4-10.7 18.8-10.9 5-2.4 11-0.3 13.3 4.7 2.4 5 0.3 10.9-4.7 13.3-13.8 6.7-27.8 17-28.9 21.4 0.1 5.4-4.1 10-9.6 10.2h-0.3z"  /><path d="M266.6 834.5c31.7 0 60.2-19 77.3-48.5 34.9-60 95.5-99.8 164.6-99.8S638.4 726 673.2 786c17.1 29.5 45.7 48.5 77.3 48.5h5.9c71.1 0 115.6-86.6 78.3-153.7-67.4-121.3-188.3-202.1-326.1-202.1s-258.7 80.8-326.1 202.1c-37.3 67.1 7.3 153.7 78.3 153.7h5.8z" fill="#FFFFFF" /><path d="M756.4 844.5h-5.9c-34.4 0-66.5-20-86-53.5-34.5-59.3-92.8-94.8-156-94.8S387 731.6 352.5 791c-19.4 33.5-51.6 53.5-86 53.5h-5.9c-34.7 0-66.6-19.1-85.4-51.1-21.2-36.1-21.9-81.1-1.7-117.4 34.5-62.1 82.9-114 140-150.1 59-37.4 126.4-57.1 194.8-57.1s135.8 19.8 194.8 57.1c57.1 36.2 105.5 88.1 140 150.1 20.2 36.3 19.6 81.3-1.7 117.4-18.4 32-50.4 51.1-85 51.1zM508.6 676.3c70.4 0 135.2 39.2 173.3 104.7 15.8 27.2 41.5 43.5 68.7 43.5h5.9c27.9 0 52.7-15 68.2-41.2 17.7-30 18.2-67.4 1.4-97.6-32.9-59.1-79-108.6-133.3-142.9-55.8-35.3-119.5-54-184.1-54s-128.3 18.7-184.1 54c-54.3 34.4-100.4 83.8-133.3 142.9-16.8 30.2-16.2 67.6 1.4 97.6 15.4 26.2 40.3 41.2 68.2 41.2h5.9c27.2 0 52.8-16.3 68.7-43.5 37.9-65.6 102.7-104.7 173.1-104.7z" fill="#070707" /><path d="M508.6 697.6c-5.5 0-10-4.5-10-10V478.7c0-5.5 4.5-10 10-10s10 4.5 10 10v208.9c0 5.5-4.5 10-10 10z" fill="#070707" /><path d="M301.9 642.6m-14 0a14 14 0 1 0 28 0 14 14 0 1 0-28 0Z"  /><path d="M335.1 701.6m-14 0a14 14 0 1 0 28 0 14 14 0 1 0-28 0Z"  /><path d="M260.3 701.6m-14 0a14 14 0 1 0 28 0 14 14 0 1 0-28 0Z"  /><path d="M213.5 745.6m-14 0a14 14 0 1 0 28 0 14 14 0 1 0-28 0Z"  /><path d="M287.9 773.7m-14 0a14 14 0 1 0 28 0 14 14 0 1 0-28 0Z"  /><path d="M680.9 628.6m-14 0a14 14 0 1 0 28 0 14 14 0 1 0-28 0Z"  /><path d="M680.9 701.6m-14 0a14 14 0 1 0 28 0 14 14 0 1 0-28 0Z"  /><path d="M743.3 642.6m-14 0a14 14 0 1 0 28 0 14 14 0 1 0-28 0Z"  /><path d="M771.3 701.6m-14 0a14 14 0 1 0 28 0 14 14 0 1 0-28 0Z"  /><path d="M757.3 773.7m-14 0a14 14 0 1 0 28 0 14 14 0 1 0-28 0Z"  /></svg>