<?xml version="1.0" standalone="no"?><!DOCTYPE svg PUBLIC "-//W3C//DTD SVG 1.1//EN" "http://www.w3.org/Graphics/SVG/1.1/DTD/svg11.dtd"><svg class="icon" width="200px" height="200.00px" viewBox="0 0 1024 1024" version="1.1" xmlns="http://www.w3.org/2000/svg"><path d="M501.44 663.26l-141.696-18.364c2.156 45.256 28.592 87.864 72.416 108.572a126.028 126.028 0 0 0 78.2 9.812c-16.196-29.96-20.172-66.076-8.92-100.02z" fill="#8479B9" /><path d="M479.324 753.468c-41.82-19.764-67.752-59.476-71.912-102.396l-47.668-6.18c2.156 45.256 28.592 87.864 72.416 108.572a126.016 126.016 0 0 0 77.664 9.896 126.32 126.32 0 0 1-30.5-9.892z" fill="#E8E6F4" /><path d="M362.736 354.044l155.832-1.232 0.004-194.792c-0.004 0-155.836 77.916-155.836 196.024z" fill="#8479B9" /><path d="M518.568 181.604v-23.584S362.736 235.936 362.736 354.044l38.96-0.308c0.184-79.416 70.776-140.62 116.872-172.132z" fill="#E8E6F4" /><path d="M932.944 865.98s11.304-88.424-41.004-163.772a174.328 174.328 0 0 0 23.38-87.396c0-53.896-21.272-108.892-55.708-145.124-62.184-65.42-140-115.504-367.032-115.504l-382.544-0.132a20 20 0 0 0-20.008 20v56.676c0 77.916 197.256 232.516 389.584 232.516 140.464 0 263.844-35.436 334.556-88.9 16.068 32.156 9.512 65.476-3.292 96.032-70.456-14.636-127.904 20.184-127.904 20.184l147.264 38.132 102.708 137.288z" fill="#8479B9" /><path d="M128.984 430.728V354.06l-18.952-0.008a20 20 0 0 0-20.008 20v56.676h38.96zM479.612 663.244c140.464 0 263.844-35.436 334.556-88.9 0 0-119.556 26.3-256.64 12.216-68.312-7.02-135.304-41.596-170.128-62.256a50.304 50.304 0 0 1-24.664-43.28c0-27.78-22.52-50.296-50.296-50.296H90.028c0 77.92 197.256 232.516 389.584 232.516z" fill="#E8E6F4" /><path d="M486.032 777.644c-20.268 0-40.292-4.488-58.996-13.324a138.476 138.476 0 0 1-79.276-118.852l23.976-1.14a114.512 114.512 0 0 0 65.556 98.296c17.476 8.256 36.348 11.928 55.324 10.828-11.672-29.94-12.712-63.352-2.564-93.964l22.78 7.552c-9.872 29.776-6.924 62.776 8.084 90.54a12.008 12.008 0 0 1-8.264 17.484 139.56 139.56 0 0 1-26.62 2.58zM155.648 533.656l-16.328-17.584 59.416-55.172a12 12 0 0 1 13.532-1.94l70.18 35.088 32.844-32.84 16.968 16.968-38.956 38.96a12 12 0 0 1-13.852 2.248l-70.48-35.24-53.324 49.512zM374.736 354.044h-24c0-51.844 28.356-104.168 81.996-151.316 39.668-34.868 78.824-54.62 80.472-55.44a11.992 11.992 0 0 1 17.368 10.732l-0.004 194.792h-24l0.004-174.216c-39.352 23.824-131.836 89.02-131.836 175.448z" fill="#44294F" /><path d="M932.944 877.98a11.996 11.996 0 0 1-9.608-4.812l-100.188-133.916-143.184-37.076a11.996 11.996 0 0 1-3.212-21.88c2.396-1.452 57.036-33.936 126.548-23.464 8.924-24.464 10.684-45.208 5.34-63.816-76.768 51.688-198.156 82.224-329.032 82.224-88.064 0-187.756-32.448-273.524-89.024-77.792-51.316-128.06-112.352-128.06-155.496V374.052c0-8.552 3.328-16.588 9.376-22.632a31.784 31.784 0 0 1 22.624-9.368h0.012l382.544 0.132c242.128 0 318.38 58.904 375.728 119.236 36.948 38.876 59.012 96.22 59.012 153.392 0 30.244-7.36 60.084-21.348 86.784 49.584 76.712 39.348 162.208 38.876 165.908a12 12 0 0 1-11.904 10.476z m-212.924-190.224l113.224 29.32c2.64 0.684 4.968 2.248 6.6 4.428l81.672 109.168c-1.72-31.16-9.772-78.9-39.432-121.62a12 12 0 0 1-0.536-12.84 163.072 163.072 0 0 0 21.772-81.4c0-50.408-20.084-102.844-52.412-136.856-98.112-103.22-225.484-111.768-358.332-111.768l-382.548-0.132h-0.004a7.96 7.96 0 0 0-5.656 2.34c-1.512 1.512-2.344 3.52-2.344 5.66v56.676c0 69.316 189.548 220.516 377.584 220.516 133.344 0 255.708-32.328 327.32-86.472a12.012 12.012 0 0 1 17.972 4.208c15.18 30.38 14.212 65.064-2.96 106.032a11.996 11.996 0 0 1-13.508 7.112c-34.776-7.224-66.452-1.38-88.412 5.628z" fill="#44294F" /><path d="M817.772 512.804a114.844 114.844 0 0 0-1.644-1.772c-39.436-41.492-85.992-79.78-220.772-92.504l2.256-23.896c142.928 13.496 194.912 56.732 235.908 99.86 0.672 0.708 1.344 1.432 2.012 2.168l-17.76 16.144zM556.908 415.752c-20.008-1.04-41.656-1.564-64.344-1.564v-24c23.096 0 45.164 0.536 65.584 1.596l-1.24 23.968z" fill="#44294F" /><path d="M401.692 430.728m-19.48 0a19.48 19.48 0 1 0 38.96 0 19.48 19.48 0 1 0-38.96 0Z" fill="#44294F" /><path d="M479.608 675.248c-88.064 0-187.756-32.448-273.524-89.024-77.792-51.316-128.06-112.352-128.06-155.496a12 12 0 0 1 12-12h222.412c34.352 0 62.296 27.944 62.296 62.296 0 13.456 7.2 26.084 18.784 32.96 33.248 19.724 98.916 53.828 165.236 60.64 133.416 13.7 251.66-11.74 252.84-12a12 12 0 1 1 9.812 21.292c-75.636 57.188-203.408 91.332-341.796 91.332z m-375.928-232.52c18.96 73.316 198.116 208.516 375.928 208.516 105.404 0 203.936-20.196 275.98-55.404-48.4 5.852-120.676 10.736-199.288 2.656-70.888-7.284-140.084-43.144-175.024-63.872-18.84-11.176-30.544-31.716-30.544-53.6 0-21.116-17.18-38.296-38.296-38.296H103.68z" fill="#44294F" /></svg>