<?xml version="1.0" standalone="no"?><!DOCTYPE svg PUBLIC "-//W3C//DTD SVG 1.1//EN" "http://www.w3.org/Graphics/SVG/1.1/DTD/svg11.dtd"><svg class="icon" width="200px" height="200.00px" viewBox="0 0 1024 1024" version="1.1" xmlns="http://www.w3.org/2000/svg"><path d="M234.666667 576m-85.333334 0a85.333333 85.333333 0 1 0 170.666667 0 85.333333 85.333333 0 1 0-170.666667 0Z" fill="#B0BEC5" /><path d="M469.333333 661.333333m-85.333333 0a85.333333 85.333333 0 1 0 170.666667 0 85.333333 85.333333 0 1 0-170.666667 0Z" fill="#B0BEC5" /><path d="M341.333333 640m-85.333333 0a85.333333 85.333333 0 1 0 170.666667 0 85.333333 85.333333 0 1 0-170.666667 0Z" fill="#B0BEC5" /><path d="M597.333333 640m-85.333333 0a85.333333 85.333333 0 1 0 170.666667 0 85.333333 85.333333 0 1 0-170.666667 0Z" fill="#B0BEC5" /><path d="M192 533.333333m-42.666667 0a42.666667 42.666667 0 1 0 85.333334 0 42.666667 42.666667 0 1 0-85.333334 0Z" fill="#CFD8DC" /><path d="M298.666667 554.666667m-85.333334 0a85.333333 85.333333 0 1 0 170.666667 0 85.333333 85.333333 0 1 0-170.666667 0Z" fill="#CFD8DC" /><path d="M426.666667 576m-85.333334 0a85.333333 85.333333 0 1 0 170.666667 0 85.333333 85.333333 0 1 0-170.666667 0Z" fill="#CFD8DC" /><path d="M576 576m-85.333333 0a85.333333 85.333333 0 1 0 170.666666 0 85.333333 85.333333 0 1 0-170.666666 0Z" fill="#CFD8DC" /><path d="M768 512s-1.557333 0.042667-3.797333 0.448A63.786667 63.786667 0 0 0 704 469.333333c-7.317333 0-14.229333 1.493333-20.778667 3.754667 9.6-8.917333 16.597333-20.586667 19.370667-33.813333A84.970667 84.970667 0 0 0 661.333333 512a85.333333 85.333333 0 0 0 170.666667 0c0-0.64-0.170667-1.237333-0.192-1.856C803.690667 512 777.450667 512 768 512zM746.666667 320c0-16.064-6.144-30.592-15.936-41.834667a221.866667 221.866667 0 0 1 57.664 11.242667C783.722667 246.698667 747.968 213.333333 704 213.333333a85.333333 85.333333 0 0 0-85.333333 85.333334c0 42.944 31.850667 78.144 73.152 84.096C722.752 378.282667 746.666667 352.170667 746.666667 320z" fill="#CFD8DC" /><path d="M640 426.666667m-64 0a64 64 0 1 0 128 0 64 64 0 1 0-128 0Z" fill="#CFD8DC" /><path d="M704 533.333333m-64 0a64 64 0 1 0 128 0 64 64 0 1 0-128 0Z" fill="#CFD8DC" /><path d="M682.666667 320m-64 0a64 64 0 1 0 128 0 64 64 0 1 0-128 0Z" fill="#CFD8DC" /><path d="M234.666667 341.333333m-85.333334 0a85.333333 85.333333 0 1 0 170.666667 0 85.333333 85.333333 0 1 0-170.666667 0Z" fill="#CFD8DC" /><path d="M597.333333 234.666667m-85.333333 0a85.333333 85.333333 0 1 0 170.666667 0 85.333333 85.333333 0 1 0-170.666667 0Z" fill="#CFD8DC" /><path d="M704 576m-85.333333 0a85.333333 85.333333 0 1 0 170.666666 0 85.333333 85.333333 0 1 0-170.666666 0Z" fill="#CFD8DC" /><path d="M192 448m-85.333333 0a85.333333 85.333333 0 1 0 170.666666 0 85.333333 85.333333 0 1 0-170.666666 0Z" fill="#CFD8DC" /><path d="M341.333333 256m-85.333333 0a85.333333 85.333333 0 1 0 170.666667 0 85.333333 85.333333 0 1 0-170.666667 0Z" fill="#CFD8DC" /><path d="M469.333333 213.333333m-85.333333 0a85.333333 85.333333 0 1 0 170.666667 0 85.333333 85.333333 0 1 0-170.666667 0Z" fill="#CFD8DC" /><path d="M213.333333 341.333333v170.666667l213.333334 106.666667 362.666666-149.333334v-106.666666l-384-149.333334z" fill="#CFD8DC" /><path d="M298.666667 640a84.373333 84.373333 0 0 1-62.378667-27.690667c9.109333 81.109333 14.741333 202.581333 24.938667 252.949334 6.229333 32.448 13.546667 30.912 20.522666 30.912h17.109334c13.504 0 12.885333-44.608 12.885333-44.608s2.752-100.309333 18.432-217.984c-9.728 4.053333-20.309333 6.421333-31.509333 6.421333zM627.669333 643.413333A83.754667 83.754667 0 0 1 576 661.333333a83.648 83.648 0 0 1-36.416-8.426666c5.696 82.624 20.629333 184.256 27.712 220.586666 4.373333 23.424 10.368 22.4 16.277333 22.4h22.101334c11.114667 0 11.968-32.448 11.968-32.448s-1.109333-130.453333 10.026666-220.032z" fill="#8D6E63" /><path d="M933.333333 426.709333s-80-106.666667-122.666666-128c-28.906667-14.464-57.664-19.050667-79.936-20.544 9.792 11.242667 15.936 25.770667 15.936 41.834667a63.786667 63.786667 0 0 1-59.648 63.552c10.432 11.392 16.981333 26.453333 16.981333 43.114667 0 18.474667-8.213333 34.752-20.778667 46.421333A63.36 63.36 0 0 1 704 469.333333a63.786667 63.786667 0 0 1 60.202667 43.114667C766.442667 512.042667 768 512 768 512c21.333333 0 128 0 149.333333-21.333333 42.666667-42.709333 16-63.957333 16-63.957334z" fill="#795548" /><path d="M789.333333 362.666667m-42.666666 0a42.666667 42.666667 0 1 0 85.333333 0 42.666667 42.666667 0 1 0-85.333333 0Z" fill="#4E342E" /><path d="M769.962667 362.666667a31.637333 31.637333 0 0 0-1.962667 10.666666 32 32 0 1 0 64 0c0-3.754667-0.768-7.317333-1.962667-10.666666h-60.074666z" fill="#FFC107" /><path d="M800 384a21.333333 21.333333 0 0 0 21.333333-21.333333h-42.666666a21.333333 21.333333 0 0 0 21.333333 21.333333z"  /><path d="M724.288 658.624A83.541333 83.541333 0 0 1 704 661.333333c-7.338667 0-14.336-1.216-21.12-2.965333-0.853333 0.256-1.706667 0.554667-2.56 0.789333a84.970667 84.970667 0 0 1-31.146667 48.192 1791.914667 1791.914667 0 0 0 35.84 164.266667c6.741333 25.493333 12.672 24.277333 18.56 24.277333h22.122667c11.136 0 9.024-35.136 9.024-35.136s-12.053333-108.586667-10.432-202.133333zM682.666667 277.333333s-111.850667-3.413333-125.333334 10.090667c-13.461333 13.482667 26.965333 53.909333 67.413334 53.909333 40.448 0 30.933333-21.333333 57.92-21.333333M403.776 715.349333a86.784 86.784 0 0 1-7.616-10.773333c-14.848 12.693333-33.749333 20.757333-54.826667 20.757333-2.026667 0-3.946667-0.448-5.930666-0.597333 13.952 61.845333 30.677333 115.264 38.442666 145.557333 6.762667 27.264 12.693333 25.834667 18.581334 25.834667h25.941333c6.549333 0 4.586667-31.744 4.586667-31.744s-16.896-65.130667-19.178667-149.034667zM149.333333 533.333333c0-3.818667 0.661333-7.445333 1.6-10.965333a85.418667 85.418667 0 0 1-8.597333-5.226667c-15.04 29.568-50.645333 53.077333-66.581333 61.12a21.333333 21.333333 0 0 0 19.114666 38.165334 246.186667 246.186667 0 0 0 54.570667-39.36c0-0.384-0.106667-0.704-0.106667-1.066667 0-8.746667 1.450667-17.109333 3.925334-25.024A42.133333 42.133333 0 0 1 149.333333 533.333333z" fill="#5D4037" /><path d="M661.333333 298.666667a21.333333 21.333333 0 1 1 42.666667 0 21.333333 21.333333 0 1 1-42.666667 0z" fill="#5D4037" /></svg>