<?xml version="1.0" ?><!DOCTYPE svg  PUBLIC '-//W3C//DTD SVG 1.1//EN'  'http://www.w3.org/Graphics/SVG/1.1/DTD/svg11.dtd'><svg enable-background="new 0 0 50 50" id="Layer_1" version="1.1" viewBox="0 0 50 50" xml:space="preserve" xmlns="http://www.w3.org/2000/svg" xmlns:xlink="http://www.w3.org/1999/xlink"><g><path d="M19.1,34.3c0.1,0.4,1,0.6,1.4,0.7c0.3,0.1,0.6,0.1,0.9,0.3s0.4,0.5,0.2,0.8c-0.7,0-1.5-0.3-2.1-0.7   c-0.7-0.5-0.8-0.6-1.5-0.2c-1.6,0.8-1.8-0.4-2.3-0.4c-0.2,0-0.4,0.1-0.5,0.1c-0.2-0.1-0.2-0.4-0.1-0.5c0.6-0.6,1.3,1.2,2.3,0   c1.4-1.6,2.5-3.4,3.7-5.2c0.5-0.8,1-1.6,1.3-2.6c0,0.1,1.3,0.1,1,0.7c-0.2,0.4,0.2-0.4-3,4.9C19.1,34,19,34.1,19.1,34.3z" fill="#A58879"/><path d="M14.7,34.6c-0.2,0.2-0.1,0.5-0.3,0.7c-0.4-0.4-0.1-1,0.3-1.2c0.5-0.2,0.8,0.2,0.7,0.4   C15.4,34.7,15,34.4,14.7,34.6z" fill="#D1AC99"/><path d="M21.1,35.9c0.3-0.1,0.6,0.1,0.8,0.3c0.3,0.3,0.2,0.7,0.3,0.7c0.2,0.2,0.4-0.5,0-1.1   C22.1,35.7,21.2,35,21.1,35.9z" fill="#D1AC99"/><path d="M22.9,37c0.3,0.1,0.6,0.1,0.9,0.3s0.4,0.5,0.2,0.8c-2.4-0.1-2.1-1.7-3.6-0.9c-0.3,0.1-0.6,0.3-0.9,0.3   c-0.3,0-0.6-0.1-0.9-0.3c-0.2-0.2-0.3-0.4-0.5-0.4c-0.2,0-0.4,0.1-0.5,0.1c-0.4-0.1-0.1-0.8,0.5-0.6c0.2,0.1,0.4,0.2,0.5,0.3   c0.2,0.1,0.4,0.2,0.6,0.2c0.2,0,0.4-0.2,0.6-0.4c1.3-1.4,4.5-6,4.9-7.7c0,0.1,1.3,0.1,1,0.7c-0.2,0.6-0.7,1.1-1,1.6   c-0.7,1.1-1.3,2.2-2,3.2C21.5,36.2,20.8,36.6,22.9,37z" fill="#AF9180"/><path d="M17.2,36.7c-0.2,0.2-0.1,0.5-0.3,0.7c-0.4-0.4-0.1-1,0.3-1.2c0.5-0.2,0.8,0.2,0.7,0.4   C17.8,36.8,17.5,36.4,17.2,36.7z" fill="#D1AC99"/><path d="M23.7,37.4c-0.2,0.1-0.2,0.3-0.2,0.5c0.3-0.1,0.8,0.1,1,0.7c0,0.1,0.1,0.3,0.1,0.4c0.2,0.2,0.4-0.5,0-1.1   C24.3,37.4,23.9,37.3,23.7,37.4z" fill="#D1AC99"/><path d="M47.8,31.9l-6.4-2.2c-1.9-0.6-2.6,0-7.1,0.3c-0.6,0-1.3,0.2-1.9,0.5c-2.1,1-7.4,3-11.6,1.2   c0,0-10.4-3.2-11.8-7.8c0-0.1-2.6-6.8-2.5-6.4l-0.1-0.8l-0.4-2.9C6.3,13.6,9,9.1,15,11.9c0.1,0,4.1,1.7,3.9,1.6   c5.1,1.5,11.3,6,15.5,9.3c0.9,0.5,5.5,2.7,3.2,2.3l-2-0.5c0,0,0.2,0.2,0.7,0.6h0c2.3,1.6,4.5,1.9,5.8,2.4l6,2.5   C48.1,30.1,50.3,31.8,47.8,31.9z" fill="#BCBBBB"/><path d="M47.8,31.9c-6-2-6.6-2.4-7.9-2.5c-1.8-1.1-4.3-1.1-5.8-2.7c-1.2-1.3-1.4-3.7-1.1-4.9   c2.9,2.1,1.4,0.9,4.5,2.7c0,0,1.2,0.8-0.1,0.5l-2-0.5c0,0,0.2,0.2,0.7,0.6h0c2.3,1.6,4.5,1.9,5.8,2.4l6,2.5   C48.1,30.1,50.3,31.8,47.8,31.9z" fill="#914A2C"/><path d="M24.8,16.2c-2.4,2.8-7.2,1.2-10.6,0.4c-0.1,0-0.3-0.1-0.4-0.1c-0.3-0.2-0.3-0.6-0.2-0.9   c0.3-2.7-2.3,0.4-5.1-3.9c3.9-1.9,7.4,1,10.9,2.1C19.4,13.8,21.3,14.3,24.8,16.2z" fill="#A55E37"/><path d="M11,15.3c-0.8,0.5-1.9,0.1-2.7,0.6c-0.4,0.2-0.7,0.8-0.5,1.2c0.1,0.4,0.5,0.6,0.8,0.9   c0.4,0.6,0.4,1.6-0.7,2.5l-1.2-3l-0.5-3.7c0,0,1.3-2.2,4.1-2.7c0,0.1,0,0.2,0,0.2c-0.5,2.3,1,1.8,1.4,2.8   C11.7,14.6,11.4,15.1,11,15.3z" fill="#3F3F3F"/><path d="M17.5,13c-1.6,1.6-5-2.5-9.5,1.6c-0.6,0.6-1.1,1.3-1.6,2l-0.4-2.9C6.3,13.6,9,9.1,15,11.9   L17.5,13z" fill="#FFFFFF" opacity="0.1"/><path d="M37.5,25.1l-2-0.5c0,0,0.2,0.2,0.7,0.6c-14.2-2.6-17.1-3.1-18.9-6c-0.7-1-0.4-2.4,0.5-3.2   c0.6-0.6,1.2-1.4,1.1-2.5c1.8,0.5,4.3,1.8,6,2.7c2.6,1.5,5.9,3.7,9.5,6.6C35.2,23.4,39.8,25.6,37.5,25.1z" fill="#A05B38"/><path d="M30.5,19.9c-0.1,0.1-0.2,0.2-0.3,0.3c-0.1,0.1-0.4,0.1-0.5,0.3c-0.1,0.1,0,0.2,0,0.4   c-0.1,0.5-0.5,0.1-0.7,0.3c-0.2,0.1-0.1,0.4-0.4,0.5c-0.3,0.1-0.5-0.1-0.8-0.2c-0.3,0-0.3,0.3-0.5,0.4c-0.7,0.6-1.2,0.3-1.5,0.4   c-0.2,0.1-0.1,0.2-0.2,0.4c-0.1,0.1-0.2,0.2-0.3,0.3c-2.2-0.4-5.9-0.9-7.8-3.6c-0.1-0.1-0.1-0.1-0.2-0.2c-0.7-1-0.4-2.4,0.5-3.2   c0.6-0.6,1.2-1.4,1.1-2.5C22.6,14.6,27.3,17.6,30.5,19.9z" fill="#AA653F"/><path d="M27.4,19.4c-0.3,0-0.6-0.5-0.9-0.4c-0.3,0.1-0.5,0.4-0.7,0.4c-0.2-0.1-0.3-0.4-0.5-0.4   c-0.3,0-0.4,0.6-1,0.3C23.9,19,24,18.8,23.6,19c-0.9,0.5-0.8,0-1.2-0.1c-0.2,0-0.4,0.2-0.7,0.2c-0.3,0-0.6-0.3-0.9-0.2   c-0.3,0.1-0.6,0.4-0.9,0.5c-0.6,0.3-1.3,0.3-1.9,0.2c-0.3,0-0.5-0.1-0.7-0.2c-0.1-0.1-0.1-0.1-0.2-0.2c-0.7-1-0.4-2.4,0.5-3.2   c0.6-0.6,1.2-1.4,1.1-2.5c2.8,0.8,6.5,2.9,9,4.6C28.1,19,27.8,19.4,27.4,19.4z" fill="#B46F45"/><path d="M26.1,22.7c2.6,0.3,6.5,0.8,8.9,1.7C32,23.6,29,23.4,26.1,22.7z" opacity="0.1"/><path d="M27.5,22.3c2.9,0.4,5.8,1,8.6,1.7C33.2,23.5,30.3,23,27.5,22.3z" opacity="0.1"/><path d="M28.4,21.8c2.1,0.4,4.2,1,6.2,1.6C32.6,23,30.5,22.4,28.4,21.8z" opacity="0.1"/><path d="M29,21.3c1.7,0.4,3.3,0.9,4.9,1.6C32.2,22.5,30.6,22,29,21.3z" opacity="0.1"/><path d="M29.7,20.8c1.2,0.4,2.4,0.9,3.6,1.5C32,22,30.8,21.5,29.7,20.8z" opacity="0.1"/><path d="M30.1,20.4c0.8,0.2,1.6,0.6,2.3,1C31.6,21.2,30.8,20.9,30.1,20.4z" opacity="0.1"/><path d="M9.7,12.8c-2-0.7-2.9,1.8-0.9,2.5C10.8,16,11.7,13.5,9.7,12.8z" fill="#FFFFFF"/><path d="M9.6,13.1c-1.5-0.5-2.1,1.3-0.6,1.8C10.4,15.4,11.1,13.6,9.6,13.1z" fill="#282828"/><path d="M8.7,13.4c-0.1,0.4,0.5,0.6,0.7,0.2C9.4,13.5,8.8,13.1,8.7,13.4z" fill="#FFFFFF"/><path d="M24.2,16.3c0.8,0.4,1.5,1,2.3,1.4c12.4,6.3-2,6.9-8.4,1.2c-0.7-0.6-0.6-1-0.2-1.8   C19.3,14.3,19.3,13.6,24.2,16.3z" fill="#FFFFFF" opacity="0.1"/><path d="M37.5,29.7c-1.1,0.1-2.3,0.3-3.2,0.3c-0.6,0-1.3,0.2-1.9,0.5c-2.1,1-7.4,3-11.6,1.2   c0,0-10.4-3.2-11.8-7.8c0-0.1-2.1-5.3-1.9-5c1.7,1.2,2.4,3.2,3.5,4.9c2.5,3.7,7.1,5.5,11.5,5.9C31.1,30.3,36.7,27,37.5,29.7z" opacity="5.000000e-002"/><path d="M8,17.3c-0.2,0.2-0.4,0.2-0.6,0.4c-0.5,0.6,0.4,1.6-1.4,0.9c-4-1.5-5.7,1.1,0.2-3c0.3-0.2,0.6-0.1,0.9,0.1   c0.1,0.1,0.3,0.2,0.4,0.3c0.2,0.2,0.4,0.3,0.5,0.6C8.2,16.8,8.2,17.1,8,17.3z" fill="#D7933E"/><path d="M7.2,15.7c-0.8,1.9-3.7,1.9-4.7,2.4c0-0.2,0.1,0.1,3.8-2.5C6.6,15.4,6.9,15.5,7.2,15.7z" fill="#C17C38"/><path d="M6.8,12.8c0,0-1,0.2-1.4,0.4c-2.6,1.1-3.4,0.6-4.2,1c-1.3,0.7,4.5,1.9,5.9,2.2c0.2,0,0.7,0.2,0.9,0   c0.3-0.3-0.2-0.7-0.4-1C7.3,14.8,7.5,13.1,6.8,12.8z" fill="#D7933E"/><path d="M5.8,13.6c0.2-0.1,0.4-0.1,0.6,0c0.3,0.2,0.7,1,0.8,1.4c0.1,0.4,0,0.5-0.3,0.5   c-1.2,0.2-5.1-0.6-5.3-1.1C1.5,14.2,2.9,14.4,5.8,13.6z" fill="#FFFFFF" opacity="0.2"/></g></svg>