<?xml version="1.0" standalone="no"?><!DOCTYPE svg PUBLIC "-//W3C//DTD SVG 1.1//EN" "http://www.w3.org/Graphics/SVG/1.1/DTD/svg11.dtd"><svg class="icon" width="200px" height="200.00px" viewBox="0 0 1024 1024" version="1.1" xmlns="http://www.w3.org/2000/svg"><path d="M582.8 582.4c-40 40-104.8 40-144.8 0-0.8-0.8-1.6-1.8-2.6-2.6V658c0 29.2 23.8 53 53 53h43.8c29.2 0 53-23.8 53-53v-78.2c-0.6 1-1.4 1.8-2.4 2.6z" fill="#FE8E46" /><path d="M582.8 582.4c-40 40-104.8 40-144.8 0-0.8-0.8-1.6-1.8-2.6-2.6v47.2c0.8 0.8 1.6 1.8 2.6 2.6 40 40 104.8 40 144.8 0 0.8-0.8 1.6-1.8 2.6-2.6v-47.2c-0.8 1-1.6 1.8-2.6 2.6z" fill="#E56823" /><path d="M510.4 165.8l-124.6 87.2 54 56.8zM510.4 165.8l124.8 87.2-54 56.8z" fill="#FEFE71" /><path d="M596 340.2l-85.6-174.4-85.6 174.4c-11 16.6-16.8 36.2-16.8 56.2V510c0 27.2 10.8 53.2 30 72.4 40 40 104.8 40 144.8 0 19.2-19.2 30-45.2 30-72.4v-113.8c0-19.8-5.8-39.4-16.8-56z" fill="#FE8E46" /><path d="M513 589.2c-19.2-19.2-30-45.2-30-72.4v-113.8c0-20 5.8-39.4 16.8-56.2l49.8-101.4-39.2-79.6-85.6 174.4c-11 16.6-16.8 36.2-16.8 56.2V510c0 27.2 10.8 53.2 30 72.4 27.4 27.4 66.6 36 101.4 25.8-9.6-4.6-18.6-11-26.4-19z" fill="#E56823" /><path d="M510.4 626.4c-29.8 0-59.6-11.4-82.4-34-22-22-34-51.2-34-82.4v-113.8c0-22.4 6.4-44.2 18.6-63l85.2-173.6c2.4-4.8 7.2-7.8 12.6-7.8s10.2 3 12.6 7.8l85.2 173.6c12.2 18.8 18.6 40.6 18.6 63V510c0 31-12.2 60.4-34 82.4-22.8 22.6-52.6 34-82.4 34z m0-428.8l-73 148.8c-0.2 0.6-0.6 1-0.8 1.6-9.4 14.4-14.4 31.2-14.4 48.4V510c0 23.6 9.2 45.8 25.8 62.6 17.2 17.2 39.8 25.8 62.6 25.8 22.6 0 45.2-8.6 62.6-25.8 16.6-16.6 25.8-38.8 25.8-62.6v-113.8c0-17.2-5-34-14.4-48.4-0.4-0.4-0.6-1-0.8-1.6l-73.4-148.6z" fill="#463218" /><path d="M439.8 323.8c-3.8 0-7.4-1.6-10.2-4.4l-54-56.8c-2.8-3-4.2-7-3.8-11 0.4-4 2.6-7.8 6-10l124.6-87.2c5.2-3.6 12.2-3.4 17.2 0.8 4.8 4.2 6.2 11 3.4 16.8l-70.6 144c-2 4.2-6 7-10.4 7.6-0.8 0.2-1.6 0.2-2.2 0.2z m-32.6-68.6l29 30.4 37.8-77-66.8 46.6z" fill="#463218" /><path d="M581.2 323.8c-0.8 0-1.4 0-2.2-0.2-4.6-0.6-8.4-3.6-10.4-7.6L498 172c-2.8-5.8-1.4-12.6 3.4-16.8 4.8-4.2 11.8-4.6 17.2-0.8l124.6 87.2c3.4 2.4 5.6 6 6 10 0.4 4-1 8-3.8 11l-54 56.8c-2.8 2.8-6.4 4.4-10.2 4.4z m-34.2-115.2l37.8 77 29-30.4-66.8-46.6zM532.4 725h-43.8c-37 0-67-30-67-67v-78.2c0-5.8 3.6-11 8.8-13 5.4-2.2 11.4-0.8 15.4 3.4l0.2 0.2c0.6 0.6 1.2 1.4 2 2 34.4 34.4 90.6 34.4 125 0 0.6-0.6 1.2-1.4 2-2l0.2-0.2c4-4.2 10-5.6 15.4-3.4 5.4 2.2 8.8 7.2 8.8 13V658c0 37-30.2 67-67 67z m-82.8-115.8V658c0 21.6 17.6 39 39 39h43.8c21.6 0 39-17.6 39-39v-48.8c-37.2 23-84.6 23-121.8 0z" fill="#463218" /><path d="M385.2 812.8c-2 0-4.2 0-6.2-0.2-1.2-0.2-2.6-0.2-3.8-0.4-25-3.2-47.2-18.4-59.6-40.4l-24.2-43.4c-3.8-6.8-1.4-15.2 5.4-19 6.8-3.8 15.2-1.4 19 5.4l24.2 43.4c8 14.2 22.4 24 38.6 26.2 0.8 0.2 1.6 0.2 2.4 0.2 12.8 1 25.2-3.2 34.8-12 10-9.2 15.8-22.2 16-35.8l0.2-44.2c0-7.8 6.2-14 14-14s14 6.4 14 14l-0.2 44.2c-0.2 21.4-9.2 41.8-25 56.2-13.6 13-31.2 19.8-49.6 19.8z" fill="#463218" /><path d="M393.8 872.2c-13.4 0-26.4-3.8-38-11.2-28.4-18.2-40-54.2-27.8-85.6l23.2-59c2.8-7.2 11-10.8 18.2-7.8 7.2 2.8 10.8 11 7.8 18.2L354 785.8c-7.4 19-0.4 40.8 16.8 51.8 11.2 7.2 24.6 8.8 37.2 4.4l17.8-6.2c7.8-2.8 14.6-7.6 19.6-14l20.6-26.2c5.8-7.4 9-16.8 9-26.4V722c0-7.8 6.2-14 14-14s14 6.2 14 14v47.2c0 15.6-5.4 31.2-15 43.6l-20.6 26.2c-8.4 10.8-19.6 18.8-32.4 23.2l-17.8 6.2c-7.6 2.4-15.4 3.8-23.4 3.8zM638.8 812.8c-18.4 0-36-6.8-49.8-19.6-15.8-14.4-24.8-35-25-56.2l-0.2-44.2c0-7.8 6.2-14 14-14 7.6 0 14 6.2 14 14l0.2 44.2c0 13.6 5.8 26.6 16 35.8 9.6 8.8 22 13.2 34.8 12 0.8 0 1.6-0.2 2.4-0.2 16.2-2.2 30.6-12 38.6-26.2l24.2-43.4c3.8-6.8 12.2-9.2 19-5.4 6.8 3.8 9.2 12.2 5.4 19L708.2 772c-12.2 22-34.6 37-59.6 40.4-1.2 0.2-2.6 0.2-3.8 0.4h-6z" fill="#463218" /><path d="M630.2 872.2c-7.8 0-15.8-1.4-23.4-4l-17.8-6.2c-12.8-4.4-24.2-12.6-32.4-23.2L536 812.4c-9.6-12.4-15-27.8-15-43.6v-47.2c0-7.8 6.2-14 14-14s14 6.2 14 14v47.2c0 9.4 3.2 18.8 9 26.4l20.6 26.2c5 6.4 11.8 11.4 19.6 14l17.8 6.2c12.4 4.4 26 2.8 37.2-4.4 17.2-11 24.2-32.8 16.8-51.8l-23.2-59c-2.8-7.2 0.6-15.4 7.8-18.2 7.2-2.8 15.4 0.8 18.2 7.8l23.2 59c12.4 31.4 0.8 67.4-27.8 85.6-11.6 7.8-24.8 11.6-38 11.6z" fill="#463218" /><path d="M542.2 404h28v68.8h-28zM542.2 501.6h28v40.2h-28z" fill="#FFFFFF" /></svg>