<?xml version="1.0" standalone="no"?><!DOCTYPE svg PUBLIC "-//W3C//DTD SVG 1.1//EN" "http://www.w3.org/Graphics/SVG/1.1/DTD/svg11.dtd"><svg class="icon" width="200px" height="200.00px" viewBox="0 0 1024 1024" version="1.1" xmlns="http://www.w3.org/2000/svg"><path d="M504.532954 254.355618v367.579978c0 69.65707 56.472088 126.129158 126.131878 126.129158v100.920736h-203.381125c-100.686796 0-182.310181-81.626106-182.310181-182.310181v-63.041457c0-50.620862-31.571053-93.872606-76.098588-111.1325l-0.00272 0.008161C70.530265 458.076772 0 364.451708 0 254.355618 0 115.033318 112.944177 2.089141 252.266477 2.089141s252.266477 112.944177 252.266477 252.266477z" fill="#65513C" /><path d="M252.266477 2.089141c22.550752 0 44.402404 2.975938 65.204044 8.527938 87.507255 43.482964 146.563567 133.756698 146.563567 236.548956v372.933402c0 66.060918 53.746412 119.804611 119.807331 119.804611h2.165307a125.80545 125.80545 0 0 0 44.655386 8.160706v8.160707H583.844139c-75.062178 0-136.128744-61.066566-136.128744-136.126024V247.166035c0-122.405156-89.212842-225.934597-209.036494-244.709662a255.680372 255.680372 0 0 1 13.587576-0.367232z" fill="#E1CB81" /><path d="M546.060068 567.185417V181.045272c0-32.550338 26.378123-58.91214 58.920301-58.920301 32.534016 0 58.91214 26.369963 58.912139 58.91486v21.737402c27.863372-13.647421 59.176002-21.332087 92.294869-21.332087h38.556618c116.050686 0 210.127309 94.076624 210.127309 210.127309 0 76.59639-40.999389 143.60123-102.23733 180.32169 47.122639 46.594913 76.329807 111.273952 76.329808 182.780782 0 141.971809-115.090443 257.062252-257.062252 257.062251s-257.062252-115.090443-257.062252-257.062251c-0.00272-73.949601 31.233744-140.59265 81.22079-187.48951z" fill="#9C7F4D" /><path d="M858.060196 337.733555m-22.553472 0a22.553472 22.553472 0 1 0 45.106944 0 22.553472 22.553472 0 1 0-45.106944 0Z" fill="#333E48" /><path d="M1005.989321 361.753234a8.106302 8.106302 0 0 0-8.106302-8.106301l-14.118022 0.174095c-14.874248 0.059845-18.2555 8.533379-7.51329 18.815868l11.982637 11.476674a26.892248 26.892248 0 0 0 17.749536 7.456165l0.005441-29.816501z" fill="#333E48" /><path d="M640.484882 670.61421c97.006317 0 175.645604 78.639287 175.645604 175.642884v77.306372h65.14964c27.161551 0 49.179137 22.017586 49.179137 49.170976 0 27.158831-22.014866 49.176417-49.179137 49.176417H728.669475l-0.054404-0.00272h-88.130189c-97.009037 0-175.648325-78.639287-175.648325-175.651045 0-97.003597 78.639287-175.642884 175.648325-175.642884zM1009.593633 730.924551c19.207583 19.207583 19.204862 50.343398 0.00272 69.542819-19.204862 19.204862-50.340678 19.207583-69.54554 0l-88.72864-88.72864c-19.204862-19.207583-19.202142-50.337957 0.00272-69.54282 19.202142-19.202142 50.332517-19.207583 69.537379 0l88.731361 88.728641z" fill="#826940" /></svg>