<?xml version="1.0" standalone="no"?><!DOCTYPE svg PUBLIC "-//W3C//DTD SVG 1.1//EN" "http://www.w3.org/Graphics/SVG/1.1/DTD/svg11.dtd"><svg class="icon" width="200px" height="200.00px" viewBox="0 0 1024 1024" version="1.1" xmlns="http://www.w3.org/2000/svg"><path d="M535.192 149.3l102.084 206.844a25.864 25.864 0 0 0 19.472 14.148l228.268 33.168c21.212 3.084 29.684 29.152 14.336 44.116l-165.176 161.008a25.872 25.872 0 0 0-7.44 22.892l38.992 227.344c3.624 21.128-18.552 37.24-37.528 27.264l-204.168-107.336a25.872 25.872 0 0 0-24.072 0l-204.168 107.336c-18.976 9.976-41.152-6.136-37.528-27.264l38.992-227.344a25.856 25.856 0 0 0-7.44-22.892L124.64 447.576c-15.352-14.964-6.88-41.032 14.336-44.116l228.268-33.168a25.856 25.856 0 0 0 19.472-14.148L488.8 149.3c9.496-19.22 36.904-19.22 46.392 0z" fill="#8D386D" /><path d="M297.264 631.48l-38.992 227.344c-3.224 18.788 13.952 33.556 31.136 29.6l43.336-250.856a61.852 61.852 0 0 0-17.788-54.756l-150.472-146.672 207.94-30.216a61.856 61.856 0 0 0 46.58-33.844l113.324-227.256c-11.248-14.548-34.852-13.092-43.524 4.48l-14.324 29.024-87.76 177.82a25.864 25.864 0 0 1-19.472 14.148l-228.268 33.168c-21.212 3.084-29.684 29.152-14.332 44.116l165.176 161.008a25.868 25.868 0 0 1 7.44 22.892z" fill="#E8E6F4" /><path d="M283.724 901.096a37.744 37.744 0 0 1-22.22-7.268 37.632 37.632 0 0 1-15.064-37.032l38.992-227.348a13.848 13.848 0 0 0-3.984-12.268l-165.176-161.008c-10.396-10.132-14.068-25.004-9.58-38.812s16.2-23.684 30.568-25.768l228.264-33.172a13.86 13.86 0 0 0 10.436-7.584l102.084-206.848A37.64 37.64 0 0 1 512 122.884a37.628 37.628 0 0 1 33.952 21.104l102.084 206.844a13.86 13.86 0 0 0 10.432 7.584l228.272 33.172c14.364 2.084 26.08 11.96 30.564 25.768s0.816 28.68-9.584 38.812l-165.172 161.008a13.848 13.848 0 0 0-3.988 12.264l38.996 227.352a37.64 37.64 0 0 1-15.064 37.032 37.64 37.64 0 0 1-39.876 2.88l-204.168-107.336a13.864 13.864 0 0 0-12.904 0l-204.168 107.336a37.832 37.832 0 0 1-17.652 4.392zM512 146.884a13.608 13.608 0 0 0-12.432 7.732l-102.084 206.84a37.856 37.856 0 0 1-28.512 20.712l-228.264 33.172a13.608 13.608 0 0 0-11.192 9.436 13.608 13.608 0 0 0 3.504 14.208l165.176 161.008a37.864 37.864 0 0 1 10.888 33.516l-38.992 227.344a13.6 13.6 0 0 0 5.516 13.56c4.36 3.172 9.82 3.56 14.6 1.056l204.168-107.336a37.86 37.86 0 0 1 35.24 0l204.168 107.336a13.6 13.6 0 0 0 14.6-1.056 13.6 13.6 0 0 0 5.516-13.56l-38.992-227.348a37.848 37.848 0 0 1 10.892-33.512l165.172-161.008a13.6 13.6 0 0 0 3.508-14.208 13.6 13.6 0 0 0-11.188-9.436l-228.268-33.172a37.848 37.848 0 0 1-28.508-20.716l-102.084-206.84A13.6 13.6 0 0 0 512 146.884z" fill="#44294F" /><path d="M525.84 485.144l7.2 14.592a15.44 15.44 0 0 0 11.62 8.444l16.104 2.34c12.66 1.84 17.716 17.396 8.556 26.328l-11.652 11.36a15.452 15.452 0 0 0-4.44 13.664l2.752 16.036c2.164 12.608-11.072 22.224-22.396 16.272l-14.404-7.572a15.432 15.432 0 0 0-14.364 0l-14.404 7.572c-11.324 5.952-24.56-3.664-22.396-16.272l2.752-16.036a15.432 15.432 0 0 0-4.44-13.664l-11.652-11.36c-9.16-8.928-4.104-24.488 8.556-26.328l16.104-2.34a15.432 15.432 0 0 0 11.62-8.444l7.2-14.592c5.664-11.472 22.024-11.472 27.684 0z" fill="#EB6B69" /><path d="M483.204 607.976a27.284 27.284 0 0 1-16.1-5.268 27.268 27.268 0 0 1-10.912-26.832l2.748-16.036a3.432 3.432 0 0 0-0.988-3.044l-11.652-11.356a27.276 27.276 0 0 1-6.944-28.124 27.272 27.272 0 0 1 22.148-18.672l16.104-2.34a3.44 3.44 0 0 0 2.584-1.884l7.2-14.588c4.656-9.432 14.084-15.292 24.6-15.292s19.948 5.86 24.604 15.292l7.2 14.588a3.44 3.44 0 0 0 2.584 1.884l16.104 2.34a27.264 27.264 0 0 1 22.148 18.672 27.28 27.28 0 0 1-6.94 28.124l-11.656 11.356a3.444 3.444 0 0 0-0.988 3.04l2.752 16.044a27.264 27.264 0 0 1-10.912 26.828 27.26 27.26 0 0 1-28.896 2.088l-14.404-7.572a3.424 3.424 0 0 0-3.196 0L496 604.796a27.48 27.48 0 0 1-12.796 3.18zM512 488.54a3.252 3.252 0 0 0-3.08 1.916l-7.204 14.588a27.432 27.432 0 0 1-20.656 15.008l-16.104 2.34a3.248 3.248 0 0 0-2.772 2.34 3.256 3.256 0 0 0 0.868 3.52l11.652 11.356a27.436 27.436 0 0 1 7.892 24.288l-2.748 16.036a3.248 3.248 0 0 0 1.364 3.36 3.24 3.24 0 0 0 3.62 0.26l14.404-7.572a27.44 27.44 0 0 1 25.54 0l14.4 7.572a3.26 3.26 0 0 0 3.62-0.26 3.244 3.244 0 0 0 1.364-3.356l-2.752-16.044a27.428 27.428 0 0 1 7.892-24.284l11.656-11.356a3.26 3.26 0 0 0 0.868-3.52 3.252 3.252 0 0 0-2.772-2.34l-16.1-2.34a27.432 27.432 0 0 1-20.656-15.008l-7.2-14.588a3.284 3.284 0 0 0-3.096-1.916z" fill="#44294F" /><path d="M514 259.236m-30 0a30 30 0 1 0 60 0 30 30 0 1 0-60 0Z" fill="#44294F" /><path d="M514 422.376m-14.452 0a14.452 14.452 0 1 0 28.904 0 14.452 14.452 0 1 0-28.904 0Z" fill="#44294F" /><path d="M514 349.464m-23.604 0a23.604 23.604 0 1 0 47.208 0 23.604 23.604 0 1 0-47.208 0Z" fill="#44294F" /><path d="M757.205736 469.540678a30 30 0 1 0 58.718086-12.336384 30 30 0 1 0-58.718086 12.336384Z" fill="#44294F" /><path d="M612.771707 499.884673a14.452 14.452 0 1 0 28.286459-5.942847 14.452 14.452 0 1 0-28.286459 5.942847Z" fill="#44294F" /><path d="M675.166078 486.775179a23.604 23.604 0 1 0 46.19939-9.706267 23.604 23.604 0 1 0-46.19939 9.706267Z" fill="#44294F" /><path d="M238.983386 492.801596a30 30 0 1 0 12.336385-58.718086 30 30 0 1 0-12.336385 58.718086Z" fill="#44294F" /><path d="M401.845687 511.133526a14.452 14.452 0 1 0 5.942848-28.286459 14.452 14.452 0 1 0-5.942848 28.286459Z" fill="#44294F" /><path d="M328.609537 505.090985a23.604 23.604 0 1 0 9.706267-46.19939 23.604 23.604 0 1 0-9.706267 46.19939Z" fill="#44294F" /><path d="M321.984313 806.508125a30 30 0 1 0 38.575278-45.955935 30 30 0 1 0-38.575278 45.955935Z" fill="#44294F" /><path d="M436.872454 669.65141a14.452 14.452 0 1 0 18.582997-22.138505 14.452 14.452 0 1 0-18.582997 22.138505Z" fill="#44294F" /><path d="M384.105374 732.50265a23.604 23.604 0 1 0 30.351029-36.158129 23.604 23.604 0 1 0-30.351029 36.158129Z" fill="#44294F" /><path d="M650.547581 802.872957a30 30 0 1 0 45.955935-38.575278 30 30 0 1 0-45.955935 38.575278Z" fill="#44294F" /><path d="M557.57063 667.91923a14.452 14.452 0 1 0 22.138506-18.582998 14.452 14.452 0 1 0-22.138506 18.582998Z" fill="#44294F" /><path d="M597.436119 729.649325a23.604 23.604 0 1 0 36.15813-30.351029 23.604 23.604 0 1 0-36.15813 30.351029Z" fill="#44294F" /><path d="M371.476 371.848l18.292-15.532 80.036 94.252-18.292 15.532z" fill="#44294F" /><path d="M501.86 775.568l0.304-131.448 24 0.056-0.304 131.448z" fill="#44294F" /><path d="M298.196 603.956l116.096-40.464 7.896 22.664-116.096 40.46z" fill="#44294F" /><path d="M601.824 586.16l7.9-22.664 116.096 40.46-7.9 22.664z" fill="#44294F" /><path d="M556.892 450.572l78.92-92.96 18.292 15.532-78.92 92.96z" fill="#44294F" /></svg>