<?xml version="1.0" standalone="no"?><!DOCTYPE svg PUBLIC "-//W3C//DTD SVG 1.1//EN" "http://www.w3.org/Graphics/SVG/1.1/DTD/svg11.dtd"><svg class="icon" width="200px" height="200.00px" viewBox="0 0 1024 1024" version="1.1" xmlns="http://www.w3.org/2000/svg"><path d="M814.918093 284.359486c14.165291-14.162664 37.125098-14.162664 51.287762 0l96.437492 64.120869c9.572279 9.572279 25.09603 9.572279 34.670936 0 9.574907-9.574907 9.574907-25.098657 0.002628-34.670937l-64.120869-96.437492c-14.165291-14.167919-14.165291-37.127725 0-51.290389l-118.277949 118.277949z" fill="#FFB648" /><path d="M966.458595 540.874492l-251.625077-251.625077c-4.156834-4.156834-11.130435-13.172066-11.130435-26.869647 0-1.284887 0.068317-2.551382 0.191814-3.802111 1.904997-18.716262 17.712526-33.325615 36.933284-33.325614 10.25545 0 19.538695 4.159461 26.257421 10.880814l0.005255-0.005255 38.51246 38.515088c36.368354 36.365726 95.328653 36.365726 131.697007 0 36.368354-36.370982 36.368354-95.331281 0-131.699635a93.499856 93.499856 0 0 0-5.370776-4.93197l-55.949091-52.278359a23.779612 23.779612 0 0 0-2.070534-1.9339c-46.382067-38.486185-132.217268-25.201133-132.217268-25.201133-112.363263 0-203.779447 91.416184-203.779447 203.779447 0 54.438231 21.201954 105.615634 59.693394 144.101819l179.248347 179.250975H318.878023c-88.447017 0-164.864967-51.476947-200.946915-126.097631C46.565997 510.328858 0 593.657347 0 687.861395c0 154.504414 125.25155 279.758591 279.758591 279.758591h506.245597c93.765242 0 171.686168-67.605042 187.822145-156.716837 32.421727-36.084575 50.173667-82.23016 50.173667-131.113684 0-52.475428-20.4347-101.810896-57.541405-138.914973z" fill="#DADBDC" /><path d="M963.22667 193.098329l-0.002628 0.002628c-16.369832 16.367204-42.913659 16.367204-59.280863 0.002627l-20.492508-20.492507a16.656238 16.656238 0 0 0-23.556267 0 16.656238 16.656238 0 0 0 0 23.556267l41.899413 41.899413c16.138605 16.14386 16.330418 42.154288 0.64113 58.568789a92.737858 92.737858 0 0 0 34.868005-21.990228c22.189925-22.19518 30.813647-52.798621 25.923718-81.546989z" fill="#586069" /><path d="M427.546906 831.156546c43.607341 43.612596 114.310301 43.612596 157.92027 0 43.607341-43.607341 43.607341-114.307673-0.002628-157.915014L224.348155 312.122511c-87.212054 87.212054-87.214682 228.617974-0.002628 315.830028l203.201379 203.204007z" fill="#E8E8E8" /><path d="M537.343023 831.156546c43.607341 43.612596 114.310301 43.612596 157.920269 0 43.607341-43.607341 43.607341-114.307673-0.002628-157.915014L334.144271 312.122511c-87.212054 87.212054-87.214682 228.617974-0.002628 315.830028l203.20138 203.204007z" fill="#DADBDC" /><path d="M647.139139 831.156546c43.607341 43.612596 114.310301 43.612596 157.917641 0 43.607341-43.607341 43.607341-114.307673-0.002627-157.915014L443.937759 312.122511c-87.212054 87.212054-87.214682 228.617974-0.002627 315.830028l203.204007 203.204007z" fill="#E8E8E8" /></svg>