<?xml version="1.0" standalone="no"?><!DOCTYPE svg PUBLIC "-//W3C//DTD SVG 1.1//EN" "http://www.w3.org/Graphics/SVG/1.1/DTD/svg11.dtd"><svg class="icon" width="200px" height="200.00px" viewBox="0 0 1024 1024" version="1.1" xmlns="http://www.w3.org/2000/svg"><path d="M21.559707 669.93028A21.557212 21.557212 0 0 1 0 648.370573v-192.046314c0-70.861849 57.645581-128.50244 128.50244-128.50244h84.567146a21.557212 21.557212 0 0 1 0 43.114423H128.50244c-47.084045 0-85.388016 38.306467-85.388016 85.390512v192.046314a21.557212 21.557212 0 0 1-21.554717 21.557212z" fill="#FF9E16" /><path d="M0 475.341512v10.98819l29.823305-5.49659zM6.921262 414.801675a127.244936 127.244936 0 0 0-4.244076 15.376979l28.25392 19.468857-24.009844-34.845836zM0 591.413625l43.114424-7.936747v-5.688709L0 569.848928zM51.522734 353.493364l24.109646 21.250321-14.586049-27.732455a130.453568 130.453568 0 0 0-9.523597 6.482134zM43.114424 529.284443v-11.789101l-32.006472 5.898293zM110.742691 329.076827l6.56946 35.691657 6.784035-36.834388a128.629688 128.629688 0 0 0-13.353495 1.142731zM54.057703 414.584606a85.437917 85.437917 0 0 1 5.184709-8.108905l-20.499312-14.12197 15.314603 22.230875z" fill="#333E48" /><path d="M360.349755 431.683168c-48.366499 0-87.576173 39.209674-87.576173 87.576173v86.702907h-8.243638c-41.295534 0-74.774084 33.47356-74.774083 74.774083v135.588376c0 33.683144 27.308297 60.988945 60.988945 60.988945h110.146374a17.477809 17.477809 0 0 0 17.475314-17.475314c0-37.483101-28.109207-68.371791-64.39219-72.815471V708.942845h31.472531c56.597661 0 102.474103-45.876442 102.474103-102.474103v-87.209401c0.002495-48.368994-39.204684-87.576173-87.571183-87.576173z" fill="#B36F0F" /><path d="M272.773582 564.641763v31.984016l86.840134-15.998245zM191.083226 666.746599a75.075984 75.075984 0 0 0-1.32487 13.984742v25.304774l107.339445-19.765768-106.014575-19.523748zM350.374554 549.354606l97.548879 17.966838v-35.931181zM413.701359 682.887063a102.746063 102.746063 0 0 0 26.776852-38.061953l-116.740786 21.492341 89.963934 16.569612zM313.976799 757.384196v-20.721371l-56.26083 10.359438z" fill="#333E48" /><path d="M779.902001 786.758392v-270.962177c0-33.685639-27.308297-60.988945-60.98645-60.988945-33.683144 0-60.988945 27.303307-60.988945 60.988945v300.523502c0 33.683144 27.305802 60.988945 60.988945 60.988945h110.146374a17.477809 17.477809 0 0 0 17.475314-17.475314c0-38.256566-29.271899-69.656741-66.635238-73.074956z" fill="#B36F0F" /><path d="M657.926606 668.09143v35.362311l96.009434-17.684898zM657.926606 568.035028v21.906519l59.481936-10.950765zM779.902001 639.979728v-33.523461l-91.029319 16.764226zM705.991204 531.390263l73.910797 13.61298v-27.223465zM779.902001 752.264358v-33.525955l-91.029319 16.76173z" fill="#333E48" /><path d="M762.983083 293.60723H282.801178c-84.212849 0-152.479848 68.262009-152.479848 152.477353v178.578047h506.12541c101.740559 0 184.21436-82.476296 184.21436-184.216855V351.277762c0-31.846788-25.823743-57.670532-57.678017-57.670532z" fill="#FF9E16" /><path d="M327.412631 535.883844l-44.611453-242.276614h89.22041zM550.177972 535.883844l-44.611452-242.276614h89.222904zM438.035559 463.465085l-31.275422-169.857855h62.55334zM178.271156 335.129813l23.630597 128.335272 29.646156-161.000436a152.352601 152.352601 0 0 0-53.276753 32.665164zM663.458126 463.465085l-31.277917-169.857855h62.55334z" fill="#333E48" /><path d="M716.053731 381.380512h33.234035v41.317989h-33.234035z" fill="#E8E8E8" /><path d="M1018.194024 279.954329l-137.130315-110.867443h-77.373923c-77.448775 0-140.234154 62.787875-140.234155 140.236649s62.78538 140.231659 140.234155 140.231659h77.373923c77.45127 0 140.234154-62.782885 140.234154-140.231659a140.436253 140.436253 0 0 0-3.103839-29.369206z" fill="#FF9E16" /><path d="M736.098944 186.444932l16.335077 88.718905 18.830125-102.262023a139.168769 139.168769 0 0 0-35.165202 13.543118zM820.311793 169.086886l11.839001 64.304863 11.843992-64.304863z" fill="#333E48" /><path d="M999.743147 289.759866h-192.066275c-50.602062 0-91.623141 41.018584-91.623141 91.620646 0 7.113381 0.835841 14.014683 2.3678 20.66149a91.765358 91.765358 0 0 0-2.3678 20.654004c0 42.720206 29.234474 78.608972 68.788465 88.753836a91.283814 91.283814 0 0 1-6.806491-34.668687c0-1.03295 0.044911-2.053424 0.077347-3.078889 11.591991 12.01615 26.427545 20.893529 43.109434 25.172536a91.06924 91.06924 0 0 1-6.402293-26.175545 91.343695 91.343695 0 0 0 20.67646-4.009542v0.00998l131.835824-31.203066c32.557877-8.181261 56.667523-37.640289 56.667523-72.73064v-50.754259c-0.00499-13.390921-10.863438-24.251863-24.256853-24.251864z" fill="#E8E8E8" /><path d="M858.426141 252.932963m-12.864465 0a12.864466 12.864466 0 1 0 25.728931 0 12.864466 12.864466 0 1 0-25.728931 0Z" fill="#333E48" /><path d="M1023.99501 282.459357a7.300509 7.300509 0 0 0-7.30051-7.298015l-12.709772 0.157188c-13.393416 0.057386-16.439869 7.682252-6.764075 16.943869l10.791082 10.334488a24.209448 24.209448 0 0 0 15.983275 6.711678v-26.849208zM725.018438 146.686348c-18.226323 0-33.004491 14.773177-33.004491 33.00449 0 18.228818 14.775672 33.004491 33.004491 33.004491h20.130044c7.110886 0 12.874446-5.76855 12.874446-12.876941V179.693333c0-18.236303-14.775672-33.006986-33.00449-33.006985z" fill="#333E48" /><path d="M728.838356 205.631849c-12.198288 0-22.123588-9.9253-22.123588-22.118598 0-12.200783 9.927795-22.123588 22.123588-22.123587 12.198288 0 22.123588 9.9253 22.123587 22.123587v20.125055a1.996038 1.996038 0 0 1-1.996038 1.993543h-20.127549z" fill="#FF9C9F" /><path d="M241.520615 431.683168c-48.366499 0-87.576173 39.209674-87.576174 87.576173v86.702907h-8.241142c-41.295534 0-74.774084 33.47356-74.774084 74.774083v135.588376c0 33.683144 27.305802 60.988945 60.988945 60.988945h110.146375a17.477809 17.477809 0 0 0 17.475314-17.475314c0-37.483101-28.109207-68.371791-64.394685-72.815471V708.942845h31.472531c56.597661 0 102.474103-45.876442 102.474103-102.474103v-87.209401c0.002495-48.368994-39.204684-87.576173-87.571183-87.576173z" fill="#FF9E16" /><path d="M153.944441 564.641763v31.984016l86.840135-15.998245zM72.254086 666.746599a75.075984 75.075984 0 0 0-1.324871 13.984742v25.304774l107.339446-19.765768-106.014575-19.523748zM231.545414 549.354606l97.548879 17.966838v-35.931181zM294.874714 682.887063a102.768519 102.768519 0 0 0 26.774357-38.061953l-116.740786 21.492341 89.966429 16.569612zM195.147659 757.384196v-20.721371l-56.26083 10.359438z" fill="#333E48" /><path d="M661.072861 786.758392v-270.962177c0-33.685639-27.305802-60.988945-60.98645-60.988945-33.685639 0-60.988945 27.303307-60.988946 60.988945v300.523502c0 33.683144 27.305802 60.988945 60.988946 60.988945h110.146374a17.477809 17.477809 0 0 0 17.475314-17.475314c0-38.256566-29.271899-69.656741-66.635238-73.074956z" fill="#FF9E16" /><path d="M539.097465 668.09143v35.362311l96.009435-17.684898zM539.097465 568.035028v21.906519l59.481937-10.950765zM661.072861 639.979728v-33.523461l-91.029319 16.764226zM587.164559 531.390263l73.908302 13.61298v-27.223465zM661.072861 752.264358v-33.525955l-91.029319 16.76173z" fill="#333E48" /></svg>