<?xml version="1.0" encoding="UTF-8"?>
<svg version="1.0" viewBox="0 0 654.2 547.35" xmlns="http://www.w3.org/2000/svg">
 <path d="m275.31 450.29c-7.5755 0.94683-226.37-32.245-226.37-32.245-20.073-24.081-14.366-44.597-5-66.225-11.209-21.258-16.749-45.897 6.7878-72.118-5.7168-28.271-10.687-56.234 25.567-67.225-9.1193-32.64 3.7606-48.782 35.037-51.129-0.54583-36.019 10.844-59.402 53.029-50.182 12.37-56.649 35.706-34.711 54.923-32.192 18.48-47.138 45.496-34.705 73.755-25.618 40.11-32.48 53.473-10.038 74.755-0.15952 33.371-13.493 56.218-7.8595 71.914 21.564 49.663-8.9035 62.498 43.554 62.498 43.554 26.577-2.7475 41.962 15.019 40.771 47.607 0 0 38.455 9.6807 30.408 63.225 0 0 34.454 24.115 21.359 58.443 17.98 18.574 43.096 28.187 17.625 66.07 18.011 45.041-0.90913 48.307-7.6816 68.065l-212.27 21.883z" fill="#f7dda8" stroke="#000" stroke-width="3"/>
 <path d="m281.24 451.29c-7.19 0.9-212.88-29.65-212.88-29.65-19.053-22.85-14.892-44.27-6.003-64.79-10.637-20.172-13.742-44.705 8.5946-69.586-5.4253-26.826-10.142-53.36 24.264-63.789-8.6543-30.972 3.5689-46.289 33.25-48.516-0.51799-34.178 10.291-56.366 50.325-47.617 11.739-53.754 29.885-35.937 48.122-33.547 17.538-44.729 43.074-29.982 69.892-21.359 38.064-30.82 47.696-11.678 67.892-2.3047 31.669-12.803 52.3-7.6623 67.196 20.258 47.13-8.4485 52.311 45.328 52.311 45.328 25.221-2.6071 40.874 14.507 39.743 45.43 0 0 41.596 8.9815 33.96 59.789 0 0 28.749 23.087 16.321 55.66 17.063 17.624 44 27.002 19.828 62.949 29.638 40.648 0.94917 44.583-6.3919 63.484l-200.6 20.867z" fill="#63251b" stroke="#000" stroke-width="3"/>
 <path d="m280.38 449.19c-5.0747 0.77582-155.27-20.602-155.27-20.602-13.447-19.732-8.5097-32.226-2.2353-49.948-7.5086-17.419-11.7-43.604 4.0668-65.09-3.8296-23.165-5.1592-47.078 19.127-56.084-6.1089-26.745-1.4808-46.972 19.471-48.895-0.36564-29.514 13.264-52.674 41.523-45.119 8.2863-46.419 24.095-35.032 36.968-32.969 12.38-38.625 35.405-27.891 54.336-20.445 26.869-26.614 41.668-2.0844 55.924 6.0098 22.355-11.056 35.917 0.38335 46.433 24.493 33.268-7.2955 33.925 47.142 33.925 47.142 17.803-2.2513 28.852 21.527 28.054 48.23 0 0 28.362-0.24415 22.971 43.63 0 0 20.293 23.936 11.521 52.064 12.044 15.219 20.941 19.863 3.8784 50.905 20.921 35.101 2.7876 32.953-2.3943 49.275l-142.6 14.02z" fill="#af6e4c" stroke="#000" stroke-width="3"/>
 <path d="m40.524 349.35 263 90" fill="none" stroke="#000" stroke-width="3"/>
 <path d="m49.524 278.35 238 109" fill="none" stroke="#000" stroke-width="3"/>
 <path d="m74.524 212.35 230 153" fill="none" stroke="#000" stroke-width="3"/>
 <path d="m109.52 161.35 168 147" fill="none" stroke="#000" stroke-width="3"/>
 <path d="m162.52 109.35 124 159" fill="none" stroke="#000" stroke-width="3"/>
 <path d="m220.52 79.353 57 122" fill="none" stroke="#000" stroke-width="3"/>
 <path d="m291.52 50.353 18 128" fill="none" stroke="#000" stroke-width="3"/>
 <path d="m366.52 51.353-26 124" fill="none" stroke="#000" stroke-width="3"/>
 <path d="m439.52 71.353-63 116" fill="none" stroke="#000" stroke-width="3"/>
 <path d="m503.52 118.35-107 109" fill="none" stroke="#000" stroke-width="3"/>
 <path d="m545.52 163.35-145 128" fill="none" stroke="#000" stroke-width="3"/>
 <path d="m573.52 230.35-158 88" fill="none" stroke="#000" stroke-width="3"/>
 <path d="m596.52 287.35-191 86" fill="none" stroke="#000" stroke-width="3"/>
 <path d="m613.52 354.35-231 62" fill="none" stroke="#000" stroke-width="3"/>
 <path d="m264.38 418.81c-7.8074 0.82296-6.6832 10.947-6.3331 16.933-0.0999 15.866 0.0354 31.732 0.21722 47.597-12.328-1.6934-24.642-5.2014-36.937-6.2761-6.8939 0.87414-8.3026 12.431-0.84496 13.689 4.7809 1.7666 21.738 2.0673 18.408 4.6584-10.547 5.0305-22.244 8.1572-32.33 13.833-5.4195 5.5631 2.104 15.502 8.6461 11.143 12.919-5.147 25.713-10.63 38.591-15.903-1.2202 7.3381-7.4154 14.203-6.1159 21.735 2.8029 7.6129 14.939 5.9813 15.169-2.8221 3.2385-8.7925 6.174-17.714 9.3348-26.536 11.556-5.3766 24.08-9.0963 35.287-14.911 5.6098-4.531 0.94037-14.686-6.0354-12.215-9.5518 3.5863-18.958 7.7676-28.366 11.626-0.26258-18.563-0.25635-37.174-0.20118-55.642-0.55047-4.2734-4.4467-7.268-8.4898-6.9079z" fill="#ff7400" fill-rule="evenodd" stroke="#000" stroke-linecap="round" stroke-width="2.5626"/>
 <path d="m379.69 417.88c-8.8124 1.2236-7.3566 12.358-6.6792 19.039-0.57692 14.441-0.0645 29.019-0.44259 43.511-10.493-3.4947-20.537-10.369-31.505-11.752-8.3163 1.0431-6.0368 14.416 1.5692 14.448 10.168 4.9516 22.35 7.8372 31.271 14.068 4.4021 10.292 6.1996 22.27 12.184 31.592 5.483 4.8169 15.594-2.401 11.306-9.3088-1.5443-6.5436-10.437-20.988 1.5591-12.982 11.87 4.325 23.256 10.799 35.418 13.867 7.947 0.09 8.7665-13.497 0.72427-14.111-10.247-4.2542-20.494-8.5085-30.74-12.763 7.8551-2.5837 17.74-0.65235 24.504-5.9391 4.718-5.5546-2.8179-14.155-8.8117-10.952-10.891 1.9376-21.781 3.8752-32.672 5.8128-0.10349-20.08 1.0352-40.449-0.36212-60.36-1.2741-2.8189-4.3911-4.4784-7.323-4.17z" fill="#ff7400" fill-rule="evenodd" stroke="#000" stroke-linecap="round" stroke-width="2.5626"/>
 <path d="m463.35 328.21c0.0232 81.558-63.127 147.69-141.03 147.69-77.908 0-141.06-66.129-141.03-147.69-0.0232-81.558 63.127-147.69 141.03-147.69 77.908 0 141.06 66.129 141.03 147.69z" fill="#ac4b3d" stroke="#000" stroke-linecap="round" stroke-linejoin="round" stroke-width="3.513"/>
 <path d="m454.82 277.56c0.0988 2.2666 0.16094 4.5738 0.16094 6.8658 0 81.499-63.176 147.64-141.03 147.64-60.853 0-112.78-40.436-132.54-97.006 3.4166 78.329 65.245 140.81 140.91 140.81 77.851 0 141.03-66.137 141.03-147.64 0-17.795-3.0105-34.87-8.53-50.672z" fill-opacity=".31373"/>
 <path d="m415.49 236.48c0.0158 55.372-42.859 100.27-95.752 100.27-52.894 0-95.768-44.897-95.752-100.27-0.0157-55.372 42.859-100.27 95.752-100.27 52.894 0 95.768 44.897 95.752 100.27z" fill="#ac4b3d" stroke="#000" stroke-linecap="round" stroke-linejoin="round" stroke-width="2.3851"/>
 <g transform="matrix(1.7859 0 0 1.8696 130.46 114.5)">
  <path d="m142.82 56.167c3e-3 8.4803-6.8714 15.356-15.352 15.356-8.4803 0-15.354-6.876-15.352-15.356-3e-3 -8.4803 6.8714-15.356 15.352-15.356 8.4803 0 15.354 6.876 15.352 15.356z" fill="#fff" stroke="#000" stroke-linecap="round" stroke-linejoin="round" stroke-width="1.8064"/>
  <path d="m124.97 56.202c8.4e-4 2.8268-2.2905 5.1188-5.1172 5.1188-2.8268 0-5.1181-2.292-5.1172-5.1188-8.5e-4 -2.8268 2.2905-5.1187 5.1172-5.1187 2.8268 0 5.1181 2.292 5.1172 5.1187z"/>
 </g>
 <g transform="matrix(1.7859 0 0 1.8696 119.33 114.5)">
  <path d="m107.1 56.167c3e-3 8.4803-6.8714 15.356-15.352 15.356-8.4803 0-15.354-6.876-15.352-15.356-0.0025-8.4803 6.8714-15.356 15.352-15.356 8.4803 0 15.354 6.876 15.352 15.356z" fill="#fff" stroke="#000" stroke-linecap="round" stroke-linejoin="round" stroke-width="1.8066"/>
  <path d="m103.78 56.202c8.4e-4 2.8268-2.2905 5.1188-5.1172 5.1188-2.8268 0-5.1181-2.292-5.1172-5.1188-8.47e-4 -2.8268 2.2905-5.1187 5.1172-5.1187 2.8268 0 5.1181 2.292 5.1172 5.1187z"/>
 </g>
 <path d="m413.39 202.5-2.2472 3.5803c0.29829 4.1454 0.412 8.3604 0.412 12.636 0 60.89-58.003 111.42-98.09 104.8-33.379-5.5165-73.224-26.503-91.161-70.765 9.1275 54.247 68.522 94.451 96.929 94.137 62.979-0.68957 98.09-47.357 98.09-108.25 0-12.659-1.2888-24.815-3.9326-36.14z" fill-opacity=".31373"/>
 <path d="m292.74 285.39 23.732 58.522 26.092-52.545c-9.0376-23.877-36.428-26.897-49.824-5.9776z" fill="#f00" fill-rule="evenodd" stroke="#000" stroke-linecap="round" stroke-linejoin="round" stroke-width="2.3713"/>
 <path d="m286.72 268.24 16.366 67.974 41.962-49.004c-5.9064-27.569-38.026-37.716-58.328-18.97z" fill="#ffce00" fill-rule="evenodd" stroke="#000" stroke-linecap="round" stroke-linejoin="round" stroke-width="2.7217"/>
 <path d="m360.25 326.97c-5.3062-39.51-23.507-59.689-25.905-59.272 7.4076 15.61 9.7433 39.428 0.689 59.294-22.25 48.819 27.196 56.571 25.216-0.0216z" fill="#f00" fill-rule="evenodd" stroke="#000" stroke-linecap="round" stroke-linejoin="round" stroke-width="2.2416"/>
</svg>
