<?xml version="1.0" standalone="no"?><!DOCTYPE svg PUBLIC "-//W3C//DTD SVG 1.1//EN" "http://www.w3.org/Graphics/SVG/1.1/DTD/svg11.dtd"><svg class="icon" width="200px" height="200.00px" viewBox="0 0 1024 1024" version="1.1" xmlns="http://www.w3.org/2000/svg"><path d="M512.008 81.856c-237.562 0-430.14 192.588-430.14 430.148 0 237.552 192.578 430.136 430.14 430.136 237.546 0 430.132-192.584 430.132-430.136 0-237.56-192.586-430.148-430.132-430.148z" fill="#EDF3FC" /><path d="M512.008 2C230.788 2 2 230.786 2 512.004 2 793.218 230.788 1022 512.008 1022 793.222 1022 1022 793.218 1022 512.004 1022 230.786 793.222 2 512.008 2z m0 1003.662c-272.21 0-493.662-221.454-493.662-493.658C18.346 239.794 239.8 18.338 512.008 18.338c272.204 0 493.648 221.458 493.648 493.666 0 272.204-221.446 493.658-493.648 493.658z" fill="#EDF3FC" /><path d="M441.12 175.834c-65.506 0-118.612 53.102-118.612 118.614 0 31.038 11.934 59.278 31.448 80.416 10.52-8.006 33.53 12.394 58.292 15.344 22.896 2.726 44.266-20.558 58.43-20.804 11.656-0.204 9.498 11.744 15.156 13.264 14.054 3.776 39.72-16.786 45.548-11.306 17.668-20.71 28.356-47.554 28.356-76.912 0-65.514-53.11-118.616-118.618-118.616z" fill="#FFBE1B" /><path d="M441.12 205.416c-49.174 0-89.036 39.856-89.036 89.032 0 48.786 39.244 88.386 87.886 89.008 4.108-2.094 8.054-4.39 11.806-6.514 1.162-0.658 2.302-1.298 3.424-1.912l0.102-0.056 0.066-0.036 0.266-0.144 0.124-0.066c0.424-0.228 0.848-0.458 1.266-0.678l0.046-0.024c0.202-0.108 0.402-0.208 0.602-0.31l0.016-0.008 0.44-0.224c0.552-0.284 1.1-0.554 1.64-0.814 0.216-0.104 0.434-0.214 0.648-0.314 0.212-0.1 0.42-0.188 0.63-0.284l0.056-0.024a44.758 44.758 0 0 1 2.714-1.132c0.21-0.078 0.42-0.152 0.628-0.224 0.894-0.314 1.77-0.578 2.624-0.784l0.016-0.004 0.268-0.062c0.588-0.132 1.168-0.24 1.734-0.312 0.04-0.006 0.082-0.016 0.122-0.02h0.004a14.22 14.22 0 0 1 3.408-0.014h0.006c0.2 0.024 0.372 0.07 0.562 0.102l0.042 0.008a12 12 0 0 1 1.066 0.216c0.218 0.06 0.416 0.138 0.622 0.21a0.138 0.138 0 0 0 0.016 0.006c0.27 0.096 0.542 0.19 0.79 0.304h0.002c0.208 0.098 0.398 0.208 0.59 0.314l0.014 0.008c0.208 0.12 0.412 0.236 0.604 0.366l0.004 0.004c0.194 0.132 0.376 0.274 0.554 0.418l0.006 0.006c0.09 0.072 0.172 0.148 0.258 0.222a9.572 9.572 0 0 1 0.726 0.706c0.11 0.122 0.218 0.246 0.322 0.372l0.002 0.004c0.178 0.214 0.35 0.432 0.51 0.66l0.036 0.05c0.242 0.348 0.47 0.702 0.682 1.066 29.672-14.442 50.122-44.878 50.122-80.094 0-49.172-39.864-89.028-89.036-89.028z" fill="#FFE37B" /><path d="M477.018 300.002c-3.18-3.664-7.436-6.078-12.79-7.228 1.48-0.656 2.514-1.128 3.09-1.424 0.574-0.286 1.608-1.008 3.09-2.16 4.368-3.29 6.546-8.32 6.546-15.076 0-5.604-1.932-10.622-5.806-15.068-2.14-2.39-5.334-4.286-9.58-5.696a35.952 35.952 0 0 0-4.04-1.04v-10.986h-15.15v9.932h-10.164v-9.932h-15.158v9.932h-16.59v16.308h12.356v53.752h-12.356v16.314h16.59v9.94h15.158v-9.94h10.164v9.94h15.15v-10.308c8.242-0.888 14.28-3.42 18.07-7.656 4.114-4.614 6.176-9.928 6.176-15.946 0-5.438-1.588-9.982-4.756-13.658z m-44.916-32.438h9.268c5.684 0 9.712 0.62 12.102 1.856 2.392 1.232 3.584 3.762 3.584 7.6 0 3.828-1.296 6.326-3.89 7.472-2.598 1.154-6.57 1.73-11.918 1.73h-9.144v-18.658z m25.638 51.718c-2.766 1.362-6.904 2.036-12.422 2.036h-13.216v-19.886h11.368c6.424 0 11.098 0.636 14.022 1.91 2.926 1.282 4.388 3.916 4.388 7.912-0.002 3.99-1.378 6.668-4.14 8.028z" fill="#FFFFFF" /><path d="M831.956 468.508c-23.478 0-42.9 17.328-46.192 39.894-3.29-22.566-22.712-39.894-59.524-39.894h-66.142l13.334 8.24c0 35.99 29.18 65.168 65.168 65.168h35.78c-2.524 24.438-16.192 103.708-87.436 103.708-89.248 0-120.37-136.258-233.63-184.784a54.582 54.582 0 0 0-1.032 10.662c0 7.86-0.25 20.706-0.25 20.706s-4.786 7.832-18.786 7.832-19-7.832-19-7.832 1.334-8.71 1.334-21.334c0-8.234-1.78-15.872-4.736-22.95-21.05-3.994-44.518-5.198-70.964-2.718-104.284 9.774-158.668 86.632-162.942 160.768-3.928 68.198 27.062 120.028 83.102 137.526 45.412 14.18 130.344 15.636 221.05 15.636 87.538 0 162.592 2.018 222.14-20.636 97.922-37.254 96.288-166.048 94.468-196.584h35.232c35.99 0 65.168-29.178 65.168-65.168v-8.24h-66.142z" fill="#330D84" /><path d="M344.7 392.364c-6.466-6.518-9.536-12.248-17.062-12.95-11.05-1.034-13.82 12.582-5.122 17.934 8.7 5.354 34.656 7.698 35.596 5.622 0.438-0.97-7.744-4.898-13.412-10.606zM565.868 381.258c-13.944 1.306-19.626 11.916-31.606 23.988-10.496 10.576-25.656 17.852-24.844 19.644 1.742 3.846 49.82-0.494 65.934-10.41 16.112-9.914 10.984-35.132-9.484-33.222zM532.436 373.332c-2.41-11.152-31.352 13.43-46.602 9.334-5.658-1.52-3.5-13.466-15.156-13.264-14.164 0.246-35.534 23.532-58.43 20.804-28-3.334-53.77-29.01-61.764-10.666-4.848 11.126 65.096 39.564 65.096 91.334 0 12.626-1.334 21.334-1.334 21.334s5 7.832 19 7.832 18.786-7.832 18.786-7.832 0.25-12.846 0.25-20.706c0-58.388 86.718-67.784 80.154-98.17z" fill="#5D8EF9" /><path d="M644 729.002c-190-10-263-94.002-410-87-21.834 1.04-39.584 5.248-53.824 10.72 9.472 44.7 37.504 77.55 79.864 90.778 45.412 14.18 130.344 15.636 221.05 15.636 87.538 0 162.592 2.018 222.14-20.636 14.526-5.526 26.846-13.078 37.314-22.014-28.614 8.01-62.834 14.29-96.544 12.516z" fill="#6857E5" /><path d="M249.334 570.794a16.878 16.878 0 0 0 0 33.752 16.876 16.876 0 0 0 0-33.752z" fill="#FFFFFF" /><path d="M658.508 220.876A58.998 58.998 0 0 1 615.636 178l-0.91-3.602-0.896 3.602a59.014 59.014 0 0 1-42.872 42.876l-3.608 0.904 3.608 0.904a58.996 58.996 0 0 1 42.872 42.872l0.896 3.604 0.91-3.604a58.98 58.98 0 0 1 42.872-42.872l3.61-0.904-3.61-0.904zM679.878 308.218a36.586 36.586 0 0 1-26.586-26.586l-0.562-2.234-0.556 2.234a36.596 36.596 0 0 1-26.584 26.586l-2.238 0.562 2.238 0.558a36.586 36.586 0 0 1 26.584 26.586l0.556 2.234 0.562-2.234a36.576 36.576 0 0 1 26.586-26.586l2.238-0.558-2.238-0.562z" fill="#FFBE1B" /><path d="M529.976 833.734a64.97 64.97 0 0 1-47.218-47.212l-0.986-3.964-1.006 3.964a64.922 64.922 0 0 1-47.2 47.212l-3.96 0.994 3.96 0.994a64.894 64.894 0 0 1 47.2 47.208l1.006 3.964 0.986-3.964a64.94 64.94 0 0 1 47.218-47.208l3.964-0.994-3.964-0.994zM623.074 829.62a40.068 40.068 0 0 1-29.116-29.112l-0.61-2.448-0.62 2.448a40.04 40.04 0 0 1-29.104 29.112l-2.444 0.612 2.444 0.616a40.016 40.016 0 0 1 29.104 29.11l0.62 2.446 0.61-2.446a40.04 40.04 0 0 1 29.116-29.11l2.446-0.616-2.446-0.612z" fill="#330D84" /></svg>