<?xml version="1.0" standalone="no"?><!DOCTYPE svg PUBLIC "-//W3C//DTD SVG 1.1//EN" "http://www.w3.org/Graphics/SVG/1.1/DTD/svg11.dtd"><svg class="icon" width="200px" height="200.00px" viewBox="0 0 1024 1024" version="1.1" xmlns="http://www.w3.org/2000/svg"><path d="M917.333333 469.333333s-27.733333-59.733333-81.066666-125.866666c8.533333-32 23.466667-93.866667 12.8-168.533334-10.666667-76.8-42.666667-89.6-64-89.6-12.8 0-21.333333 4.266667-21.333334 4.266667L640 194.133333C601.6 179.2 558.933333 170.666667 512 170.666667s-89.6 8.533333-128 23.466666l-125.866667-104.533333s-8.533333-4.266667-21.333333-4.266667c-21.333333 0-55.466667 12.8-64 89.6-10.666667 74.666667 4.266667 136.533333 12.8 168.533334C134.4 409.6 106.666667 469.333333 106.666667 469.333333h64l-42.666667 85.333334 104.533333-4.266667L512 533.333333l279.466667 17.066667 104.533333 4.266667-42.666667-85.333334h64z" fill="#6D4C41" /><path d="M706.133333 226.133333L785.066667 128c8.533333 0 17.066667 17.066667 21.333333 53.333333 6.4 51.2 0 93.866667-6.4 123.733334-25.6-27.733333-57.6-55.466667-93.866667-78.933334z m-388.266666 0L238.933333 128c-8.533333 0-17.066667 17.066667-21.333333 53.333333-6.4 51.2 0 93.866667 6.4 123.733334 25.6-27.733333 57.6-55.466667 93.866667-78.933334z" fill="#A1887F" /><path d="M640 426.666667c-87.466667 0-128 64-128 64s-40.533333-64-128-64S170.666667 550.4 149.333333 640c0 0 136.533333 2.133333 170.666667 42.666667s64 192 64 192 12.8 64 128 64 128-64 128-64 29.866667-151.466667 64-192 170.666667-42.666667 170.666667-42.666667c-21.333333-89.6-147.2-213.333333-234.666667-213.333333z" fill="#BCAAA4" /><path d="M490.666667 874.666667h42.666666v42.666666h-42.666666z" fill="#6D4C41" /><path d="M448 618.666667h-85.333333c-68.266667 0-61.866667-106.666667-61.866667-106.666667H384c68.266667 0 64 106.666667 64 106.666667z m128 0h85.333333c68.266667 0 61.866667-106.666667 61.866667-106.666667H640c-68.266667 0-64 106.666667-64 106.666667z" fill="#5D4037" /><path d="M610.133333 915.2c-17.066667 25.6-53.333333 44.8-98.133333 44.8-44.8 0-81.066667-19.2-98.133333-44.8 4.266667 2.133333 8.533333 2.133333 12.8 2.133333h170.666666c4.266667 0 8.533333-2.133333 12.8-2.133333zM576 810.666667c0-12.8-8.533333-21.333333-21.333333-21.333334h-85.333334c-12.8 0-21.333333 8.533333-21.333333 21.333334v42.666666c0 12.8 29.866667 42.666667 42.666667 42.666667h42.666666c12.8 0 42.666667-29.866667 42.666667-42.666667v-42.666666z" fill="#3E2723" /><path d="M420.266667 578.133333c-8.533333 10.666667-21.333333 19.2-36.266667 19.2-23.466667 0-42.666667-19.2-42.666667-42.666666 0-10.666667 4.266667-21.333333 12.8-29.866667 27.733333 12.8 49.066667 34.133333 66.133334 53.333333z m183.466666 0c8.533333 10.666667 21.333333 19.2 36.266667 19.2 23.466667 0 42.666667-19.2 42.666667-42.666666 0-10.666667-4.266667-21.333333-12.8-29.866667-27.733333 12.8-49.066667 34.133333-66.133334 53.333333z" fill="#EEFF41" /><path d="M403.2 561.066667c-2.133333 8.533333-10.666667 14.933333-19.2 14.933333-12.8 0-21.333333-8.533333-21.333333-21.333333 0-8.533333 4.266667-14.933333 10.666666-19.2 10.666667 8.533333 21.333333 17.066667 29.866667 25.6z m247.466667-25.6c-10.666667 8.533333-21.333333 17.066667-29.866667 25.6 2.133333 8.533333 10.666667 14.933333 19.2 14.933333 12.8 0 21.333333-8.533333 21.333333-21.333333 0-8.533333-4.266667-14.933333-10.666666-19.2z" fill="#212121" /></svg>