<svg height="512" viewBox="0 0 58 52" width="512" xmlns="http://www.w3.org/2000/svg"><g id="Page-1" fill="none" fill-rule="evenodd"><g id="019---Woodpecker" fill-rule="nonzero"><path id="Shape" d="m36.53 19.38c-5.05.89-12.01-3.01-17.53-6.38-4.98-3.04-13 1-15 6-3-4-3-7-3-7 .2612287.2726129.6224312.4267594 1 .4267594s.7387713-.1541465 1-.4267594c-3-5-3-12-3-12s1.96 2.94 8.78 4.93c-.15853906-.12787314-.24137964-.32744363-.22-.53.04223765-.49328423.19245283-.97124161.44-1.4 0 0 2 2 7 3 4.5.9 15.47 3.42 20.53 13.38z" fill="#e64c3c"/><path id="Shape" d="m27 39c6 6 7 10 7 10s-1 3-5 2c-1.8343664 1.1511164-4.1656336 1.1511164-6 0-2.1763128 1.2105887-4.8236872 1.2105887-7 0 0 0-5 1-7-2 0 0-5 0-6-3-.62110281-3.9707919-.95530136-7.9811744-1-12 0-6 2-15 2-15 2-5 10.02-9.04 15-6 5.52 3.37 12.48 7.27 17.53 6.38h.01c.5935524 1.1607558 1.0821633 2.3722429 1.46 3.62l.45.9 2.55 5.1-11.26-4.52c-4.85-1.8-15.84-.76-15.84 3.11 0 1.04-.42 3.89 1.1 5.41 1.3692257 1.2505617 3.1460354 1.9612856 5 2 1.7143074.010311 3.3950511.4762256 4.87 1.35.5954342.9696031 1.3111134 1.8600021 2.13 2.65z" fill="#547580"/><circle id="Oval" cx="24" cy="18.001" fill="#f0c419" r="3.001"/><path id="Shape" d="m11 37c-.1270404-.0000289-.2529257-.0241202-.371-.071-1.66093237-.5362784-3.01258935-1.7583394-3.713-3.357-.40124759-1.1247184-.40900371-2.3523013-.022-3.482-.44618685-.8120626-.56598911-1.763686-.335-2.661.53352797-1.4517207 1.60576136-2.6421361 2.994-3.324.31939544-.1607695.7002985-.1389312.9992267.0572886s.4704672.5370106.45.894c-.0204672.3569893-.2298313.6759419-.5492267.8367114-.87826935.4277982-1.57378291 1.156668-1.96 2.054-.11517645.5259818.01021091 1.0759263.342 1.5.19852728.2980117.22255657.679429.063 1-.33429521.7700955-.36994338 1.6370591-.1 2.432.51632237 1.057995 1.4507508 1.8525129 2.578 2.192.4466399.1779002.7034725.6484519.6114928 1.1203369-.0919796.4718849-.5067357.8115308-.9874928.8086631z" fill="#35495e"/><path id="Shape" d="m43 33s-9 0-13-1c-3.34-.83-7.37.42-5.13 4.35-1.4749489-.8737744-3.1556926-1.339689-4.87-1.35-1.8539646-.0387144-3.6307743-.7494383-5-2-1.52-1.52-1.1-4.37-1.1-5.41 0-3.87 10.99-4.91 15.84-3.11l11.26 4.52z" fill="#ecf0f1"/><path id="Shape" d="m58 35c-2-2-13.894-9.3-22-12-3-1-7 0-8 1s6 6 15 9c6 2 15 2 15 2z" fill="#3f5c6c"/><path id="Shape" d="m38 28c-.2651948-.0000566-.5195073-.1054506-.707-.293l-1-1c-.3904653-.3910176-.3900176-1.0245347.001-1.415s1.0245347-.3900176 1.415.001l1 1c.2861664.2862515.3715538.7167797.2162966 1.0905795-.1552573.3737999-.5205366.6171442-.9252966.6164205z" fill="#35495e"/><circle id="Oval" cx="24.5" cy="18" fill="#35495e" r="1.5"/><circle id="Oval" cx="23" cy="17" fill="#ecf0f1" r="1"/></g></g></svg>