<?xml version="1.0" standalone="no"?>
<!DOCTYPE svg PUBLIC "-//W3C//DTD SVG 20010904//EN"
 "http://www.w3.org/TR/2001/REC-SVG-20010904/DTD/svg10.dtd">
<svg version="1.0" xmlns="http://www.w3.org/2000/svg"
 viewBox="0 0 2600.000000 2600.000000"
 preserveAspectRatio="xMidYMid meet">
<metadata>
Created by potrace 1.15, written by Peter Selinger 2001-2017
</metadata>
<g transform="translate(0.000000,2600.000000) scale(0.100000,-0.100000)"
fill="#000000" stroke="none">
<path d="M3580 22787 c0 -3 27 -46 61 -96 33 -49 118 -202 189 -340 203 -395
246 -443 318 -355 46 56 80 74 138 74 123 0 296 -139 537 -432 44 -54 84 -98
90 -98 14 0 2 171 -18 245 -9 32 -41 122 -71 200 -77 192 -105 275 -93 275 5
0 53 -5 107 -10 131 -15 282 -52 407 -100 97 -39 103 -42 108 -73 7 -50 -10
-445 -28 -610 -58 -551 -182 -946 -356 -1132 l-61 -65 60 0 c107 0 235 64 354
177 32 31 58 54 58 50 0 -3 -15 -79 -34 -169 -142 -671 -199 -1116 -199 -1558
-1 -374 31 -617 119 -906 40 -134 138 -369 130 -314 -69 481 -75 850 -21 1385
36 358 92 689 256 1520 142 723 181 964 224 1368 5 40 10 57 19 54 38 -15 186
-38 283 -44 l112 -8 -40 -90 c-121 -273 -255 -644 -343 -952 -224 -782 -316
-1613 -286 -2578 29 -928 25 -1144 -20 -1334 l-21 -84 36 -55 c20 -29 38 -52
40 -50 9 8 28 166 100 808 116 1034 171 1450 265 2006 153 897 340 1588 560
2069 l32 69 21 -29 c61 -85 144 -130 302 -164 55 -12 104 -26 108 -30 4 -4
-19 -41 -51 -82 -322 -404 -567 -985 -726 -1724 -97 -449 -156 -896 -241
-1825 -67 -733 -120 -1074 -195 -1273 -11 -27 -16 -56 -12 -63 22 -38 208
-294 214 -294 11 0 91 162 131 267 131 338 212 771 317 1688 131 1148 228
1688 397 2210 104 319 231 608 375 848 l71 119 86 -89 c91 -95 146 -133 243
-168 l58 -21 -98 -120 c-54 -65 -142 -173 -197 -239 -280 -340 -420 -568 -505
-824 -52 -154 -71 -268 -71 -427 -1 -116 14 -275 28 -297 3 -4 37 59 77 140
137 279 343 634 538 926 114 171 175 257 385 538 l184 247 56 -15 c75 -19 164
-65 213 -109 l39 -35 -153 -152 c-869 -866 -1431 -2208 -1760 -4202 -55 -333
-107 -715 -99 -728 3 -7 43 -63 87 -125 l80 -113 19 88 c146 694 304 1286 511
1908 436 1308 965 2352 1515 2983 l20 23 73 -36 c45 -22 106 -42 158 -51 131
-24 230 -45 230 -49 0 -2 -79 -81 -175 -176 -291 -287 -480 -514 -690 -829
-532 -799 -890 -1812 -1089 -3085 -48 -305 -124 -961 -113 -972 3 -2 29 8 59
23 221 112 374 295 489 584 63 161 119 367 219 815 91 408 139 609 186 780
239 867 612 1605 1153 2285 111 138 312 370 322 370 8 0 140 -143 164 -177 14
-20 10 -25 -63 -94 -369 -346 -711 -829 -938 -1319 -232 -505 -363 -934 -580
-1903 -179 -800 -270 -1102 -420 -1385 -133 -253 -305 -445 -494 -552 -11 -6
11 -47 109 -194 l123 -185 42 21 c398 203 692 555 890 1066 113 290 169 503
331 1262 206 961 336 1383 579 1885 182 374 374 670 626 964 82 96 96 109 111
98 9 -6 59 -42 111 -79 108 -76 126 -94 112 -112 -5 -7 -40 -51 -77 -97 -246
-303 -489 -753 -688 -1269 -164 -428 -290 -832 -559 -1800 -256 -919 -398
-1334 -585 -1715 -97 -196 -210 -374 -317 -495 -71 -81 -187 -184 -235 -209
-13 -6 -23 -15 -23 -20 0 -5 34 -69 76 -142 42 -74 100 -182 130 -241 30 -60
58 -108 63 -108 16 0 190 115 271 179 44 35 129 114 188 176 193 201 335 413
497 740 121 245 190 417 291 720 157 473 256 862 464 1830 131 607 199 903
267 1150 127 468 253 770 404 975 84 115 69 117 183 -33 93 -122 99 -131 85
-152 -8 -12 -51 -78 -97 -146 -206 -307 -373 -739 -531 -1374 -74 -297 -127
-546 -256 -1200 -186 -943 -278 -1354 -394 -1755 -207 -718 -462 -1254 -774
-1625 -90 -108 -228 -242 -314 -307 -51 -39 -53 -42 -47 -77 14 -75 75 -306
83 -314 10 -10 158 75 284 163 109 77 346 309 439 430 443 576 736 1379 983
2690 25 135 97 558 161 940 126 765 175 1035 235 1305 102 453 227 799 361
998 l45 67 85 -112 c174 -229 304 -360 425 -428 48 -28 53 -33 47 -58 -28
-122 -80 -320 -164 -622 -251 -900 -349 -1405 -391 -1999 -15 -211 -6 -709 15
-891 94 -791 361 -1447 827 -2025 103 -128 252 -288 225 -243 -401 682 -608
1340 -677 2153 -15 178 -15 665 0 860 48 627 157 1171 406 2040 91 315 126
444 149 546 6 25 2 29 -72 59 -95 38 -292 139 -274 139 38 2 -1 71 -136 243
-177 226 -236 319 -230 361 3 20 11 23 83 28 99 7 125 15 125 38 0 25 -27 47
-205 163 -296 193 -308 256 -55 304 113 22 145 32 164 52 39 44 -42 91 -334
196 -341 122 -450 174 -450 211 0 17 39 39 100 55 25 6 53 19 63 27 55 50 -15
101 -313 228 -234 100 -340 160 -340 195 0 14 57 48 95 56 91 19 109 61 51
112 -50 44 -137 89 -346 181 -226 99 -292 136 -288 159 3 16 23 22 136 38 18
3 32 11 32 18 0 21 -72 48 -395 144 -416 125 -558 180 -631 244 -44 38 -43 63
3 110 33 34 36 41 27 65 -17 49 -115 88 -406 160 -252 62 -318 83 -318 103 0
5 24 17 53 28 28 11 52 26 52 33 0 23 -92 49 -371 104 -149 30 -308 63 -354
75 -88 22 -160 54 -160 70 0 14 39 36 100 55 145 46 88 59 -335 80 -367 18
-515 32 -580 53 -69 23 -70 43 -3 86 64 41 80 58 72 79 -38 101 -896 102
-1391 2 -67 -14 -156 -25 -197 -25 -92 0 -260 31 -312 58 -61 31 -152 101
-275 213 -142 128 -217 184 -294 220 -56 27 -155 49 -155 36z"/>
<path d="M3558 22680 c-9 -14 -25 -54 -34 -90 -26 -92 -26 -411 -1 -562 40
-240 110 -459 187 -589 44 -75 124 -163 143 -156 17 5 21 72 7 142 -7 33 -48
190 -92 350 -123 449 -182 720 -190 880 l-3 50 -17 -25z"/>
<path d="M3062 22478 c-90 -242 -24 -639 195 -1163 81 -193 255 -545 269 -545
19 0 47 45 83 135 18 44 43 98 55 121 l23 40 -44 75 c-75 130 -150 314 -244
604 -49 154 -111 339 -136 410 -45 129 -127 308 -162 354 l-18 24 -21 -55z"/>
<path d="M4071 20688 c-43 -386 -79 -547 -157 -706 -52 -106 -136 -204 -224
-261 -64 -41 -57 -46 60 -39 364 21 557 580 384 1113 -15 44 -30 83 -33 88 -4
4 -17 -84 -30 -195z"/>
<path d="M3785 20834 c-169 -88 -518 -577 -1088 -1524 -242 -403 -638 -1082
-634 -1087 11 -11 439 465 699 778 717 863 1178 1553 1178 1764 0 73 -80 108
-155 69z"/>
<path d="M4312 20132 c-90 -178 -133 -284 -237 -592 -98 -290 -156 -425 -242
-569 -76 -127 -101 -153 -173 -189 -50 -25 -65 -27 -165 -26 -69 0 -155 9
-230 23 -258 48 -362 38 -453 -44 -46 -42 -92 -109 -81 -119 3 -3 43 -1 90 4
123 14 314 12 548 -6 392 -31 467 -15 553 111 138 203 326 787 438 1359 17 88
29 167 27 175 -2 9 -36 -48 -75 -127z"/>
<path d="M4504 19967 c-162 -186 -247 -487 -230 -824 9 -178 26 -320 85 -693
72 -454 84 -572 85 -820 2 -348 -45 -573 -168 -819 -26 -51 -46 -95 -44 -97 2
-2 85 23 184 56 l179 59 24 58 c52 127 65 228 65 483 -1 265 -8 339 -99 930
-69 449 -92 633 -106 862 -18 282 2 571 51 764 11 43 18 79 16 81 -2 2 -21
-16 -42 -40z"/>
<path d="M4762 19760 c-30 -112 -34 -148 -39 -353 -7 -272 2 -378 82 -1022 85
-674 89 -729 89 -1015 1 -189 -3 -266 -16 -336 -10 -50 -21 -99 -24 -109 -6
-15 -4 -17 17 -11 13 3 91 24 173 46 82 21 150 41 153 44 8 8 -18 332 -43 520
-32 247 -94 610 -194 1136 -109 572 -148 801 -168 988 -17 154 -18 156 -30
112z"/>
<path d="M3351 19443 c-75 -23 -147 -93 -215 -213 -48 -84 -52 -96 -36 -102
58 -22 283 -50 371 -46 179 7 255 72 298 256 11 47 19 87 17 89 -1 2 -47 10
-102 18 -126 19 -263 18 -333 -2z"/>
<path d="M3543 18389 c-278 -14 -1160 -104 -1176 -119 -18 -16 213 -87 378
-116 132 -24 471 -28 695 -10 349 29 376 24 423 -76 31 -67 48 -141 87 -393
17 -110 39 -240 50 -290 18 -90 72 -268 89 -293 21 -33 89 112 117 249 43 212
-20 526 -166 824 -65 135 -110 202 -143 214 -38 14 -195 19 -354 10z"/>
<path d="M1417 17960 c-95 -24 -165 -81 -251 -204 -175 -254 -235 -487 -223
-875 10 -338 80 -578 248 -850 137 -223 311 -316 476 -256 l52 19 113 -46
c140 -57 219 -78 294 -78 79 0 153 35 193 90 69 95 106 267 98 450 -8 191 -54
295 -201 460 -228 255 -255 292 -302 408 -35 88 -52 162 -69 314 -19 164 -45
269 -90 363 -73 153 -211 236 -338 205z"/>
<path d="M2070 17940 c17 -33 109 -87 190 -113 91 -29 196 -49 445 -82 374
-50 455 -76 549 -175 156 -163 237 -489 222 -890 -4 -96 -9 -190 -12 -208 l-6
-32 107 37 c64 23 111 45 117 56 20 38 38 174 38 289 0 250 -69 552 -176 774
-120 248 -209 275 -1079 329 -137 9 -279 20 -315 25 -93 14 -93 14 -80 -10z"/>
<path d="M10697 17903 c-111 -184 -204 -441 -282 -778 -68 -298 -116 -588
-215 -1325 -86 -638 -109 -797 -161 -1100 -177 -1036 -429 -1691 -805 -2090
-60 -63 -147 -139 -239 -207 l-30 -23 50 6 c200 23 357 104 520 268 334 336
594 978 790 1951 133 659 218 1324 325 2540 43 484 65 704 80 770 5 22 7 41 6
43 -2 2 -20 -23 -39 -55z"/>
<path d="M19670 17929 c-354 -9 -703 -34 -1177 -83 l-223 -23 -147 -88 c-587
-350 -1209 -767 -1638 -1098 -744 -575 -1260 -1116 -1513 -1587 -183 -340
-238 -630 -249 -1315 -10 -639 28 -1175 182 -2510 67 -582 105 -963 105 -1049
0 -28 3 -67 6 -87 l6 -36 87 -13 c47 -7 127 -18 178 -24 l92 -12 8 45 c15 89
8 1746 -10 2301 -19 598 -22 1198 -6 1404 18 238 38 317 128 501 448 920 1199
1718 2286 2430 386 254 716 442 1410 805 371 194 548 293 673 374 85 56 110
78 80 74 -7 -1 -132 -5 -278 -9z"/>
<path d="M17010 17669 c-623 -81 -1120 -141 -1395 -169 -314 -31 -283 -23
-310 -83 -143 -324 -371 -767 -471 -919 -89 -135 -119 -139 -148 -23 -29 116
-56 425 -56 645 0 58 -3 149 -7 203 l-6 97 -294 0 c-245 0 -293 -2 -293 -14 0
-8 6 -74 14 -148 18 -161 31 -369 51 -793 30 -639 58 -920 121 -1217 43 -205
150 -496 174 -472 4 5 25 50 45 99 301 736 812 1394 1460 1882 301 227 569
389 1122 679 319 167 459 246 503 283 14 11 23 20 20 19 -3 0 -241 -31 -530
-69z"/>
<path d="M12359 17676 c-40 -149 -119 -581 -149 -811 -44 -346 -62 -873 -41
-1205 42 -655 139 -1148 444 -2245 239 -859 319 -1213 376 -1665 34 -267 44
-463 39 -793 l-4 -313 104 -41 c70 -28 105 -38 107 -30 6 18 42 239 54 338 61
475 66 1032 15 1559 -44 463 -107 849 -293 1805 -200 1030 -265 1462 -306
2040 -25 356 -20 921 11 1248 4 37 5 67 3 67 -2 0 -82 20 -176 44 l-173 43
-11 -41z"/>
<path d="M21351 17644 c-1026 -101 -2151 -581 -3186 -1358 -774 -582 -1417
-1294 -1654 -1835 -94 -213 -233 -783 -326 -1341 -201 -1197 -239 -2314 -104
-3037 l21 -113 67 0 c96 0 418 22 431 30 7 4 7 22 1 56 -47 247 -60 834 -27
1169 176 1795 1073 3536 2388 4637 827 692 1789 1123 2856 1278 163 23 435 50
513 50 98 0 96 1 -118 130 -72 44 -208 117 -301 164 -161 81 -403 187 -419
185 -5 -1 -69 -7 -142 -15z"/>
<path d="M2176 17516 c481 -151 768 -385 850 -691 25 -94 29 -262 10 -390 -9
-60 -19 -119 -22 -131 -5 -20 0 -19 108 18 62 21 116 42 120 46 4 4 17 46 29
92 27 102 32 294 10 380 -20 85 -84 209 -143 278 -156 183 -430 317 -805 391
-81 16 -175 32 -208 36 -58 5 -56 4 51 -29z"/>
<path d="M13187 17508 c-38 -149 -61 -514 -53 -818 20 -776 116 -1552 432
-3505 278 -1717 341 -2226 333 -2675 l-4 -184 178 -52 c97 -29 179 -49 182
-45 14 23 27 311 27 596 -1 830 -91 1749 -411 4205 -187 1435 -239 1920 -244
2267 l-2 162 -35 5 c-124 19 -358 58 -376 62 -16 4 -23 0 -27 -18z"/>
<path d="M11820 17373 c-521 -1138 -604 -2182 -266 -3359 70 -243 158 -498
291 -849 229 -601 298 -812 334 -1025 25 -144 27 -305 6 -404 -8 -38 -13 -71
-11 -73 6 -7 96 185 120 257 49 148 59 223 59 410 0 288 -46 480 -261 1101
-166 478 -215 634 -272 864 -94 378 -126 633 -117 910 9 266 31 403 152 965
124 571 148 809 110 1065 -15 101 -62 275 -75 275 -4 0 -35 -62 -70 -137z"/>
<path d="M2160 17117 c0 -2 22 -18 49 -36 144 -93 320 -358 383 -576 19 -66
23 -104 23 -218 0 -87 4 -136 10 -134 6 2 47 16 92 31 l82 27 30 77 c53 139
65 192 65 287 1 77 -3 98 -26 147 -37 80 -70 121 -142 174 -106 80 -262 148
-449 194 -45 12 -90 23 -99 26 -10 3 -18 4 -18 1z"/>
<path d="M22980 16489 c-796 -58 -1351 -156 -1885 -334 -624 -207 -1100 -492
-1475 -881 -224 -232 -365 -441 -542 -803 -196 -398 -278 -538 -448 -766 -133
-177 -255 -310 -530 -575 -309 -298 -424 -438 -523 -635 -218 -438 -281 -1101
-201 -2145 9 -113 17 -207 19 -209 4 -4 208 62 261 84 l31 13 6 183 c27 758
206 1375 548 1884 200 298 393 501 804 848 105 88 256 226 336 306 174 175
234 263 280 416 17 55 37 123 45 150 26 83 84 205 145 302 359 574 1230 1067
2388 1352 365 90 801 164 1171 197 107 10 196 18 198 19 1 1 -21 43 -49 94
-68 121 -185 297 -279 415 l-75 95 -55 -1 c-30 0 -107 -5 -170 -9z"/>
<path d="M23758 15323 c-170 -248 -490 -486 -968 -720 -210 -103 -412 -190
-890 -388 -903 -373 -1277 -561 -1617 -814 -155 -115 -363 -321 -452 -446
-155 -221 -238 -465 -248 -730 l-4 -130 23 55 c96 223 323 411 783 650 285
149 643 302 1310 560 1049 407 1428 569 1750 749 138 78 331 206 404 269 l44
38 5 185 c6 250 -15 466 -71 700 l-22 91 -47 -69z"/>
<path d="M23871 14238 c0 -3 -12 -64 -26 -135 -78 -397 -241 -817 -474 -1221
l-82 -143 -24 -172 c-83 -588 -118 -1122 -118 -1797 0 -538 22 -929 71 -1265
l17 -120 6 240 c4 132 12 273 18 314 11 67 42 177 60 209 4 8 11 -93 14 -225
14 -548 94 -1100 211 -1458 39 -118 62 -167 52 -105 -20 109 -46 359 -57 525
-15 240 -6 897 15 1119 17 186 38 347 43 342 2 -2 8 -70 14 -152 5 -82 16
-207 24 -279 15 -125 79 -534 92 -585 13 -49 23 125 32 585 9 444 17 543 47
615 4 8 15 -41 25 -110 18 -125 106 -540 116 -550 3 -3 2 69 -1 160 -19 548
-16 1429 5 1375 4 -11 15 -81 24 -155 24 -200 72 -487 100 -597 25 -96 77
-219 110 -258 16 -20 16 -20 11 5 -104 443 -178 1145 -251 2370 -12 212 -26
482 -64 1300 -4 96 -9 172 -10 168z"/>
<path d="M10537 13830 c-3 -14 -8 -56 -12 -94 -23 -268 -169 -575 -427 -898
-123 -154 -441 -465 -733 -718 -354 -305 -520 -456 -591 -537 -67 -76 -114
-136 -114 -147 0 -11 161 -112 258 -160 l94 -47 126 133 c69 73 246 255 392
403 147 149 310 319 364 379 479 536 708 976 707 1363 0 120 -10 191 -40 288
-15 51 -19 56 -24 35z"/>
<path d="M23342 13083 c-17 -32 -148 -154 -213 -200 -84 -58 -251 -142 -373
-187 -300 -112 -654 -180 -1386 -266 -190 -22 -410 -49 -490 -61 -434 -62
-669 -145 -749 -265 -33 -50 -47 -114 -36 -164 l7 -32 52 7 c28 4 303 9 611
11 802 4 1076 28 1442 124 344 91 583 220 789 425 158 156 258 316 333 529 29
83 36 122 13 79z"/>
<path d="M10840 13033 c-6 -32 -35 -107 -64 -168 -94 -196 -264 -434 -671
-940 -245 -306 -374 -469 -390 -494 -17 -29 117 61 261 175 113 89 209 173
456 397 417 378 561 477 701 477 31 0 61 -6 73 -15 32 -24 35 -17 14 35 -52
131 -133 272 -233 404 -33 44 -77 104 -98 133 l-37 54 -12 -58z"/>
<path d="M19030 12417 c-47 -68 -138 -140 -268 -212 -164 -90 -235 -140 -303
-212 -204 -218 -217 -587 -43 -1208 20 -71 40 -134 45 -139 10 -11 256 162
332 234 5 4 -3 42 -17 84 -47 137 -68 259 -69 401 0 214 38 352 189 682 85
185 178 412 172 418 -2 2 -19 -20 -38 -48z"/>
<path d="M11255 12206 c-178 -41 -379 -150 -614 -334 -114 -89 -395 -342 -387
-349 2 -2 28 9 57 26 83 47 250 117 368 155 376 122 735 120 1113 -5 65 -21
120 -39 123 -39 10 0 4 30 -21 106 -74 222 -191 370 -336 426 -68 26 -219 33
-303 14z"/>
<path d="M22590 11695 c-68 -35 -240 -90 -370 -119 -209 -46 -341 -62 -1030
-121 -668 -58 -976 -153 -1154 -357 -38 -44 -106 -160 -106 -183 0 -4 30 20
66 53 116 107 286 174 539 213 173 27 548 35 1020 21 337 -10 622 -5 720 14
33 6 44 18 137 158 56 83 130 193 166 244 35 51 63 95 61 97 -2 1 -24 -7 -49
-20z"/>
<path d="M10997 11520 c-372 -43 -865 -190 -1182 -354 l-110 -57 110 6 c389
20 1533 182 1809 256 l38 10 -21 23 c-34 36 -112 75 -198 97 -90 24 -319 33
-446 19z"/>
<path d="M10535 11044 c-193 -15 -613 -71 -663 -89 -9 -3 -1 -21 26 -57 21
-29 52 -75 68 -102 l29 -48 290 5 c390 8 693 42 945 107 112 30 250 85 250
101 0 12 -121 47 -224 65 -66 12 -170 17 -381 19 -159 1 -312 1 -340 -1z"/>
<path d="M20640 10630 c-263 -11 -437 -46 -502 -100 l-23 -19 51 -1 c58 0 139
-15 577 -104 489 -100 756 -136 1022 -136 139 0 305 15 315 28 3 4 4 77 2 163
l-4 156 -606 7 c-334 4 -616 8 -627 10 -11 2 -103 0 -205 -4z"/>
<path d="M10615 10459 c-245 -13 -475 -32 -475 -39 0 -12 33 -105 40 -113 10
-11 81 -20 410 -51 194 -19 1013 -86 1047 -86 2 0 3 65 3 144 l0 143 -67 6
c-90 9 -780 6 -958 -4z"/>
<path d="M20546 10050 c-85 -18 -216 -72 -216 -89 0 -8 384 -118 595 -170 455
-113 858 -164 1111 -141 71 6 133 15 138 20 4 4 -4 79 -19 167 l-28 158 -246
1 c-210 1 -287 6 -526 33 -367 43 -673 51 -809 21z"/>
<path d="M11585 9888 c-322 -35 -923 -36 -1254 -2 l-63 7 7 -34 c4 -19 15 -83
24 -144 l16 -110 96 -32 c104 -35 268 -67 428 -83 187 -18 639 -10 789 15 l32
6 -1 107 c-1 59 -4 145 -8 192 l-6 85 -60 -7z"/>
<path d="M20515 9476 l-50 -13 120 -58 c540 -259 1114 -392 1543 -357 80 7
150 16 154 20 6 6 -19 187 -37 270 -5 21 -9 22 -143 22 -155 0 -294 13 -697
65 -527 67 -770 80 -890 51z"/>
<path d="M11530 9210 c-178 -30 -305 -41 -570 -47 -230 -5 -517 6 -572 23 -20
6 -23 -17 -12 -74 5 -26 17 -35 93 -70 172 -79 400 -143 638 -178 119 -18 423
-24 516 -11 l57 8 0 102 c0 56 -3 139 -7 185 -5 67 -9 82 -22 81 -9 -1 -63 -9
-121 -19z"/>
<path d="M20625 8869 c38 -50 130 -120 215 -163 146 -76 311 -124 560 -163
208 -32 879 -21 937 16 14 8 -9 247 -23 244 -237 -41 -467 -56 -769 -50 -266
6 -438 21 -627 57 -96 18 -239 56 -292 76 -19 7 -19 7 -1 -17z"/>
<path d="M11570 8624 c-260 -107 -690 -172 -978 -148 -63 5 -116 6 -118 2 -11
-17 56 -72 130 -108 157 -75 334 -105 570 -97 196 7 331 37 479 107 l47 22 0
82 c0 92 -10 187 -19 185 -3 -1 -53 -21 -111 -45z"/>
<path d="M22259 8329 c-67 -15 -522 -79 -729 -101 -159 -17 -269 -22 -492 -22
-159 -1 -288 -2 -288 -3 0 -1 84 -22 188 -47 318 -77 607 -123 912 -147 160
-12 476 -7 491 8 5 5 12 79 15 166 l7 157 -34 -1 c-19 -1 -50 -5 -70 -10z"/>
<path d="M11607 8074 c-213 -108 -346 -134 -735 -141 l-283 -6 22 -23 c26 -28
135 -86 225 -120 90 -34 277 -79 416 -100 106 -16 480 -27 490 -14 2 3 -1 82
-8 175 -7 94 -13 194 -13 223 -1 35 -5 52 -13 51 -7 0 -53 -21 -101 -45z"/>
<path d="M22220 7789 c-221 -69 -440 -99 -707 -99 -244 0 -436 26 -621 85 -42
13 -78 23 -80 21 -6 -6 110 -76 193 -116 174 -83 418 -151 685 -191 120 -17
201 -23 355 -23 l199 -1 23 83 c28 100 62 272 54 271 -3 -1 -49 -14 -101 -30z"/>
<path d="M11560 7314 c-403 -68 -534 -68 -694 1 -17 7 -17 6 -3 -21 22 -43 55
-69 127 -103 132 -62 331 -98 597 -108 162 -6 173 -5 179 12 12 29 10 248 -1
250 -5 2 -98 -12 -205 -31z"/>
<path d="M21110 7117 c213 -168 489 -347 642 -416 107 -48 103 -48 123 6 10
27 39 89 64 138 25 50 47 93 49 96 2 4 -30 14 -70 23 -91 21 -808 166 -817
166 -3 0 1 -6 9 -13z"/>
<path d="M9708 3613 c-106 -229 -191 -475 -223 -648 -13 -69 -14 -89 -4 -95 6
-5 64 -14 127 -20 157 -17 461 -7 607 20 201 36 188 35 181 14 -12 -41 -37
-204 -43 -285 l-6 -85 91 -22 c358 -86 728 -96 970 -26 105 31 161 59 171 87
32 86 46 476 22 617 -20 118 -13 111 -79 85 -187 -76 -604 -92 -837 -33 -79
20 -90 25 -86 43 2 11 9 47 16 80 l12 60 -36 8 c-241 53 -561 165 -773 273
-26 13 -51 24 -56 24 -5 0 -29 -44 -54 -97z"/>
<path d="M21464 3457 c-79 -95 -150 -213 -184 -305 -33 -91 -66 -260 -53 -272
14 -14 250 -49 403 -61 363 -27 718 42 803 157 10 13 27 61 38 106 29 114 29
250 0 340 l-21 67 -46 -20 c-83 -37 -180 -52 -344 -51 -215 1 -349 25 -530 95
-10 4 -32 -15 -66 -56z"/>
<path d="M19654 3163 c-120 -146 -184 -288 -192 -432 -5 -87 10 -182 32 -200
19 -16 277 -39 506 -47 270 -8 663 17 709 45 7 4 16 50 22 102 11 107 15 436
6 446 -4 3 -100 12 -214 19 -375 24 -587 56 -729 109 -37 14 -70 25 -75 25 -5
0 -34 -30 -65 -67z"/>
</g>
</svg>
